<svg width="174" height="160" viewBox="0 0 174 160" fill="none" xmlns="http://www.w3.org/2000/svg">
<rect y="0.000244141" width="174" height="160" rx="12" fill="white"/>
<rect x="0.5" y="0.500244" width="173" height="159" rx="11.5" stroke="black" stroke-opacity="0.1"/>
<path d="M17.6314 30.0002V19.8184H21.0717C21.8705 19.8184 22.5234 19.9626 23.0305 20.251C23.541 20.536 23.9188 20.9221 24.1641 21.4093C24.4093 21.8966 24.532 22.4401 24.532 23.04C24.532 23.6399 24.4093 24.1851 24.1641 24.6757C23.9221 25.1662 23.5476 25.5573 23.0405 25.849C22.5334 26.1373 21.8838 26.2815 21.0916 26.2815H18.6257V25.1877H21.0518C21.5987 25.1877 22.0379 25.0933 22.3693 24.9044C22.7008 24.7154 22.9411 24.4602 23.0902 24.1387C23.2427 23.8139 23.3189 23.4477 23.3189 23.04C23.3189 22.6323 23.2427 22.2678 23.0902 21.9463C22.9411 21.6248 22.6991 21.3729 22.3643 21.1906C22.0296 21.005 21.5855 20.9122 21.032 20.9122H18.8643V30.0002H17.6314ZM26.359 30.0002V22.3639H27.4925V23.5173H27.5721C27.7113 23.1394 27.9632 22.8329 28.3278 22.5975C28.6924 22.3622 29.1033 22.2446 29.5607 22.2446C29.6469 22.2446 29.7546 22.2462 29.8839 22.2495C30.0131 22.2528 30.1109 22.2578 30.1772 22.2644V23.4576C30.1374 23.4477 30.0463 23.4328 29.9038 23.4129C29.7646 23.3897 29.6171 23.3781 29.4613 23.3781C29.0901 23.3781 28.7586 23.456 28.467 23.6117C28.1786 23.7642 27.9499 23.9763 27.7809 24.2481C27.6152 24.5166 27.5323 24.8232 27.5323 25.1679V30.0002H26.359ZM34.4379 30.1593C33.7485 30.1593 33.1436 29.9953 32.6232 29.6671C32.1062 29.339 31.7018 28.88 31.4102 28.29C31.1218 27.7001 30.9776 27.0107 30.9776 26.2218C30.9776 25.4264 31.1218 24.732 31.4102 24.1387C31.7018 23.5455 32.1062 23.0848 32.6232 22.7566C33.1436 22.4285 33.7485 22.2644 34.4379 22.2644C35.1272 22.2644 35.7305 22.4285 36.2475 22.7566C36.7679 23.0848 37.1722 23.5455 37.4606 24.1387C37.7522 24.732 37.8981 25.4264 37.8981 26.2218C37.8981 27.0107 37.7522 27.7001 37.4606 28.29C37.1722 28.88 36.7679 29.339 36.2475 29.6671C35.7305 29.9953 35.1272 30.1593 34.4379 30.1593ZM34.4379 29.1054C34.9615 29.1054 35.3924 28.9711 35.7305 28.7027C36.0685 28.4342 36.3188 28.0812 36.4812 27.6437C36.6436 27.2062 36.7248 26.7323 36.7248 26.2218C36.7248 25.7114 36.6436 25.2358 36.4812 24.795C36.3188 24.3542 36.0685 23.9979 35.7305 23.7261C35.3924 23.4543 34.9615 23.3184 34.4379 23.3184C33.9142 23.3184 33.4833 23.4543 33.1452 23.7261C32.8072 23.9979 32.5569 24.3542 32.3945 24.795C32.2321 25.2358 32.1509 25.7114 32.1509 26.2218C32.1509 26.7323 32.2321 27.2062 32.3945 27.6437C32.5569 28.0812 32.8072 28.4342 33.1452 28.7027C33.4833 28.9711 33.9142 29.1054 34.4379 29.1054ZM42.5726 30.1593C41.9363 30.1593 41.3745 29.9986 40.8873 29.6771C40.4 29.3523 40.0189 28.8949 39.7438 28.3049C39.4687 27.7117 39.3311 27.0107 39.3311 26.2019C39.3311 25.3999 39.4687 24.7038 39.7438 24.1139C40.0189 23.5239 40.4017 23.0682 40.8922 22.7467C41.3828 22.4252 41.9495 22.2644 42.5925 22.2644C43.0897 22.2644 43.4824 22.3473 43.7708 22.513C44.0624 22.6754 44.2845 22.861 44.437 23.0698C44.5927 23.2753 44.7137 23.4444 44.7999 23.5769H44.8993V19.8184H46.0726V30.0002H44.9391V28.8269H44.7999C44.7137 28.9662 44.5911 29.1418 44.432 29.3539C44.2729 29.5627 44.0459 29.75 43.7509 29.9157C43.4559 30.0781 43.0632 30.1593 42.5726 30.1593ZM42.7317 29.1054C43.2024 29.1054 43.6001 28.9827 43.9249 28.7375C44.2497 28.4889 44.4966 28.1458 44.6657 27.7083C44.8347 27.2675 44.9192 26.7588 44.9192 26.1821C44.9192 25.612 44.8364 25.1132 44.6706 24.6856C44.5049 24.2547 44.2596 23.92 43.9348 23.6814C43.61 23.4394 43.209 23.3184 42.7317 23.3184C42.2346 23.3184 41.8203 23.446 41.4888 23.7012C41.1607 23.9531 40.9138 24.2962 40.748 24.7304C40.5856 25.1612 40.5044 25.6451 40.5044 26.1821C40.5044 26.7256 40.5873 27.2195 40.753 27.6636C40.9221 28.1044 41.1706 28.4557 41.4988 28.7176C41.8302 28.9761 42.2412 29.1054 42.7317 29.1054ZM53.1969 26.8781V22.3639H54.3702V30.0002H53.1969V28.7076H53.1174C52.9384 29.0954 52.66 29.4252 52.2821 29.697C51.9043 29.9654 51.427 30.0997 50.8503 30.0997C50.373 30.0997 49.9488 29.9953 49.5776 29.7865C49.2064 29.5743 48.9147 29.2562 48.7026 28.8319C48.4905 28.4044 48.3844 27.8658 48.3844 27.2162V22.3639H49.5577V27.1366C49.5577 27.6934 49.7135 28.1376 50.025 28.469C50.3399 28.8004 50.7409 28.9662 51.2282 28.9662C51.5198 28.9662 51.8165 28.8916 52.1181 28.7424C52.423 28.5933 52.6782 28.3646 52.8837 28.0564C53.0925 27.7481 53.1969 27.3554 53.1969 26.8781ZM59.6214 30.1593C58.9055 30.1593 58.2891 29.9903 57.772 29.6522C57.255 29.3142 56.8572 28.8485 56.5788 28.2552C56.3004 27.6619 56.1612 26.9841 56.1612 26.2218C56.1612 25.4463 56.3037 24.7618 56.5888 24.1686C56.8771 23.572 57.2782 23.1063 57.7919 22.7716C58.3089 22.4335 58.9122 22.2644 59.6016 22.2644C60.1385 22.2644 60.6224 22.3639 61.0533 22.5627C61.4841 22.7616 61.8371 23.04 62.1122 23.398C62.3873 23.7559 62.558 24.1735 62.6243 24.6508H61.451C61.3615 24.3028 61.1626 23.9946 60.8544 23.7261C60.5495 23.4543 60.1385 23.3184 59.6214 23.3184C59.1641 23.3184 58.763 23.4377 58.4183 23.6764C58.0769 23.9117 57.8101 24.2448 57.6179 24.6757C57.429 25.1032 57.3345 25.6054 57.3345 26.1821C57.3345 26.772 57.4273 27.2858 57.6129 27.7233C57.8018 28.1608 58.067 28.5005 58.4084 28.7424C58.7531 28.9844 59.1574 29.1054 59.6214 29.1054C59.9264 29.1054 60.2031 29.0523 60.4517 28.9463C60.7003 28.8402 60.9107 28.6877 61.0831 28.4889C61.2554 28.29 61.3781 28.0514 61.451 27.773H62.6243C62.558 28.2237 62.3939 28.6297 62.1321 28.991C61.8736 29.349 61.5305 29.634 61.103 29.8461C60.6787 30.0549 60.1849 30.1593 59.6214 30.1593ZM67.6605 22.3639V23.3582H63.7031V22.3639H67.6605ZM64.8565 20.5343H66.0298V27.8127C66.0298 28.1442 66.0779 28.3928 66.174 28.5585C66.2734 28.7209 66.3994 28.8303 66.5518 28.8866C66.7076 28.9396 66.8717 28.9662 67.044 28.9662C67.1733 28.9662 67.2794 28.9595 67.3622 28.9463C67.4451 28.9297 67.5114 28.9164 67.5611 28.9065L67.7997 29.9605C67.7202 29.9903 67.6091 30.0201 67.4666 30.05C67.3241 30.0831 67.1435 30.0997 66.9247 30.0997C66.5933 30.0997 66.2685 30.0284 65.9503 29.8859C65.6354 29.7434 65.3736 29.5263 65.1648 29.2346C64.9593 28.943 64.8565 28.5751 64.8565 28.1309V20.5343ZM69.4254 30.0002V22.3639H70.5987V30.0002H69.4254ZM70.022 21.0912C69.7933 21.0912 69.5961 21.0133 69.4304 20.8575C69.268 20.7017 69.1868 20.5144 69.1868 20.2957C69.1868 20.0769 69.268 19.8897 69.4304 19.7339C69.5961 19.5781 69.7933 19.5002 70.022 19.5002C70.2507 19.5002 70.4463 19.5781 70.6087 19.7339C70.7744 19.8897 70.8572 20.0769 70.8572 20.2957C70.8572 20.5144 70.7744 20.7017 70.6087 20.8575C70.4463 21.0133 70.2507 21.0912 70.022 21.0912ZM78.992 22.3639L76.1681 30.0002H74.975L72.1511 22.3639H73.4238L75.5318 28.4491H75.6113L77.7193 22.3639H78.992ZM80.5407 30.0002V22.3639H81.714V30.0002H80.5407ZM81.1373 21.0912C80.9086 21.0912 80.7114 21.0133 80.5456 20.8575C80.3832 20.7017 80.302 20.5144 80.302 20.2957C80.302 20.0769 80.3832 19.8897 80.5456 19.7339C80.7114 19.5781 80.9086 19.5002 81.1373 19.5002C81.3659 19.5002 81.5615 19.5781 81.7239 19.7339C81.8896 19.8897 81.9725 20.0769 81.9725 20.2957C81.9725 20.5144 81.8896 20.7017 81.7239 20.8575C81.5615 21.0133 81.3659 21.0912 81.1373 21.0912ZM87.1839 22.3639V23.3582H83.2266V22.3639H87.1839ZM84.38 20.5343H85.5533V27.8127C85.5533 28.1442 85.6013 28.3928 85.6974 28.5585C85.7969 28.7209 85.9228 28.8303 86.0753 28.8866C86.2311 28.9396 86.3951 28.9662 86.5675 28.9662C86.6967 28.9662 86.8028 28.9595 86.8857 28.9463C86.9685 28.9297 87.0348 28.9164 87.0845 28.9065L87.3232 29.9605C87.2436 29.9903 87.1326 30.0201 86.9901 30.05C86.8475 30.0831 86.6669 30.0997 86.4482 30.0997C86.1167 30.0997 85.7919 30.0284 85.4737 29.8859C85.1589 29.7434 84.897 29.5263 84.6882 29.2346C84.4827 28.943 84.38 28.5751 84.38 28.1309V20.5343ZM89.7045 32.8639C89.5057 32.8639 89.3284 32.8473 89.1726 32.8142C89.0168 32.7843 88.9091 32.7545 88.8494 32.7247L89.1477 31.6906C89.4328 31.7635 89.6847 31.79 89.9034 31.7701C90.1222 31.7502 90.3161 31.6525 90.4851 31.4768C90.6574 31.3045 90.8149 31.0244 90.9574 30.6366L91.1761 30.04L88.3523 22.3639H89.625L91.733 28.4491H91.8125L93.9205 22.3639H95.1932L91.9517 31.1139C91.8059 31.5083 91.6252 31.8348 91.4098 32.0933C91.1944 32.3551 90.9441 32.549 90.6591 32.675C90.3774 32.8009 90.0592 32.8639 89.7045 32.8639ZM100.838 30.0002V19.8184H104.279C105.074 19.8184 105.727 19.9543 106.238 20.2261C106.748 20.4946 107.126 20.8641 107.371 21.3348C107.616 21.8054 107.739 22.3407 107.739 22.9406C107.739 23.5405 107.616 24.0725 107.371 24.5365C107.126 25.0005 106.75 25.3651 106.243 25.6302C105.735 25.8921 105.087 26.023 104.299 26.023H101.515V24.9093H104.259C104.802 24.9093 105.24 24.8298 105.571 24.6707C105.906 24.5116 106.148 24.2862 106.297 23.9946C106.45 23.6996 106.526 23.3483 106.526 22.9406C106.526 22.5329 106.45 22.1766 106.297 21.8717C106.145 21.5668 105.901 21.3314 105.566 21.1657C105.232 20.9967 104.789 20.9122 104.239 20.9122H102.071V30.0002H100.838ZM105.631 25.4264L108.137 30.0002H106.705L104.239 25.4264H105.631ZM111.882 30.1792C111.398 30.1792 110.959 30.0881 110.564 29.9058C110.17 29.7202 109.856 29.4534 109.624 29.1054C109.392 28.754 109.276 28.3298 109.276 27.8326C109.276 27.3951 109.363 27.0405 109.535 26.7687C109.707 26.4936 109.938 26.2782 110.226 26.1224C110.514 25.9666 110.833 25.8506 111.181 25.7744C111.532 25.6948 111.885 25.6319 112.24 25.5855C112.704 25.5258 113.08 25.4811 113.368 25.4512C113.66 25.4181 113.872 25.3634 114.004 25.2872C114.14 25.2109 114.208 25.0784 114.208 24.8894V24.8497C114.208 24.3591 114.074 23.978 113.806 23.7062C113.54 23.4344 113.138 23.2985 112.597 23.2985C112.037 23.2985 111.598 23.4212 111.28 23.6664C110.962 23.9117 110.738 24.1735 110.609 24.4519L109.495 24.0542C109.694 23.5902 109.959 23.2289 110.291 22.9704C110.625 22.7086 110.99 22.5263 111.384 22.4235C111.782 22.3175 112.173 22.2644 112.558 22.2644C112.803 22.2644 113.085 22.2943 113.403 22.3539C113.724 22.4103 114.034 22.5279 114.333 22.7069C114.634 22.8859 114.884 23.156 115.083 23.5173C115.282 23.8786 115.382 24.3625 115.382 24.969V30.0002H114.208V28.9662H114.149C114.069 29.1319 113.936 29.3092 113.751 29.4981C113.565 29.687 113.318 29.8478 113.01 29.9804C112.702 30.1129 112.326 30.1792 111.882 30.1792ZM112.061 29.1252C112.525 29.1252 112.916 29.0341 113.234 28.8518C113.555 28.6695 113.797 28.4342 113.96 28.1458C114.125 27.8575 114.208 27.5542 114.208 27.236V26.1622C114.159 26.2218 114.049 26.2765 113.88 26.3262C113.714 26.3726 113.522 26.4141 113.303 26.4505C113.088 26.4837 112.878 26.5135 112.672 26.54C112.47 26.5632 112.306 26.5831 112.18 26.5997C111.875 26.6394 111.59 26.7041 111.325 26.7936C111.063 26.8797 110.851 27.0107 110.688 27.1863C110.529 27.3587 110.45 27.594 110.45 27.8923C110.45 28.3 110.601 28.6082 110.902 28.817C111.207 29.0225 111.593 29.1252 112.061 29.1252ZM120.844 22.3639V23.3582H116.887V22.3639H120.844ZM118.04 20.5343H119.213V27.8127C119.213 28.1442 119.261 28.3928 119.358 28.5585C119.457 28.7209 119.583 28.8303 119.735 28.8866C119.891 28.9396 120.055 28.9662 120.228 28.9662C120.357 28.9662 120.463 28.9595 120.546 28.9463C120.629 28.9297 120.695 28.9164 120.745 28.9065L120.983 29.9605C120.904 29.9903 120.793 30.0201 120.65 30.05C120.508 30.0831 120.327 30.0997 120.108 30.0997C119.777 30.0997 119.452 30.0284 119.134 29.8859C118.819 29.7434 118.557 29.5263 118.348 29.2346C118.143 28.943 118.04 28.5751 118.04 28.1309V20.5343ZM125.729 30.1593C124.993 30.1593 124.358 29.9969 123.825 29.6721C123.294 29.344 122.885 28.8866 122.597 28.3C122.312 27.71 122.169 27.0239 122.169 26.2417C122.169 25.4595 122.312 24.7701 122.597 24.1735C122.885 23.5736 123.286 23.1063 123.8 22.7716C124.317 22.4335 124.92 22.2644 125.609 22.2644C126.007 22.2644 126.4 22.3307 126.788 22.4633C127.175 22.5959 127.528 22.8113 127.847 23.1096C128.165 23.4046 128.418 23.7957 128.607 24.2829C128.796 24.7701 128.891 25.37 128.891 26.0826V26.5798H123.004V25.5656H127.697C127.697 25.1347 127.611 24.7502 127.439 24.4122C127.27 24.0741 127.028 23.8073 126.713 23.6117C126.402 23.4162 126.034 23.3184 125.609 23.3184C125.142 23.3184 124.738 23.4344 124.396 23.6664C124.058 23.8951 123.798 24.1934 123.616 24.5613C123.433 24.9292 123.342 25.3236 123.342 25.7446V26.4207C123.342 26.9974 123.442 27.4863 123.641 27.8873C123.843 28.285 124.123 28.5883 124.481 28.7971C124.839 29.0026 125.255 29.1054 125.729 29.1054C126.037 29.1054 126.315 29.0623 126.564 28.9761C126.816 28.8866 127.033 28.754 127.215 28.5784C127.397 28.3994 127.538 28.1773 127.638 27.9122L128.771 28.2304C128.652 28.6148 128.451 28.9529 128.17 29.2446C127.888 29.5329 127.54 29.7583 127.126 29.9207C126.711 30.0798 126.246 30.1593 125.729 30.1593Z" fill="black"/>
<path d="M17.5121 53.0002L21.4155 45.2787V45.2105H16.9155V44.273H22.5064V45.2616L18.62 53.0002H17.5121ZM26.7049 53.1196C26.2049 53.1196 25.7546 53.0201 25.354 52.8213C24.9535 52.6224 24.6325 52.3497 24.391 52.0031C24.1495 51.6565 24.0174 51.2616 23.9947 50.8184H25.0174C25.0572 51.2133 25.2362 51.54 25.5543 51.7985C25.8754 52.0542 26.2589 52.1821 26.7049 52.1821C27.0629 52.1821 27.381 52.0983 27.6594 51.9306C27.9407 51.763 28.1609 51.5329 28.32 51.2403C28.4819 50.9448 28.5629 50.611 28.5629 50.2389C28.5629 49.8582 28.479 49.5187 28.3114 49.2204C28.1467 48.9193 27.9194 48.6821 27.6296 48.5088C27.3398 48.3355 27.0089 48.2474 26.6367 48.2446C26.3697 48.2417 26.0955 48.2829 25.8143 48.3681C25.533 48.4505 25.3015 48.5571 25.1197 48.6877L24.131 48.5684L24.6594 44.273H29.1935V45.2105H25.5458L25.239 47.7843H25.2901C25.4691 47.6423 25.6935 47.5244 25.9634 47.4306C26.2333 47.3369 26.5146 47.29 26.8072 47.29C27.3413 47.29 27.8171 47.4179 28.2347 47.6735C28.6552 47.9264 28.9847 48.273 29.2234 48.7133C29.4648 49.1537 29.5856 49.6565 29.5856 50.2218C29.5856 50.7787 29.4606 51.2758 29.2106 51.7133C28.9634 52.148 28.6225 52.4917 28.1879 52.7446C27.7532 52.9946 27.2589 53.1196 26.7049 53.1196ZM35.7273 51.3639V50.9037C35.7273 50.5855 35.7926 50.2943 35.9233 50.0301C36.0568 49.763 36.25 49.55 36.5028 49.3909C36.7585 49.2289 37.0682 49.148 37.4318 49.148C37.8011 49.148 38.1108 49.2289 38.3608 49.3909C38.6108 49.55 38.7997 49.763 38.9276 50.0301C39.0554 50.2943 39.1193 50.5855 39.1193 50.9037V51.3639C39.1193 51.6821 39.054 51.9747 38.9233 52.2417C38.7955 52.5059 38.6051 52.719 38.3523 52.8809C38.1023 53.04 37.7955 53.1196 37.4318 53.1196C37.0625 53.1196 36.7514 53.04 36.4986 52.8809C36.2457 52.719 36.054 52.5059 35.9233 52.2417C35.7926 51.9747 35.7273 51.6821 35.7273 51.3639ZM36.5966 50.9037V51.3639C36.5966 51.6281 36.6591 51.8653 36.7841 52.0755C36.9091 52.2829 37.125 52.3866 37.4318 52.3866C37.7301 52.3866 37.9403 52.2829 38.0625 52.0755C38.1875 51.8653 38.25 51.6281 38.25 51.3639V50.9037C38.25 50.6394 38.1903 50.4037 38.071 50.1963C37.9517 49.986 37.7386 49.8809 37.4318 49.8809C37.1335 49.8809 36.919 49.986 36.7884 50.1963C36.6605 50.4037 36.5966 50.6394 36.5966 50.9037ZM31.3807 46.3696V45.9093C31.3807 45.5912 31.446 45.3 31.5767 45.0358C31.7102 44.7687 31.9034 44.5556 32.1562 44.3966C32.4119 44.2346 32.7216 44.1537 33.0852 44.1537C33.4545 44.1537 33.7642 44.2346 34.0142 44.3966C34.2642 44.5556 34.4531 44.7687 34.581 45.0358C34.7088 45.3 34.7727 45.5912 34.7727 45.9093V46.3696C34.7727 46.6877 34.7074 46.9804 34.5767 47.2474C34.4489 47.5116 34.2585 47.7247 34.0057 47.8866C33.7557 48.0457 33.4489 48.1252 33.0852 48.1252C32.7159 48.1252 32.4048 48.0457 32.152 47.8866C31.8991 47.7247 31.7074 47.5116 31.5767 47.2474C31.446 46.9804 31.3807 46.6877 31.3807 46.3696ZM32.25 45.9093V46.3696C32.25 46.6338 32.3125 46.871 32.4375 47.0812C32.5625 47.2886 32.7784 47.3923 33.0852 47.3923C33.3835 47.3923 33.5938 47.2886 33.7159 47.0812C33.8409 46.871 33.9034 46.6338 33.9034 46.3696V45.9093C33.9034 45.6451 33.8438 45.4093 33.7244 45.2019C33.6051 44.9917 33.392 44.8866 33.0852 44.8866C32.7869 44.8866 32.5724 44.9917 32.4418 45.2019C32.3139 45.4093 32.25 45.6451 32.25 45.9093ZM31.7045 53.0002L37.7045 44.273H38.6761L32.6761 53.0002H31.7045ZM45.6136 44.273V53.0002H44.5568V44.273H45.6136ZM48.6019 49.0627V53.0002H47.5962V46.4548H48.5678V47.4775H48.6531C48.8065 47.1451 49.0394 46.8781 49.3519 46.6764C49.6644 46.4718 50.0678 46.3696 50.5621 46.3696C51.0053 46.3696 51.3931 46.4605 51.7255 46.6423C52.0579 46.8213 52.3164 47.094 52.5011 47.4605C52.6857 47.8241 52.7781 48.2843 52.7781 48.8412V53.0002H51.7724V48.9093C51.7724 48.3951 51.6388 47.9946 51.3718 47.7076C51.1048 47.4179 50.7383 47.273 50.2724 47.273C49.9513 47.273 49.6644 47.3426 49.4116 47.4818C49.1616 47.621 48.9641 47.8241 48.8192 48.0912C48.6744 48.3582 48.6019 48.6821 48.6019 49.0627ZM57.2749 53.1366C56.6612 53.1366 56.1328 52.9917 55.6896 52.7019C55.2464 52.4122 54.9055 52.013 54.6669 51.5045C54.4283 50.996 54.3089 50.415 54.3089 49.7616C54.3089 49.0968 54.4311 48.5102 54.6754 48.0017C54.9226 47.4903 55.2663 47.0912 55.7067 46.8042C56.1499 46.5144 56.6669 46.3696 57.2578 46.3696C57.718 46.3696 58.1328 46.4548 58.5021 46.6252C58.8714 46.7957 59.174 47.0343 59.4098 47.3412C59.6456 47.648 59.7919 48.0059 59.8487 48.415H58.843C58.7663 48.1167 58.5959 47.8525 58.3317 47.6224C58.0703 47.3894 57.718 47.273 57.2749 47.273C56.8828 47.273 56.5391 47.3752 56.2436 47.5798C55.951 47.7815 55.7223 48.067 55.5575 48.4363C55.3956 48.8028 55.3146 49.2332 55.3146 49.7275C55.3146 50.2332 55.3942 50.6735 55.5533 51.0485C55.7152 51.4235 55.9425 51.7147 56.2351 51.9221C56.5305 52.1295 56.8771 52.2332 57.2749 52.2332C57.5362 52.2332 57.7734 52.1877 57.9865 52.0968C58.1996 52.0059 58.38 51.8752 58.5277 51.7048C58.6754 51.5343 58.7805 51.3298 58.843 51.0912H59.8487C59.7919 51.4775 59.6513 51.8255 59.4268 52.1352C59.2053 52.442 58.9112 52.6863 58.5447 52.8681C58.1811 53.0471 57.7578 53.1366 57.2749 53.1366ZM61.3189 53.0002V46.4548H62.2905V47.4434H62.3587C62.478 47.1196 62.6939 46.8568 63.0064 46.6551C63.3189 46.4534 63.6712 46.3525 64.0632 46.3525C64.1371 46.3525 64.2294 46.3539 64.3402 46.3568C64.451 46.3596 64.5348 46.3639 64.5916 46.3696V47.3923C64.5575 47.3838 64.4794 47.371 64.3572 47.3539C64.2379 47.3341 64.1115 47.3241 63.978 47.3241C63.6598 47.3241 63.3757 47.3909 63.1257 47.5244C62.8786 47.6551 62.6825 47.8369 62.5376 48.0698C62.3956 48.3 62.3246 48.5627 62.3246 48.8582V53.0002H61.3189ZM68.3288 53.1366C67.6982 53.1366 67.1541 52.9974 66.6967 52.719C66.2422 52.4377 65.8913 52.0457 65.6442 51.5429C65.3999 51.0372 65.2777 50.4491 65.2777 49.7787C65.2777 49.1082 65.3999 48.5173 65.6442 48.0059C65.8913 47.4917 66.2351 47.0912 66.6754 46.8042C67.1186 46.5144 67.6357 46.3696 68.2266 46.3696C68.5675 46.3696 68.9041 46.4264 69.2365 46.54C69.5689 46.6537 69.8714 46.8383 70.1442 47.094C70.4169 47.3468 70.6342 47.6821 70.7962 48.0997C70.9581 48.5173 71.0391 49.0315 71.0391 49.6423V50.0684H65.9936V49.1991H70.0163C70.0163 48.8298 69.9425 48.5002 69.7947 48.2105C69.6499 47.9207 69.4425 47.692 69.1726 47.5244C68.9055 47.3568 68.5902 47.273 68.2266 47.273C67.826 47.273 67.4794 47.3724 67.1868 47.5713C66.897 47.7673 66.674 48.023 66.5178 48.3383C66.3615 48.6537 66.2834 48.9917 66.2834 49.3525V49.9321C66.2834 50.4264 66.3686 50.8454 66.5391 51.1892C66.7124 51.5301 66.9524 51.79 67.2592 51.969C67.5661 52.1451 67.9226 52.2332 68.3288 52.2332C68.593 52.2332 68.8317 52.1963 69.0447 52.1224C69.2607 52.0457 69.4467 51.9321 69.603 51.7815C69.7592 51.6281 69.88 51.4377 69.9652 51.2105L70.9368 51.4832C70.8345 51.8127 70.6626 52.1025 70.4212 52.3525C70.1797 52.5997 69.8814 52.7929 69.5263 52.9321C69.1712 53.0684 68.772 53.1366 68.3288 53.1366ZM74.495 53.1537C74.0803 53.1537 73.7038 53.0755 73.3658 52.9193C73.0277 52.7602 72.7592 52.5315 72.5604 52.2332C72.3615 51.9321 72.2621 51.5684 72.2621 51.1423C72.2621 50.7673 72.3359 50.4633 72.4837 50.2304C72.6314 49.9946 72.8288 49.8099 73.076 49.6764C73.3232 49.5429 73.5959 49.4434 73.8942 49.3781C74.1953 49.3099 74.4979 49.2559 74.8018 49.2162C75.1996 49.165 75.522 49.1267 75.7692 49.1011C76.0192 49.0727 76.201 49.0258 76.3146 48.9605C76.4311 48.8951 76.4893 48.7815 76.4893 48.6196V48.5855C76.4893 48.165 76.3743 47.8383 76.1442 47.6054C75.9169 47.3724 75.5717 47.2559 75.1087 47.2559C74.6286 47.2559 74.2521 47.361 73.9794 47.5713C73.7067 47.7815 73.5149 48.0059 73.4041 48.2446L72.4496 47.9037C72.62 47.5059 72.8473 47.1963 73.1314 46.9747C73.4183 46.7502 73.7308 46.594 74.0689 46.5059C74.4098 46.415 74.745 46.3696 75.0746 46.3696C75.2848 46.3696 75.5263 46.3951 75.799 46.4463C76.0746 46.4946 76.3402 46.5954 76.5959 46.7488C76.8544 46.9022 77.0689 47.1338 77.2393 47.4434C77.4098 47.7531 77.495 48.1679 77.495 48.6877V53.0002H76.4893V52.1139H76.4382C76.37 52.2559 76.2564 52.4079 76.0973 52.5698C75.9382 52.7318 75.7266 52.8696 75.4624 52.9832C75.1982 53.0968 74.8757 53.1537 74.495 53.1537ZM74.6484 52.2502C75.0462 52.2502 75.3814 52.1721 75.6541 52.0159C75.9297 51.8596 76.1371 51.6579 76.2763 51.4108C76.4183 51.1636 76.4893 50.9037 76.4893 50.6309V49.7105C76.4467 49.7616 76.353 49.8085 76.2081 49.8511C76.0661 49.8909 75.9013 49.9264 75.7138 49.9576C75.5291 49.986 75.3487 50.0116 75.1726 50.0343C74.9993 50.0542 74.8587 50.0713 74.7507 50.0855C74.4893 50.1196 74.245 50.175 74.0178 50.2517C73.7933 50.3255 73.6115 50.4377 73.4723 50.5883C73.3359 50.736 73.2678 50.9377 73.2678 51.1934C73.2678 51.5429 73.397 51.8071 73.6555 51.986C73.9169 52.1622 74.2479 52.2502 74.6484 52.2502ZM83.967 47.9207L83.0636 48.1764C83.0067 48.0258 82.9229 47.8795 82.8121 47.7375C82.7042 47.5926 82.5565 47.4733 82.369 47.3795C82.1815 47.2858 81.9414 47.2389 81.6488 47.2389C81.2482 47.2389 80.9144 47.3312 80.6474 47.5159C80.3832 47.6977 80.2511 47.9292 80.2511 48.2105C80.2511 48.4605 80.342 48.6579 80.5238 48.8028C80.7056 48.9477 80.9897 49.0684 81.3761 49.165L82.3477 49.4037C82.9329 49.5457 83.369 49.763 83.6559 50.0556C83.9428 50.3454 84.0863 50.719 84.0863 51.1764C84.0863 51.5514 83.9783 51.8866 83.7624 52.1821C83.5494 52.4775 83.2511 52.7105 82.8675 52.8809C82.484 53.0514 82.038 53.1366 81.5295 53.1366C80.8619 53.1366 80.3093 52.9917 79.8718 52.7019C79.4343 52.4122 79.1573 51.9889 79.0408 51.4321L79.9954 51.1934C80.0863 51.5457 80.2582 51.8099 80.511 51.986C80.7667 52.1622 81.1005 52.2502 81.5124 52.2502C81.9812 52.2502 82.3533 52.1508 82.6289 51.9519C82.9073 51.7502 83.0465 51.5088 83.0465 51.2275C83.0465 51.0002 82.967 50.8099 82.8079 50.6565C82.6488 50.5002 82.4045 50.3838 82.0749 50.3071L80.984 50.0514C80.3846 49.9093 79.9442 49.6892 79.663 49.3909C79.3846 49.0897 79.2454 48.7133 79.2454 48.2616C79.2454 47.8923 79.3491 47.5656 79.5565 47.2815C79.7667 46.9974 80.0522 46.7744 80.413 46.6125C80.7766 46.4505 81.1886 46.3696 81.6488 46.3696C82.2965 46.3696 82.805 46.5116 83.1744 46.7957C83.5465 47.0798 83.8107 47.4548 83.967 47.9207ZM88.3445 53.1366C87.7138 53.1366 87.1697 52.9974 86.7124 52.719C86.2578 52.4377 85.907 52.0457 85.6598 51.5429C85.4155 51.0372 85.2933 50.4491 85.2933 49.7787C85.2933 49.1082 85.4155 48.5173 85.6598 48.0059C85.907 47.4917 86.2507 47.0912 86.6911 46.8042C87.1342 46.5144 87.6513 46.3696 88.2422 46.3696C88.5831 46.3696 88.9197 46.4264 89.2521 46.54C89.5845 46.6537 89.8871 46.8383 90.1598 47.094C90.4325 47.3468 90.6499 47.6821 90.8118 48.0997C90.9737 48.5173 91.0547 49.0315 91.0547 49.6423V50.0684H86.0092V49.1991H90.032C90.032 48.8298 89.9581 48.5002 89.8104 48.2105C89.6655 47.9207 89.4581 47.692 89.1882 47.5244C88.9212 47.3568 88.6058 47.273 88.2422 47.273C87.8416 47.273 87.495 47.3724 87.2024 47.5713C86.9126 47.7673 86.6896 48.023 86.5334 48.3383C86.3771 48.6537 86.299 48.9917 86.299 49.3525V49.9321C86.299 50.4264 86.3842 50.8454 86.5547 51.1892C86.728 51.5301 86.968 51.79 87.2749 51.969C87.5817 52.1451 87.9382 52.2332 88.3445 52.2332C88.6087 52.2332 88.8473 52.1963 89.0604 52.1224C89.2763 52.0457 89.4624 51.9321 89.6186 51.7815C89.7749 51.6281 89.8956 51.4377 89.9808 51.2105L90.9524 51.4832C90.8501 51.8127 90.6783 52.1025 90.4368 52.3525C90.1953 52.5997 89.897 52.7929 89.5419 52.9321C89.1868 53.0684 88.7876 53.1366 88.3445 53.1366Z" fill="black" fill-opacity="0.6"/>
<g clip-path="url(#clip0_59_1375)">
<rect x="16" y="144" width="80" height="10" rx="5" transform="rotate(-90 16 144)" fill="black" fill-opacity="0.1"/>
<rect x="16" y="144" width="53" height="10" rx="5" transform="rotate(-90 16 144)" fill="#398D1C"/>
</g>
<g clip-path="url(#clip1_59_1375)">
<rect x="41" y="144" width="80" height="10" rx="5" transform="rotate(-90 41 144)" fill="black" fill-opacity="0.1"/>
<rect x="41" y="144" width="64" height="10" rx="5" transform="rotate(-90 41 144)" fill="#398D1C"/>
</g>
<g clip-path="url(#clip2_59_1375)">
<rect x="66" y="144" width="80" height="10" rx="5" transform="rotate(-90 66 144)" fill="black" fill-opacity="0.1"/>
<rect x="66" y="144" width="65" height="10" rx="5" transform="rotate(-90 66 144)" fill="#398D1C"/>
</g>
<g clip-path="url(#clip3_59_1375)">
<rect x="91" y="144" width="80" height="10" rx="5" transform="rotate(-90 91 144)" fill="black" fill-opacity="0.1"/>
<rect x="91" y="144" width="61" height="10" rx="5" transform="rotate(-90 91 144)" fill="#398D1C"/>
</g>
<g clip-path="url(#clip4_59_1375)">
<rect x="116" y="144" width="80" height="10" rx="5" transform="rotate(-90 116 144)" fill="black" fill-opacity="0.1"/>
<rect x="116" y="144" width="53" height="10" rx="5" transform="rotate(-90 116 144)" fill="#398D1C"/>
</g>
<g clip-path="url(#clip5_59_1375)">
<rect x="141" y="144" width="80" height="10" rx="5" transform="rotate(-90 141 144)" fill="black" fill-opacity="0.1"/>
<rect x="141" y="144" width="61" height="10" rx="5" transform="rotate(-90 141 144)" fill="#398D1C"/>
</g>
<defs>
<clipPath id="clip0_59_1375">
<rect x="16" y="144" width="80" height="10" rx="5" transform="rotate(-90 16 144)" fill="white"/>
</clipPath>
<clipPath id="clip1_59_1375">
<rect x="41" y="144" width="80" height="10" rx="5" transform="rotate(-90 41 144)" fill="white"/>
</clipPath>
<clipPath id="clip2_59_1375">
<rect x="66" y="144" width="80" height="10" rx="5" transform="rotate(-90 66 144)" fill="white"/>
</clipPath>
<clipPath id="clip3_59_1375">
<rect x="91" y="144" width="80" height="10" rx="5" transform="rotate(-90 91 144)" fill="white"/>
</clipPath>
<clipPath id="clip4_59_1375">
<rect x="116" y="144" width="80" height="10" rx="5" transform="rotate(-90 116 144)" fill="white"/>
</clipPath>
<clipPath id="clip5_59_1375">
<rect x="141" y="144" width="80" height="10" rx="5" transform="rotate(-90 141 144)" fill="white"/>
</clipPath>
</defs>
</svg>
