<svg width="307" height="63" viewBox="0 0 307 63" fill="none" xmlns="http://www.w3.org/2000/svg">
<rect y="0.000244141" width="307" height="63" rx="12" fill="#FBFBFB"/>
<rect x="0.5" y="0.500244" width="306" height="62" rx="11.5" stroke="black" stroke-opacity="0.1"/>
<ellipse cx="27.5" cy="31.5002" rx="18" ry="18.5" fill="#D9D9D9"/>
<path d="M65.3031 23.0002L62.8059 14.273H64.8216L66.2662 20.3369H66.3386L67.9324 14.273H69.6582L71.2477 20.3497H71.3244L72.769 14.273H74.7846L72.2875 23.0002H70.4892L68.8272 17.2943H68.7591L67.1014 23.0002H65.3031ZM78.0179 23.1281C77.3446 23.1281 76.7651 22.9917 76.2793 22.719C75.7963 22.4434 75.4242 22.0542 75.1628 21.5514C74.9015 21.0457 74.7708 20.4477 74.7708 19.7573C74.7708 19.0841 74.9015 18.4931 75.1628 17.9846C75.4242 17.4761 75.7921 17.0798 76.2665 16.7957C76.7438 16.5116 77.3034 16.3696 77.9455 16.3696C78.3773 16.3696 78.7793 16.4392 79.1515 16.5784C79.5265 16.7147 79.8532 16.9207 80.1316 17.1963C80.4128 17.4718 80.6316 17.8184 80.7878 18.236C80.9441 18.6508 81.0222 19.1366 81.0222 19.6934V20.192H75.4952V19.067H79.3134C79.3134 18.8056 79.2566 18.5741 79.1429 18.3724C79.0293 18.1707 78.8716 18.013 78.6699 17.8994C78.4711 17.7829 78.2395 17.7247 77.9753 17.7247C77.6998 17.7247 77.4554 17.7886 77.2424 17.9164C77.0321 18.0414 76.8674 18.2105 76.748 18.4235C76.6287 18.6338 76.5676 18.8681 76.5648 19.1267V20.1963C76.5648 20.5201 76.6245 20.8 76.7438 21.0358C76.8659 21.2716 77.0378 21.4534 77.2594 21.5812C77.481 21.7091 77.7438 21.773 78.0478 21.773C78.2495 21.773 78.4341 21.7446 78.6017 21.6877C78.7694 21.6309 78.9128 21.5457 79.0321 21.4321C79.1515 21.3184 79.2424 21.1792 79.3049 21.0144L80.9838 21.1252C80.8986 21.5287 80.7239 21.8809 80.4597 22.1821C80.1983 22.4804 79.8603 22.7133 79.4455 22.8809C79.0336 23.0457 78.5577 23.1281 78.0179 23.1281ZM85.1898 23.1281C84.5165 23.1281 83.937 22.9917 83.4512 22.719C82.9682 22.4434 82.5961 22.0542 82.3347 21.5514C82.0733 21.0457 81.9426 20.4477 81.9426 19.7573C81.9426 19.0841 82.0733 18.4931 82.3347 17.9846C82.5961 17.4761 82.964 17.0798 83.4384 16.7957C83.9157 16.5116 84.4753 16.3696 85.1174 16.3696C85.5492 16.3696 85.9512 16.4392 86.3233 16.5784C86.6983 16.7147 87.025 16.9207 87.3034 17.1963C87.5847 17.4718 87.8034 17.8184 87.9597 18.236C88.1159 18.6508 88.1941 19.1366 88.1941 19.6934V20.192H82.6671V19.067H86.4853C86.4853 18.8056 86.4284 18.5741 86.3148 18.3724C86.2012 18.1707 86.0435 18.013 85.8418 17.8994C85.6429 17.7829 85.4114 17.7247 85.1472 17.7247C84.8716 17.7247 84.6273 17.7886 84.4142 17.9164C84.204 18.0414 84.0392 18.2105 83.9199 18.4235C83.8006 18.6338 83.7395 18.8681 83.7367 19.1267V20.1963C83.7367 20.5201 83.7963 20.8 83.9157 21.0358C84.0378 21.2716 84.2097 21.4534 84.4313 21.5812C84.6529 21.7091 84.9157 21.773 85.2196 21.773C85.4213 21.773 85.606 21.7446 85.7736 21.6877C85.9412 21.6309 86.0847 21.5457 86.204 21.4321C86.3233 21.3184 86.4142 21.1792 86.4767 21.0144L88.1557 21.1252C88.0705 21.5287 87.8958 21.8809 87.6316 22.1821C87.3702 22.4804 87.0321 22.7133 86.6174 22.8809C86.2054 23.0457 85.7296 23.1281 85.1898 23.1281ZM91.0236 21.1167L91.0279 18.9392H91.2921L93.3887 16.4548H95.4725L92.6557 19.7446H92.2253L91.0236 21.1167ZM89.3787 23.0002V14.273H91.1941V23.0002H89.3787ZM93.4696 23.0002L91.5435 20.1494L92.7537 18.8667L95.5961 23.0002H93.4696ZM98.1784 14.273V23.0002H96.3631V14.273H98.1784ZM100.753 25.4548C100.523 25.4548 100.307 25.4363 100.106 25.3994C99.9068 25.3653 99.742 25.3213 99.6113 25.2673L100.02 23.9122C100.233 23.9775 100.425 24.013 100.596 24.0187C100.769 24.0244 100.918 23.9846 101.043 23.8994C101.171 23.8142 101.275 23.6693 101.354 23.4647L101.461 23.1877L99.1127 16.4548H101.022L102.377 21.2616H102.445L103.813 16.4548H105.735L103.191 23.7076C103.069 24.0599 102.903 24.3667 102.692 24.6281C102.485 24.8923 102.222 25.0954 101.904 25.2375C101.586 25.3823 101.202 25.4548 100.753 25.4548ZM114.866 14.273H116.711V19.9406C116.711 20.5769 116.559 21.1338 116.255 21.611C115.954 22.0883 115.532 22.4605 114.99 22.7275C114.447 22.9917 113.815 23.1238 113.093 23.1238C112.369 23.1238 111.735 22.9917 111.193 22.7275C110.65 22.4605 110.228 22.0883 109.927 21.611C109.626 21.1338 109.475 20.5769 109.475 19.9406V14.273H111.32V19.7829C111.32 20.1153 111.393 20.4108 111.538 20.6693C111.686 20.9278 111.893 21.1309 112.16 21.2787C112.427 21.4264 112.738 21.5002 113.093 21.5002C113.451 21.5002 113.762 21.4264 114.026 21.2787C114.294 21.1309 114.499 20.9278 114.644 20.6693C114.792 20.4108 114.866 20.1153 114.866 19.7829V14.273ZM118.195 25.4548V16.4548H119.985V17.5542H120.066C120.145 17.3781 120.26 17.1991 120.411 17.0173C120.564 16.8326 120.763 16.6792 121.008 16.5571C121.255 16.4321 121.562 16.3696 121.928 16.3696C122.405 16.3696 122.846 16.4946 123.249 16.7446C123.653 16.9917 123.975 17.3653 124.216 17.8653C124.458 18.3625 124.579 18.986 124.579 19.736C124.579 20.4662 124.461 21.0826 124.225 21.5855C123.992 22.0855 123.674 22.4647 123.27 22.7233C122.87 22.9789 122.421 23.1068 121.924 23.1068C121.572 23.1068 121.272 23.0485 121.025 22.9321C120.78 22.8156 120.58 22.6693 120.424 22.4931C120.268 22.3142 120.148 22.1338 120.066 21.9519H120.01V25.4548H118.195ZM119.972 19.7275C119.972 20.1167 120.026 20.4562 120.134 20.746C120.242 21.0358 120.398 21.2616 120.603 21.4235C120.807 21.5826 121.056 21.6622 121.349 21.6622C121.644 21.6622 121.894 21.5812 122.099 21.4193C122.303 21.2545 122.458 21.0272 122.563 20.7375C122.671 20.4448 122.725 20.1082 122.725 19.7275C122.725 19.3497 122.672 19.0173 122.567 18.7304C122.462 18.4434 122.307 18.219 122.103 18.0571C121.898 17.8951 121.647 17.8142 121.349 17.8142C121.053 17.8142 120.803 17.8923 120.599 18.0485C120.397 18.2048 120.242 18.4264 120.134 18.7133C120.026 19.0002 119.972 19.3383 119.972 19.7275ZM128.201 23.1068C127.704 23.1068 127.253 22.9789 126.85 22.7233C126.449 22.4647 126.131 22.0855 125.895 21.5855C125.662 21.0826 125.546 20.4662 125.546 19.736C125.546 18.986 125.667 18.3625 125.908 17.8653C126.15 17.3653 126.471 16.9917 126.871 16.7446C127.275 16.4946 127.716 16.3696 128.197 16.3696C128.563 16.3696 128.868 16.4321 129.113 16.5571C129.36 16.6792 129.559 16.8326 129.709 17.0173C129.863 17.1991 129.979 17.3781 130.059 17.5542H130.114V14.273H131.925V23.0002H130.135V21.9519H130.059C129.974 22.1338 129.853 22.3142 129.697 22.4931C129.543 22.6693 129.343 22.8156 129.096 22.9321C128.851 23.0485 128.553 23.1068 128.201 23.1068ZM128.776 21.6622C129.069 21.6622 129.316 21.5826 129.518 21.4235C129.722 21.2616 129.878 21.0358 129.986 20.746C130.097 20.4562 130.153 20.1167 130.153 19.7275C130.153 19.3383 130.099 19.0002 129.991 18.7133C129.883 18.4264 129.726 18.2048 129.522 18.0485C129.317 17.8923 129.069 17.8142 128.776 17.8142C128.478 17.8142 128.226 17.8951 128.022 18.0571C127.817 18.219 127.662 18.4434 127.557 18.7304C127.452 19.0173 127.4 19.3497 127.4 19.7275C127.4 20.1082 127.452 20.4448 127.557 20.7375C127.665 21.0272 127.82 21.2545 128.022 21.4193C128.226 21.5812 128.478 21.6622 128.776 21.6622ZM135.284 23.1238C134.867 23.1238 134.494 23.0514 134.168 22.9065C133.841 22.7588 133.583 22.5414 133.392 22.2545C133.205 21.9647 133.111 21.6039 133.111 21.1721C133.111 20.8085 133.178 20.5031 133.311 20.2559C133.445 20.0088 133.627 19.8099 133.857 19.6593C134.087 19.5088 134.348 19.3951 134.641 19.3184C134.936 19.2417 135.246 19.1877 135.57 19.1565C135.95 19.1167 136.257 19.0798 136.49 19.0457C136.723 19.0088 136.892 18.9548 136.997 18.8838C137.102 18.8127 137.155 18.7076 137.155 18.5684V18.5429C137.155 18.273 137.07 18.0642 136.899 17.9164C136.732 17.7687 136.493 17.6948 136.183 17.6948C135.857 17.6948 135.597 17.7673 135.404 17.9122C135.21 18.0542 135.083 18.2332 135.02 18.4491L133.341 18.3127C133.426 17.915 133.594 17.5713 133.844 17.2815C134.094 16.9889 134.416 16.7644 134.811 16.6082C135.209 16.4491 135.669 16.3696 136.192 16.3696C136.556 16.3696 136.904 16.4122 137.236 16.4974C137.571 16.5826 137.868 16.7147 138.127 16.8937C138.388 17.0727 138.594 17.3028 138.744 17.5841C138.895 17.8625 138.97 18.1963 138.97 18.5855V23.0002H137.249V22.0926H137.198C137.093 22.2971 136.952 22.4775 136.776 22.6338C136.6 22.7872 136.388 22.9079 136.141 22.996C135.894 23.0812 135.608 23.1238 135.284 23.1238ZM135.804 21.871C136.071 21.871 136.307 21.8184 136.512 21.7133C136.716 21.6054 136.877 21.4605 136.993 21.2787C137.11 21.0968 137.168 20.8909 137.168 20.6608V19.9662C137.111 20.0031 137.033 20.0372 136.933 20.0684C136.837 20.0968 136.727 20.1238 136.605 20.1494C136.483 20.1721 136.361 20.1934 136.239 20.2133C136.117 20.2304 136.006 20.246 135.906 20.2602C135.693 20.2914 135.507 20.3412 135.348 20.4093C135.189 20.4775 135.066 20.5698 134.977 20.6863C134.889 20.8 134.845 20.942 134.845 21.1125C134.845 21.3596 134.935 21.5485 135.114 21.6792C135.296 21.8071 135.526 21.871 135.804 21.871ZM143.86 16.4548V17.8184H139.919V16.4548H143.86ZM140.813 14.8866H142.629V20.9889C142.629 21.1565 142.654 21.2872 142.705 21.3809C142.757 21.4718 142.828 21.5358 142.919 21.5727C143.012 21.6096 143.12 21.6281 143.242 21.6281C143.328 21.6281 143.413 21.621 143.498 21.6068C143.583 21.5897 143.649 21.5769 143.694 21.5684L143.98 22.9193C143.889 22.9477 143.761 22.9804 143.596 23.0173C143.431 23.0571 143.231 23.0812 142.995 23.0897C142.558 23.1068 142.174 23.0485 141.845 22.915C141.518 22.7815 141.264 22.5741 141.082 22.2929C140.9 22.0116 140.811 21.6565 140.813 21.2275V14.8866ZM147.955 23.1281C147.282 23.1281 146.703 22.9917 146.217 22.719C145.734 22.4434 145.362 22.0542 145.1 21.5514C144.839 21.0457 144.708 20.4477 144.708 19.7573C144.708 19.0841 144.839 18.4931 145.1 17.9846C145.362 17.4761 145.73 17.0798 146.204 16.7957C146.681 16.5116 147.241 16.3696 147.883 16.3696C148.315 16.3696 148.717 16.4392 149.089 16.5784C149.464 16.7147 149.791 16.9207 150.069 17.1963C150.35 17.4718 150.569 17.8184 150.725 18.236C150.882 18.6508 150.96 19.1366 150.96 19.6934V20.192H145.433V19.067H149.251C149.251 18.8056 149.194 18.5741 149.08 18.3724C148.967 18.1707 148.809 18.013 148.607 17.8994C148.409 17.7829 148.177 17.7247 147.913 17.7247C147.637 17.7247 147.393 17.7886 147.18 17.9164C146.97 18.0414 146.805 18.2105 146.686 18.4235C146.566 18.6338 146.505 18.8681 146.502 19.1267V20.1963C146.502 20.5201 146.562 20.8 146.681 21.0358C146.803 21.2716 146.975 21.4534 147.197 21.5812C147.419 21.7091 147.681 21.773 147.985 21.773C148.187 21.773 148.372 21.7446 148.539 21.6877C148.707 21.6309 148.85 21.5457 148.97 21.4321C149.089 21.3184 149.18 21.1792 149.242 21.0144L150.921 21.1252C150.836 21.5287 150.661 21.8809 150.397 22.1821C150.136 22.4804 149.798 22.7133 149.383 22.8809C148.971 23.0457 148.495 23.1281 147.955 23.1281Z" fill="black" fill-opacity="0.7"/>
<path d="M62.7557 30.7275H63.7642L65.7812 34.1224H65.8665L67.8835 30.7275H68.892L66.2642 35.0031V38.0002H65.3835V35.0031L62.7557 30.7275ZM71.3619 38.1139C70.8694 38.1139 70.4374 37.9967 70.0657 37.7623C69.6964 37.5279 69.4076 37.2001 69.1992 36.7787C68.9933 36.3573 68.8903 35.8648 68.8903 35.3014C68.8903 34.7332 68.9933 34.2372 69.1992 33.8135C69.4076 33.3897 69.6964 33.0606 70.0657 32.8262C70.4374 32.5919 70.8694 32.4747 71.3619 32.4747C71.8543 32.4747 72.2852 32.5919 72.6545 32.8262C73.0262 33.0606 73.315 33.3897 73.521 33.8135C73.7293 34.2372 73.8335 34.7332 73.8335 35.3014C73.8335 35.8648 73.7293 36.3573 73.521 36.7787C73.315 37.2001 73.0262 37.5279 72.6545 37.7623C72.2852 37.9967 71.8543 38.1139 71.3619 38.1139ZM71.3619 37.361C71.7359 37.361 72.0437 37.2652 72.2852 37.0734C72.5266 36.8816 72.7054 36.6295 72.8214 36.317C72.9374 36.0045 72.9954 35.666 72.9954 35.3014C72.9954 34.9368 72.9374 34.5971 72.8214 34.2822C72.7054 33.9673 72.5266 33.7128 72.2852 33.5187C72.0437 33.3246 71.7359 33.2275 71.3619 33.2275C70.9878 33.2275 70.68 33.3246 70.4386 33.5187C70.1971 33.7128 70.0183 33.9673 69.9023 34.2822C69.7863 34.5971 69.7283 34.9368 69.7283 35.3014C69.7283 35.666 69.7863 36.0045 69.9023 36.317C70.0183 36.6295 70.1971 36.8816 70.4386 37.0734C70.68 37.2652 70.9878 37.361 71.3619 37.361ZM78.5502 35.7701V32.5457H79.3883V38.0002H78.5502V37.0769H78.4934C78.3656 37.3539 78.1667 37.5895 77.8968 37.7836C77.627 37.9754 77.286 38.0713 76.8741 38.0713C76.5332 38.0713 76.2302 37.9967 75.965 37.8475C75.6999 37.696 75.4915 37.4688 75.34 37.1657C75.1885 36.8603 75.1127 36.4756 75.1127 36.0116V32.5457H75.9508V35.9548C75.9508 36.3525 76.0621 36.6698 76.2846 36.9065C76.5095 37.1432 76.796 37.2616 77.144 37.2616C77.3523 37.2616 77.5642 37.2083 77.7797 37.1018C77.9975 36.9953 78.1797 36.8319 78.3265 36.6117C78.4757 36.3916 78.5502 36.111 78.5502 35.7701ZM81.8084 30.7275V31.3667C81.8084 31.5608 81.7729 31.768 81.7019 31.9882C81.6332 32.206 81.5314 32.4179 81.3965 32.6238C81.2639 32.8274 81.1029 33.005 80.9135 33.1565L80.459 32.7872C80.6081 32.5741 80.7372 32.3528 80.8461 32.1231C80.9573 31.8911 81.013 31.6437 81.013 31.3809V30.7275H81.8084ZM87.5222 32.5457L85.5051 38.0002H84.6529L82.6358 32.5457H83.5449L85.0506 36.8923H85.1074L86.6131 32.5457H87.5222ZM90.72 38.1139C90.1944 38.1139 89.7411 37.9979 89.3599 37.7659C88.9811 37.5315 88.6887 37.2048 88.4828 36.7858C88.2792 36.3644 88.1774 35.8743 88.1774 35.3156C88.1774 34.7569 88.2792 34.2644 88.4828 33.8383C88.6887 33.4098 88.9752 33.076 89.3422 32.8369C89.7115 32.5954 90.1423 32.4747 90.6348 32.4747C90.9189 32.4747 91.1994 32.522 91.4764 32.6167C91.7534 32.7114 92.0055 32.8653 92.2328 33.0784C92.46 33.2891 92.6412 33.5684 92.7761 33.9164C92.911 34.2644 92.9785 34.693 92.9785 35.2019V35.5571H88.774V34.8326H92.1262C92.1262 34.5249 92.0647 34.2502 91.9416 34.0088C91.8208 33.7673 91.648 33.5767 91.4231 33.437C91.2006 33.2974 90.9378 33.2275 90.6348 33.2275C90.301 33.2275 90.0121 33.3104 89.7683 33.4761C89.5268 33.6394 89.341 33.8525 89.2108 34.1153C89.0806 34.3781 89.0154 34.6598 89.0154 34.9605V35.4434C89.0154 35.8554 89.0865 36.2046 89.2285 36.491C89.3729 36.7751 89.573 36.9917 89.8287 37.1409C90.0843 37.2876 90.3815 37.361 90.72 37.361C90.9402 37.361 91.139 37.3303 91.3166 37.2687C91.4965 37.2048 91.6516 37.1101 91.7818 36.9846C91.912 36.8568 92.0126 36.6982 92.0836 36.5088L92.8933 36.736C92.8081 37.0107 92.6648 37.2521 92.4636 37.4605C92.2624 37.6664 92.0138 37.8274 91.7179 37.9434C91.4219 38.0571 91.0893 38.1139 90.72 38.1139ZM98.671 38.1281C98.3253 38.1281 98.0117 38.063 97.7299 37.9328C97.4482 37.8002 97.2245 37.6096 97.0588 37.361C96.8931 37.1101 96.8102 36.8071 96.8102 36.4519C96.8102 36.1394 96.8717 35.8861 96.9949 35.692C97.118 35.4955 97.2825 35.3416 97.4885 35.2304C97.6944 35.1191 97.9217 35.0362 98.1703 34.9818C98.4212 34.925 98.6734 34.88 98.9267 34.8468C99.2581 34.8042 99.5268 34.7723 99.7328 34.751C99.9411 34.7273 100.093 34.6882 100.187 34.6338C100.284 34.5793 100.333 34.4846 100.333 34.3497V34.3213C100.333 33.9709 100.237 33.6986 100.045 33.5045C99.8559 33.3104 99.5682 33.2133 99.1824 33.2133C98.7823 33.2133 98.4686 33.3009 98.2413 33.4761C98.014 33.6513 97.8542 33.8383 97.7619 34.0372L96.9664 33.7531C97.1085 33.4216 97.2979 33.1636 97.5346 32.9789C97.7737 32.7919 98.0342 32.6617 98.3159 32.5883C98.6 32.5126 98.8793 32.4747 99.1539 32.4747C99.3291 32.4747 99.5304 32.496 99.7576 32.5386C99.9873 32.5788 100.209 32.6629 100.422 32.7907C100.637 32.9186 100.816 33.1115 100.958 33.3696C101.1 33.6276 101.171 33.9733 101.171 34.4065V38.0002H100.333V37.2616H100.29C100.233 37.38 100.139 37.5066 100.006 37.6416C99.8736 37.7765 99.6973 37.8913 99.4771 37.986C99.2569 38.0807 98.9882 38.1281 98.671 38.1281ZM98.7988 37.3752C99.1303 37.3752 99.4096 37.3101 99.6369 37.1799C99.8665 37.0497 100.039 36.8816 100.155 36.6757C100.274 36.4697 100.333 36.2531 100.333 36.0258V35.2588C100.297 35.3014 100.219 35.3404 100.099 35.376C99.9802 35.4091 99.8429 35.4387 99.6866 35.4647C99.5327 35.4884 99.3824 35.5097 99.2356 35.5287C99.0912 35.5452 98.974 35.5594 98.8841 35.5713C98.6663 35.5997 98.4627 35.6458 98.2733 35.7098C98.0862 35.7713 97.9347 35.8648 97.8187 35.9903C97.7051 36.1134 97.6483 36.2815 97.6483 36.4946C97.6483 36.7858 97.756 37.0059 97.9714 37.1551C98.1892 37.3019 98.465 37.3752 98.7988 37.3752ZM104.917 38.1139C104.405 38.1139 103.965 37.9931 103.596 37.7517C103.226 37.5102 102.942 37.1776 102.743 36.7538C102.544 36.33 102.445 35.8459 102.445 35.3014C102.445 34.7474 102.547 34.2585 102.75 33.8348C102.956 33.4086 103.243 33.076 103.61 32.8369C103.979 32.5954 104.41 32.4747 104.902 32.4747C105.286 32.4747 105.632 32.5457 105.939 32.6877C106.247 32.8298 106.499 33.0287 106.696 33.2843C106.892 33.54 107.014 33.8383 107.061 34.1792H106.223C106.159 33.9306 106.017 33.7105 105.797 33.5187C105.579 33.3246 105.286 33.2275 104.917 33.2275C104.59 33.2275 104.303 33.3127 104.057 33.4832C103.813 33.6513 103.623 33.8892 103.485 34.197C103.35 34.5024 103.283 34.861 103.283 35.273C103.283 35.6944 103.349 36.0613 103.482 36.3738C103.617 36.6863 103.806 36.929 104.05 37.1018C104.296 37.2746 104.585 37.361 104.917 37.361C105.134 37.361 105.332 37.3232 105.51 37.2474C105.687 37.1716 105.837 37.0627 105.961 36.9207C106.084 36.7787 106.171 36.6082 106.223 36.4093H107.061C107.014 36.7313 106.897 37.0213 106.71 37.2794C106.525 37.535 106.28 37.7386 105.975 37.8902C105.672 38.0393 105.319 38.1139 104.917 38.1139ZM110.502 38.1139C109.991 38.1139 109.551 37.9931 109.181 37.7517C108.812 37.5102 108.528 37.1776 108.329 36.7538C108.13 36.33 108.031 35.8459 108.031 35.3014C108.031 34.7474 108.133 34.2585 108.336 33.8348C108.542 33.4086 108.829 33.076 109.196 32.8369C109.565 32.5954 109.996 32.4747 110.488 32.4747C110.872 32.4747 111.217 32.5457 111.525 32.6877C111.833 32.8298 112.085 33.0287 112.282 33.2843C112.478 33.54 112.6 33.8383 112.647 34.1792H111.809C111.745 33.9306 111.603 33.7105 111.383 33.5187C111.165 33.3246 110.872 33.2275 110.502 33.2275C110.176 33.2275 109.889 33.3127 109.643 33.4832C109.399 33.6513 109.209 33.8892 109.071 34.197C108.936 34.5024 108.869 34.861 108.869 35.273C108.869 35.6944 108.935 36.0613 109.068 36.3738C109.203 36.6863 109.392 36.929 109.636 37.1018C109.882 37.2746 110.171 37.361 110.502 37.361C110.72 37.361 110.918 37.3232 111.096 37.2474C111.273 37.1716 111.423 37.0627 111.547 36.9207C111.67 36.7787 111.757 36.6082 111.809 36.4093H112.647C112.6 36.7313 112.483 37.0213 112.296 37.2794C112.111 37.535 111.866 37.7386 111.561 37.8902C111.258 38.0393 110.905 38.1139 110.502 38.1139ZM117.31 35.7701V32.5457H118.148V38.0002H117.31V37.0769H117.253C117.125 37.3539 116.926 37.5895 116.657 37.7836C116.387 37.9754 116.046 38.0713 115.634 38.0713C115.293 38.0713 114.99 37.9967 114.725 37.8475C114.46 37.696 114.251 37.4688 114.1 37.1657C113.948 36.8603 113.873 36.4756 113.873 36.0116V32.5457H114.711V35.9548C114.711 36.3525 114.822 36.6698 115.044 36.9065C115.269 37.1432 115.556 37.2616 115.904 37.2616C116.112 37.2616 116.324 37.2083 116.539 37.1018C116.757 36.9953 116.94 36.8319 117.086 36.6117C117.235 36.3916 117.31 36.111 117.31 35.7701ZM119.683 38.0002V32.5457H120.493V33.398H120.564C120.677 33.1068 120.861 32.8807 121.114 32.7197C121.367 32.5564 121.672 32.4747 122.027 32.4747C122.387 32.4747 122.686 32.5564 122.925 32.7197C123.167 32.8807 123.355 33.1068 123.49 33.398H123.547C123.686 33.1162 123.896 32.8925 124.175 32.7268C124.455 32.5587 124.79 32.4747 125.18 32.4747C125.668 32.4747 126.067 32.6274 126.377 32.9328C126.687 33.2358 126.842 33.7081 126.842 34.3497V38.0002H126.004V34.3497C126.004 33.9472 125.894 33.6596 125.674 33.4867C125.454 33.3139 125.194 33.2275 124.896 33.2275C124.513 33.2275 124.215 33.3435 124.005 33.5755C123.794 33.8052 123.689 34.0964 123.689 34.4491V38.0002H122.836V34.2644C122.836 33.9543 122.736 33.7046 122.535 33.5152C122.333 33.3234 122.074 33.2275 121.757 33.2275C121.539 33.2275 121.336 33.2855 121.146 33.4015C120.959 33.5175 120.808 33.6785 120.692 33.8845C120.578 34.0881 120.521 34.3236 120.521 34.5912V38.0002H119.683ZM131.812 35.7701V32.5457H132.65V38.0002H131.812V37.0769H131.755C131.627 37.3539 131.428 37.5895 131.159 37.7836C130.889 37.9754 130.548 38.0713 130.136 38.0713C129.795 38.0713 129.492 37.9967 129.227 37.8475C128.962 37.696 128.753 37.4688 128.602 37.1657C128.45 36.8603 128.374 36.4756 128.374 36.0116V32.5457H129.213V35.9548C129.213 36.3525 129.324 36.6698 129.546 36.9065C129.771 37.1432 130.058 37.2616 130.406 37.2616C130.614 37.2616 130.826 37.2083 131.041 37.1018C131.259 36.9953 131.441 36.8319 131.588 36.6117C131.737 36.3916 131.812 36.111 131.812 35.7701ZM135.023 30.7275V38.0002H134.185V30.7275H135.023ZM138.163 38.1281C137.818 38.1281 137.504 38.063 137.222 37.9328C136.94 37.8002 136.717 37.6096 136.551 37.361C136.385 37.1101 136.302 36.8071 136.302 36.4519C136.302 36.1394 136.364 35.8861 136.487 35.692C136.61 35.4955 136.775 35.3416 136.981 35.2304C137.187 35.1191 137.414 35.0362 137.662 34.9818C137.913 34.925 138.166 34.88 138.419 34.8468C138.75 34.8042 139.019 34.7723 139.225 34.751C139.433 34.7273 139.585 34.6882 139.68 34.6338C139.777 34.5793 139.825 34.4846 139.825 34.3497V34.3213C139.825 33.9709 139.729 33.6986 139.537 33.5045C139.348 33.3104 139.06 33.2133 138.675 33.2133C138.274 33.2133 137.961 33.3009 137.733 33.4761C137.506 33.6513 137.346 33.8383 137.254 34.0372L136.459 33.7531C136.601 33.4216 136.79 33.1636 137.027 32.9789C137.266 32.7919 137.526 32.6617 137.808 32.5883C138.092 32.5126 138.372 32.4747 138.646 32.4747C138.821 32.4747 139.023 32.496 139.25 32.5386C139.479 32.5788 139.701 32.6629 139.914 32.7907C140.129 32.9186 140.308 33.1115 140.45 33.3696C140.592 33.6276 140.663 33.9733 140.663 34.4065V38.0002H139.825V37.2616H139.782C139.726 37.38 139.631 37.5066 139.498 37.6416C139.366 37.7765 139.189 37.8913 138.969 37.986C138.749 38.0807 138.48 38.1281 138.163 38.1281ZM138.291 37.3752C138.622 37.3752 138.902 37.3101 139.129 37.1799C139.359 37.0497 139.532 36.8816 139.648 36.6757C139.766 36.4697 139.825 36.2531 139.825 36.0258V35.2588C139.79 35.3014 139.711 35.3404 139.591 35.376C139.472 35.4091 139.335 35.4387 139.179 35.4647C139.025 35.4884 138.875 35.5097 138.728 35.5287C138.583 35.5452 138.466 35.5594 138.376 35.5713C138.158 35.5997 137.955 35.6458 137.765 35.7098C137.578 35.7713 137.427 35.8648 137.311 35.9903C137.197 36.1134 137.14 36.2815 137.14 36.4946C137.14 36.7858 137.248 37.0059 137.464 37.1551C137.681 37.3019 137.957 37.3752 138.291 37.3752ZM144.565 32.5457V33.2559H141.738V32.5457H144.565ZM142.562 31.2389H143.4V36.4377C143.4 36.6745 143.435 36.852 143.503 36.9704C143.574 37.0864 143.664 37.1645 143.773 37.2048C143.884 37.2427 144.002 37.2616 144.125 37.2616C144.217 37.2616 144.293 37.2569 144.352 37.2474C144.411 37.2356 144.458 37.2261 144.494 37.219L144.664 37.9718C144.608 37.9931 144.528 38.0144 144.426 38.0358C144.325 38.0594 144.196 38.0713 144.039 38.0713C143.803 38.0713 143.571 38.0204 143.343 37.9186C143.118 37.8168 142.931 37.6617 142.782 37.4534C142.636 37.245 142.562 36.9823 142.562 36.665V31.2389ZM148.054 38.1139C147.528 38.1139 147.075 37.9979 146.694 37.7659C146.315 37.5315 146.023 37.2048 145.817 36.7858C145.613 36.3644 145.511 35.8743 145.511 35.3156C145.511 34.7569 145.613 34.2644 145.817 33.8383C146.023 33.4098 146.309 33.076 146.676 32.8369C147.045 32.5954 147.476 32.4747 147.969 32.4747C148.253 32.4747 148.533 32.522 148.81 32.6167C149.087 32.7114 149.339 32.8653 149.567 33.0784C149.794 33.2891 149.975 33.5684 150.11 33.9164C150.245 34.2644 150.312 34.693 150.312 35.2019V35.5571H146.108V34.8326H149.46C149.46 34.5249 149.399 34.2502 149.276 34.0088C149.155 33.7673 148.982 33.5767 148.757 33.437C148.535 33.2974 148.272 33.2275 147.969 33.2275C147.635 33.2275 147.346 33.3104 147.102 33.4761C146.861 33.6394 146.675 33.8525 146.545 34.1153C146.415 34.3781 146.349 34.6598 146.349 34.9605V35.4434C146.349 35.8554 146.42 36.2046 146.562 36.491C146.707 36.7751 146.907 36.9917 147.163 37.1409C147.418 37.2876 147.715 37.361 148.054 37.361C148.274 37.361 148.473 37.3303 148.651 37.2687C148.83 37.2048 148.986 37.1101 149.116 36.9846C149.246 36.8568 149.347 36.6982 149.418 36.5088L150.227 36.736C150.142 37.0107 149.999 37.2521 149.798 37.4605C149.596 37.6664 149.348 37.8274 149.052 37.9434C148.756 38.0571 148.423 38.1139 148.054 38.1139ZM153.647 38.1139C153.192 38.1139 152.791 37.9991 152.443 37.7694C152.095 37.5374 151.823 37.2107 151.626 36.7893C151.43 36.3655 151.332 35.8648 151.332 35.2872C151.332 34.7143 151.43 34.2171 151.626 33.7957C151.823 33.3743 152.096 33.0488 152.447 32.8191C152.797 32.5895 153.202 32.4747 153.661 32.4747C154.016 32.4747 154.297 32.5339 154.503 32.6522C154.711 32.7682 154.87 32.9008 154.979 33.05C155.09 33.1967 155.176 33.3175 155.238 33.4122H155.309V30.7275H156.147V38.0002H155.337V37.1622H155.238C155.176 37.2616 155.089 37.3871 154.975 37.5386C154.862 37.6877 154.699 37.8215 154.489 37.9399C154.278 38.0559 153.997 38.1139 153.647 38.1139ZM153.761 37.361C154.097 37.361 154.381 37.2734 154.613 37.0983C154.845 36.9207 155.021 36.6757 155.142 36.3632C155.263 36.0483 155.323 35.6849 155.323 35.273C155.323 34.8658 155.264 34.5095 155.146 34.2041C155.027 33.8963 154.852 33.6572 154.62 33.4867C154.388 33.3139 154.102 33.2275 153.761 33.2275C153.406 33.2275 153.11 33.3187 152.873 33.501C152.638 33.6809 152.462 33.9259 152.344 34.236C152.228 34.5438 152.17 34.8894 152.17 35.273C152.17 35.6612 152.229 36.014 152.347 36.3312C152.468 36.6461 152.646 36.897 152.88 37.0841C153.117 37.2687 153.41 37.361 153.761 37.361ZM163.054 38.0997C162.585 38.0997 162.167 38.0192 161.8 37.8582C161.436 37.6972 161.146 37.4735 160.93 37.187C160.717 36.8982 160.601 36.5632 160.582 36.1821H161.477C161.496 36.4164 161.577 36.6189 161.719 36.7893C161.861 36.9574 162.047 37.0876 162.276 37.1799C162.506 37.2723 162.76 37.3184 163.04 37.3184C163.352 37.3184 163.629 37.264 163.871 37.1551C164.112 37.0462 164.302 36.8947 164.439 36.7005C164.576 36.5064 164.645 36.2815 164.645 36.0258C164.645 35.7583 164.579 35.5227 164.446 35.3191C164.313 35.1132 164.119 34.9522 163.864 34.8362C163.608 34.7202 163.295 34.6622 162.926 34.6622H162.344V33.8809H162.926C163.215 33.8809 163.468 33.8288 163.686 33.7247C163.906 33.6205 164.078 33.4737 164.201 33.2843C164.326 33.0949 164.389 32.8724 164.389 32.6167C164.389 32.3705 164.335 32.1563 164.226 31.974C164.117 31.7917 163.963 31.6496 163.764 31.5478C163.568 31.446 163.336 31.3951 163.068 31.3951C162.817 31.3951 162.58 31.4413 162.358 31.5336C162.138 31.6236 161.958 31.755 161.818 31.9278C161.679 32.0983 161.603 32.3042 161.591 32.5457H160.739C160.753 32.1645 160.868 31.8307 161.083 31.5443C161.299 31.2555 161.58 31.0305 161.928 30.8696C162.279 30.7086 162.663 30.6281 163.082 30.6281C163.532 30.6281 163.918 30.7192 164.24 30.9015C164.562 31.0814 164.809 31.3194 164.982 31.6153C165.155 31.9112 165.241 32.2308 165.241 32.5741C165.241 32.9837 165.134 33.3329 164.918 33.6217C164.705 33.9105 164.415 34.1106 164.048 34.2218V34.2787C164.508 34.3544 164.866 34.5497 165.124 34.8646C165.382 35.1771 165.511 35.5642 165.511 36.0258C165.511 36.4212 165.404 36.7763 165.188 37.0912C164.975 37.4037 164.684 37.6499 164.315 37.8298C163.945 38.0097 163.525 38.0997 163.054 38.0997ZM166.964 38.0002V37.361L169.364 34.7332C169.646 34.4254 169.878 34.1579 170.06 33.9306C170.243 33.701 170.378 33.4856 170.465 33.2843C170.555 33.0807 170.6 32.8677 170.6 32.6451C170.6 32.3894 170.539 32.1681 170.415 31.9811C170.295 31.794 170.129 31.6496 169.918 31.5478C169.708 31.446 169.471 31.3951 169.208 31.3951C168.929 31.3951 168.685 31.4531 168.477 31.5691C168.271 31.6828 168.111 31.8426 167.997 32.0485C167.886 32.2545 167.83 32.496 167.83 32.773H166.992C166.992 32.3468 167.09 31.9728 167.287 31.6508C167.483 31.3288 167.751 31.0779 168.089 30.898C168.43 30.718 168.813 30.6281 169.237 30.6281C169.663 30.6281 170.04 30.718 170.369 30.898C170.698 31.0779 170.956 31.3206 171.143 31.626C171.33 31.9314 171.424 32.2711 171.424 32.6451C171.424 32.9126 171.375 33.1742 171.278 33.4299C171.184 33.6832 171.018 33.9662 170.781 34.2787C170.547 34.5888 170.221 34.9676 169.805 35.415L168.171 37.1622V37.219H171.552V38.0002H166.964ZM175.845 40.0457V32.5457H176.655V33.4122H176.754C176.816 33.3175 176.901 33.1967 177.01 33.05C177.121 32.9008 177.28 32.7682 177.486 32.6522C177.694 32.5339 177.976 32.4747 178.331 32.4747C178.79 32.4747 179.195 32.5895 179.545 32.8191C179.896 33.0488 180.169 33.3743 180.366 33.7957C180.562 34.2171 180.661 34.7143 180.661 35.2872C180.661 35.8648 180.562 36.3655 180.366 36.7893C180.169 37.2107 179.897 37.5374 179.549 37.7694C179.201 37.9991 178.8 38.1139 178.345 38.1139C177.995 38.1139 177.714 38.0559 177.504 37.9399C177.293 37.8215 177.131 37.6877 177.017 37.5386C176.903 37.3871 176.816 37.2616 176.754 37.1622H176.683V40.0457H175.845ZM176.669 35.273C176.669 35.6849 176.729 36.0483 176.85 36.3632C176.971 36.6757 177.147 36.9207 177.379 37.0983C177.611 37.2734 177.895 37.361 178.232 37.361C178.582 37.361 178.874 37.2687 179.109 37.0841C179.345 36.897 179.523 36.6461 179.641 36.3312C179.762 36.014 179.822 35.6612 179.822 35.273C179.822 34.8894 179.763 34.5438 179.645 34.236C179.529 33.9259 179.353 33.6809 179.116 33.501C178.881 33.3187 178.587 33.2275 178.232 33.2275C177.891 33.2275 177.604 33.3139 177.372 33.4867C177.14 33.6572 176.965 33.8963 176.847 34.2041C176.728 34.5095 176.669 34.8658 176.669 35.273ZM184.155 38.1139C183.662 38.1139 183.23 37.9967 182.859 37.7623C182.489 37.5279 182.201 37.2001 181.992 36.7787C181.786 36.3573 181.683 35.8648 181.683 35.3014C181.683 34.7332 181.786 34.2372 181.992 33.8135C182.201 33.3897 182.489 33.0606 182.859 32.8262C183.23 32.5919 183.662 32.4747 184.155 32.4747C184.647 32.4747 185.078 32.5919 185.447 32.8262C185.819 33.0606 186.108 33.3897 186.314 33.8135C186.522 34.2372 186.626 34.7332 186.626 35.3014C186.626 35.8648 186.522 36.3573 186.314 36.7787C186.108 37.2001 185.819 37.5279 185.447 37.7623C185.078 37.9967 184.647 38.1139 184.155 38.1139ZM184.155 37.361C184.529 37.361 184.837 37.2652 185.078 37.0734C185.32 36.8816 185.498 36.6295 185.614 36.317C185.73 36.0045 185.788 35.666 185.788 35.3014C185.788 34.9368 185.73 34.5971 185.614 34.2822C185.498 33.9673 185.32 33.7128 185.078 33.5187C184.837 33.3246 184.529 33.2275 184.155 33.2275C183.781 33.2275 183.473 33.3246 183.232 33.5187C182.99 33.7128 182.811 33.9673 182.695 34.2822C182.579 34.5971 182.521 34.9368 182.521 35.3014C182.521 35.666 182.579 36.0045 182.695 36.317C182.811 36.6295 182.99 36.8816 183.232 37.0734C183.473 37.2652 183.781 37.361 184.155 37.361ZM187.906 38.0002V32.5457H188.744V38.0002H187.906ZM188.332 31.6366C188.169 31.6366 188.028 31.581 187.909 31.4697C187.793 31.3584 187.735 31.2247 187.735 31.0684C187.735 30.9122 187.793 30.7784 187.909 30.6671C188.028 30.5559 188.169 30.5002 188.332 30.5002C188.495 30.5002 188.635 30.5559 188.751 30.6671C188.869 30.7784 188.928 30.9122 188.928 31.0684C188.928 31.2247 188.869 31.3584 188.751 31.4697C188.635 31.581 188.495 31.6366 188.332 31.6366ZM191.117 34.719V38.0002H190.279V32.5457H191.088V33.398H191.159C191.287 33.121 191.481 32.8984 191.742 32.7304C192.002 32.5599 192.338 32.4747 192.75 32.4747C193.12 32.4747 193.443 32.5504 193.72 32.7019C193.997 32.8511 194.212 33.0784 194.366 33.3838C194.52 33.6868 194.597 34.0703 194.597 34.5343V38.0002H193.759V34.5912C193.759 34.1626 193.648 33.8288 193.425 33.5897C193.203 33.3483 192.897 33.2275 192.509 33.2275C192.241 33.2275 192.002 33.2855 191.792 33.4015C191.583 33.5175 191.419 33.6868 191.298 33.9093C191.177 34.1319 191.117 34.4018 191.117 34.719ZM198.501 32.5457V33.2559H195.674V32.5457H198.501ZM196.498 31.2389H197.336V36.4377C197.336 36.6745 197.37 36.852 197.439 36.9704C197.51 37.0864 197.6 37.1645 197.709 37.2048C197.82 37.2427 197.937 37.2616 198.06 37.2616C198.153 37.2616 198.228 37.2569 198.287 37.2474C198.347 37.2356 198.394 37.2261 198.43 37.219L198.6 37.9718C198.543 37.9931 198.464 38.0144 198.362 38.0358C198.26 38.0594 198.131 38.0713 197.975 38.0713C197.738 38.0713 197.506 38.0204 197.279 37.9186C197.054 37.8168 196.867 37.6617 196.718 37.4534C196.571 37.245 196.498 36.9823 196.498 36.665V31.2389ZM205.003 32.5457V33.2559H202.062V32.5457H205.003ZM202.943 38.0002V31.7929C202.943 31.4804 203.016 31.2199 203.163 31.0116C203.31 30.8033 203.501 30.647 203.735 30.5429C203.969 30.4387 204.217 30.3866 204.477 30.3866C204.683 30.3866 204.851 30.4032 204.981 30.4363C205.112 30.4695 205.209 30.5002 205.273 30.5287L205.031 31.2531C204.988 31.2389 204.929 31.2211 204.854 31.1998C204.78 31.1785 204.683 31.1679 204.562 31.1679C204.285 31.1679 204.085 31.2377 203.962 31.3774C203.841 31.5171 203.781 31.7218 203.781 31.9917V38.0002H202.943ZM206.177 38.0002V32.5457H206.987V33.3696H207.044C207.143 33.0997 207.323 32.8807 207.583 32.7126C207.844 32.5445 208.137 32.4605 208.464 32.4605C208.526 32.4605 208.603 32.4617 208.695 32.464C208.787 32.4664 208.857 32.4699 208.904 32.4747V33.3269C208.876 33.3198 208.811 33.3092 208.709 33.295C208.61 33.2784 208.504 33.2701 208.393 33.2701C208.128 33.2701 207.891 33.3258 207.683 33.437C207.477 33.5459 207.314 33.6975 207.193 33.8916C207.074 34.0833 207.015 34.3023 207.015 34.5485V38.0002H206.177ZM211.948 38.1139C211.455 38.1139 211.023 37.9967 210.652 37.7623C210.282 37.5279 209.993 37.2001 209.785 36.7787C209.579 36.3573 209.476 35.8648 209.476 35.3014C209.476 34.7332 209.579 34.2372 209.785 33.8135C209.993 33.3897 210.282 33.0606 210.652 32.8262C211.023 32.5919 211.455 32.4747 211.948 32.4747C212.44 32.4747 212.871 32.5919 213.24 32.8262C213.612 33.0606 213.901 33.3897 214.107 33.8135C214.315 34.2372 214.419 34.7332 214.419 35.3014C214.419 35.8648 214.315 36.3573 214.107 36.7787C213.901 37.2001 213.612 37.5279 213.24 37.7623C212.871 37.9967 212.44 38.1139 211.948 38.1139ZM211.948 37.361C212.322 37.361 212.63 37.2652 212.871 37.0734C213.113 36.8816 213.291 36.6295 213.407 36.317C213.523 36.0045 213.581 35.666 213.581 35.3014C213.581 34.9368 213.523 34.5971 213.407 34.2822C213.291 33.9673 213.113 33.7128 212.871 33.5187C212.63 33.3246 212.322 33.2275 211.948 33.2275C211.574 33.2275 211.266 33.3246 211.025 33.5187C210.783 33.7128 210.604 33.9673 210.488 34.2822C210.372 34.5971 210.314 34.9368 210.314 35.3014C210.314 35.666 210.372 36.0045 210.488 36.317C210.604 36.6295 210.783 36.8816 211.025 37.0734C211.266 37.2652 211.574 37.361 211.948 37.361ZM215.699 38.0002V32.5457H216.508V33.398H216.579C216.693 33.1068 216.876 32.8807 217.13 32.7197C217.383 32.5564 217.687 32.4747 218.042 32.4747C218.402 32.4747 218.702 32.5564 218.941 32.7197C219.182 32.8807 219.371 33.1068 219.506 33.398H219.562C219.702 33.1162 219.912 32.8925 220.191 32.7268C220.47 32.5587 220.805 32.4747 221.196 32.4747C221.684 32.4747 222.082 32.6274 222.393 32.9328C222.703 33.2358 222.858 33.7081 222.858 34.3497V38.0002H222.02V34.3497C222.02 33.9472 221.91 33.6596 221.689 33.4867C221.469 33.3139 221.21 33.2275 220.912 33.2275C220.528 33.2275 220.231 33.3435 220.02 33.5755C219.81 33.8052 219.704 34.0964 219.704 34.4491V38.0002H218.852V34.2644C218.852 33.9543 218.751 33.7046 218.55 33.5152C218.349 33.3234 218.09 33.2275 217.773 33.2275C217.555 33.2275 217.351 33.2855 217.162 33.4015C216.975 33.5175 216.823 33.6785 216.707 33.8845C216.594 34.0881 216.537 34.3236 216.537 34.5912V38.0002H215.699ZM227.742 40.0457C227.6 40.0457 227.474 40.0339 227.362 40.0102C227.251 39.9889 227.174 39.9676 227.132 39.9463L227.345 39.2076C227.548 39.2597 227.728 39.2787 227.884 39.2644C228.041 39.2502 228.179 39.1804 228.3 39.0549C228.423 38.9318 228.535 38.7318 228.637 38.4548L228.794 38.0287L226.776 32.5457H227.686L229.191 36.8923H229.248L230.754 32.5457H231.663L229.347 38.7957C229.243 39.0774 229.114 39.3106 228.96 39.4953C228.807 39.6823 228.628 39.8208 228.424 39.9108C228.223 40.0007 227.996 40.0457 227.742 40.0457ZM234.79 38.1139C234.297 38.1139 233.865 37.9967 233.493 37.7623C233.124 37.5279 232.835 37.2001 232.627 36.7787C232.421 36.3573 232.318 35.8648 232.318 35.3014C232.318 34.7332 232.421 34.2372 232.627 33.8135C232.835 33.3897 233.124 33.0606 233.493 32.8262C233.865 32.5919 234.297 32.4747 234.79 32.4747C235.282 32.4747 235.713 32.5919 236.082 32.8262C236.454 33.0606 236.743 33.3897 236.949 33.8135C237.157 34.2372 237.261 34.7332 237.261 35.3014C237.261 35.8648 237.157 36.3573 236.949 36.7787C236.743 37.2001 236.454 37.5279 236.082 37.7623C235.713 37.9967 235.282 38.1139 234.79 38.1139ZM234.79 37.361C235.164 37.361 235.471 37.2652 235.713 37.0734C235.954 36.8816 236.133 36.6295 236.249 36.317C236.365 36.0045 236.423 35.666 236.423 35.3014C236.423 34.9368 236.365 34.5971 236.249 34.2822C236.133 33.9673 235.954 33.7128 235.713 33.5187C235.471 33.3246 235.164 33.2275 234.79 33.2275C234.416 33.2275 234.108 33.3246 233.866 33.5187C233.625 33.7128 233.446 33.9673 233.33 34.2822C233.214 34.5971 233.156 34.9368 233.156 35.3014C233.156 35.666 233.214 36.0045 233.33 36.317C233.446 36.6295 233.625 36.8816 233.866 37.0734C234.108 37.2652 234.416 37.361 234.79 37.361ZM241.978 35.7701V32.5457H242.816V38.0002H241.978V37.0769H241.921C241.793 37.3539 241.594 37.5895 241.325 37.7836C241.055 37.9754 240.714 38.0713 240.302 38.0713C239.961 38.0713 239.658 37.9967 239.393 37.8475C239.128 37.696 238.919 37.4688 238.768 37.1657C238.616 36.8603 238.54 36.4756 238.54 36.0116V32.5457H239.379V35.9548C239.379 36.3525 239.49 36.6698 239.712 36.9065C239.937 37.1432 240.224 37.2616 240.572 37.2616C240.78 37.2616 240.992 37.2083 241.207 37.1018C241.425 36.9953 241.607 36.8319 241.754 36.6117C241.903 36.3916 241.978 36.111 241.978 35.7701ZM244.351 38.0002V32.5457H245.161V33.3696H245.218C245.317 33.0997 245.497 32.8807 245.757 32.7126C246.018 32.5445 246.311 32.4605 246.638 32.4605C246.7 32.4605 246.776 32.4617 246.869 32.464C246.961 32.4664 247.031 32.4699 247.078 32.4747V33.3269C247.05 33.3198 246.985 33.3092 246.883 33.295C246.784 33.2784 246.678 33.2701 246.567 33.2701C246.302 33.2701 246.065 33.3258 245.857 33.437C245.651 33.5459 245.487 33.6975 245.367 33.8916C245.248 34.0833 245.189 34.3023 245.189 34.5485V38.0002H244.351ZM252.944 38.1139C252.489 38.1139 252.088 37.9991 251.74 37.7694C251.392 37.5374 251.12 37.2107 250.923 36.7893C250.727 36.3655 250.629 35.8648 250.629 35.2872C250.629 34.7143 250.727 34.2171 250.923 33.7957C251.12 33.3743 251.393 33.0488 251.744 32.8191C252.094 32.5895 252.499 32.4747 252.958 32.4747C253.313 32.4747 253.594 32.5339 253.8 32.6522C254.008 32.7682 254.167 32.9008 254.276 33.05C254.387 33.1967 254.473 33.3175 254.535 33.4122H254.606V30.7275H255.444V38.0002H254.634V37.1622H254.535C254.473 37.2616 254.386 37.3871 254.272 37.5386C254.158 37.6877 253.996 37.8215 253.786 37.9399C253.575 38.0559 253.294 38.1139 252.944 38.1139ZM253.058 37.361C253.394 37.361 253.678 37.2734 253.91 37.0983C254.142 36.9207 254.318 36.6757 254.439 36.3632C254.56 36.0483 254.62 35.6849 254.62 35.273C254.62 34.8658 254.561 34.5095 254.442 34.2041C254.324 33.8963 254.149 33.6572 253.917 33.4867C253.685 33.3139 253.398 33.2275 253.058 33.2275C252.702 33.2275 252.406 33.3187 252.17 33.501C251.935 33.6809 251.759 33.9259 251.641 34.236C251.525 34.5438 251.467 34.8894 251.467 35.273C251.467 35.6612 251.526 36.014 251.644 36.3312C251.765 36.6461 251.942 36.897 252.177 37.0841C252.414 37.2687 252.707 37.361 253.058 37.361ZM259.311 38.1139C258.819 38.1139 258.387 37.9967 258.015 37.7623C257.646 37.5279 257.357 37.2001 257.148 36.7787C256.942 36.3573 256.839 35.8648 256.839 35.3014C256.839 34.7332 256.942 34.2372 257.148 33.8135C257.357 33.3897 257.646 33.0606 258.015 32.8262C258.387 32.5919 258.819 32.4747 259.311 32.4747C259.804 32.4747 260.234 32.5919 260.604 32.8262C260.975 33.0606 261.264 33.3897 261.47 33.8135C261.679 34.2372 261.783 34.7332 261.783 35.3014C261.783 35.8648 261.679 36.3573 261.47 36.7787C261.264 37.2001 260.975 37.5279 260.604 37.7623C260.234 37.9967 259.804 38.1139 259.311 38.1139ZM259.311 37.361C259.685 37.361 259.993 37.2652 260.234 37.0734C260.476 36.8816 260.655 36.6295 260.771 36.317C260.887 36.0045 260.945 35.666 260.945 35.3014C260.945 34.9368 260.887 34.5971 260.771 34.2822C260.655 33.9673 260.476 33.7128 260.234 33.5187C259.993 33.3246 259.685 33.2275 259.311 33.2275C258.937 33.2275 258.629 33.3246 258.388 33.5187C258.146 33.7128 257.968 33.9673 257.852 34.2822C257.736 34.5971 257.678 34.9368 257.678 35.3014C257.678 35.666 257.736 36.0045 257.852 36.317C257.968 36.6295 258.146 36.8816 258.388 37.0734C258.629 37.2652 258.937 37.361 259.311 37.361ZM263.9 34.719V38.0002H263.062V32.5457H263.872V33.398H263.943C264.07 33.121 264.265 32.8984 264.525 32.7304C264.785 32.5599 265.122 32.4747 265.534 32.4747C265.903 32.4747 266.226 32.5504 266.503 32.7019C266.78 32.8511 266.995 33.0784 267.149 33.3838C267.303 33.6868 267.38 34.0703 267.38 34.5343V38.0002H266.542V34.5912C266.542 34.1626 266.431 33.8288 266.208 33.5897C265.986 33.3483 265.68 33.2275 265.292 33.2275C265.025 33.2275 264.785 33.2855 264.575 33.4015C264.366 33.5175 264.202 33.6868 264.081 33.9093C263.96 34.1319 263.9 34.4018 263.9 34.719ZM270.517 38.1281C270.171 38.1281 269.857 38.063 269.576 37.9328C269.294 37.8002 269.07 37.6096 268.904 37.361C268.739 37.1101 268.656 36.8071 268.656 36.4519C268.656 36.1394 268.717 35.8861 268.841 35.692C268.964 35.4955 269.128 35.3416 269.334 35.2304C269.54 35.1191 269.767 35.0362 270.016 34.9818C270.267 34.925 270.519 34.88 270.772 34.8468C271.104 34.8042 271.373 34.7723 271.578 34.751C271.787 34.7273 271.938 34.6882 272.033 34.6338C272.13 34.5793 272.179 34.4846 272.179 34.3497V34.3213C272.179 33.9709 272.083 33.6986 271.891 33.5045C271.702 33.3104 271.414 33.2133 271.028 33.2133C270.628 33.2133 270.314 33.3009 270.087 33.4761C269.86 33.6513 269.7 33.8383 269.608 34.0372L268.812 33.7531C268.954 33.4216 269.144 33.1636 269.38 32.9789C269.619 32.7919 269.88 32.6617 270.162 32.5883C270.446 32.5126 270.725 32.4747 271 32.4747C271.175 32.4747 271.376 32.496 271.603 32.5386C271.833 32.5788 272.054 32.6629 272.267 32.7907C272.483 32.9186 272.662 33.1115 272.804 33.3696C272.946 33.6276 273.017 33.9733 273.017 34.4065V38.0002H272.179V37.2616H272.136C272.079 37.38 271.984 37.5066 271.852 37.6416C271.719 37.7765 271.543 37.8913 271.323 37.986C271.103 38.0807 270.834 38.1281 270.517 38.1281ZM270.645 37.3752C270.976 37.3752 271.255 37.3101 271.483 37.1799C271.712 37.0497 271.885 36.8816 272.001 36.6757C272.119 36.4697 272.179 36.2531 272.179 36.0258V35.2588C272.143 35.3014 272.065 35.3404 271.944 35.376C271.826 35.4091 271.689 35.4387 271.532 35.4647C271.378 35.4884 271.228 35.5097 271.081 35.5287C270.937 35.5452 270.82 35.5594 270.73 35.5713C270.512 35.5997 270.308 35.6458 270.119 35.7098C269.932 35.7713 269.78 35.8648 269.664 35.9903C269.551 36.1134 269.494 36.2815 269.494 36.4946C269.494 36.7858 269.602 37.0059 269.817 37.1551C270.035 37.3019 270.311 37.3752 270.645 37.3752ZM276.919 32.5457V33.2559H274.092V32.5457H276.919ZM274.916 31.2389H275.754V36.4377C275.754 36.6745 275.788 36.852 275.857 36.9704C275.928 37.0864 276.018 37.1645 276.127 37.2048C276.238 37.2427 276.355 37.2616 276.478 37.2616C276.57 37.2616 276.646 37.2569 276.705 37.2474C276.765 37.2356 276.812 37.2261 276.847 37.219L277.018 37.9718C276.961 37.9931 276.882 38.0144 276.78 38.0358C276.678 38.0594 276.549 38.0713 276.393 38.0713C276.156 38.0713 275.924 38.0204 275.697 37.9186C275.472 37.8168 275.285 37.6617 275.136 37.4534C274.989 37.245 274.916 36.9823 274.916 36.665V31.2389ZM278.179 38.0002V32.5457H279.017V38.0002H278.179ZM278.605 31.6366C278.442 31.6366 278.301 31.581 278.183 31.4697C278.067 31.3584 278.009 31.2247 278.009 31.0684C278.009 30.9122 278.067 30.7784 278.183 30.6671C278.301 30.5559 278.442 30.5002 278.605 30.5002C278.769 30.5002 278.908 30.5559 279.024 30.6671C279.143 30.7784 279.202 30.9122 279.202 31.0684C279.202 31.2247 279.143 31.3584 279.024 31.4697C278.908 31.581 278.769 31.6366 278.605 31.6366ZM282.768 38.1139C282.276 38.1139 281.844 37.9967 281.472 37.7623C281.103 37.5279 280.814 37.2001 280.605 36.7787C280.4 36.3573 280.297 35.8648 280.297 35.3014C280.297 34.7332 280.4 34.2372 280.605 33.8135C280.814 33.3897 281.103 33.0606 281.472 32.8262C281.844 32.5919 282.276 32.4747 282.768 32.4747C283.261 32.4747 283.691 32.5919 284.061 32.8262C284.432 33.0606 284.721 33.3897 284.927 33.8135C285.136 34.2372 285.24 34.7332 285.24 35.3014C285.24 35.8648 285.136 36.3573 284.927 36.7787C284.721 37.2001 284.432 37.5279 284.061 37.7623C283.691 37.9967 283.261 38.1139 282.768 38.1139ZM282.768 37.361C283.142 37.361 283.45 37.2652 283.691 37.0734C283.933 36.8816 284.112 36.6295 284.228 36.317C284.344 36.0045 284.402 35.666 284.402 35.3014C284.402 34.9368 284.344 34.5971 284.228 34.2822C284.112 33.9673 283.933 33.7128 283.691 33.5187C283.45 33.3246 283.142 33.2275 282.768 33.2275C282.394 33.2275 282.086 33.3246 281.845 33.5187C281.603 33.7128 281.425 33.9673 281.309 34.2822C281.193 34.5971 281.135 34.9368 281.135 35.3014C281.135 35.666 281.193 36.0045 281.309 36.317C281.425 36.6295 281.603 36.8816 281.845 37.0734C282.086 37.2652 282.394 37.361 282.768 37.361ZM287.357 34.719V38.0002H286.519V32.5457H287.329V33.398H287.4C287.528 33.121 287.722 32.8984 287.982 32.7304C288.242 32.5599 288.579 32.4747 288.991 32.4747C289.36 32.4747 289.683 32.5504 289.96 32.7019C290.237 32.8511 290.452 33.0784 290.606 33.3838C290.76 33.6868 290.837 34.0703 290.837 34.5343V38.0002H289.999V34.5912C289.999 34.1626 289.888 33.8288 289.665 33.5897C289.443 33.3483 289.137 33.2275 288.749 33.2275C288.482 33.2275 288.242 33.2855 288.032 33.4015C287.823 33.5175 287.659 33.6868 287.538 33.9093C287.417 34.1319 287.357 34.4018 287.357 34.719ZM296.232 33.7673L295.479 33.9804C295.432 33.8549 295.362 33.733 295.27 33.6146C295.18 33.4939 295.057 33.3944 294.901 33.3163C294.744 33.2382 294.544 33.1991 294.3 33.1991C293.967 33.1991 293.688 33.276 293.466 33.4299C293.246 33.5814 293.136 33.7744 293.136 34.0088C293.136 34.2171 293.211 34.3816 293.363 34.5024C293.514 34.6231 293.751 34.7237 294.073 34.8042L294.883 35.0031C295.371 35.1215 295.734 35.3026 295.973 35.5464C296.212 35.7879 296.332 36.0992 296.332 36.4804C296.332 36.7929 296.242 37.0722 296.062 37.3184C295.884 37.5646 295.636 37.7588 295.316 37.9008C294.996 38.0429 294.625 38.1139 294.201 38.1139C293.645 38.1139 293.184 37.9931 292.82 37.7517C292.455 37.5102 292.224 37.1574 292.127 36.6934L292.923 36.4946C292.998 36.7881 293.142 37.0083 293.352 37.1551C293.565 37.3019 293.844 37.3752 294.187 37.3752C294.577 37.3752 294.888 37.2924 295.117 37.1267C295.349 36.9586 295.465 36.7573 295.465 36.523C295.465 36.3336 295.399 36.175 295.266 36.0471C295.134 35.9169 294.93 35.8198 294.656 35.7559L293.746 35.5429C293.247 35.4245 292.88 35.241 292.646 34.9924C292.414 34.7415 292.298 34.4278 292.298 34.0514C292.298 33.7436 292.384 33.4714 292.557 33.2346C292.732 32.9979 292.97 32.812 293.271 32.6771C293.574 32.5421 293.917 32.4747 294.3 32.4747C294.84 32.4747 295.264 32.593 295.572 32.8298C295.882 33.0665 296.102 33.379 296.232 33.7673ZM68.4517 44.5457V45.2559H65.625V44.5457H68.4517ZM66.4489 43.2389H67.2869V48.4377C67.2869 48.6745 67.3213 48.852 67.3899 48.9704C67.4609 49.0864 67.5509 49.1645 67.6598 49.2048C67.7711 49.2427 67.8883 49.2616 68.0114 49.2616C68.1037 49.2616 68.1795 49.2569 68.2386 49.2474C68.2978 49.2356 68.3452 49.2261 68.3807 49.219L68.5511 49.9718C68.4943 49.9931 68.415 50.0144 68.3132 50.0358C68.2114 50.0594 68.0824 50.0713 67.9261 50.0713C67.6894 50.0713 67.4574 50.0204 67.2301 49.9186C67.0052 49.8168 66.8182 49.6617 66.669 49.4534C66.5223 49.245 66.4489 48.9823 66.4489 48.665V43.2389ZM70.6676 46.719V50.0002H69.8295V42.7275H70.6676V45.398H70.7386C70.8665 45.1162 71.0582 44.8925 71.3139 44.7268C71.572 44.5587 71.9152 44.4747 72.3438 44.4747C72.7154 44.4747 73.041 44.5492 73.3203 44.6984C73.5997 44.8452 73.8163 45.0713 73.9702 45.3767C74.1264 45.6797 74.2045 46.0656 74.2045 46.5343V50.0002H73.3665V46.5912C73.3665 46.1579 73.254 45.8229 73.0291 45.5862C72.8066 45.3471 72.4976 45.2275 72.1023 45.2275C71.8277 45.2275 71.5814 45.2855 71.3636 45.4015C71.1482 45.5175 70.9777 45.6868 70.8523 45.9093C70.7292 46.1319 70.6676 46.4018 70.6676 46.719ZM75.7377 50.0002V44.5457H76.5758V50.0002H75.7377ZM76.1639 43.6366C76.0005 43.6366 75.8597 43.581 75.7413 43.4697C75.6253 43.3584 75.5673 43.2247 75.5673 43.0684C75.5673 42.9122 75.6253 42.7784 75.7413 42.6671C75.8597 42.5559 76.0005 42.5002 76.1639 42.5002C76.3272 42.5002 76.4669 42.5559 76.5829 42.6671C76.7013 42.7784 76.7605 42.9122 76.7605 43.0684C76.7605 43.2247 76.7013 43.3584 76.5829 43.4697C76.4669 43.581 76.3272 43.6366 76.1639 43.6366ZM81.9744 45.7673L81.2216 45.9804C81.1742 45.8549 81.1044 45.733 81.0121 45.6146C80.9221 45.4939 80.799 45.3944 80.6428 45.3163C80.4865 45.2382 80.2865 45.1991 80.0426 45.1991C79.7088 45.1991 79.4306 45.276 79.2081 45.4299C78.9879 45.5814 78.8778 45.7744 78.8778 46.0088C78.8778 46.2171 78.9536 46.3816 79.1051 46.5024C79.2566 46.6231 79.4934 46.7237 79.8153 46.8042L80.625 47.0031C81.1127 47.1215 81.4761 47.3026 81.7152 47.5464C81.9543 47.7879 82.0739 48.0992 82.0739 48.4804C82.0739 48.7929 81.9839 49.0722 81.804 49.3184C81.6264 49.5646 81.3778 49.7588 81.0582 49.9008C80.7386 50.0429 80.367 50.1139 79.9432 50.1139C79.3868 50.1139 78.9264 49.9931 78.5618 49.7517C78.1972 49.5102 77.9664 49.1574 77.8693 48.6934L78.6648 48.4946C78.7405 48.7881 78.8838 49.0083 79.0945 49.1551C79.3075 49.3019 79.5857 49.3752 79.929 49.3752C80.3196 49.3752 80.6297 49.2924 80.8594 49.1267C81.0914 48.9586 81.2074 48.7573 81.2074 48.523C81.2074 48.3336 81.1411 48.175 81.0085 48.0471C80.8759 47.9169 80.6723 47.8198 80.3977 47.7559L79.4886 47.5429C78.9891 47.4245 78.6222 47.241 78.3878 46.9924C78.1558 46.7415 78.0398 46.4278 78.0398 46.0514C78.0398 45.7436 78.1262 45.4714 78.299 45.2346C78.4742 44.9979 78.7121 44.812 79.0128 44.6771C79.3158 44.5421 79.6591 44.4747 80.0426 44.4747C80.5824 44.4747 81.0062 44.593 81.3139 44.8298C81.6241 45.0665 81.8442 45.379 81.9744 45.7673ZM87.3837 50.0002L85.7218 44.5457H86.6025L87.7814 48.7218H87.8382L89.003 44.5457H89.8979L91.0485 48.7076H91.1053L92.2843 44.5457H93.165L91.503 50.0002H90.6792L89.486 45.8099H89.4007L88.2076 50.0002H87.3837ZM96.3743 50.1139C95.8487 50.1139 95.3954 49.9979 95.0142 49.7659C94.6354 49.5315 94.343 49.2048 94.1371 48.7858C93.9335 48.3644 93.8317 47.8743 93.8317 47.3156C93.8317 46.7569 93.9335 46.2644 94.1371 45.8383C94.343 45.4098 94.6295 45.076 94.9964 44.8369C95.3658 44.5954 95.7966 44.4747 96.2891 44.4747C96.5732 44.4747 96.8537 44.522 97.1307 44.6167C97.4077 44.7114 97.6598 44.8653 97.8871 45.0784C98.1143 45.2891 98.2955 45.5684 98.4304 45.9164C98.5653 46.2644 98.6328 46.693 98.6328 47.2019V47.5571H94.4283V46.8326H97.7805C97.7805 46.5249 97.719 46.2502 97.5959 46.0088C97.4751 45.7673 97.3023 45.5767 97.0774 45.437C96.8549 45.2974 96.5921 45.2275 96.2891 45.2275C95.9553 45.2275 95.6664 45.3104 95.4226 45.4761C95.1811 45.6394 94.9953 45.8525 94.8651 46.1153C94.7348 46.3781 94.6697 46.6598 94.6697 46.9605V47.4434C94.6697 47.8554 94.7408 48.2046 94.8828 48.491C95.0272 48.7751 95.2273 48.9917 95.483 49.1409C95.7386 49.2876 96.0357 49.361 96.3743 49.361C96.5945 49.361 96.7933 49.3303 96.9709 49.2687C97.1508 49.2048 97.3059 49.1101 97.4361 48.9846C97.5663 48.8568 97.6669 48.6982 97.7379 48.5088L98.5476 48.736C98.4624 49.0107 98.3191 49.2521 98.1179 49.4605C97.9167 49.6664 97.6681 49.8274 97.3722 49.9434C97.0762 50.0571 96.7436 50.1139 96.3743 50.1139ZM102.195 50.1139C101.669 50.1139 101.216 49.9979 100.835 49.7659C100.456 49.5315 100.163 49.2048 99.9574 48.7858C99.7538 48.3644 99.652 47.8743 99.652 47.3156C99.652 46.7569 99.7538 46.2644 99.9574 45.8383C100.163 45.4098 100.45 45.076 100.817 44.8369C101.186 44.5954 101.617 44.4747 102.109 44.4747C102.393 44.4747 102.674 44.522 102.951 44.6167C103.228 44.7114 103.48 44.8653 103.707 45.0784C103.935 45.2891 104.116 45.5684 104.251 45.9164C104.386 46.2644 104.453 46.693 104.453 47.2019V47.5571H100.249V46.8326H103.601C103.601 46.5249 103.539 46.2502 103.416 46.0088C103.295 45.7673 103.123 45.5767 102.898 45.437C102.675 45.2974 102.412 45.2275 102.109 45.2275C101.776 45.2275 101.487 45.3104 101.243 45.4761C101.001 45.6394 100.816 45.8525 100.685 46.1153C100.555 46.3781 100.49 46.6598 100.49 46.9605V47.4434C100.49 47.8554 100.561 48.2046 100.703 48.491C100.848 48.7751 101.048 48.9917 101.303 49.1409C101.559 49.2876 101.856 49.361 102.195 49.361C102.415 49.361 102.614 49.3303 102.791 49.2687C102.971 49.2048 103.126 49.1101 103.256 48.9846C103.387 48.8568 103.487 48.6982 103.558 48.5088L104.368 48.736C104.283 49.0107 104.139 49.2521 103.938 49.4605C103.737 49.6664 103.488 49.8274 103.192 49.9434C102.897 50.0571 102.564 50.1139 102.195 50.1139ZM106.509 48.0116L106.495 46.9747H106.665L109.052 44.5457H110.089L107.546 47.1167H107.475L106.509 48.0116ZM105.728 50.0002V42.7275H106.566V50.0002H105.728ZM109.194 50.0002L107.063 47.3014L107.66 46.719L110.259 50.0002H109.194Z" fill="black" fill-opacity="0.6"/>
</svg>
