<svg width="30" height="30" viewBox="0 0 30 30" fill="none" xmlns="http://www.w3.org/2000/svg">
<g clip-path="url(#clip0_11_54442)">
<path d="M22.9688 0H7.03125C3.148 0 0 3.148 0 7.03125V22.9688C0 26.852 3.148 30 7.03125 30H22.9688C26.852 30 30 26.852 30 22.9688V7.03125C30 3.148 26.852 0 22.9688 0Z" fill="#5865F2"/>
<mask id="mask0_11_54442" style="mask-type:luminance" maskUnits="userSpaceOnUse" x="3" y="5" width="24" height="20">
<path d="M3.28125 5.97656H26.7188V24.1324H3.28125V5.97656Z" fill="white"/>
</mask>
<g mask="url(#mask0_11_54442)">
<path d="M23.122 7.59339C21.6025 6.89587 19.9989 6.39848 18.3514 6.11367C18.3365 6.1109 18.321 6.11292 18.3072 6.11944C18.2935 6.12596 18.2821 6.13665 18.2748 6.14999C18.0688 6.51632 17.8405 6.99445 17.6808 7.37015C15.8793 7.10038 14.0871 7.10038 12.3226 7.37015C12.1628 6.98601 11.9263 6.51632 11.7193 6.14999C11.7117 6.13692 11.7003 6.12647 11.6866 6.11999C11.6729 6.11351 11.6575 6.1113 11.6426 6.11367C9.99493 6.3979 8.39127 6.89532 6.87199 7.59339C6.85899 7.59891 6.84801 7.60833 6.84058 7.62035C3.80215 12.1597 2.96988 16.5875 3.37816 20.9605C3.3793 20.9712 3.38258 20.9816 3.38782 20.991C3.39305 21.0004 3.40013 21.0087 3.40863 21.0153C5.41324 22.4876 7.35515 23.3814 9.26097 23.9737C9.2758 23.9782 9.29162 23.978 9.30632 23.9731C9.32103 23.9683 9.3339 23.9591 9.34324 23.9468C9.79406 23.3311 10.1959 22.682 10.5405 21.9994C10.5453 21.99 10.548 21.9798 10.5485 21.9693C10.549 21.9588 10.5473 21.9484 10.5434 21.9386C10.5396 21.9289 10.5337 21.92 10.5262 21.9127C10.5187 21.9054 10.5097 21.8997 10.4999 21.8961C9.86238 21.6543 9.25547 21.3595 8.67164 21.0247C8.661 21.0185 8.65208 21.0097 8.64564 20.9991C8.6392 20.9886 8.63545 20.9767 8.63472 20.9643C8.63399 20.952 8.6363 20.9397 8.64145 20.9285C8.6466 20.9173 8.65443 20.9075 8.66425 20.9C8.78742 20.808 8.90846 20.7131 9.0273 20.6155C9.0377 20.6069 9.05031 20.6014 9.06368 20.5996C9.07706 20.5977 9.09068 20.5997 9.103 20.6052C12.9388 22.3564 17.0913 22.3564 20.8818 20.6052C20.8941 20.5993 20.9079 20.5971 20.9215 20.5988C20.9351 20.6004 20.9479 20.6059 20.9585 20.6146C21.0775 20.7127 21.1988 20.8079 21.3225 20.9C21.3324 20.9074 21.3403 20.9172 21.3455 20.9283C21.3507 20.9395 21.3531 20.9518 21.3525 20.9641C21.3518 20.9764 21.3482 20.9884 21.3418 20.999C21.3355 21.0095 21.3266 21.0184 21.3161 21.0247C20.7319 21.3658 20.12 21.657 19.4869 21.8952C19.477 21.8989 19.4681 21.9047 19.4607 21.9122C19.4532 21.9196 19.4475 21.9286 19.4437 21.9384C19.44 21.9482 19.4383 21.9587 19.4389 21.9692C19.4395 21.9798 19.4423 21.99 19.4471 21.9994C19.7978 22.6766 20.1976 23.3271 20.6434 23.9459C20.6525 23.9585 20.6653 23.968 20.68 23.973C20.6948 23.978 20.7108 23.9783 20.7257 23.9737C22.6407 23.3814 24.5827 22.4876 26.5874 21.0153C26.596 21.009 26.6031 21.0009 26.6084 20.9917C26.6136 20.9824 26.6169 20.9721 26.6178 20.9614C27.1065 15.9059 25.7993 11.5143 23.1525 7.62128C23.146 7.60864 23.1352 7.59874 23.122 7.59339ZM11.1134 18.2979C9.95847 18.2979 9.00691 17.2377 9.00691 15.9356C9.00691 14.6335 9.94008 13.5734 11.1134 13.5734C12.2958 13.5734 13.2381 14.6429 13.2196 15.9356C13.2196 17.2377 12.2865 18.2979 11.1134 18.2979ZM18.9012 18.2979C17.7463 18.2979 16.7948 17.2377 16.7948 15.9356C16.7948 14.6335 17.7279 13.5734 18.9012 13.5734C20.0836 13.5734 21.0259 14.6429 21.0075 15.9356C21.0075 17.2377 20.0836 18.2979 18.9012 18.2979Z" fill="white"/>
</g>
</g>
<defs>
<clipPath id="clip0_11_54442">
<rect width="30" height="30" fill="white"/>
</clipPath>
</defs>
</svg>
