<svg width="63" height="62" viewBox="0 0 63 62" fill="none" xmlns="http://www.w3.org/2000/svg">
<rect x="0.5" width="62" height="62" rx="31" fill="#121212"/>
<path fill-rule="evenodd" clip-rule="evenodd" d="M30.5595 16.0123L29.8348 16.0874C26.3181 16.4383 22.7751 18.251 20.3794 20.9269C17.7301 23.8862 16.3839 27.5585 16.5078 31.4711C16.7238 38.2284 21.3707 43.95 27.9628 45.5788C29.9037 46.0472 31.9183 46.1258 33.8898 45.8102C35.8614 45.4945 37.7506 44.7908 39.4479 43.7398C42.7858 41.6612 45.1749 38.3572 46.102 34.5373C46.4249 33.2219 46.5 32.552 46.5 30.9963C46.5 29.4407 46.4249 28.7708 46.102 27.4553C44.6149 21.3848 39.6131 16.9187 33.389 16.1042C32.8558 16.0348 30.9162 15.9729 30.5595 16.0123ZM33.113 18.9172C35.222 19.1946 37.2223 20.0167 38.9165 21.3022C39.5343 21.7638 40.749 22.9779 41.2109 23.5953C42.2642 25.0046 43.0434 26.6616 43.3964 28.2472C43.7982 30.058 43.7982 31.9347 43.3964 33.7454C42.6191 37.2376 40.1576 40.3377 36.8944 41.9327C35.718 42.5081 34.4595 42.898 33.1637 43.0886C32.3676 43.2106 30.6553 43.2106 29.8592 43.0886C26.2017 42.5332 23.115 40.5384 21.1717 37.4722C20.6937 36.6801 20.295 35.8429 19.9813 34.9727C19.5341 33.6954 19.3149 32.3495 19.3336 30.9963C19.3336 29.0466 19.711 27.384 20.5465 25.667C21.1849 24.3572 21.8345 23.4527 22.8991 22.3887C23.8407 21.4126 24.9521 20.6159 26.1792 20.0374C28.329 18.9878 30.7417 18.598 33.113 18.9172ZM30.9594 24.0344C30.5389 24.1714 30.3004 24.4116 30.184 24.8132C30.1164 25.0421 30.1089 25.5657 30.1202 28.7745C30.1352 32.4713 30.1352 32.4731 30.2441 32.6777C30.3871 32.9397 30.6168 33.144 30.8937 33.2557C31.1416 33.342 31.8813 33.342 32.1292 33.2557C32.4061 33.144 32.6357 32.9397 32.7788 32.6777C32.8877 32.4731 32.8877 32.4713 32.9027 28.7745C32.9177 24.7362 32.9177 24.7325 32.6305 24.3928C32.3976 24.1151 32.1479 24.0232 31.5865 24.0082C31.3771 23.9964 31.1671 24.0052 30.9594 24.0344ZM31.1096 35.7439C30.734 35.8782 30.4215 36.147 30.2328 36.4983C30.0973 36.8348 30.0807 37.2075 30.1859 37.5548C30.2874 37.8266 30.4678 38.062 30.7039 38.2308C30.94 38.3997 31.2212 38.4942 31.5114 38.5024C32.0803 38.5024 32.6605 38.0896 32.837 37.5548C32.9422 37.2075 32.9256 36.8348 32.7901 36.4983C32.6346 36.2242 32.4091 35.9962 32.1367 35.8377C31.9189 35.7252 31.3312 35.6707 31.1096 35.7439Z" fill="#FF1515"/>
</svg>
