<svg width="38" height="32" viewBox="0 0 38 32" fill="none" xmlns="http://www.w3.org/2000/svg">
<path d="M8 5.5C8 2.45581 10.4558 0 13.5 0H19V11H13.5C10.4558 11 8 8.54419 8 5.5Z" fill="#F24E1E"/>
<path d="M19 0H24.5C27.5442 0 30 2.45581 30 5.5C30 8.54419 27.5442 11 24.5 11H19V0Z" fill="#FF7262"/>
<path d="M8 16C8 13.2326 10.4558 11 13.5 11H19V21H13.5C10.4558 21 8 18.7674 8 16Z" fill="#A259FF"/>
<path d="M30 16C30 18.7674 27.5442 21 24.5 21C21.4558 21 19 18.7674 19 16C19 13.2326 21.4558 11 24.5 11C27.5442 11 30 13.2326 30 16Z" fill="#1ABCFE"/>
<path d="M13.5 32C16.5442 32 19 29.5442 19 26.5V21H13.5C10.4558 21 8 23.4558 8 26.5C8 29.5442 10.4558 32 13.5 32Z" fill="#0ACF83"/>
</svg>
