<svg width="12" height="12" viewBox="0 0 12 12" fill="none" xmlns="http://www.w3.org/2000/svg">
<g clip-path="url(#clip0_99_194)">
<path d="M6.00001 0.375C3.54376 0.375 1.46251 1.93125 0.693756 4.125H11.3063C10.5375 1.93125 8.45626 0.375 6.00001 0.375Z" fill="#C94747"/>
<path d="M6.00001 11.625C8.45626 11.625 10.5375 10.0687 11.3063 7.875H0.693756C1.46251 10.0687 3.54376 11.625 6.00001 11.625Z" fill="#699635"/>
<path d="M0.69375 4.125C0.4875 4.70625 0.375 5.34375 0.375 6C0.375 6.65625 0.4875 7.29375 0.69375 7.875H11.3062C11.5125 7.29375 11.625 6.65625 11.625 6C11.625 5.34375 11.5125 4.70625 11.3062 4.125H0.69375Z" fill="#FFCE31"/>
<path d="M6 6.99375L7.1625 7.875L6.7125 6.45L7.875 5.53125H6.45L6 4.125L5.56875 5.53125H4.125L5.2875 6.45L4.8375 7.875L6 6.99375Z" fill="#3E4347"/>
</g>
<defs>
<clipPath id="clip0_99_194">
<rect width="12" height="12" fill="white"/>
</clipPath>
</defs>
</svg>
