<svg width="31" height="30" viewBox="0 0 31 30" fill="none" xmlns="http://www.w3.org/2000/svg">
<path d="M15.5 2.5C13.8585 2.5 12.233 2.82332 10.7165 3.45151C9.19989 4.07969 7.8219 5.00043 6.66117 6.16117C4.31696 8.50537 3 11.6848 3 15C3 20.525 6.5875 25.2125 11.55 26.875C12.175 26.975 12.375 26.5875 12.375 26.25V24.1375C8.9125 24.8875 8.175 22.4625 8.175 22.4625C7.6 21.0125 6.7875 20.625 6.7875 20.625C5.65 19.85 6.875 19.875 6.875 19.875C8.125 19.9625 8.7875 21.1625 8.7875 21.1625C9.875 23.0625 11.7125 22.5 12.425 22.2C12.5375 21.3875 12.8625 20.8375 13.2125 20.525C10.4375 20.2125 7.525 19.1375 7.525 14.375C7.525 12.9875 8 11.875 8.8125 10.9875C8.6875 10.675 8.25 9.375 8.9375 7.6875C8.9375 7.6875 9.9875 7.35 12.375 8.9625C13.3625 8.6875 14.4375 8.55 15.5 8.55C16.5625 8.55 17.6375 8.6875 18.625 8.9625C21.0125 7.35 22.0625 7.6875 22.0625 7.6875C22.75 9.375 22.3125 10.675 22.1875 10.9875C23 11.875 23.475 12.9875 23.475 14.375C23.475 19.15 20.55 20.2 17.7625 20.5125C18.2125 20.9 18.625 21.6625 18.625 22.825V26.25C18.625 26.5875 18.825 26.9875 19.4625 26.875C24.425 25.2 28 20.525 28 15C28 13.3585 27.6767 11.733 27.0485 10.2165C26.4203 8.69989 25.4996 7.3219 24.3388 6.16117C23.1781 5.00043 21.8001 4.07969 20.2835 3.45151C18.767 2.82332 17.1415 2.5 15.5 2.5Z" fill="#C4C4C4"/>
</svg>
