<svg width="12" height="8" viewBox="0 0 12 8" fill="none" xmlns="http://www.w3.org/2000/svg">
<g clip-path="url(#clip0_99_146)">
<path d="M2.72788 7.96061V3.86072L1.29025 2.69748L0.00109863 2.05197V7.23709C0.00109863 7.63742 0.367829 7.96061 0.819153 7.96061H2.72788Z" fill="#4285F4"/>
<path d="M9.27213 7.96063H11.1809C11.6335 7.96063 11.9989 7.63624 11.9989 7.23711V2.05203L10.5387 2.79139L9.27213 3.86074V7.96063Z" fill="#34A853"/>
<path d="M2.72788 3.86073L2.53226 2.25878L2.72788 0.725555L6 2.89608L9.27212 0.725555L9.49094 2.176L9.27212 3.86073L6 6.03125L2.72788 3.86073Z" fill="#EA4335"/>
<path d="M9.27213 0.725542V3.86071L11.9989 2.05197V1.08728C11.9989 0.192568 10.8441 -0.317484 10.0357 0.219096L9.27213 0.725542Z" fill="#FBBC04"/>
<path d="M0.00131226 2.05199L1.25541 2.8839L2.7281 3.86073V0.725561L1.96455 0.219115C1.1547 -0.317507 0.00131226 0.192586 0.00131226 1.08726V2.05199Z" fill="#C5221F"/>
</g>
<defs>
<clipPath id="clip0_99_146">
<rect width="12" height="8" fill="white"/>
</clipPath>
</defs>
</svg>
