<svg width="19" height="19" viewBox="0 0 19 19" fill="none" xmlns="http://www.w3.org/2000/svg">
<path d="M15.53 5.61501L11.21 2.59251C10.0325 1.76751 8.22499 1.81251 7.09249 2.69001L3.33499 5.62251C2.58499 6.20751 1.99249 7.40751 1.99249 8.35251V13.5275C1.99249 15.44 3.54499 17 5.45749 17H13.5425C15.455 17 17.0075 15.4475 17.0075 13.535V8.45002C17.0075 7.43751 16.355 6.19251 15.53 5.61501ZM10.0625 14C10.0625 14.3075 9.80749 14.5625 9.49999 14.5625C9.19249 14.5625 8.93749 14.3075 8.93749 14V11.75C8.93749 11.4425 9.19249 11.1875 9.49999 11.1875C9.80749 11.1875 10.0625 11.4425 10.0625 11.75V14Z" fill="white"/>
</svg>
