<svg width="12" height="12" viewBox="0 0 12 12" fill="none" xmlns="http://www.w3.org/2000/svg">
<g clip-path="url(#clip0_99_283)">
<path d="M5.9625 0.375C3.525 0.375 1.44375 1.95 0.675003 4.125H11.2875C10.5 1.95 8.41875 0.375 5.9625 0.375Z" fill="#F2B200"/>
<path d="M5.9625 11.625C8.41875 11.625 10.5 10.0687 11.2688 7.875H0.675003C1.44375 10.0687 3.525 11.625 5.9625 11.625Z" fill="#83BF4F"/>
<path d="M0.674997 4.125C0.468747 4.70625 0.356247 5.34375 0.356247 6C0.356247 6.65625 0.468747 7.29375 0.674997 7.875H11.2875C11.4937 7.29375 11.6062 6.65625 11.6062 6C11.6062 5.34375 11.4937 4.70625 11.2875 4.125H0.674997Z" fill="white"/>
<path d="M5.96249 7.5C6.79092 7.5 7.46249 6.82843 7.46249 6C7.46249 5.17157 6.79092 4.5 5.96249 4.5C5.13407 4.5 4.46249 5.17157 4.46249 6C4.46249 6.82843 5.13407 7.5 5.96249 7.5Z" fill="#428BC1"/>
<path d="M5.96249 7.3125C6.68737 7.3125 7.27499 6.72487 7.27499 6C7.27499 5.27513 6.68737 4.6875 5.96249 4.6875C5.23762 4.6875 4.64999 5.27513 4.64999 6C4.64999 6.72487 5.23762 7.3125 5.96249 7.3125Z" fill="white"/>
<path d="M5.47499 4.875C5.52677 4.875 5.56874 4.83303 5.56874 4.78125C5.56874 4.72947 5.52677 4.6875 5.47499 4.6875C5.42321 4.6875 5.38124 4.72947 5.38124 4.78125C5.38124 4.83303 5.42321 4.875 5.47499 4.875Z" fill="#428BC1"/>
<path d="M5.175 5.04373C5.22678 5.04373 5.26875 5.00176 5.26875 4.94998C5.26875 4.8982 5.22678 4.85623 5.175 4.85623C5.12323 4.85623 5.08125 4.8982 5.08125 4.94998C5.08125 5.00176 5.12323 5.04373 5.175 5.04373Z" fill="#428BC1"/>
<path d="M4.93124 5.28751C4.98302 5.28751 5.02499 5.24553 5.02499 5.19376C5.02499 5.14198 4.98302 5.10001 4.93124 5.10001C4.87947 5.10001 4.83749 5.14198 4.83749 5.19376C4.83749 5.24553 4.87947 5.28751 4.93124 5.28751Z" fill="#428BC1"/>
<path d="M4.7625 5.58749C4.81427 5.58749 4.85625 5.54552 4.85625 5.49374C4.85625 5.44197 4.81427 5.39999 4.7625 5.39999C4.71072 5.39999 4.66875 5.44197 4.66875 5.49374C4.66875 5.54552 4.71072 5.58749 4.7625 5.58749Z" fill="#428BC1"/>
<path d="M4.66875 5.92499C4.72052 5.92499 4.7625 5.88301 4.7625 5.83124C4.7625 5.77946 4.72052 5.73749 4.66875 5.73749C4.61697 5.73749 4.575 5.77946 4.575 5.83124C4.575 5.88301 4.61697 5.92499 4.66875 5.92499Z" fill="#428BC1"/>
<path d="M4.66875 6.26248C4.72052 6.26248 4.7625 6.22051 4.7625 6.16873C4.7625 6.11695 4.72052 6.07498 4.66875 6.07498C4.61697 6.07498 4.575 6.11695 4.575 6.16873C4.575 6.22051 4.61697 6.26248 4.66875 6.26248Z" fill="#428BC1"/>
<path d="M4.7625 6.60001C4.81427 6.60001 4.85625 6.55803 4.85625 6.50626C4.85625 6.45448 4.81427 6.41251 4.7625 6.41251C4.71072 6.41251 4.66875 6.45448 4.66875 6.50626C4.66875 6.55803 4.71072 6.60001 4.7625 6.60001Z" fill="#428BC1"/>
<path d="M4.93124 6.89999C4.98302 6.89999 5.02499 6.85802 5.02499 6.80624C5.02499 6.75447 4.98302 6.71249 4.93124 6.71249C4.87947 6.71249 4.83749 6.75447 4.83749 6.80624C4.83749 6.85802 4.87947 6.89999 4.93124 6.89999Z" fill="#428BC1"/>
<path d="M5.175 7.14374C5.22678 7.14374 5.26875 7.10176 5.26875 7.04999C5.26875 6.99821 5.22678 6.95624 5.175 6.95624C5.12323 6.95624 5.08125 6.99821 5.08125 7.04999C5.08125 7.10176 5.12323 7.14374 5.175 7.14374Z" fill="#428BC1"/>
<path d="M5.47499 7.3125C5.52677 7.3125 5.56874 7.27053 5.56874 7.21875C5.56874 7.16697 5.52677 7.125 5.47499 7.125C5.42321 7.125 5.38124 7.16697 5.38124 7.21875C5.38124 7.27053 5.42321 7.3125 5.47499 7.3125Z" fill="#428BC1"/>
<path d="M5.79375 7.38748C5.84552 7.38748 5.8875 7.34551 5.8875 7.29373C5.8875 7.24195 5.84552 7.19998 5.79375 7.19998C5.74197 7.19998 5.7 7.24195 5.7 7.29373C5.7 7.34551 5.74197 7.38748 5.79375 7.38748Z" fill="#428BC1"/>
<path d="M6.05624 7.31248C6.05624 7.25623 6.09374 7.21873 6.13124 7.19998C6.18749 7.19998 6.22499 7.23748 6.24374 7.27498C6.24374 7.33123 6.20624 7.36873 6.16874 7.38748C6.09374 7.40623 6.05624 7.36873 6.05624 7.31248Z" fill="#428BC1"/>
<path d="M6.46875 7.3125C6.52053 7.3125 6.5625 7.27053 6.5625 7.21875C6.5625 7.16697 6.52053 7.125 6.46875 7.125C6.41697 7.125 6.375 7.16697 6.375 7.21875C6.375 7.27053 6.41697 7.3125 6.46875 7.3125Z" fill="#428BC1"/>
<path d="M6.76875 7.14374C6.82053 7.14374 6.8625 7.10176 6.8625 7.04999C6.8625 6.99821 6.82053 6.95624 6.76875 6.95624C6.71698 6.95624 6.675 6.99821 6.675 7.04999C6.675 7.10176 6.71698 7.14374 6.76875 7.14374Z" fill="#428BC1"/>
<path d="M7.0125 6.89999C7.06427 6.89999 7.10625 6.85802 7.10625 6.80624C7.10625 6.75447 7.06427 6.71249 7.0125 6.71249C6.96072 6.71249 6.91875 6.75447 6.91875 6.80624C6.91875 6.85802 6.96072 6.89999 7.0125 6.89999Z" fill="#428BC1"/>
<path d="M7.18124 6.60001C7.23302 6.60001 7.27499 6.55803 7.27499 6.50626C7.27499 6.45448 7.23302 6.41251 7.18124 6.41251C7.12947 6.41251 7.08749 6.45448 7.08749 6.50626C7.08749 6.55803 7.12947 6.60001 7.18124 6.60001Z" fill="#428BC1"/>
<path d="M7.27499 6.26248C7.32677 6.26248 7.36874 6.22051 7.36874 6.16873C7.36874 6.11695 7.32677 6.07498 7.27499 6.07498C7.22322 6.07498 7.18124 6.11695 7.18124 6.16873C7.18124 6.22051 7.22322 6.26248 7.27499 6.26248Z" fill="#428BC1"/>
<path d="M7.27499 5.92499C7.21874 5.92499 7.18124 5.88749 7.16249 5.84999C7.16249 5.79374 7.19999 5.75624 7.23749 5.73749C7.29374 5.73749 7.33124 5.77499 7.34999 5.81249C7.36874 5.86874 7.33124 5.90624 7.27499 5.92499Z" fill="#428BC1"/>
<path d="M7.18124 5.58749C7.23302 5.58749 7.27499 5.54552 7.27499 5.49374C7.27499 5.44197 7.23302 5.39999 7.18124 5.39999C7.12947 5.39999 7.08749 5.44197 7.08749 5.49374C7.08749 5.54552 7.12947 5.58749 7.18124 5.58749Z" fill="#428BC1"/>
<path d="M7.0125 5.28751C7.06427 5.28751 7.10625 5.24553 7.10625 5.19376C7.10625 5.14198 7.06427 5.10001 7.0125 5.10001C6.96072 5.10001 6.91875 5.14198 6.91875 5.19376C6.91875 5.24553 6.96072 5.28751 7.0125 5.28751Z" fill="#428BC1"/>
<path d="M6.76875 5.04373C6.82053 5.04373 6.8625 5.00176 6.8625 4.94998C6.8625 4.8982 6.82053 4.85623 6.76875 4.85623C6.71698 4.85623 6.675 4.8982 6.675 4.94998C6.675 5.00176 6.71698 5.04373 6.76875 5.04373Z" fill="#428BC1"/>
<path d="M6.5625 4.81874C6.54375 4.87499 6.4875 4.89374 6.43125 4.87499C6.375 4.85624 6.35625 4.79999 6.375 4.74374C6.39375 4.68749 6.45 4.66874 6.50625 4.68749C6.5625 4.72499 6.58125 4.78124 6.5625 4.81874ZM6.225 4.70624C6.225 4.76249 6.16875 4.79999 6.1125 4.78124C6.05625 4.78124 6.01875 4.72499 6.0375 4.66874C6.0375 4.61249 6.09375 4.57499 6.15 4.59374C6.20625 4.61249 6.24375 4.66874 6.225 4.70624ZM5.8875 4.68749C5.8875 4.74374 5.85 4.78124 5.8125 4.79999C5.75625 4.79999 5.71875 4.76249 5.7 4.72499C5.7 4.66874 5.7375 4.63124 5.775 4.61249C5.83125 4.59374 5.8875 4.63124 5.8875 4.68749Z" fill="#428BC1"/>
<path d="M5.96249 6.28125C6.11782 6.28125 6.24374 6.15533 6.24374 6C6.24374 5.84467 6.11782 5.71875 5.96249 5.71875C5.80716 5.71875 5.68124 5.84467 5.68124 6C5.68124 6.15533 5.80716 6.28125 5.96249 6.28125Z" fill="#428BC1"/>
<path d="M5.9625 4.6875L5.925 5.49375L5.9625 6L6.01875 5.49375L5.9625 4.6875ZM5.625 4.725L5.79375 5.53125L5.9625 6L5.8875 5.49375L5.625 4.725Z" fill="#428BC1"/>
<path d="M5.30625 4.85623L5.68125 5.58748L5.9625 5.99998L5.75625 5.53123L5.30625 4.85623ZM5.04375 5.06248L5.5875 5.68123L5.9625 5.99998L5.64375 5.60623L5.04375 5.06248Z" fill="#428BC1"/>
<path d="M4.83749 5.34375L5.51249 5.79375L5.96249 6L5.54999 5.7L4.83749 5.34375Z" fill="#428BC1"/>
<path d="M4.70624 5.66251L5.47499 5.90626L5.96249 6.00001L5.49374 5.83126L4.70624 5.66251ZM4.64999 6.00001L5.47499 6.03751L5.96249 6.00001L5.47499 5.96251L4.64999 6.00001Z" fill="#428BC1"/>
<path d="M4.70625 6.3375L5.49375 6.16875L5.9625 6L5.475 6.09375L4.70625 6.3375ZM4.8375 6.65625L5.55 6.3L5.9625 6L5.5125 6.20625L4.8375 6.65625Z" fill="#428BC1"/>
<path d="M5.04375 6.91875L5.64375 6.39375L5.9625 6L5.5875 6.31875L5.04375 6.91875ZM5.30625 7.14375L5.75625 6.45L5.9625 6L5.68125 6.4125L5.30625 7.14375Z" fill="#428BC1"/>
<path d="M5.625 7.275L5.8875 6.50625L5.9625 6L5.79375 6.46875L5.625 7.275ZM5.9625 7.3125L6.01875 6.50625L5.9625 6L5.925 6.50625L5.9625 7.3125ZM6.3 7.275L6.15 6.46875L5.9625 6L6.05625 6.50625L6.3 7.275Z" fill="#428BC1"/>
<path d="M6.61874 7.14375L6.26249 6.4125L5.96249 6L6.18749 6.46875L6.61874 7.14375ZM6.89999 6.91875L6.35624 6.31875L5.96249 6L6.29999 6.39375L6.89999 6.91875Z" fill="#428BC1"/>
<path d="M7.10624 6.65626L6.43124 6.20626L5.96249 6.00001L6.37499 6.30001L7.10624 6.65626ZM7.23749 6.33751L6.46874 6.09376L5.96249 6.00001L6.44999 6.16876L7.23749 6.33751ZM7.27499 6.00001L6.46874 5.94376L5.96249 6.00001L6.46874 6.03751L7.27499 6.00001ZM7.23749 5.66251L6.44999 5.83126L5.96249 6.00001L6.46874 5.90626L7.23749 5.66251Z" fill="#428BC1"/>
<path d="M7.10624 5.34374L6.37499 5.69999L5.96249 5.99999L6.43124 5.79374L7.10624 5.34374ZM6.89999 5.08124L6.29999 5.60624L5.96249 5.99999L6.35624 5.68124L6.89999 5.08124Z" fill="#428BC1"/>
<path d="M6.61874 4.85623L6.18749 5.54998L5.96249 5.99998L6.26249 5.58748L6.61874 4.85623Z" fill="#428BC1"/>
<path d="M6.31874 4.72501L6.05624 5.49376L5.96249 6.00001L6.14999 5.53126L6.31874 4.72501Z" fill="#428BC1"/>
</g>
<defs>
<clipPath id="clip0_99_283">
<rect width="12" height="12" fill="white"/>
</clipPath>
</defs>
</svg>
