<svg width="12" height="12" viewBox="0 0 12 12" fill="none" xmlns="http://www.w3.org/2000/svg">
<g clip-path="url(#clip0_99_382)">
<path d="M0.375 6.00001C0.375 8.45626 1.95 10.5375 4.125 11.3063V0.693756C1.95 1.46251 0.375 3.54376 0.375 6.00001ZM11.625 6.00001C11.625 3.54376 10.0688 1.46251 7.875 0.693756V11.3063C10.0688 10.5375 11.625 8.45626 11.625 6.00001Z" fill="#83BF4F"/>
<path d="M4.125 11.3062C4.70625 11.5125 5.34375 11.625 6 11.625C6.65625 11.625 7.29375 11.5125 7.875 11.3062V0.69375C7.29375 0.4875 6.65625 0.375 6 0.375C5.34375 0.375 4.70625 0.4875 4.125 0.69375V11.3062Z" fill="#F9F9F9"/>
</g>
<defs>
<clipPath id="clip0_99_382">
<rect width="12" height="12" fill="white"/>
</clipPath>
</defs>
</svg>
