<svg width="31" height="31" viewBox="0 0 31 31" fill="none" xmlns="http://www.w3.org/2000/svg">
<g clip-path="url(#clip0_11_54429)">
<path fill-rule="evenodd" clip-rule="evenodd" d="M22.925 3.54251L23.1625 3.68876L25.6375 5.33876C25.9506 5.54766 26.2124 5.82455 26.4035 6.14878C26.5946 6.473 26.7101 6.83619 26.7412 7.21126L26.75 7.41876V23.0925C26.75 23.6888 26.5368 24.2654 26.149 24.7184C25.7611 25.1713 25.2242 25.4707 24.635 25.5625L24.4412 25.585L10.03 26.6938C9.6464 26.7232 9.26117 26.6638 8.9043 26.5201C8.54744 26.3763 8.22856 26.1521 7.9725 25.865L7.83875 25.7013L5 21.9163C4.56858 21.3409 4.3117 20.6536 4.26 19.9363L4.25 19.6663V6.65751C4.25004 6.06122 4.46321 5.48458 4.85104 5.03166C5.23888 4.57873 5.77583 4.27934 6.365 4.18751L6.55875 4.16501L20.7938 3.07001C21.5349 3.01292 22.2763 3.17738 22.9237 3.54251M24.25 9.35001L10.5 10.4075V24.15L24.25 23.0925V9.35001ZM20.5 11.125C20.8315 11.125 21.1495 11.2567 21.3839 11.4911C21.6183 11.7255 21.75 12.0435 21.75 12.375V21.125C21.75 21.4565 21.6183 21.7745 21.3839 22.0089C21.1495 22.2433 20.8315 22.375 20.5 22.375H19.875C19.6614 22.3751 19.4514 22.3204 19.265 22.2163C19.0785 22.1121 18.9219 21.9619 18.81 21.78L15.5 16.4V21.75C15.5 22.0815 15.3683 22.3995 15.1339 22.6339C14.8995 22.8683 14.5815 23 14.25 23C13.9185 23 13.6005 22.8683 13.3661 22.6339C13.1317 22.3995 13 22.0815 13 21.75V13C13 12.6685 13.1317 12.3505 13.3661 12.1161C13.6005 11.8817 13.9185 11.75 14.25 11.75H14.875C15.0886 11.7499 15.2986 11.8046 15.485 11.9088C15.6715 12.0129 15.8281 12.1631 15.94 12.345L19.25 17.7238V12.375C19.25 12.0435 19.3817 11.7255 19.6161 11.4911C19.8505 11.2567 20.1685 11.125 20.5 11.125ZM20.985 5.56251L8.30625 6.53751L9.7275 7.95876L23.475 6.90251L21.775 5.76876C21.5422 5.61352 21.264 5.54089 20.985 5.56251Z" fill="#C4C4C4"/>
</g>
<defs>
<clipPath id="clip0_11_54429">
<rect width="30" height="30" fill="white" transform="translate(0.5 0.5)"/>
</clipPath>
</defs>
</svg>
