<svg width="10" height="12" viewBox="0 0 10 12" fill="none" xmlns="http://www.w3.org/2000/svg">
<path d="M2.88832 0.558266L2.35978 0.706808C1.88917 0.839209 1.46889 1.09427 1.14841 1.44198C0.827939 1.78969 0.620604 2.21557 0.550812 2.66949C0.331878 4.09164 0.821347 5.75449 2.00153 7.66147C3.17876 9.56363 4.47467 10.7891 5.90106 11.3255C6.35936 11.4978 6.86107 11.5437 7.34653 11.4578C7.832 11.3718 8.2808 11.1577 8.63957 10.8407L9.03911 10.4872C9.29855 10.2581 9.46001 9.94899 9.4935 9.61722C9.52699 9.28544 9.43023 8.9536 9.22118 8.68338L8.22161 7.39052C8.08647 7.21597 7.89617 7.08526 7.67739 7.01669C7.45861 6.94812 7.22231 6.94514 7.00162 7.00816L5.48972 7.43934L5.45066 7.44622C5.28406 7.46891 4.89927 7.13263 4.42012 6.35829C3.91886 5.54818 3.81565 5.07436 3.9535 4.95195L4.72235 4.28282C5.00351 4.03832 5.19557 3.71784 5.27158 3.36634C5.3476 3.01485 5.30376 2.64997 5.14621 2.32289L4.65822 1.31129C4.51148 1.00688 4.25109 0.762634 3.92558 0.624087C3.60008 0.48554 3.23094 0.462146 2.88832 0.558266ZM3.98741 1.59325L4.47393 2.60485C4.56868 2.801 4.59518 3.01992 4.54969 3.23084C4.50421 3.44176 4.38904 3.63409 4.22035 3.7808L3.44929 4.45062C2.9554 4.88662 3.11905 5.6307 3.78248 6.70213C4.40611 7.71029 4.97519 8.20818 5.58703 8.12154L5.67844 8.10366L7.21761 7.66559C7.29118 7.64451 7.36998 7.64544 7.44296 7.66826C7.51593 7.69108 7.57942 7.73463 7.62451 7.79282L8.62409 9.08568C8.72876 9.22078 8.77727 9.38675 8.76059 9.55271C8.74391 9.71868 8.66318 9.87334 8.53342 9.98794L8.13315 10.3414C7.87687 10.5677 7.55636 10.7206 7.20968 10.7819C6.86301 10.8432 6.50476 10.8104 6.17749 10.6873C4.9258 10.2169 3.74268 9.09806 2.64064 7.31762C1.53565 5.53305 1.0882 4.01531 1.28059 2.76714C1.3304 2.44285 1.47848 2.13858 1.70742 1.89016C1.93635 1.64174 2.2366 1.45951 2.57282 1.36493L3.10136 1.21639C3.27271 1.16835 3.45695 1.1801 3.6197 1.24944C3.78246 1.31878 3.91263 1.44098 3.98594 1.59325" fill="#C4C4C4"/>
</svg>
