<svg width="25" height="25" viewBox="0 0 25 25" fill="none" xmlns="http://www.w3.org/2000/svg">
<g clip-path="url(#clip0_11_54424)">
<path d="M5.32324 15.7654C5.32324 17.1971 4.15566 18.3664 2.72383 18.3664C1.29219 18.3664 0.123047 17.1971 0.123047 15.7654C0.123047 14.3338 1.29238 13.1645 2.72402 13.1645H5.32344L5.32324 15.7654ZM6.63359 15.7654C6.63359 14.3338 7.80293 13.1645 9.23457 13.1645C10.6662 13.1645 11.8355 14.3336 11.8355 15.7654V22.2762C11.8355 23.7078 10.6664 24.8772 9.23457 24.8772C7.80293 24.8772 6.63359 23.7078 6.63359 22.2762V15.7654Z" fill="#DE1C59"/>
<path d="M9.23457 5.32324C7.80293 5.32324 6.63359 4.15566 6.63359 2.72383C6.63359 1.29219 7.80293 0.123047 9.23457 0.123047C10.6662 0.123047 11.8355 1.29238 11.8355 2.72402V5.32344L9.23457 5.32324ZM9.23457 6.63359C10.6662 6.63359 11.8355 7.80293 11.8355 9.23457C11.8355 10.6662 10.6664 11.8355 9.23457 11.8355H2.72383C1.29219 11.8355 0.123047 10.6664 0.123047 9.23457C0.123047 7.80293 1.29238 6.63359 2.72402 6.63359H9.23457Z" fill="#35C5F0"/>
<path d="M19.6768 9.23457C19.6768 7.80293 20.8443 6.63359 22.2762 6.63359C23.7078 6.63359 24.8771 7.80293 24.8771 9.23457C24.8771 10.6662 23.7078 11.8355 22.2762 11.8355H19.6768V9.23457ZM18.3664 9.23457C18.3664 10.6662 17.1971 11.8355 15.7654 11.8355C14.3338 11.8355 13.1645 10.6664 13.1645 9.23457V2.72383C13.1645 1.29219 14.3336 0.123047 15.7654 0.123047C17.1971 0.123047 18.3664 1.29238 18.3664 2.72402V9.23457Z" fill="#2EB57D"/>
<path d="M15.7654 19.6768C17.1971 19.6768 18.3664 20.8443 18.3664 22.2762C18.3664 23.7078 17.1971 24.8772 15.7654 24.8772C14.3338 24.8772 13.1645 23.7078 13.1645 22.2762V19.6768H15.7654ZM15.7654 18.3664C14.3338 18.3664 13.1645 17.1971 13.1645 15.7654C13.1645 14.3338 14.3336 13.1645 15.7654 13.1645H22.2762C23.7078 13.1645 24.8771 14.3336 24.8771 15.7654C24.8771 17.1971 23.7078 18.3664 22.2762 18.3664H15.7654Z" fill="#EBB02E"/>
</g>
<defs>
<clipPath id="clip0_11_54424">
<rect width="25" height="25" fill="white"/>
</clipPath>
</defs>
</svg>
