<svg width="307" height="63" viewBox="0 0 307 63" fill="none" xmlns="http://www.w3.org/2000/svg">
<rect width="307" height="63" rx="12" fill="white"/>
<rect x="0.5" y="0.5" width="306" height="62" rx="11.5" stroke="black" stroke-opacity="0.1"/>
<ellipse cx="27.5" cy="31.5" rx="18" ry="18.5" fill="#D9D9D9"/>
<path d="M68.4148 16.7827C68.3807 16.4389 68.2344 16.1719 67.9759 15.9815C67.7173 15.7912 67.3665 15.696 66.9233 15.696C66.6222 15.696 66.3679 15.7386 66.1605 15.8239C65.9531 15.9062 65.794 16.0213 65.6832 16.169C65.5753 16.3168 65.5213 16.4844 65.5213 16.6719C65.5156 16.8281 65.5483 16.9645 65.6193 17.081C65.6932 17.1974 65.794 17.2983 65.9219 17.3835C66.0497 17.4659 66.1974 17.5384 66.3651 17.6009C66.5327 17.6605 66.7116 17.7116 66.902 17.7543L67.6861 17.9418C68.0668 18.027 68.4162 18.1406 68.7344 18.2827C69.0526 18.4247 69.3281 18.5994 69.5611 18.8068C69.794 19.0142 69.9744 19.2585 70.1023 19.5398C70.233 19.821 70.2997 20.1435 70.3026 20.5071C70.2997 21.0412 70.1634 21.5043 69.8935 21.8963C69.6264 22.2855 69.2401 22.5881 68.7344 22.804C68.2315 23.017 67.625 23.1236 66.9148 23.1236C66.2102 23.1236 65.5966 23.0156 65.0739 22.7997C64.554 22.5838 64.1477 22.2642 63.8551 21.8409C63.5653 21.4148 63.4134 20.8878 63.3991 20.2599H65.1847C65.2045 20.5526 65.2884 20.7969 65.4361 20.9929C65.5866 21.1861 65.7869 21.3324 66.0369 21.4318C66.2898 21.5284 66.5753 21.5767 66.8935 21.5767C67.206 21.5767 67.4773 21.5312 67.7074 21.4403C67.9403 21.3494 68.1207 21.223 68.2486 21.0611C68.3764 20.8991 68.4403 20.7131 68.4403 20.5028C68.4403 20.3068 68.3821 20.142 68.2656 20.0085C68.152 19.875 67.9844 19.7614 67.7628 19.6676C67.544 19.5739 67.2756 19.4886 66.9574 19.4119L66.0071 19.1733C65.2713 18.9943 64.6903 18.7145 64.2642 18.3338C63.8381 17.9531 63.6264 17.4403 63.6293 16.7955C63.6264 16.267 63.767 15.8054 64.0511 15.4105C64.3381 15.0156 64.7315 14.7074 65.2315 14.4858C65.7315 14.2642 66.2997 14.1534 66.9361 14.1534C67.5838 14.1534 68.1491 14.2642 68.6321 14.4858C69.1179 14.7074 69.4957 15.0156 69.7656 15.4105C70.0355 15.8054 70.1747 16.2628 70.1832 16.7827H68.4148ZM74.467 23.1278C73.7965 23.1278 73.2198 22.9858 72.7369 22.7017C72.2567 22.4148 71.8874 22.017 71.6289 21.5085C71.3732 21 71.2454 20.4148 71.2454 19.7528C71.2454 19.0824 71.3746 18.4943 71.6332 17.9886C71.8945 17.4801 72.2653 17.0838 72.7454 16.7997C73.2255 16.5128 73.7965 16.3693 74.4585 16.3693C75.0295 16.3693 75.5295 16.473 75.9585 16.6804C76.3874 16.8878 76.7269 17.179 76.9769 17.554C77.2269 17.929 77.3647 18.3693 77.3903 18.875H75.6772C75.6289 18.5483 75.5011 18.2855 75.2937 18.0866C75.0891 17.8849 74.8207 17.7841 74.4883 17.7841C74.207 17.7841 73.9613 17.8608 73.7511 18.0142C73.5437 18.1648 73.3817 18.3849 73.2653 18.6747C73.1488 18.9645 73.0906 19.3153 73.0906 19.7273C73.0906 20.1449 73.1474 20.5 73.261 20.7926C73.3775 21.0852 73.5408 21.3082 73.7511 21.4616C73.9613 21.6151 74.207 21.6918 74.4883 21.6918C74.6957 21.6918 74.8817 21.6491 75.0465 21.5639C75.2141 21.4787 75.3519 21.3551 75.4599 21.1932C75.5707 21.0284 75.6431 20.831 75.6772 20.6009H77.3903C77.3619 21.1009 77.2255 21.5412 76.9812 21.9219C76.7397 22.2997 76.4059 22.5952 75.9798 22.8082C75.5536 23.0213 75.0494 23.1278 74.467 23.1278ZM80.3679 19.2159V23H78.5526V14.2727H80.3168V17.6094H80.3935C80.5412 17.223 80.7798 16.9205 81.1094 16.7017C81.4389 16.4801 81.8523 16.3693 82.3494 16.3693C82.804 16.3693 83.2003 16.4688 83.5384 16.6676C83.8793 16.8636 84.1435 17.1463 84.331 17.5156C84.5213 17.8821 84.6151 18.321 84.6122 18.8324V23H82.7969V19.1562C82.7997 18.7528 82.6974 18.4389 82.4901 18.2145C82.2855 17.9901 81.9986 17.8778 81.6293 17.8778C81.3821 17.8778 81.1634 17.9304 80.973 18.0355C80.7855 18.1406 80.6378 18.294 80.5298 18.4957C80.4247 18.6946 80.3707 18.9347 80.3679 19.2159ZM88.9982 23.1278C88.3363 23.1278 87.7638 22.9872 87.2809 22.706C86.8008 22.4219 86.43 22.027 86.1687 21.5213C85.9073 21.0128 85.7766 20.4233 85.7766 19.7528C85.7766 19.0767 85.9073 18.4858 86.1687 17.9801C86.43 17.4716 86.8008 17.0767 87.2809 16.7955C87.7638 16.5114 88.3363 16.3693 88.9982 16.3693C89.6602 16.3693 90.2312 16.5114 90.7113 16.7955C91.1942 17.0767 91.5664 17.4716 91.8278 17.9801C92.0891 18.4858 92.2198 19.0767 92.2198 19.7528C92.2198 20.4233 92.0891 21.0128 91.8278 21.5213C91.5664 22.027 91.1942 22.4219 90.7113 22.706C90.2312 22.9872 89.6602 23.1278 88.9982 23.1278ZM89.0067 21.7216C89.3079 21.7216 89.5593 21.6364 89.761 21.4659C89.9627 21.2926 90.1147 21.0568 90.217 20.7585C90.3221 20.4602 90.3746 20.1207 90.3746 19.7401C90.3746 19.3594 90.3221 19.0199 90.217 18.7216C90.1147 18.4233 89.9627 18.1875 89.761 18.0142C89.5593 17.8409 89.3079 17.7543 89.0067 17.7543C88.7028 17.7543 88.4471 17.8409 88.2397 18.0142C88.0352 18.1875 87.8803 18.4233 87.7752 18.7216C87.6729 19.0199 87.6218 19.3594 87.6218 19.7401C87.6218 20.1207 87.6729 20.4602 87.7752 20.7585C87.8803 21.0568 88.0352 21.2926 88.2397 21.4659C88.4471 21.6364 88.7028 21.7216 89.0067 21.7216ZM96.3576 23.1278C95.6957 23.1278 95.1232 22.9872 94.6403 22.706C94.1602 22.4219 93.7894 22.027 93.5281 21.5213C93.2667 21.0128 93.136 20.4233 93.136 19.7528C93.136 19.0767 93.2667 18.4858 93.5281 17.9801C93.7894 17.4716 94.1602 17.0767 94.6403 16.7955C95.1232 16.5114 95.6957 16.3693 96.3576 16.3693C97.0195 16.3693 97.5906 16.5114 98.0707 16.7955C98.5536 17.0767 98.9258 17.4716 99.1871 17.9801C99.4485 18.4858 99.5792 19.0767 99.5792 19.7528C99.5792 20.4233 99.4485 21.0128 99.1871 21.5213C98.9258 22.027 98.5536 22.4219 98.0707 22.706C97.5906 22.9872 97.0195 23.1278 96.3576 23.1278ZM96.3661 21.7216C96.6673 21.7216 96.9187 21.6364 97.1204 21.4659C97.3221 21.2926 97.4741 21.0568 97.5763 20.7585C97.6815 20.4602 97.734 20.1207 97.734 19.7401C97.734 19.3594 97.6815 19.0199 97.5763 18.7216C97.4741 18.4233 97.3221 18.1875 97.1204 18.0142C96.9187 17.8409 96.6673 17.7543 96.3661 17.7543C96.0621 17.7543 95.8065 17.8409 95.5991 18.0142C95.3945 18.1875 95.2397 18.4233 95.1346 18.7216C95.0323 19.0199 94.9812 19.3594 94.9812 19.7401C94.9812 20.1207 95.0323 20.4602 95.1346 20.7585C95.2397 21.0568 95.3945 21.2926 95.5991 21.4659C95.8065 21.6364 96.0621 21.7216 96.3661 21.7216ZM102.575 14.2727V23H100.76V14.2727H102.575ZM106.841 23V14.2727H112.619V15.794H108.686V17.8736H112.235V19.3949H108.686V23H106.841ZM116.328 23.1278C115.655 23.1278 115.076 22.9915 114.59 22.7188C114.107 22.4432 113.735 22.054 113.473 21.5511C113.212 21.0455 113.081 20.4474 113.081 19.7571C113.081 19.0838 113.212 18.4929 113.473 17.9844C113.735 17.4759 114.103 17.0795 114.577 16.7955C115.054 16.5114 115.614 16.3693 116.256 16.3693C116.688 16.3693 117.09 16.4389 117.462 16.5781C117.837 16.7145 118.164 16.9205 118.442 17.196C118.723 17.4716 118.942 17.8182 119.098 18.2358C119.255 18.6506 119.333 19.1364 119.333 19.6932V20.1918H113.806V19.0668H117.624C117.624 18.8054 117.567 18.5739 117.453 18.3722C117.34 18.1705 117.182 18.0128 116.98 17.8991C116.782 17.7827 116.55 17.7244 116.286 17.7244C116.01 17.7244 115.766 17.7884 115.553 17.9162C115.343 18.0412 115.178 18.2102 115.059 18.4233C114.939 18.6335 114.878 18.8679 114.875 19.1264V20.196C114.875 20.5199 114.935 20.7997 115.054 21.0355C115.176 21.2713 115.348 21.4531 115.57 21.581C115.792 21.7088 116.054 21.7727 116.358 21.7727C116.56 21.7727 116.745 21.7443 116.912 21.6875C117.08 21.6307 117.223 21.5455 117.343 21.4318C117.462 21.3182 117.553 21.179 117.615 21.0142L119.294 21.125C119.209 21.5284 119.034 21.8807 118.77 22.1818C118.509 22.4801 118.171 22.7131 117.756 22.8807C117.344 23.0455 116.868 23.1278 116.328 23.1278ZM123.5 23.1278C122.827 23.1278 122.248 22.9915 121.762 22.7188C121.279 22.4432 120.907 22.054 120.645 21.5511C120.384 21.0455 120.253 20.4474 120.253 19.7571C120.253 19.0838 120.384 18.4929 120.645 17.9844C120.907 17.4759 121.275 17.0795 121.749 16.7955C122.226 16.5114 122.786 16.3693 123.428 16.3693C123.86 16.3693 124.262 16.4389 124.634 16.5781C125.009 16.7145 125.336 16.9205 125.614 17.196C125.895 17.4716 126.114 17.8182 126.27 18.2358C126.426 18.6506 126.505 19.1364 126.505 19.6932V20.1918H120.978V19.0668H124.796C124.796 18.8054 124.739 18.5739 124.625 18.3722C124.512 18.1705 124.354 18.0128 124.152 17.8991C123.953 17.7827 123.722 17.7244 123.458 17.7244C123.182 17.7244 122.938 17.7884 122.725 17.9162C122.515 18.0412 122.35 18.2102 122.23 18.4233C122.111 18.6335 122.05 18.8679 122.047 19.1264V20.196C122.047 20.5199 122.107 20.7997 122.226 21.0355C122.348 21.2713 122.52 21.4531 122.742 21.581C122.963 21.7088 123.226 21.7727 123.53 21.7727C123.732 21.7727 123.917 21.7443 124.084 21.6875C124.252 21.6307 124.395 21.5455 124.515 21.4318C124.634 21.3182 124.725 21.179 124.787 21.0142L126.466 21.125C126.381 21.5284 126.206 21.8807 125.942 22.1818C125.681 22.4801 125.343 22.7131 124.928 22.8807C124.516 23.0455 124.04 23.1278 123.5 23.1278ZM133.135 18.321L131.473 18.4233C131.445 18.2812 131.384 18.1534 131.29 18.0398C131.196 17.9233 131.073 17.831 130.919 17.7628C130.769 17.6918 130.588 17.6562 130.378 17.6562C130.097 17.6562 129.86 17.7159 129.667 17.8352C129.473 17.9517 129.377 18.108 129.377 18.304C129.377 18.4602 129.439 18.5923 129.564 18.7003C129.689 18.8082 129.904 18.8949 130.208 18.9602L131.392 19.1989C132.029 19.3295 132.503 19.5398 132.816 19.8295C133.128 20.1193 133.284 20.5 133.284 20.9716C133.284 21.4006 133.158 21.777 132.905 22.1009C132.655 22.4247 132.311 22.6776 131.874 22.8594C131.439 23.0384 130.938 23.1278 130.37 23.1278C129.503 23.1278 128.813 22.9474 128.299 22.5866C127.787 22.223 127.488 21.7287 127.4 21.1037L129.185 21.0099C129.239 21.2741 129.37 21.4759 129.577 21.6151C129.784 21.7514 130.05 21.8196 130.374 21.8196C130.692 21.8196 130.948 21.7585 131.141 21.6364C131.337 21.5114 131.436 21.3509 131.439 21.1548C131.436 20.9901 131.367 20.8551 131.23 20.75C131.094 20.642 130.884 20.5597 130.6 20.5028L129.466 20.277C128.827 20.1491 128.351 19.9276 128.039 19.6122C127.729 19.2969 127.574 18.8949 127.574 18.4062C127.574 17.9858 127.688 17.6236 127.915 17.3196C128.145 17.0156 128.468 16.7812 128.882 16.6165C129.3 16.4517 129.789 16.3693 130.348 16.3693C131.175 16.3693 131.826 16.544 132.3 16.8935C132.777 17.2429 133.056 17.7187 133.135 18.321ZM137.239 23V14.2727H140.682C141.344 14.2727 141.908 14.3991 142.374 14.652C142.84 14.902 143.195 15.25 143.439 15.696C143.686 16.1392 143.81 16.6506 143.81 17.2301C143.81 17.8097 143.685 18.321 143.435 18.7642C143.185 19.2074 142.823 19.5526 142.348 19.7997C141.877 20.0469 141.306 20.1705 140.635 20.1705H138.441V18.6918H140.337C140.692 18.6918 140.985 18.6307 141.215 18.5085C141.448 18.3835 141.621 18.2116 141.735 17.9929C141.851 17.7713 141.909 17.517 141.909 17.2301C141.909 16.9403 141.851 16.6875 141.735 16.4716C141.621 16.2528 141.448 16.0838 141.215 15.9645C140.982 15.8423 140.686 15.7812 140.328 15.7812H139.084V23H137.239ZM146.665 23.1236C146.248 23.1236 145.875 23.0511 145.549 22.9062C145.222 22.7585 144.963 22.5412 144.773 22.2543C144.586 21.9645 144.492 21.6037 144.492 21.1719C144.492 20.8082 144.559 20.5028 144.692 20.2557C144.826 20.0085 145.007 19.8097 145.238 19.6591C145.468 19.5085 145.729 19.3949 146.022 19.3182C146.317 19.2415 146.627 19.1875 146.951 19.1562C147.331 19.1165 147.638 19.0795 147.871 19.0455C148.104 19.0085 148.273 18.9545 148.378 18.8835C148.483 18.8125 148.536 18.7074 148.536 18.5682V18.5426C148.536 18.2727 148.451 18.0639 148.28 17.9162C148.113 17.7685 147.874 17.6946 147.564 17.6946C147.238 17.6946 146.978 17.767 146.784 17.9119C146.591 18.054 146.463 18.233 146.401 18.4489L144.722 18.3125C144.807 17.9148 144.975 17.571 145.225 17.2812C145.475 16.9886 145.797 16.7642 146.192 16.608C146.59 16.4489 147.05 16.3693 147.573 16.3693C147.936 16.3693 148.284 16.4119 148.617 16.4972C148.952 16.5824 149.249 16.7145 149.507 16.8935C149.769 17.0724 149.975 17.3026 150.125 17.5838C150.276 17.8622 150.351 18.196 150.351 18.5852V23H148.63V22.0923H148.578C148.473 22.2969 148.333 22.4773 148.157 22.6335C147.98 22.7869 147.769 22.9077 147.522 22.9957C147.275 23.081 146.989 23.1236 146.665 23.1236ZM147.185 21.8707C147.452 21.8707 147.688 21.8182 147.892 21.7131C148.097 21.6051 148.257 21.4602 148.374 21.2784C148.49 21.0966 148.549 20.8906 148.549 20.6605V19.9659C148.492 20.0028 148.414 20.0369 148.314 20.0682C148.218 20.0966 148.108 20.1236 147.986 20.1491C147.864 20.1719 147.742 20.1932 147.62 20.2131C147.498 20.2301 147.387 20.2457 147.287 20.2599C147.074 20.2912 146.888 20.3409 146.729 20.4091C146.57 20.4773 146.446 20.5696 146.358 20.6861C146.27 20.7997 146.226 20.9418 146.226 21.1122C146.226 21.3594 146.316 21.5483 146.495 21.679C146.676 21.8068 146.907 21.8707 147.185 21.8707ZM152.646 25.4545C152.416 25.4545 152.2 25.4361 151.998 25.3991C151.799 25.3651 151.635 25.321 151.504 25.267L151.913 23.9119C152.126 23.9773 152.318 24.0128 152.488 24.0185C152.662 24.0241 152.811 23.9844 152.936 23.8991C153.064 23.8139 153.167 23.669 153.247 23.4645L153.353 23.1875L151.005 16.4545H152.914L154.27 21.2614H154.338L155.706 16.4545H157.627L155.083 23.7074C154.961 24.0597 154.795 24.3665 154.585 24.6278C154.377 24.892 154.115 25.0952 153.797 25.2372C153.478 25.3821 153.095 25.4545 152.646 25.4545ZM158.556 23V16.4545H160.287V17.6094H160.363C160.5 17.2259 160.727 16.9233 161.045 16.7017C161.363 16.4801 161.744 16.3693 162.187 16.3693C162.636 16.3693 163.018 16.4815 163.333 16.706C163.649 16.9276 163.859 17.2287 163.964 17.6094H164.032C164.166 17.2344 164.407 16.9347 164.757 16.7102C165.109 16.483 165.525 16.3693 166.005 16.3693C166.616 16.3693 167.112 16.5639 167.493 16.9531C167.876 17.3395 168.068 17.8878 168.068 18.598V23H166.257V18.956C166.257 18.5923 166.16 18.3196 165.967 18.1378C165.774 17.956 165.532 17.8651 165.243 17.8651C164.913 17.8651 164.656 17.9702 164.471 18.1804C164.287 18.3878 164.194 18.6619 164.194 19.0028V23H162.434V18.9176C162.434 18.5966 162.342 18.3409 162.157 18.1506C161.975 17.9602 161.735 17.8651 161.437 17.8651C161.235 17.8651 161.054 17.9162 160.892 18.0185C160.733 18.1179 160.606 18.2585 160.512 18.4403C160.419 18.6193 160.372 18.8295 160.372 19.071V23H158.556ZM172.485 23.1278C171.811 23.1278 171.232 22.9915 170.746 22.7188C170.263 22.4432 169.891 22.054 169.63 21.5511C169.368 21.0455 169.238 20.4474 169.238 19.7571C169.238 19.0838 169.368 18.4929 169.63 17.9844C169.891 17.4759 170.259 17.0795 170.733 16.7955C171.211 16.5114 171.77 16.3693 172.412 16.3693C172.844 16.3693 173.246 16.4389 173.618 16.5781C173.993 16.7145 174.32 16.9205 174.598 17.196C174.88 17.4716 175.098 17.8182 175.255 18.2358C175.411 18.6506 175.489 19.1364 175.489 19.6932V20.1918H169.962V19.0668H173.78C173.78 18.8054 173.723 18.5739 173.61 18.3722C173.496 18.1705 173.338 18.0128 173.137 17.8991C172.938 17.7827 172.706 17.7244 172.442 17.7244C172.167 17.7244 171.922 17.7884 171.709 17.9162C171.499 18.0412 171.334 18.2102 171.215 18.4233C171.096 18.6335 171.034 18.8679 171.032 19.1264V20.196C171.032 20.5199 171.091 20.7997 171.211 21.0355C171.333 21.2713 171.505 21.4531 171.726 21.581C171.948 21.7088 172.211 21.7727 172.515 21.7727C172.716 21.7727 172.901 21.7443 173.069 21.6875C173.236 21.6307 173.38 21.5455 173.499 21.4318C173.618 21.3182 173.709 21.179 173.772 21.0142L175.451 21.125C175.365 21.5284 175.191 21.8807 174.926 22.1818C174.665 22.4801 174.327 22.7131 173.912 22.8807C173.5 23.0455 173.025 23.1278 172.485 23.1278ZM178.489 19.2159V23H176.674V16.4545H178.404V17.6094H178.48C178.625 17.2287 178.868 16.9276 179.209 16.706C179.55 16.4815 179.963 16.3693 180.449 16.3693C180.904 16.3693 181.3 16.4688 181.638 16.6676C181.976 16.8665 182.239 17.1506 182.426 17.5199C182.614 17.8864 182.708 18.3239 182.708 18.8324V23H180.892V19.1562C180.895 18.7557 180.793 18.4432 180.586 18.2188C180.378 17.9915 180.093 17.8778 179.729 17.8778C179.485 17.8778 179.269 17.9304 179.081 18.0355C178.897 18.1406 178.752 18.294 178.647 18.4957C178.544 18.6946 178.492 18.9347 178.489 19.2159ZM187.62 16.4545V17.8182H183.678V16.4545H187.62ZM184.573 14.8864H186.388V20.9886C186.388 21.1562 186.414 21.2869 186.465 21.3807C186.516 21.4716 186.587 21.5355 186.678 21.5724C186.772 21.6094 186.88 21.6278 187.002 21.6278C187.087 21.6278 187.173 21.6207 187.258 21.6065C187.343 21.5895 187.408 21.5767 187.454 21.5682L187.739 22.919C187.648 22.9474 187.521 22.9801 187.356 23.017C187.191 23.0568 186.991 23.081 186.755 23.0895C186.317 23.1065 185.934 23.0483 185.604 22.9148C185.278 22.7812 185.023 22.5739 184.842 22.2926C184.66 22.0114 184.57 21.6562 184.573 21.2273V14.8864Z" fill="black" fill-opacity="0.7"/>
<path d="M62.7557 30.7273H63.7642L65.7812 34.1222H65.8665L67.8835 30.7273H68.892L66.2642 35.0028V38H65.3835V35.0028L62.7557 30.7273ZM71.3619 38.1136C70.8694 38.1136 70.4374 37.9964 70.0657 37.7621C69.6964 37.5277 69.4076 37.1998 69.1992 36.7784C68.9933 36.357 68.8903 35.8646 68.8903 35.3011C68.8903 34.733 68.9933 34.237 69.1992 33.8132C69.4076 33.3894 69.6964 33.0604 70.0657 32.826C70.4374 32.5916 70.8694 32.4744 71.3619 32.4744C71.8543 32.4744 72.2852 32.5916 72.6545 32.826C73.0262 33.0604 73.315 33.3894 73.521 33.8132C73.7293 34.237 73.8335 34.733 73.8335 35.3011C73.8335 35.8646 73.7293 36.357 73.521 36.7784C73.315 37.1998 73.0262 37.5277 72.6545 37.7621C72.2852 37.9964 71.8543 38.1136 71.3619 38.1136ZM71.3619 37.3608C71.7359 37.3608 72.0437 37.2649 72.2852 37.0732C72.5266 36.8814 72.7054 36.6293 72.8214 36.3168C72.9374 36.0043 72.9954 35.6657 72.9954 35.3011C72.9954 34.9366 72.9374 34.5968 72.8214 34.282C72.7054 33.9671 72.5266 33.7126 72.2852 33.5185C72.0437 33.3243 71.7359 33.2273 71.3619 33.2273C70.9878 33.2273 70.68 33.3243 70.4386 33.5185C70.1971 33.7126 70.0183 33.9671 69.9023 34.282C69.7863 34.5968 69.7283 34.9366 69.7283 35.3011C69.7283 35.6657 69.7863 36.0043 69.9023 36.3168C70.0183 36.6293 70.1971 36.8814 70.4386 37.0732C70.68 37.2649 70.9878 37.3608 71.3619 37.3608ZM78.5502 35.7699V32.5455H79.3883V38H78.5502V37.0767H78.4934C78.3656 37.3537 78.1667 37.5893 77.8968 37.7834C77.627 37.9751 77.286 38.071 76.8741 38.071C76.5332 38.071 76.2302 37.9964 75.965 37.8473C75.6999 37.6958 75.4915 37.4685 75.34 37.1655C75.1885 36.8601 75.1127 36.4754 75.1127 36.0114V32.5455H75.9508V35.9545C75.9508 36.3523 76.0621 36.6695 76.2846 36.9062C76.5095 37.143 76.796 37.2614 77.144 37.2614C77.3523 37.2614 77.5642 37.2081 77.7797 37.1016C77.9975 36.995 78.1797 36.8317 78.3265 36.6115C78.4757 36.3913 78.5502 36.1108 78.5502 35.7699ZM81.8084 30.7273V31.3665C81.8084 31.5606 81.7729 31.7678 81.7019 31.9879C81.6332 32.2057 81.5314 32.4176 81.3965 32.6236C81.2639 32.8272 81.1029 33.0047 80.9135 33.1562L80.459 32.7869C80.6081 32.5739 80.7372 32.3525 80.8461 32.1229C80.9573 31.8909 81.013 31.6435 81.013 31.3807V30.7273H81.8084ZM87.5222 32.5455L85.5051 38H84.6529L82.6358 32.5455H83.5449L85.0506 36.892H85.1074L86.6131 32.5455H87.5222ZM90.72 38.1136C90.1944 38.1136 89.7411 37.9976 89.3599 37.7656C88.9811 37.5312 88.6887 37.2045 88.4828 36.7855C88.2792 36.3641 88.1774 35.8741 88.1774 35.3153C88.1774 34.7566 88.2792 34.2642 88.4828 33.8381C88.6887 33.4096 88.9752 33.0758 89.3422 32.8366C89.7115 32.5952 90.1423 32.4744 90.6348 32.4744C90.9189 32.4744 91.1994 32.5218 91.4764 32.6165C91.7534 32.7112 92.0055 32.8651 92.2328 33.0781C92.46 33.2888 92.6412 33.5682 92.7761 33.9162C92.911 34.2642 92.9785 34.6927 92.9785 35.2017V35.5568H88.774V34.8324H92.1262C92.1262 34.5246 92.0647 34.25 91.9416 34.0085C91.8208 33.767 91.648 33.5765 91.4231 33.4368C91.2006 33.2971 90.9378 33.2273 90.6348 33.2273C90.301 33.2273 90.0121 33.3101 89.7683 33.4759C89.5268 33.6392 89.341 33.8523 89.2108 34.1151C89.0806 34.3778 89.0154 34.6596 89.0154 34.9602V35.4432C89.0154 35.8551 89.0865 36.2043 89.2285 36.4908C89.3729 36.7749 89.573 36.9915 89.8287 37.1406C90.0843 37.2874 90.3815 37.3608 90.72 37.3608C90.9402 37.3608 91.139 37.33 91.3166 37.2685C91.4965 37.2045 91.6516 37.1098 91.7818 36.9844C91.912 36.8565 92.0126 36.6979 92.0836 36.5085L92.8933 36.7358C92.8081 37.0104 92.6648 37.2519 92.4636 37.4602C92.2624 37.6662 92.0138 37.8272 91.7179 37.9432C91.4219 38.0568 91.0893 38.1136 90.72 38.1136ZM100.93 33.767L100.177 33.9801C100.129 33.8546 100.059 33.7327 99.9672 33.6143C99.8772 33.4936 99.7541 33.3942 99.5978 33.3161C99.4416 33.2379 99.2415 33.1989 98.9977 33.1989C98.6639 33.1989 98.3857 33.2758 98.1632 33.4297C97.943 33.5812 97.8329 33.7741 97.8329 34.0085C97.8329 34.2169 97.9087 34.3814 98.0602 34.5021C98.2117 34.6229 98.4484 34.7235 98.7704 34.804L99.5801 35.0028C100.068 35.1212 100.431 35.3023 100.67 35.5462C100.909 35.7876 101.029 36.099 101.029 36.4801C101.029 36.7926 100.939 37.072 100.759 37.3182C100.581 37.5644 100.333 37.7585 100.013 37.9006C99.6937 38.0426 99.322 38.1136 98.8983 38.1136C98.3419 38.1136 97.8815 37.9929 97.5169 37.7514C97.1523 37.5099 96.9215 37.1572 96.8244 36.6932L97.6199 36.4943C97.6956 36.7879 97.8388 37.008 98.0495 37.1548C98.2626 37.3016 98.5408 37.375 98.8841 37.375C99.2747 37.375 99.5848 37.2921 99.8145 37.1264C100.046 36.9583 100.162 36.7571 100.162 36.5227C100.162 36.3333 100.096 36.1747 99.9636 36.0469C99.831 35.9167 99.6274 35.8196 99.3528 35.7557L98.4437 35.5426C97.9442 35.4242 97.5772 35.2408 97.3429 34.9922C97.1109 34.7412 96.9949 34.4276 96.9949 34.0511C96.9949 33.7434 97.0813 33.4711 97.2541 33.2344C97.4293 32.9976 97.6672 32.8118 97.9679 32.6768C98.2709 32.5419 98.6142 32.4744 98.9977 32.4744C99.5375 32.4744 99.9612 32.5928 100.269 32.8295C100.579 33.0663 100.799 33.3788 100.93 33.767ZM105.728 35.7699V32.5455H106.566V38H105.728V37.0767H105.671C105.543 37.3537 105.344 37.5893 105.075 37.7834C104.805 37.9751 104.464 38.071 104.052 38.071C103.711 38.071 103.408 37.9964 103.143 37.8473C102.878 37.6958 102.669 37.4685 102.518 37.1655C102.366 36.8601 102.29 36.4754 102.29 36.0114V32.5455H103.129V35.9545C103.129 36.3523 103.24 36.6695 103.462 36.9062C103.687 37.143 103.974 37.2614 104.322 37.2614C104.53 37.2614 104.742 37.2081 104.957 37.1016C105.175 36.995 105.357 36.8317 105.504 36.6115C105.653 36.3913 105.728 36.1108 105.728 35.7699ZM110.317 38.1136C109.806 38.1136 109.365 37.9929 108.996 37.7514C108.627 37.5099 108.343 37.1773 108.144 36.7536C107.945 36.3298 107.845 35.8456 107.845 35.3011C107.845 34.7472 107.947 34.2583 108.151 33.8345C108.357 33.4084 108.643 33.0758 109.01 32.8366C109.379 32.5952 109.81 32.4744 110.303 32.4744C110.686 32.4744 111.032 32.5455 111.34 32.6875C111.647 32.8295 111.9 33.0284 112.096 33.2841C112.293 33.5398 112.414 33.8381 112.462 34.179H111.624C111.56 33.9304 111.418 33.7102 111.198 33.5185C110.98 33.3243 110.686 33.2273 110.317 33.2273C109.99 33.2273 109.704 33.3125 109.458 33.483C109.214 33.651 109.023 33.889 108.886 34.1967C108.751 34.5021 108.683 34.8608 108.683 35.2727C108.683 35.6941 108.75 36.0611 108.882 36.3736C109.017 36.6861 109.207 36.9287 109.45 37.1016C109.697 37.2744 109.985 37.3608 110.317 37.3608C110.535 37.3608 110.732 37.3229 110.91 37.2472C111.088 37.1714 111.238 37.0625 111.361 36.9205C111.484 36.7784 111.572 36.608 111.624 36.4091H112.462C112.414 36.7311 112.297 37.0211 112.11 37.2791C111.926 37.5348 111.681 37.7384 111.375 37.8899C111.072 38.0391 110.719 38.1136 110.317 38.1136ZM115.903 38.1136C115.392 38.1136 114.951 37.9929 114.582 37.7514C114.213 37.5099 113.928 37.1773 113.73 36.7536C113.531 36.3298 113.431 35.8456 113.431 35.3011C113.431 34.7472 113.533 34.2583 113.737 33.8345C113.943 33.4084 114.229 33.0758 114.596 32.8366C114.965 32.5952 115.396 32.4744 115.889 32.4744C116.272 32.4744 116.618 32.5455 116.926 32.6875C117.233 32.8295 117.485 33.0284 117.682 33.2841C117.878 33.5398 118 33.8381 118.048 34.179H117.21C117.146 33.9304 117.004 33.7102 116.784 33.5185C116.566 33.3243 116.272 33.2273 115.903 33.2273C115.576 33.2273 115.29 33.3125 115.044 33.483C114.8 33.651 114.609 33.889 114.472 34.1967C114.337 34.5021 114.269 34.8608 114.269 35.2727C114.269 35.6941 114.336 36.0611 114.468 36.3736C114.603 36.6861 114.793 36.9287 115.036 37.1016C115.283 37.2744 115.571 37.3608 115.903 37.3608C116.121 37.3608 116.318 37.3229 116.496 37.2472C116.673 37.1714 116.824 37.0625 116.947 36.9205C117.07 36.7784 117.158 36.608 117.21 36.4091H118.048C118 36.7311 117.883 37.0211 117.696 37.2791C117.512 37.5348 117.267 37.7384 116.961 37.8899C116.658 38.0391 116.305 38.1136 115.903 38.1136ZM121.56 38.1136C121.034 38.1136 120.581 37.9976 120.2 37.7656C119.821 37.5312 119.529 37.2045 119.323 36.7855C119.119 36.3641 119.017 35.8741 119.017 35.3153C119.017 34.7566 119.119 34.2642 119.323 33.8381C119.529 33.4096 119.815 33.0758 120.182 32.8366C120.551 32.5952 120.982 32.4744 121.475 32.4744C121.759 32.4744 122.039 32.5218 122.316 32.6165C122.593 32.7112 122.845 32.8651 123.073 33.0781C123.3 33.2888 123.481 33.5682 123.616 33.9162C123.751 34.2642 123.818 34.6927 123.818 35.2017V35.5568H119.614V34.8324H122.966C122.966 34.5246 122.905 34.25 122.781 34.0085C122.661 33.767 122.488 33.5765 122.263 33.4368C122.04 33.2971 121.778 33.2273 121.475 33.2273C121.141 33.2273 120.852 33.3101 120.608 33.4759C120.367 33.6392 120.181 33.8523 120.051 34.1151C119.92 34.3778 119.855 34.6596 119.855 34.9602V35.4432C119.855 35.8551 119.926 36.2043 120.068 36.4908C120.213 36.7749 120.413 36.9915 120.669 37.1406C120.924 37.2874 121.221 37.3608 121.56 37.3608C121.78 37.3608 121.979 37.33 122.156 37.2685C122.336 37.2045 122.491 37.1098 122.622 36.9844C122.752 36.8565 122.852 36.6979 122.923 36.5085L123.733 36.7358C123.648 37.0104 123.505 37.2519 123.303 37.4602C123.102 37.6662 122.854 37.8272 122.558 37.9432C122.262 38.0568 121.929 38.1136 121.56 38.1136ZM128.957 33.767L128.204 33.9801C128.157 33.8546 128.087 33.7327 127.994 33.6143C127.905 33.4936 127.781 33.3942 127.625 33.3161C127.469 33.2379 127.269 33.1989 127.025 33.1989C126.691 33.1989 126.413 33.2758 126.191 33.4297C125.97 33.5812 125.86 33.7741 125.86 34.0085C125.86 34.2169 125.936 34.3814 126.088 34.5021C126.239 34.6229 126.476 34.7235 126.798 34.804L127.607 35.0028C128.095 35.1212 128.459 35.3023 128.698 35.5462C128.937 35.7876 129.056 36.099 129.056 36.4801C129.056 36.7926 128.966 37.072 128.786 37.3182C128.609 37.5644 128.36 37.7585 128.041 37.9006C127.721 38.0426 127.349 38.1136 126.926 38.1136C126.369 38.1136 125.909 37.9929 125.544 37.7514C125.18 37.5099 124.949 37.1572 124.852 36.6932L125.647 36.4943C125.723 36.7879 125.866 37.008 126.077 37.1548C126.29 37.3016 126.568 37.375 126.911 37.375C127.302 37.375 127.612 37.2921 127.842 37.1264C128.074 36.9583 128.19 36.7571 128.19 36.5227C128.19 36.3333 128.124 36.1747 127.991 36.0469C127.858 35.9167 127.655 35.8196 127.38 35.7557L126.471 35.5426C125.972 35.4242 125.605 35.2408 125.37 34.9922C125.138 34.7412 125.022 34.4276 125.022 34.0511C125.022 33.7434 125.109 33.4711 125.281 33.2344C125.457 32.9976 125.695 32.8118 125.995 32.6768C126.298 32.5419 126.642 32.4744 127.025 32.4744C127.565 32.4744 127.989 32.5928 128.296 32.8295C128.606 33.0663 128.827 33.3788 128.957 33.767ZM134.181 33.767L133.429 33.9801C133.381 33.8546 133.311 33.7327 133.219 33.6143C133.129 33.4936 133.006 33.3942 132.85 33.3161C132.694 33.2379 132.493 33.1989 132.25 33.1989C131.916 33.1989 131.638 33.2758 131.415 33.4297C131.195 33.5812 131.085 33.7741 131.085 34.0085C131.085 34.2169 131.161 34.3814 131.312 34.5021C131.464 34.6229 131.7 34.7235 132.022 34.804L132.832 35.0028C133.32 35.1212 133.683 35.3023 133.922 35.5462C134.161 35.7876 134.281 36.099 134.281 36.4801C134.281 36.7926 134.191 37.072 134.011 37.3182C133.833 37.5644 133.585 37.7585 133.265 37.9006C132.946 38.0426 132.574 38.1136 132.15 38.1136C131.594 38.1136 131.133 37.9929 130.769 37.7514C130.404 37.5099 130.173 37.1572 130.076 36.6932L130.872 36.4943C130.948 36.7879 131.091 37.008 131.301 37.1548C131.515 37.3016 131.793 37.375 132.136 37.375C132.527 37.375 132.837 37.2921 133.066 37.1264C133.298 36.9583 133.414 36.7571 133.414 36.5227C133.414 36.3333 133.348 36.1747 133.216 36.0469C133.083 35.9167 132.879 35.8196 132.605 35.7557L131.696 35.5426C131.196 35.4242 130.829 35.2408 130.595 34.9922C130.363 34.7412 130.247 34.4276 130.247 34.0511C130.247 33.7434 130.333 33.4711 130.506 33.2344C130.681 32.9976 130.919 32.8118 131.22 32.6768C131.523 32.5419 131.866 32.4744 132.25 32.4744C132.789 32.4744 133.213 32.5928 133.521 32.8295C133.831 33.0663 134.051 33.3788 134.181 33.767ZM137.971 32.5455V33.2557H135.031V32.5455H137.971ZM135.912 38V31.7926C135.912 31.4801 135.985 31.2197 136.132 31.0114C136.279 30.803 136.469 30.6468 136.704 30.5426C136.938 30.4384 137.185 30.3864 137.446 30.3864C137.652 30.3864 137.82 30.4029 137.95 30.4361C138.08 30.4692 138.177 30.5 138.241 30.5284L138 31.2528C137.957 31.2386 137.898 31.2209 137.822 31.1996C137.749 31.1783 137.652 31.1676 137.531 31.1676C137.254 31.1676 137.054 31.2375 136.931 31.3771C136.81 31.5168 136.75 31.7216 136.75 31.9915V38H135.912ZM142.583 35.7699V32.5455H143.422V38H142.583V37.0767H142.527C142.399 37.3537 142.2 37.5893 141.93 37.7834C141.66 37.9751 141.319 38.071 140.907 38.071C140.566 38.071 140.263 37.9964 139.998 37.8473C139.733 37.6958 139.525 37.4685 139.373 37.1655C139.222 36.8601 139.146 36.4754 139.146 36.0114V32.5455H139.984V35.9545C139.984 36.3523 140.095 36.6695 140.318 36.9062C140.543 37.143 140.829 37.2614 141.177 37.2614C141.386 37.2614 141.597 37.2081 141.813 37.1016C142.031 36.995 142.213 36.8317 142.36 36.6115C142.509 36.3913 142.583 36.1108 142.583 35.7699ZM145.795 30.7273V38H144.956V30.7273H145.795ZM150.142 40.0455V32.5455H150.952V33.4119H151.051C151.113 33.3172 151.198 33.1965 151.307 33.0497C151.418 32.9006 151.577 32.768 151.783 32.652C151.991 32.5336 152.273 32.4744 152.628 32.4744C153.087 32.4744 153.492 32.5893 153.842 32.8189C154.193 33.0485 154.466 33.3741 154.663 33.7955C154.859 34.2169 154.957 34.714 154.957 35.2869C154.957 35.8646 154.859 36.3653 154.663 36.7891C154.466 37.2105 154.194 37.5372 153.846 37.7692C153.498 37.9988 153.097 38.1136 152.642 38.1136C152.292 38.1136 152.011 38.0556 151.8 37.9396C151.59 37.8213 151.428 37.6875 151.314 37.5384C151.2 37.3868 151.113 37.2614 151.051 37.1619H150.98V40.0455H150.142ZM150.966 35.2727C150.966 35.6847 151.026 36.0481 151.147 36.3629C151.268 36.6754 151.444 36.9205 151.676 37.098C151.908 37.2732 152.192 37.3608 152.528 37.3608C152.879 37.3608 153.171 37.2685 153.406 37.0838C153.642 36.8968 153.82 36.6458 153.938 36.331C154.059 36.0137 154.119 35.661 154.119 35.2727C154.119 34.8892 154.06 34.5436 153.942 34.2358C153.826 33.9257 153.649 33.6806 153.413 33.5007C153.178 33.3184 152.884 33.2273 152.528 33.2273C152.188 33.2273 151.901 33.3137 151.669 33.4865C151.437 33.657 151.262 33.8961 151.143 34.2038C151.025 34.5092 150.966 34.8655 150.966 35.2727ZM157.841 38.1278C157.495 38.1278 157.182 38.0627 156.9 37.9325C156.618 37.8 156.394 37.6094 156.229 37.3608C156.063 37.1098 155.98 36.8068 155.98 36.4517C155.98 36.1392 156.042 35.8859 156.165 35.6918C156.288 35.4953 156.452 35.3414 156.658 35.2301C156.864 35.1188 157.092 35.036 157.34 34.9815C157.591 34.9247 157.843 34.8797 158.097 34.8466C158.428 34.804 158.697 34.772 158.903 34.7507C159.111 34.727 159.263 34.688 159.357 34.6335C159.454 34.5791 159.503 34.4844 159.503 34.3494V34.321C159.503 33.9706 159.407 33.6984 159.215 33.5043C159.026 33.3101 158.738 33.2131 158.352 33.2131C157.952 33.2131 157.638 33.3007 157.411 33.4759C157.184 33.651 157.024 33.8381 156.932 34.0369L156.136 33.7528C156.278 33.4214 156.468 33.1634 156.705 32.9787C156.944 32.7917 157.204 32.6615 157.486 32.5881C157.77 32.5123 158.049 32.4744 158.324 32.4744C158.499 32.4744 158.7 32.4957 158.928 32.5384C159.157 32.5786 159.379 32.6626 159.592 32.7905C159.807 32.9183 159.986 33.1113 160.128 33.3693C160.27 33.6274 160.341 33.973 160.341 34.4062V38H159.503V37.2614H159.46C159.403 37.3797 159.309 37.5064 159.176 37.6413C159.044 37.7763 158.867 37.8911 158.647 37.9858C158.427 38.0805 158.158 38.1278 157.841 38.1278ZM157.969 37.375C158.3 37.375 158.58 37.3099 158.807 37.1797C159.036 37.0495 159.209 36.8814 159.325 36.6754C159.444 36.4695 159.503 36.2528 159.503 36.0256V35.2585C159.467 35.3011 159.389 35.3402 159.268 35.3757C159.15 35.4089 159.013 35.4384 158.857 35.4645C158.703 35.4882 158.552 35.5095 158.406 35.5284C158.261 35.545 158.144 35.5592 158.054 35.571C157.836 35.5994 157.633 35.6456 157.443 35.7095C157.256 35.7711 157.105 35.8646 156.989 35.9901C156.875 36.1132 156.818 36.2812 156.818 36.4943C156.818 36.7855 156.926 37.0057 157.141 37.1548C157.359 37.3016 157.635 37.375 157.969 37.375ZM161.871 38V32.5455H162.709V38H161.871ZM162.297 31.6364C162.133 31.6364 161.992 31.5807 161.874 31.4695C161.758 31.3582 161.7 31.2244 161.7 31.0682C161.7 30.9119 161.758 30.7782 161.874 30.6669C161.992 30.5556 162.133 30.5 162.297 30.5C162.46 30.5 162.6 30.5556 162.716 30.6669C162.834 30.7782 162.893 30.9119 162.893 31.0682C162.893 31.2244 162.834 31.3582 162.716 31.4695C162.6 31.5807 162.46 31.6364 162.297 31.6364ZM166.303 38.1136C165.849 38.1136 165.447 37.9988 165.099 37.7692C164.751 37.5372 164.479 37.2105 164.283 36.7891C164.086 36.3653 163.988 35.8646 163.988 35.2869C163.988 34.714 164.086 34.2169 164.283 33.7955C164.479 33.3741 164.753 33.0485 165.103 32.8189C165.453 32.5893 165.858 32.4744 166.317 32.4744C166.673 32.4744 166.953 32.5336 167.159 32.652C167.367 32.768 167.526 32.9006 167.635 33.0497C167.746 33.1965 167.833 33.3172 167.894 33.4119H167.965V30.7273H168.803V38H167.994V37.1619H167.894C167.833 37.2614 167.745 37.3868 167.631 37.5384C167.518 37.6875 167.356 37.8213 167.145 37.9396C166.934 38.0556 166.654 38.1136 166.303 38.1136ZM166.417 37.3608C166.753 37.3608 167.037 37.2732 167.269 37.098C167.501 36.9205 167.678 36.6754 167.798 36.3629C167.919 36.0481 167.979 35.6847 167.979 35.2727C167.979 34.8655 167.92 34.5092 167.802 34.2038C167.683 33.8961 167.508 33.657 167.276 33.4865C167.044 33.3137 166.758 33.2273 166.417 33.2273C166.062 33.2273 165.766 33.3184 165.529 33.5007C165.295 33.6806 165.118 33.9257 165 34.2358C164.884 34.5436 164.826 34.8892 164.826 35.2727C164.826 35.661 164.885 36.0137 165.004 36.331C165.124 36.6458 165.302 36.8968 165.536 37.0838C165.773 37.2685 166.067 37.3608 166.417 37.3608ZM173.253 38V37.3608L175.653 34.733C175.935 34.4252 176.167 34.1577 176.349 33.9304C176.532 33.7008 176.667 33.4853 176.754 33.2841C176.844 33.0805 176.889 32.8674 176.889 32.6449C176.889 32.3892 176.828 32.1679 176.705 31.9808C176.584 31.7938 176.418 31.6494 176.207 31.5476C175.997 31.4458 175.76 31.3949 175.497 31.3949C175.218 31.3949 174.974 31.4529 174.766 31.5689C174.56 31.6825 174.4 31.8423 174.286 32.0483C174.175 32.2543 174.119 32.4957 174.119 32.7727H173.281C173.281 32.3466 173.379 31.9725 173.576 31.6506C173.772 31.3286 174.04 31.0777 174.379 30.8977C174.719 30.7178 175.102 30.6278 175.526 30.6278C175.952 30.6278 176.329 30.7178 176.658 30.8977C176.987 31.0777 177.246 31.3203 177.433 31.6257C177.62 31.9311 177.713 32.2708 177.713 32.6449C177.713 32.9124 177.665 33.174 177.567 33.4297C177.473 33.683 177.307 33.9659 177.07 34.2784C176.836 34.5885 176.51 34.9673 176.094 35.4148L174.46 37.1619V37.2188H177.841V38H173.253ZM181.68 38.0994C181.145 38.0994 180.689 37.9538 180.312 37.6626C179.936 37.3691 179.648 36.9441 179.45 36.3878C179.251 35.8291 179.151 35.1544 179.151 34.3636C179.151 33.5777 179.251 32.9065 179.45 32.3501C179.651 31.7914 179.94 31.3653 180.316 31.0717C180.695 30.7758 181.149 30.6278 181.68 30.6278C182.21 30.6278 182.663 30.7758 183.04 31.0717C183.419 31.3653 183.707 31.7914 183.906 32.3501C184.107 32.9065 184.208 33.5777 184.208 34.3636C184.208 35.1544 184.109 35.8291 183.91 36.3878C183.711 36.9441 183.423 37.3691 183.047 37.6626C182.67 37.9538 182.215 38.0994 181.68 38.0994ZM181.68 37.3182C182.21 37.3182 182.622 37.0625 182.915 36.5511C183.209 36.0398 183.356 35.3106 183.356 34.3636C183.356 33.7339 183.288 33.1977 183.153 32.755C183.021 32.3123 182.829 31.9749 182.578 31.7429C182.33 31.5109 182.03 31.3949 181.68 31.3949C181.154 31.3949 180.743 31.6541 180.447 32.1726C180.152 32.6887 180.004 33.419 180.004 34.3636C180.004 34.9934 180.07 35.5284 180.202 35.9688C180.335 36.4091 180.526 36.7441 180.774 36.9737C181.025 37.2034 181.327 37.3182 181.68 37.3182ZM185.558 38V37.3608L187.958 34.733C188.24 34.4252 188.472 34.1577 188.654 33.9304C188.836 33.7008 188.971 33.4853 189.059 33.2841C189.149 33.0805 189.194 32.8674 189.194 32.6449C189.194 32.3892 189.132 32.1679 189.009 31.9808C188.888 31.7938 188.723 31.6494 188.512 31.5476C188.301 31.4458 188.065 31.3949 187.802 31.3949C187.522 31.3949 187.279 31.4529 187.07 31.5689C186.864 31.6825 186.705 31.8423 186.591 32.0483C186.48 32.2543 186.424 32.4957 186.424 32.7727H185.586C185.586 32.3466 185.684 31.9725 185.881 31.6506C186.077 31.3286 186.345 31.0777 186.683 30.8977C187.024 30.7178 187.406 30.6278 187.83 30.6278C188.256 30.6278 188.634 30.7178 188.963 30.8977C189.292 31.0777 189.55 31.3203 189.737 31.6257C189.924 31.9311 190.018 32.2708 190.018 32.6449C190.018 32.9124 189.969 33.174 189.872 33.4297C189.777 33.683 189.612 33.9659 189.375 34.2784C189.141 34.5885 188.815 34.9673 188.398 35.4148L186.765 37.1619V37.2188H190.146V38H185.558ZM191.286 36.5085V35.7841L194.482 30.7273H195.007V31.8494H194.652L192.237 35.6705V35.7273H196.541V36.5085H191.286ZM194.709 38V36.2884V35.951V30.7273H195.547V38H194.709ZM200.457 30.3864L198.113 39.0938H197.346L199.69 30.3864H200.457ZM201.436 38V37.3608L203.837 34.733C204.119 34.4252 204.351 34.1577 204.533 33.9304C204.715 33.7008 204.85 33.4853 204.938 33.2841C205.028 33.0805 205.073 32.8674 205.073 32.6449C205.073 32.3892 205.011 32.1679 204.888 31.9808C204.767 31.7938 204.602 31.6494 204.391 31.5476C204.18 31.4458 203.944 31.3949 203.681 31.3949C203.401 31.3949 203.158 31.4529 202.949 31.5689C202.743 31.6825 202.583 31.8423 202.47 32.0483C202.359 32.2543 202.303 32.4957 202.303 32.7727H201.465C201.465 32.3466 201.563 31.9725 201.76 31.6506C201.956 31.3286 202.224 31.0777 202.562 30.8977C202.903 30.7178 203.285 30.6278 203.709 30.6278C204.135 30.6278 204.513 30.7178 204.842 30.8977C205.171 31.0777 205.429 31.3203 205.616 31.6257C205.803 31.9311 205.897 32.2708 205.897 32.6449C205.897 32.9124 205.848 33.174 205.751 33.4297C205.656 33.683 205.491 33.9659 205.254 34.2784C205.02 34.5885 204.694 34.9673 204.277 35.4148L202.644 37.1619V37.2188H206.025V38H201.436ZM209.863 38.0994C209.328 38.0994 208.873 37.9538 208.496 37.6626C208.12 37.3691 207.832 36.9441 207.633 36.3878C207.434 35.8291 207.335 35.1544 207.335 34.3636C207.335 33.5777 207.434 32.9065 207.633 32.3501C207.834 31.7914 208.123 31.3653 208.5 31.0717C208.878 30.7758 209.333 30.6278 209.863 30.6278C210.394 30.6278 210.847 30.7758 211.223 31.0717C211.602 31.3653 211.891 31.7914 212.09 32.3501C212.291 32.9065 212.392 33.5777 212.392 34.3636C212.392 35.1544 212.292 35.8291 212.093 36.3878C211.895 36.9441 211.607 37.3691 211.23 37.6626C210.854 37.9538 210.398 38.0994 209.863 38.0994ZM209.863 37.3182C210.394 37.3182 210.806 37.0625 211.099 36.5511C211.393 36.0398 211.539 35.3106 211.539 34.3636C211.539 33.7339 211.472 33.1977 211.337 32.755C211.204 32.3123 211.013 31.9749 210.762 31.7429C210.513 31.5109 210.214 31.3949 209.863 31.3949C209.338 31.3949 208.927 31.6541 208.631 32.1726C208.335 32.6887 208.187 33.419 208.187 34.3636C208.187 34.9934 208.253 35.5284 208.386 35.9688C208.519 36.4091 208.709 36.7441 208.958 36.9737C209.209 37.2034 209.511 37.3182 209.863 37.3182ZM213.741 38V37.3608L216.142 34.733C216.423 34.4252 216.655 34.1577 216.838 33.9304C217.02 33.7008 217.155 33.4853 217.243 33.2841C217.333 33.0805 217.377 32.8674 217.377 32.6449C217.377 32.3892 217.316 32.1679 217.193 31.9808C217.072 31.7938 216.906 31.6494 216.696 31.5476C216.485 31.4458 216.248 31.3949 215.985 31.3949C215.706 31.3949 215.462 31.4529 215.254 31.5689C215.048 31.6825 214.888 31.8423 214.775 32.0483C214.663 32.2543 214.608 32.4957 214.608 32.7727H213.77C213.77 32.3466 213.868 31.9725 214.064 31.6506C214.261 31.3286 214.528 31.0777 214.867 30.8977C215.208 30.7178 215.59 30.6278 216.014 30.6278C216.44 30.6278 216.818 30.7178 217.147 30.8977C217.476 31.0777 217.734 31.3203 217.921 31.6257C218.108 31.9311 218.201 32.2708 218.201 32.6449C218.201 32.9124 218.153 33.174 218.056 33.4297C217.961 33.683 217.795 33.9659 217.559 34.2784C217.324 34.5885 216.999 34.9673 216.582 35.4148L214.949 37.1619V37.2188H218.329V38H213.741ZM222.069 38.0994C221.652 38.0994 221.277 38.0166 220.943 37.8509C220.609 37.6851 220.342 37.4579 220.14 37.169C219.939 36.8802 219.829 36.5511 219.81 36.1818H220.662C220.695 36.5109 220.845 36.7831 221.11 36.9986C221.377 37.2116 221.697 37.3182 222.069 37.3182C222.367 37.3182 222.632 37.2483 222.864 37.1087C223.098 36.969 223.282 36.7772 223.414 36.5334C223.549 36.2872 223.617 36.009 223.617 35.6989C223.617 35.3816 223.547 35.0987 223.407 34.8501C223.27 34.5992 223.081 34.4015 222.839 34.2571C222.598 34.1127 222.322 34.0393 222.012 34.0369C221.789 34.0346 221.561 34.0689 221.326 34.1399C221.092 34.2086 220.899 34.2973 220.748 34.4062L219.924 34.3068L220.364 30.7273H224.142V31.5085H221.103L220.847 33.6534H220.89C221.039 33.535 221.226 33.4368 221.451 33.3587C221.676 33.2805 221.91 33.2415 222.154 33.2415C222.599 33.2415 222.995 33.348 223.343 33.5611C223.694 33.7718 223.968 34.0606 224.167 34.4276C224.368 34.7945 224.469 35.2135 224.469 35.6847C224.469 36.1487 224.365 36.563 224.157 36.9276C223.951 37.2898 223.667 37.5762 223.304 37.7869C222.942 37.9953 222.53 38.0994 222.069 38.0994ZM230.312 38.1278C229.966 38.1278 229.652 38.0627 229.371 37.9325C229.089 37.8 228.865 37.6094 228.699 37.3608C228.534 37.1098 228.451 36.8068 228.451 36.4517C228.451 36.1392 228.512 35.8859 228.635 35.6918C228.759 35.4953 228.923 35.3414 229.129 35.2301C229.335 35.1188 229.562 35.036 229.811 34.9815C230.062 34.9247 230.314 34.8797 230.567 34.8466C230.899 34.804 231.167 34.772 231.373 34.7507C231.582 34.727 231.733 34.688 231.828 34.6335C231.925 34.5791 231.974 34.4844 231.974 34.3494V34.321C231.974 33.9706 231.878 33.6984 231.686 33.5043C231.497 33.3101 231.209 33.2131 230.823 33.2131C230.423 33.2131 230.109 33.3007 229.882 33.4759C229.655 33.651 229.495 33.8381 229.403 34.0369L228.607 33.7528C228.749 33.4214 228.939 33.1634 229.175 32.9787C229.414 32.7917 229.675 32.6615 229.956 32.5881C230.241 32.5123 230.52 32.4744 230.795 32.4744C230.97 32.4744 231.171 32.4957 231.398 32.5384C231.628 32.5786 231.849 32.6626 232.062 32.7905C232.278 32.9183 232.456 33.1113 232.599 33.3693C232.741 33.6274 232.812 33.973 232.812 34.4062V38H231.974V37.2614H231.931C231.874 37.3797 231.779 37.5064 231.647 37.6413C231.514 37.7763 231.338 37.8911 231.118 37.9858C230.898 38.0805 230.629 38.1278 230.312 38.1278ZM230.439 37.375C230.771 37.375 231.05 37.3099 231.278 37.1797C231.507 37.0495 231.68 36.8814 231.796 36.6754C231.914 36.4695 231.974 36.2528 231.974 36.0256V35.2585C231.938 35.3011 231.86 35.3402 231.739 35.3757C231.621 35.4089 231.483 35.4384 231.327 35.4645C231.173 35.4882 231.023 35.5095 230.876 35.5284C230.732 35.545 230.615 35.5592 230.525 35.571C230.307 35.5994 230.103 35.6456 229.914 35.7095C229.727 35.7711 229.575 35.8646 229.459 35.9901C229.346 36.1132 229.289 36.2812 229.289 36.4943C229.289 36.7855 229.397 37.0057 229.612 37.1548C229.83 37.3016 230.106 37.375 230.439 37.375ZM236.557 38.1136C236.046 38.1136 235.605 37.9929 235.236 37.7514C234.867 37.5099 234.583 37.1773 234.384 36.7536C234.185 36.3298 234.086 35.8456 234.086 35.3011C234.086 34.7472 234.187 34.2583 234.391 33.8345C234.597 33.4084 234.883 33.0758 235.25 32.8366C235.62 32.5952 236.051 32.4744 236.543 32.4744C236.926 32.4744 237.272 32.5455 237.58 32.6875C237.888 32.8295 238.14 33.0284 238.336 33.2841C238.533 33.5398 238.655 33.8381 238.702 34.179H237.864C237.8 33.9304 237.658 33.7102 237.438 33.5185C237.22 33.3243 236.926 33.2273 236.557 33.2273C236.23 33.2273 235.944 33.3125 235.698 33.483C235.454 33.651 235.263 33.889 235.126 34.1967C234.991 34.5021 234.924 34.8608 234.924 35.2727C234.924 35.6941 234.99 36.0611 235.123 36.3736C235.257 36.6861 235.447 36.9287 235.691 37.1016C235.937 37.2744 236.226 37.3608 236.557 37.3608C236.775 37.3608 236.973 37.3229 237.15 37.2472C237.328 37.1714 237.478 37.0625 237.601 36.9205C237.724 36.7784 237.812 36.608 237.864 36.4091H238.702C238.655 36.7311 238.538 37.0211 238.35 37.2791C238.166 37.5348 237.921 37.7384 237.615 37.8899C237.312 38.0391 236.96 38.1136 236.557 38.1136ZM241.532 38.1278C241.187 38.1278 240.873 38.0627 240.591 37.9325C240.31 37.8 240.086 37.6094 239.92 37.3608C239.754 37.1098 239.672 36.8068 239.672 36.4517C239.672 36.1392 239.733 35.8859 239.856 35.6918C239.979 35.4953 240.144 35.3414 240.35 35.2301C240.556 35.1188 240.783 35.036 241.032 34.9815C241.283 34.9247 241.535 34.8797 241.788 34.8466C242.119 34.804 242.388 34.772 242.594 34.7507C242.802 34.727 242.954 34.688 243.049 34.6335C243.146 34.5791 243.194 34.4844 243.194 34.3494V34.321C243.194 33.9706 243.098 33.6984 242.907 33.5043C242.717 33.3101 242.43 33.2131 242.044 33.2131C241.644 33.2131 241.33 33.3007 241.103 33.4759C240.875 33.651 240.716 33.8381 240.623 34.0369L239.828 33.7528C239.97 33.4214 240.159 33.1634 240.396 32.9787C240.635 32.7917 240.895 32.6615 241.177 32.5881C241.461 32.5123 241.741 32.4744 242.015 32.4744C242.19 32.4744 242.392 32.4957 242.619 32.5384C242.849 32.5786 243.07 32.6626 243.283 32.7905C243.498 32.9183 243.677 33.1113 243.819 33.3693C243.961 33.6274 244.032 33.973 244.032 34.4062V38H243.194V37.2614H243.152C243.095 37.3797 243 37.5064 242.868 37.6413C242.735 37.7763 242.559 37.8911 242.338 37.9858C242.118 38.0805 241.85 38.1278 241.532 38.1278ZM241.66 37.375C241.992 37.375 242.271 37.3099 242.498 37.1797C242.728 37.0495 242.901 36.8814 243.017 36.6754C243.135 36.4695 243.194 36.2528 243.194 36.0256V35.2585C243.159 35.3011 243.081 35.3402 242.96 35.3757C242.842 35.4089 242.704 35.4384 242.548 35.4645C242.394 35.4882 242.244 35.5095 242.097 35.5284C241.953 35.545 241.835 35.5592 241.745 35.571C241.528 35.5994 241.324 35.6456 241.135 35.7095C240.948 35.7711 240.796 35.8646 240.68 35.9901C240.566 36.1132 240.51 36.2812 240.51 36.4943C240.51 36.7855 240.617 37.0057 240.833 37.1548C241.051 37.3016 241.326 37.375 241.66 37.375ZM247.622 38.1136C247.167 38.1136 246.766 37.9988 246.418 37.7692C246.07 37.5372 245.798 37.2105 245.601 36.7891C245.405 36.3653 245.306 35.8646 245.306 35.2869C245.306 34.714 245.405 34.2169 245.601 33.7955C245.798 33.3741 246.071 33.0485 246.421 32.8189C246.772 32.5893 247.177 32.4744 247.636 32.4744C247.991 32.4744 248.271 32.5336 248.477 32.652C248.686 32.768 248.844 32.9006 248.953 33.0497C249.065 33.1965 249.151 33.3172 249.213 33.4119H249.284V30.7273H250.122V38H249.312V37.1619H249.213C249.151 37.2614 249.063 37.3868 248.95 37.5384C248.836 37.6875 248.674 37.8213 248.463 37.9396C248.253 38.0556 247.972 38.1136 247.622 38.1136ZM247.735 37.3608C248.071 37.3608 248.356 37.2732 248.588 37.098C248.82 36.9205 248.996 36.6754 249.117 36.3629C249.237 36.0481 249.298 35.6847 249.298 35.2727C249.298 34.8655 249.239 34.5092 249.12 34.2038C249.002 33.8961 248.827 33.657 248.595 33.4865C248.363 33.3137 248.076 33.2273 247.735 33.2273C247.38 33.2273 247.084 33.3184 246.847 33.5007C246.613 33.6806 246.437 33.9257 246.318 34.2358C246.202 34.5436 246.144 34.8892 246.144 35.2727C246.144 35.661 246.204 36.0137 246.322 36.331C246.443 36.6458 246.62 36.8968 246.855 37.0838C247.091 37.2685 247.385 37.3608 247.735 37.3608ZM254.06 38.1136C253.534 38.1136 253.081 37.9976 252.7 37.7656C252.321 37.5312 252.029 37.2045 251.823 36.7855C251.619 36.3641 251.517 35.8741 251.517 35.3153C251.517 34.7566 251.619 34.2642 251.823 33.8381C252.029 33.4096 252.315 33.0758 252.682 32.8366C253.051 32.5952 253.482 32.4744 253.975 32.4744C254.259 32.4744 254.539 32.5218 254.816 32.6165C255.093 32.7112 255.345 32.8651 255.573 33.0781C255.8 33.2888 255.981 33.5682 256.116 33.9162C256.251 34.2642 256.318 34.6927 256.318 35.2017V35.5568H252.114V34.8324H255.466C255.466 34.5246 255.405 34.25 255.281 34.0085C255.161 33.767 254.988 33.5765 254.763 33.4368C254.54 33.2971 254.278 33.2273 253.975 33.2273C253.641 33.2273 253.352 33.3101 253.108 33.4759C252.867 33.6392 252.681 33.8523 252.551 34.1151C252.42 34.3778 252.355 34.6596 252.355 34.9602V35.4432C252.355 35.8551 252.426 36.2043 252.568 36.4908C252.713 36.7749 252.913 36.9915 253.169 37.1406C253.424 37.2874 253.721 37.3608 254.06 37.3608C254.28 37.3608 254.479 37.33 254.656 37.2685C254.836 37.2045 254.991 37.1098 255.122 36.9844C255.252 36.8565 255.352 36.6979 255.423 36.5085L256.233 36.7358C256.148 37.0104 256.005 37.2519 255.803 37.4602C255.602 37.6662 255.354 37.8272 255.058 37.9432C254.762 38.0568 254.429 38.1136 254.06 38.1136ZM257.593 38V32.5455H258.403V33.3977H258.474C258.588 33.1065 258.771 32.8804 259.024 32.7195C259.278 32.5561 259.582 32.4744 259.937 32.4744C260.297 32.4744 260.596 32.5561 260.835 32.7195C261.077 32.8804 261.265 33.1065 261.4 33.3977H261.457C261.597 33.116 261.806 32.8923 262.085 32.7266C262.365 32.5585 262.7 32.4744 263.09 32.4744C263.578 32.4744 263.977 32.6271 264.287 32.9325C264.597 33.2356 264.752 33.7079 264.752 34.3494V38H263.914V34.3494C263.914 33.947 263.804 33.6593 263.584 33.4865C263.364 33.3137 263.105 33.2273 262.806 33.2273C262.423 33.2273 262.126 33.3433 261.915 33.5753C261.704 33.8049 261.599 34.0961 261.599 34.4489V38H260.747V34.2642C260.747 33.9541 260.646 33.7043 260.445 33.5149C260.244 33.3232 259.984 33.2273 259.667 33.2273C259.449 33.2273 259.246 33.2853 259.056 33.4013C258.869 33.5173 258.718 33.6783 258.602 33.8842C258.488 34.0878 258.431 34.3234 258.431 34.5909V38H257.593ZM266.285 38V32.5455H267.123V38H266.285ZM266.711 31.6364C266.547 31.6364 266.407 31.5807 266.288 31.4695C266.172 31.3582 266.114 31.2244 266.114 31.0682C266.114 30.9119 266.172 30.7782 266.288 30.6669C266.407 30.5556 266.547 30.5 266.711 30.5C266.874 30.5 267.014 30.5556 267.13 30.6669C267.248 30.7782 267.307 30.9119 267.307 31.0682C267.307 31.2244 267.248 31.3582 267.13 31.4695C267.014 31.5807 266.874 31.6364 266.711 31.6364ZM270.874 38.1136C270.362 38.1136 269.922 37.9929 269.553 37.7514C269.183 37.5099 268.899 37.1773 268.7 36.7536C268.501 36.3298 268.402 35.8456 268.402 35.3011C268.402 34.7472 268.504 34.2583 268.707 33.8345C268.913 33.4084 269.2 33.0758 269.567 32.8366C269.936 32.5952 270.367 32.4744 270.859 32.4744C271.243 32.4744 271.589 32.5455 271.896 32.6875C272.204 32.8295 272.456 33.0284 272.653 33.2841C272.849 33.5398 272.971 33.8381 273.018 34.179H272.18C272.116 33.9304 271.974 33.7102 271.754 33.5185C271.536 33.3243 271.243 33.2273 270.874 33.2273C270.547 33.2273 270.26 33.3125 270.014 33.483C269.77 33.651 269.58 33.889 269.442 34.1967C269.308 34.5021 269.24 34.8608 269.24 35.2727C269.24 35.6941 269.306 36.0611 269.439 36.3736C269.574 36.6861 269.763 36.9287 270.007 37.1016C270.253 37.2744 270.542 37.3608 270.874 37.3608C271.091 37.3608 271.289 37.3229 271.467 37.2472C271.644 37.1714 271.795 37.0625 271.918 36.9205C272.041 36.7784 272.128 36.608 272.18 36.4091H273.018C272.971 36.7311 272.854 37.0211 272.667 37.2791C272.482 37.5348 272.237 37.7384 271.932 37.8899C271.629 38.0391 271.276 38.1136 270.874 38.1136ZM279.485 32.5455V33.2557H276.545V32.5455H279.485ZM277.425 38V31.7926C277.425 31.4801 277.499 31.2197 277.646 31.0114C277.792 30.803 277.983 30.6468 278.217 30.5426C278.452 30.4384 278.699 30.3864 278.96 30.3864C279.165 30.3864 279.334 30.4029 279.464 30.4361C279.594 30.4692 279.691 30.5 279.755 30.5284L279.513 31.2528C279.471 31.2386 279.412 31.2209 279.336 31.1996C279.263 31.1783 279.165 31.1676 279.045 31.1676C278.768 31.1676 278.568 31.2375 278.445 31.3771C278.324 31.5168 278.263 31.7216 278.263 31.9915V38H277.425ZM282.722 38.1136C282.196 38.1136 281.743 37.9976 281.362 37.7656C280.983 37.5312 280.691 37.2045 280.485 36.7855C280.281 36.3641 280.179 35.8741 280.179 35.3153C280.179 34.7566 280.281 34.2642 280.485 33.8381C280.691 33.4096 280.977 33.0758 281.344 32.8366C281.713 32.5952 282.144 32.4744 282.637 32.4744C282.921 32.4744 283.201 32.5218 283.478 32.6165C283.755 32.7112 284.007 32.8651 284.235 33.0781C284.462 33.2888 284.643 33.5682 284.778 33.9162C284.913 34.2642 284.98 34.6927 284.98 35.2017V35.5568H280.776V34.8324H284.128C284.128 34.5246 284.067 34.25 283.944 34.0085C283.823 33.767 283.65 33.5765 283.425 33.4368C283.203 33.2971 282.94 33.2273 282.637 33.2273C282.303 33.2273 282.014 33.3101 281.77 33.4759C281.529 33.6392 281.343 33.8523 281.213 34.1151C281.083 34.3778 281.017 34.6596 281.017 34.9602V35.4432C281.017 35.8551 281.088 36.2043 281.23 36.4908C281.375 36.7749 281.575 36.9915 281.831 37.1406C282.086 37.2874 282.383 37.3608 282.722 37.3608C282.942 37.3608 283.141 37.33 283.319 37.2685C283.498 37.2045 283.654 37.1098 283.784 36.9844C283.914 36.8565 284.015 36.6979 284.086 36.5085L284.895 36.7358C284.81 37.0104 284.667 37.2519 284.466 37.4602C284.264 37.6662 284.016 37.8272 283.72 37.9432C283.424 38.0568 283.091 38.1136 282.722 38.1136ZM288.542 38.1136C288.017 38.1136 287.563 37.9976 287.182 37.7656C286.803 37.5312 286.511 37.2045 286.305 36.7855C286.101 36.3641 286 35.8741 286 35.3153C286 34.7566 286.101 34.2642 286.305 33.8381C286.511 33.4096 286.797 33.0758 287.164 32.8366C287.534 32.5952 287.965 32.4744 288.457 32.4744C288.741 32.4744 289.022 32.5218 289.299 32.6165C289.576 32.7112 289.828 32.8651 290.055 33.0781C290.282 33.2888 290.463 33.5682 290.598 33.9162C290.733 34.2642 290.801 34.6927 290.801 35.2017V35.5568H286.596V34.8324H289.949C289.949 34.5246 289.887 34.25 289.764 34.0085C289.643 33.767 289.47 33.5765 289.245 33.4368C289.023 33.2971 288.76 33.2273 288.457 33.2273C288.123 33.2273 287.834 33.3101 287.591 33.4759C287.349 33.6392 287.163 33.8523 287.033 34.1151C286.903 34.3778 286.838 34.6596 286.838 34.9602V35.4432C286.838 35.8551 286.909 36.2043 287.051 36.4908C287.195 36.7749 287.395 36.9915 287.651 37.1406C287.907 37.2874 288.204 37.3608 288.542 37.3608C288.762 37.3608 288.961 37.33 289.139 37.2685C289.319 37.2045 289.474 37.1098 289.604 36.9844C289.734 36.8565 289.835 36.6979 289.906 36.5085L290.716 36.7358C290.63 37.0104 290.487 37.2519 290.286 37.4602C290.085 37.6662 289.836 37.8272 289.54 37.9432C289.244 38.0568 288.912 38.1136 288.542 38.1136ZM295.939 33.767L295.186 33.9801C295.139 33.8546 295.069 33.7327 294.977 33.6143C294.887 33.4936 294.764 33.3942 294.608 33.3161C294.451 33.2379 294.251 33.1989 294.007 33.1989C293.674 33.1989 293.395 33.2758 293.173 33.4297C292.953 33.5812 292.843 33.7741 292.843 34.0085C292.843 34.2169 292.918 34.3814 293.07 34.5021C293.221 34.6229 293.458 34.7235 293.78 34.804L294.59 35.0028C295.078 35.1212 295.441 35.3023 295.68 35.5462C295.919 35.7876 296.039 36.099 296.039 36.4801C296.039 36.7926 295.949 37.072 295.769 37.3182C295.591 37.5644 295.343 37.7585 295.023 37.9006C294.703 38.0426 294.332 38.1136 293.908 38.1136C293.352 38.1136 292.891 37.9929 292.527 37.7514C292.162 37.5099 291.931 37.1572 291.834 36.6932L292.63 36.4943C292.705 36.7879 292.849 37.008 293.059 37.1548C293.272 37.3016 293.551 37.375 293.894 37.375C294.284 37.375 294.595 37.2921 294.824 37.1264C295.056 36.9583 295.172 36.7571 295.172 36.5227C295.172 36.3333 295.106 36.1747 294.973 36.0469C294.841 35.9167 294.637 35.8196 294.363 35.7557L293.453 35.5426C292.954 35.4242 292.587 35.2408 292.353 34.9922C292.121 34.7412 292.005 34.4276 292.005 34.0511C292.005 33.7434 292.091 33.4711 292.264 33.2344C292.439 32.9976 292.677 32.8118 292.978 32.6768C293.281 32.5419 293.624 32.4744 294.007 32.4744C294.547 32.4744 294.971 32.5928 295.279 32.8295C295.589 33.0663 295.809 33.3788 295.939 33.767ZM62.983 43.5085V42.7273H68.4375V43.5085H66.1506V50H65.2699V43.5085H62.983ZM70.546 50.1278C70.2003 50.1278 69.8867 50.0627 69.6049 49.9325C69.3232 49.8 69.0995 49.6094 68.9338 49.3608C68.7681 49.1098 68.6852 48.8068 68.6852 48.4517C68.6852 48.1392 68.7467 47.8859 68.8699 47.6918C68.993 47.4953 69.1575 47.3414 69.3635 47.2301C69.5694 47.1188 69.7967 47.036 70.0453 46.9815C70.2962 46.9247 70.5484 46.8797 70.8017 46.8466C71.1331 46.804 71.4018 46.772 71.6078 46.7507C71.8161 46.727 71.9676 46.688 72.0623 46.6335C72.1594 46.5791 72.2079 46.4844 72.2079 46.3494V46.321C72.2079 45.9706 72.112 45.6984 71.9203 45.5043C71.7309 45.3101 71.4432 45.2131 71.0574 45.2131C70.6573 45.2131 70.3436 45.3007 70.1163 45.4759C69.889 45.651 69.7292 45.8381 69.6369 46.0369L68.8414 45.7528C68.9835 45.4214 69.1729 45.1634 69.4096 44.9787C69.6487 44.7917 69.9092 44.6615 70.1909 44.5881C70.475 44.5123 70.7543 44.4744 71.0289 44.4744C71.2041 44.4744 71.4054 44.4957 71.6326 44.5384C71.8623 44.5786 72.0836 44.6626 72.2967 44.7905C72.5121 44.9183 72.6909 45.1113 72.8329 45.3693C72.975 45.6274 73.046 45.973 73.046 46.4062V50H72.2079V49.2614H72.1653C72.1085 49.3797 72.0138 49.5064 71.8812 49.6413C71.7486 49.7763 71.5723 49.8911 71.3521 49.9858C71.1319 50.0805 70.8632 50.1278 70.546 50.1278ZM70.6738 49.375C71.0053 49.375 71.2846 49.3099 71.5119 49.1797C71.7415 49.0495 71.9144 48.8814 72.0304 48.6754C72.1487 48.4695 72.2079 48.2528 72.2079 48.0256V47.2585C72.1724 47.3011 72.0943 47.3402 71.9735 47.3757C71.8552 47.4089 71.7179 47.4384 71.5616 47.4645C71.4077 47.4882 71.2574 47.5095 71.1106 47.5284C70.9662 47.545 70.849 47.5592 70.7591 47.571C70.5413 47.5994 70.3377 47.6456 70.1483 47.7095C69.9612 47.7711 69.8097 47.8646 69.6937 47.9901C69.5801 48.1132 69.5233 48.2812 69.5233 48.4943C69.5233 48.7855 69.631 49.0057 69.8464 49.1548C70.0642 49.3016 70.34 49.375 70.6738 49.375ZM74.5756 52.0455V44.5455H75.3853V45.4119H75.4847C75.5463 45.3172 75.6315 45.1965 75.7404 45.0497C75.8517 44.9006 76.0103 44.768 76.2163 44.652C76.4246 44.5336 76.7063 44.4744 77.0614 44.4744C77.5207 44.4744 77.9255 44.5893 78.2759 44.8189C78.6263 45.0485 78.8997 45.3741 79.0962 45.7955C79.2927 46.2169 79.391 46.714 79.391 47.2869C79.391 47.8646 79.2927 48.3653 79.0962 48.7891C78.8997 49.2105 78.6275 49.5372 78.2795 49.7692C77.9315 49.9988 77.5302 50.1136 77.0756 50.1136C76.7253 50.1136 76.4447 50.0556 76.234 49.9396C76.0233 49.8213 75.8612 49.6875 75.7475 49.5384C75.6339 49.3868 75.5463 49.2614 75.4847 49.1619H75.4137V52.0455H74.5756ZM75.3995 47.2727C75.3995 47.6847 75.4599 48.0481 75.5806 48.3629C75.7013 48.6754 75.8777 48.9205 76.1097 49.098C76.3417 49.2732 76.6258 49.3608 76.962 49.3608C77.3124 49.3608 77.6048 49.2685 77.8391 49.0838C78.0759 48.8968 78.2534 48.6458 78.3718 48.331C78.4925 48.0137 78.5529 47.661 78.5529 47.2727C78.5529 46.8892 78.4937 46.5436 78.3754 46.2358C78.2594 45.9257 78.083 45.6806 77.8462 45.5007C77.6119 45.3184 77.3171 45.2273 76.962 45.2273C76.6211 45.2273 76.3346 45.3137 76.1026 45.4865C75.8706 45.657 75.6954 45.8961 75.5771 46.2038C75.4587 46.5092 75.3995 46.8655 75.3995 47.2727ZM85.854 44.5455V45.2557H83.0273V44.5455H85.854ZM83.8512 43.2386H84.6893V48.4375C84.6893 48.6742 84.7236 48.8518 84.7923 48.9702C84.8633 49.0862 84.9532 49.1643 85.0621 49.2045C85.1734 49.2424 85.2906 49.2614 85.4137 49.2614C85.506 49.2614 85.5818 49.2566 85.641 49.2472C85.7002 49.2353 85.7475 49.2259 85.783 49.2188L85.9535 49.9716C85.8967 49.9929 85.8174 50.0142 85.7156 50.0355C85.6138 50.0592 85.4847 50.071 85.3285 50.071C85.0917 50.071 84.8597 50.0201 84.6325 49.9183C84.4076 49.8165 84.2205 49.6615 84.0714 49.4531C83.9246 49.2448 83.8512 48.982 83.8512 48.6648V43.2386ZM89.272 50.1136C88.7796 50.1136 88.3475 49.9964 87.9759 49.7621C87.6065 49.5277 87.3177 49.1998 87.1094 48.7784C86.9034 48.357 86.8004 47.8646 86.8004 47.3011C86.8004 46.733 86.9034 46.237 87.1094 45.8132C87.3177 45.3894 87.6065 45.0604 87.9759 44.826C88.3475 44.5916 88.7796 44.4744 89.272 44.4744C89.7644 44.4744 90.1953 44.5916 90.5646 44.826C90.9363 45.0604 91.2251 45.3894 91.4311 45.8132C91.6394 46.237 91.7436 46.733 91.7436 47.3011C91.7436 47.8646 91.6394 48.357 91.4311 48.7784C91.2251 49.1998 90.9363 49.5277 90.5646 49.7621C90.1953 49.9964 89.7644 50.1136 89.272 50.1136ZM89.272 49.3608C89.6461 49.3608 89.9538 49.2649 90.1953 49.0732C90.4368 48.8814 90.6155 48.6293 90.7315 48.3168C90.8475 48.0043 90.9055 47.6657 90.9055 47.3011C90.9055 46.9366 90.8475 46.5968 90.7315 46.282C90.6155 45.9671 90.4368 45.7126 90.1953 45.5185C89.9538 45.3243 89.6461 45.2273 89.272 45.2273C88.898 45.2273 88.5902 45.3243 88.3487 45.5185C88.1072 45.7126 87.9285 45.9671 87.8125 46.282C87.6965 46.5968 87.6385 46.9366 87.6385 47.3011C87.6385 47.6657 87.6965 48.0043 87.8125 48.3168C87.9285 48.6293 88.1072 48.8814 88.3487 49.0732C88.5902 49.2649 88.898 49.3608 89.272 49.3608ZM99.699 45.767L98.9462 45.9801C98.8989 45.8546 98.829 45.7327 98.7367 45.6143C98.6467 45.4936 98.5236 45.3942 98.3674 45.3161C98.2111 45.2379 98.0111 45.1989 97.7672 45.1989C97.4334 45.1989 97.1552 45.2758 96.9327 45.4297C96.7125 45.5812 96.6025 45.7741 96.6025 46.0085C96.6025 46.2169 96.6782 46.3814 96.8297 46.5021C96.9812 46.6229 97.218 46.7235 97.54 46.804L98.3496 47.0028C98.8373 47.1212 99.2007 47.3023 99.4398 47.5462C99.6789 47.7876 99.7985 48.099 99.7985 48.4801C99.7985 48.7926 99.7085 49.072 99.5286 49.3182C99.351 49.5644 99.1025 49.7585 98.7828 49.9006C98.4632 50.0426 98.0916 50.1136 97.6678 50.1136C97.1114 50.1136 96.651 49.9929 96.2864 49.7514C95.9218 49.5099 95.691 49.1572 95.5939 48.6932L96.3894 48.4943C96.4651 48.7879 96.6084 49.008 96.8191 49.1548C97.0321 49.3016 97.3103 49.375 97.6536 49.375C98.0442 49.375 98.3543 49.2921 98.584 49.1264C98.816 48.9583 98.932 48.7571 98.932 48.5227C98.932 48.3333 98.8657 48.1747 98.7331 48.0469C98.6006 47.9167 98.397 47.8196 98.1223 47.7557L97.2132 47.5426C96.7137 47.4242 96.3468 47.2408 96.1124 46.9922C95.8804 46.7412 95.7644 46.4276 95.7644 46.0511C95.7644 45.7434 95.8508 45.4711 96.0236 45.2344C96.1988 44.9976 96.4367 44.8118 96.7374 44.6768C97.0404 44.5419 97.3837 44.4744 97.7672 44.4744C98.307 44.4744 98.7308 44.5928 99.0385 44.8295C99.3487 45.0663 99.5688 45.3788 99.699 45.767ZM103.347 50.1136C102.821 50.1136 102.368 49.9976 101.987 49.7656C101.608 49.5312 101.316 49.2045 101.11 48.7855C100.906 48.3641 100.804 47.8741 100.804 47.3153C100.804 46.7566 100.906 46.2642 101.11 45.8381C101.316 45.4096 101.602 45.0758 101.969 44.8366C102.338 44.5952 102.769 44.4744 103.262 44.4744C103.546 44.4744 103.826 44.5218 104.103 44.6165C104.38 44.7112 104.632 44.8651 104.86 45.0781C105.087 45.2888 105.268 45.5682 105.403 45.9162C105.538 46.2642 105.605 46.6927 105.605 47.2017V47.5568H101.401V46.8324H104.753C104.753 46.5246 104.692 46.25 104.569 46.0085C104.448 45.767 104.275 45.5765 104.05 45.4368C103.828 45.2971 103.565 45.2273 103.262 45.2273C102.928 45.2273 102.639 45.3101 102.395 45.4759C102.154 45.6392 101.968 45.8523 101.838 46.1151C101.708 46.3778 101.642 46.6596 101.642 46.9602V47.4432C101.642 47.8551 101.713 48.2043 101.855 48.4908C102 48.7749 102.2 48.9915 102.456 49.1406C102.711 49.2874 103.008 49.3608 103.347 49.3608C103.567 49.3608 103.766 49.33 103.944 49.2685C104.123 49.2045 104.279 49.1098 104.409 48.9844C104.539 48.8565 104.64 48.6979 104.711 48.5085L105.52 48.7358C105.435 49.0104 105.292 49.2519 105.091 49.4602C104.889 49.6662 104.641 49.8272 104.345 49.9432C104.049 50.0568 103.716 50.1136 103.347 50.1136ZM109.167 50.1136C108.642 50.1136 108.188 49.9976 107.807 49.7656C107.428 49.5312 107.136 49.2045 106.93 48.7855C106.726 48.3641 106.625 47.8741 106.625 47.3153C106.625 46.7566 106.726 46.2642 106.93 45.8381C107.136 45.4096 107.422 45.0758 107.789 44.8366C108.159 44.5952 108.59 44.4744 109.082 44.4744C109.366 44.4744 109.647 44.5218 109.924 44.6165C110.201 44.7112 110.453 44.8651 110.68 45.0781C110.907 45.2888 111.088 45.5682 111.223 45.9162C111.358 46.2642 111.426 46.6927 111.426 47.2017V47.5568H107.221V46.8324H110.574C110.574 46.5246 110.512 46.25 110.389 46.0085C110.268 45.767 110.095 45.5765 109.87 45.4368C109.648 45.2971 109.385 45.2273 109.082 45.2273C108.748 45.2273 108.459 45.3101 108.216 45.4759C107.974 45.6392 107.788 45.8523 107.658 46.1151C107.528 46.3778 107.463 46.6596 107.463 46.9602V47.4432C107.463 47.8551 107.534 48.2043 107.676 48.4908C107.82 48.7749 108.02 48.9915 108.276 49.1406C108.532 49.2874 108.829 49.3608 109.167 49.3608C109.387 49.3608 109.586 49.33 109.764 49.2685C109.944 49.2045 110.099 49.1098 110.229 48.9844C110.359 48.8565 110.46 48.6979 110.531 48.5085L111.341 48.7358C111.255 49.0104 111.112 49.2519 110.911 49.4602C110.71 49.6662 110.461 49.8272 110.165 49.9432C109.869 50.0568 109.537 50.1136 109.167 50.1136ZM115.513 50V44.5455H116.323V45.3977H116.394C116.507 45.1065 116.691 44.8804 116.944 44.7195C117.198 44.5561 117.502 44.4744 117.857 44.4744C118.217 44.4744 118.516 44.5561 118.755 44.7195C118.997 44.8804 119.185 45.1065 119.32 45.3977H119.377C119.516 45.116 119.726 44.8923 120.005 44.7266C120.285 44.5585 120.62 44.4744 121.01 44.4744C121.498 44.4744 121.897 44.6271 122.207 44.9325C122.517 45.2356 122.672 45.7079 122.672 46.3494V50H121.834V46.3494C121.834 45.947 121.724 45.6593 121.504 45.4865C121.284 45.3137 121.025 45.2273 120.726 45.2273C120.343 45.2273 120.046 45.3433 119.835 45.5753C119.624 45.8049 119.519 46.0961 119.519 46.4489V50H118.667V46.2642C118.667 45.9541 118.566 45.7043 118.365 45.5149C118.163 45.3232 117.904 45.2273 117.587 45.2273C117.369 45.2273 117.166 45.2853 116.976 45.4013C116.789 45.5173 116.638 45.6783 116.522 45.8842C116.408 46.0878 116.351 46.3234 116.351 46.5909V50H115.513ZM126.42 50.1136C125.928 50.1136 125.496 49.9964 125.124 49.7621C124.755 49.5277 124.466 49.1998 124.258 48.7784C124.052 48.357 123.949 47.8646 123.949 47.3011C123.949 46.733 124.052 46.237 124.258 45.8132C124.466 45.3894 124.755 45.0604 125.124 44.826C125.496 44.5916 125.928 44.4744 126.42 44.4744C126.913 44.4744 127.344 44.5916 127.713 44.826C128.085 45.0604 128.374 45.3894 128.58 45.8132C128.788 46.237 128.892 46.733 128.892 47.3011C128.892 47.8646 128.788 48.357 128.58 48.7784C128.374 49.1998 128.085 49.5277 127.713 49.7621C127.344 49.9964 126.913 50.1136 126.42 50.1136ZM126.42 49.3608C126.795 49.3608 127.102 49.2649 127.344 49.0732C127.585 48.8814 127.764 48.6293 127.88 48.3168C127.996 48.0043 128.054 47.6657 128.054 47.3011C128.054 46.9366 127.996 46.5968 127.88 46.282C127.764 45.9671 127.585 45.7126 127.344 45.5185C127.102 45.3243 126.795 45.2273 126.42 45.2273C126.046 45.2273 125.739 45.3243 125.497 45.5185C125.256 45.7126 125.077 45.9671 124.961 46.282C124.845 46.5968 124.787 46.9366 124.787 47.3011C124.787 47.6657 124.845 48.0043 124.961 48.3168C125.077 48.6293 125.256 48.8814 125.497 49.0732C125.739 49.2649 126.046 49.3608 126.42 49.3608ZM130.171 50V44.5455H130.981V45.3693H131.038C131.137 45.0994 131.317 44.8804 131.578 44.7124C131.838 44.5443 132.132 44.4602 132.458 44.4602C132.52 44.4602 132.597 44.4614 132.689 44.4638C132.781 44.4661 132.851 44.4697 132.899 44.4744V45.3267C132.87 45.3196 132.805 45.3089 132.703 45.2947C132.604 45.2782 132.499 45.2699 132.387 45.2699C132.122 45.2699 131.885 45.3255 131.677 45.4368C131.471 45.5457 131.308 45.6972 131.187 45.8913C131.069 46.0831 131.009 46.3021 131.009 46.5483V50H130.171ZM136.013 50.1136C135.487 50.1136 135.034 49.9976 134.653 49.7656C134.274 49.5312 133.982 49.2045 133.776 48.7855C133.572 48.3641 133.47 47.8741 133.47 47.3153C133.47 46.7566 133.572 46.2642 133.776 45.8381C133.982 45.4096 134.268 45.0758 134.635 44.8366C135.004 44.5952 135.435 44.4744 135.928 44.4744C136.212 44.4744 136.492 44.5218 136.769 44.6165C137.046 44.7112 137.298 44.8651 137.526 45.0781C137.753 45.2888 137.934 45.5682 138.069 45.9162C138.204 46.2642 138.271 46.6927 138.271 47.2017V47.5568H134.067V46.8324H137.419C137.419 46.5246 137.358 46.25 137.235 46.0085C137.114 45.767 136.941 45.5765 136.716 45.4368C136.494 45.2971 136.231 45.2273 135.928 45.2273C135.594 45.2273 135.305 45.3101 135.061 45.4759C134.82 45.6392 134.634 45.8523 134.504 46.1151C134.374 46.3778 134.308 46.6596 134.308 46.9602V47.4432C134.308 47.8551 134.379 48.2043 134.521 48.4908C134.666 48.7749 134.866 48.9915 135.122 49.1406C135.377 49.2874 135.674 49.3608 136.013 49.3608C136.233 49.3608 136.432 49.33 136.61 49.2685C136.789 49.2045 136.945 49.1098 137.075 48.9844C137.205 48.8565 137.306 48.6979 137.377 48.5085L138.186 48.7358C138.101 49.0104 137.958 49.2519 137.757 49.4602C137.555 49.6662 137.307 49.8272 137.011 49.9432C136.715 50.0568 136.382 50.1136 136.013 50.1136Z" fill="black" fill-opacity="0.6"/>
</svg>
