<svg width="174" height="182" viewBox="0 0 174 182" fill="none" xmlns="http://www.w3.org/2000/svg">
<rect width="174" height="182" rx="12" fill="white"/>
<rect x="0.5" y="0.5" width="173" height="181" rx="11.5" stroke="black" stroke-opacity="0.1"/>
<path d="M18.8067 19.8182V30H17.5738V19.8182H18.8067ZM22.2931 25.4062V30H21.1198V22.3636H22.2533V23.5568H22.3527C22.5317 23.169 22.8035 22.8575 23.1681 22.6222C23.5326 22.3835 24.0033 22.2642 24.58 22.2642C25.097 22.2642 25.5494 22.3703 25.9372 22.5824C26.325 22.7912 26.6266 23.1094 26.8421 23.5369C27.0575 23.9612 27.1652 24.4981 27.1652 25.1477V30H25.9919V25.2273C25.9919 24.6274 25.8361 24.16 25.5246 23.8253C25.213 23.4872 24.7855 23.3182 24.2419 23.3182C23.8674 23.3182 23.5326 23.3994 23.2377 23.5618C22.946 23.7242 22.7156 23.9612 22.5466 24.2727C22.3776 24.5843 22.2931 24.9621 22.2931 25.4062ZM32.4115 30.1591C31.6956 30.1591 31.0791 29.9901 30.5621 29.652C30.045 29.3139 29.6473 28.8482 29.3689 28.255C29.0905 27.6617 28.9513 26.9839 28.9513 26.2216C28.9513 25.446 29.0938 24.7616 29.3788 24.1683C29.6672 23.5717 30.0682 23.1061 30.5819 22.7713C31.099 22.4332 31.7022 22.2642 32.3916 22.2642C32.9285 22.2642 33.4124 22.3636 33.8433 22.5625C34.2742 22.7614 34.6272 23.0398 34.9023 23.3977C35.1773 23.7557 35.348 24.1733 35.4143 24.6506H34.241C34.1515 24.3026 33.9527 23.9943 33.6444 23.7259C33.3395 23.4541 32.9285 23.3182 32.4115 23.3182C31.9541 23.3182 31.5531 23.4375 31.2084 23.6761C30.867 23.9115 30.6002 24.2446 30.4079 24.6754C30.219 25.103 30.1246 25.6051 30.1246 26.1818C30.1246 26.7718 30.2174 27.2855 30.403 27.723C30.5919 28.1605 30.857 28.5002 31.1984 28.7422C31.5431 28.9841 31.9475 29.1051 32.4115 29.1051C32.7164 29.1051 32.9932 29.0521 33.2417 28.946C33.4903 28.84 33.7008 28.6875 33.8731 28.4886C34.0455 28.2898 34.1681 28.0511 34.241 27.7727H35.4143C35.348 28.2235 35.184 28.6295 34.9221 28.9908C34.6636 29.3487 34.3206 29.6338 33.893 29.8459C33.4688 30.0547 32.9749 30.1591 32.4115 30.1591ZM40.2318 30.1591C39.5424 30.1591 38.9375 29.995 38.4172 29.6669C37.9001 29.3388 37.4958 28.8797 37.2041 28.2898C36.9157 27.6998 36.7716 27.0104 36.7716 26.2216C36.7716 25.4261 36.9157 24.7318 37.2041 24.1385C37.4958 23.5452 37.9001 23.0845 38.4172 22.7564C38.9375 22.4283 39.5424 22.2642 40.2318 22.2642C40.9212 22.2642 41.5244 22.4283 42.0415 22.7564C42.5618 23.0845 42.9662 23.5452 43.2545 24.1385C43.5462 24.7318 43.692 25.4261 43.692 26.2216C43.692 27.0104 43.5462 27.6998 43.2545 28.2898C42.9662 28.8797 42.5618 29.3388 42.0415 29.6669C41.5244 29.995 40.9212 30.1591 40.2318 30.1591ZM40.2318 29.1051C40.7555 29.1051 41.1863 28.9709 41.5244 28.7024C41.8625 28.4339 42.1127 28.081 42.2751 27.6435C42.4375 27.206 42.5187 26.732 42.5187 26.2216C42.5187 25.7112 42.4375 25.2356 42.2751 24.7947C42.1127 24.3539 41.8625 23.9976 41.5244 23.7259C41.1863 23.4541 40.7555 23.3182 40.2318 23.3182C39.7081 23.3182 39.2773 23.4541 38.9392 23.7259C38.6011 23.9976 38.3509 24.3539 38.1885 24.7947C38.0261 25.2356 37.9449 25.7112 37.9449 26.2216C37.9449 26.732 38.0261 27.206 38.1885 27.6435C38.3509 28.081 38.6011 28.4339 38.9392 28.7024C39.2773 28.9709 39.7081 29.1051 40.2318 29.1051ZM45.483 30V22.3636H46.6166V23.5568H46.716C46.8751 23.1491 47.132 22.8326 47.4866 22.6072C47.8412 22.3786 48.2671 22.2642 48.7643 22.2642C49.2681 22.2642 49.6874 22.3786 50.0221 22.6072C50.3602 22.8326 50.6237 23.1491 50.8126 23.5568H50.8921C51.0877 23.1624 51.381 22.8492 51.7721 22.6172C52.1632 22.3819 52.6322 22.2642 53.1791 22.2642C53.8618 22.2642 54.4203 22.478 54.8545 22.9055C55.2887 23.3298 55.5058 23.991 55.5058 24.8892V30H54.3325V24.8892C54.3325 24.3258 54.1784 23.9231 53.8701 23.6811C53.5619 23.4392 53.199 23.3182 52.7813 23.3182C52.2444 23.3182 51.8285 23.4806 51.5335 23.8054C51.2385 24.1269 51.091 24.5346 51.091 25.0284V30H49.8978V24.7699C49.8978 24.3357 49.757 23.986 49.4752 23.7209C49.1935 23.4524 48.8306 23.3182 48.3865 23.3182C48.0815 23.3182 47.7965 23.3994 47.5313 23.5618C47.2695 23.7242 47.0574 23.9496 46.895 24.2379C46.7359 24.523 46.6563 24.8527 46.6563 25.2273V30H45.483ZM60.8527 30.1591C60.1169 30.1591 59.4822 29.9967 58.9486 29.6719C58.4183 29.3438 58.009 28.8864 57.7206 28.2997C57.4356 27.7098 57.2931 27.0237 57.2931 26.2415C57.2931 25.4593 57.4356 24.7699 57.7206 24.1733C58.009 23.5734 58.41 23.1061 58.9237 22.7713C59.4408 22.4332 60.044 22.2642 60.7334 22.2642C61.1311 22.2642 61.5239 22.3305 61.9117 22.4631C62.2994 22.5956 62.6524 22.8111 62.9706 23.1094C63.2888 23.4044 63.5423 23.7955 63.7313 24.2827C63.9202 24.7699 64.0146 25.3698 64.0146 26.0824V26.5795H58.1283V25.5653H62.8215C62.8215 25.1345 62.7353 24.75 62.5629 24.4119C62.3939 24.0739 62.152 23.8071 61.8371 23.6115C61.5255 23.416 61.1576 23.3182 60.7334 23.3182C60.2661 23.3182 59.8617 23.4342 59.5203 23.6662C59.1823 23.8949 58.9221 24.1932 58.7398 24.5611C58.5575 24.929 58.4664 25.3234 58.4664 25.7443V26.4205C58.4664 26.9972 58.5658 27.486 58.7646 27.8871C58.9668 28.2848 59.2469 28.5881 59.6048 28.7969C59.9628 29.0024 60.3788 29.1051 60.8527 29.1051C61.161 29.1051 61.4394 29.062 61.6879 28.9759C61.9398 28.8864 62.1569 28.7538 62.3392 28.5781C62.5215 28.3991 62.6624 28.1771 62.7618 27.9119L63.8953 28.2301C63.776 28.6146 63.5755 28.9527 63.2938 29.2443C63.012 29.5327 62.664 29.758 62.2497 29.9205C61.8354 30.0795 61.3698 30.1591 60.8527 30.1591ZM69.896 30V19.8182H73.3364C74.1318 19.8182 74.7848 19.9541 75.2952 20.2259C75.8056 20.4943 76.1834 20.8639 76.4287 21.3345C76.674 21.8052 76.7966 22.3404 76.7966 22.9403C76.7966 23.5402 76.674 24.0722 76.4287 24.5362C76.1834 25.0002 75.8073 25.3648 75.3002 25.63C74.7931 25.8918 74.1451 26.0227 73.3563 26.0227H70.5722V24.9091H73.3165C73.8601 24.9091 74.2976 24.8295 74.629 24.6705C74.9637 24.5114 75.2057 24.286 75.3548 23.9943C75.5073 23.6993 75.5835 23.348 75.5835 22.9403C75.5835 22.5327 75.5073 22.1764 75.3548 21.8714C75.2024 21.5665 74.9588 21.3312 74.624 21.1655C74.2893 20.9964 73.8468 20.9119 73.2966 20.9119H71.129V30H69.896ZM74.6887 25.4261L77.1943 30H75.7625L73.2966 25.4261H74.6887ZM80.9392 30.179C80.4553 30.179 80.0161 30.0878 79.6217 29.9055C79.2273 29.7199 78.9141 29.4531 78.6821 29.1051C78.4501 28.7538 78.3341 28.3295 78.3341 27.8324C78.3341 27.3949 78.4202 27.0402 78.5926 26.7685C78.7649 26.4934 78.9953 26.2779 79.2836 26.1222C79.572 25.9664 79.8902 25.8504 80.2382 25.7741C80.5895 25.6946 80.9425 25.6316 81.2971 25.5852C81.7612 25.5256 82.1373 25.4808 82.4257 25.451C82.7174 25.4179 82.9295 25.3632 83.0621 25.2869C83.1979 25.2107 83.2659 25.0781 83.2659 24.8892V24.8494C83.2659 24.3589 83.1317 23.9777 82.8632 23.706C82.598 23.4342 82.1953 23.2983 81.6551 23.2983C81.095 23.2983 80.6558 23.4209 80.3376 23.6662C80.0194 23.9115 79.7957 24.1733 79.6665 24.4517L78.5528 24.054C78.7517 23.59 79.0168 23.2287 79.3483 22.9702C79.683 22.7083 80.0476 22.526 80.442 22.4233C80.8398 22.3172 81.2309 22.2642 81.6153 22.2642C81.8606 22.2642 82.1423 22.294 82.4605 22.3537C82.782 22.41 83.0919 22.5277 83.3902 22.7067C83.6918 22.8857 83.942 23.1558 84.1409 23.517C84.3398 23.8783 84.4392 24.3622 84.4392 24.9688V30H83.2659V28.9659H83.2062C83.1267 29.1316 82.9941 29.3089 82.8085 29.4979C82.6229 29.6868 82.376 29.8475 82.0677 29.9801C81.7595 30.1127 81.3833 30.179 80.9392 30.179ZM81.1182 29.125C81.5822 29.125 81.9733 29.0339 82.2915 28.8516C82.613 28.6693 82.8549 28.4339 83.0173 28.1456C83.183 27.8572 83.2659 27.554 83.2659 27.2358V26.1619C83.2162 26.2216 83.1068 26.2763 82.9378 26.326C82.772 26.3724 82.5798 26.4138 82.3611 26.4503C82.1456 26.4834 81.9352 26.5133 81.7297 26.5398C81.5275 26.563 81.3634 26.5829 81.2375 26.5994C80.9326 26.6392 80.6475 26.7038 80.3824 26.7933C80.1205 26.8795 79.9084 27.0104 79.746 27.1861C79.5869 27.3584 79.5074 27.5937 79.5074 27.892C79.5074 28.2997 79.6582 28.608 79.9598 28.8168C80.2647 29.0223 80.6508 29.125 81.1182 29.125ZM89.9017 22.3636V23.358H85.9443V22.3636H89.9017ZM87.0977 20.5341H88.271V27.8125C88.271 28.1439 88.3191 28.3925 88.4152 28.5582C88.5146 28.7206 88.6406 28.83 88.7931 28.8864C88.9488 28.9394 89.1129 28.9659 89.2852 28.9659C89.4145 28.9659 89.5206 28.9593 89.6034 28.946C89.6863 28.9295 89.7526 28.9162 89.8023 28.9062L90.0409 29.9602C89.9614 29.9901 89.8503 30.0199 89.7078 30.0497C89.5653 30.0829 89.3847 30.0994 89.1659 30.0994C88.8345 30.0994 88.5097 30.0282 88.1915 29.8857C87.8766 29.7431 87.6148 29.526 87.406 29.2344C87.2005 28.9427 87.0977 28.5748 87.0977 28.1307V20.5341ZM94.7863 30.1591C94.0505 30.1591 93.4158 29.9967 92.8822 29.6719C92.3519 29.3438 91.9426 28.8864 91.6542 28.2997C91.3692 27.7098 91.2267 27.0237 91.2267 26.2415C91.2267 25.4593 91.3692 24.7699 91.6542 24.1733C91.9426 23.5734 92.3436 23.1061 92.8573 22.7713C93.3744 22.4332 93.9776 22.2642 94.667 22.2642C95.0647 22.2642 95.4575 22.3305 95.8453 22.4631C96.233 22.5956 96.586 22.8111 96.9042 23.1094C97.2224 23.4044 97.4759 23.7955 97.6649 24.2827C97.8538 24.7699 97.9482 25.3698 97.9482 26.0824V26.5795H92.0619V25.5653H96.7551C96.7551 25.1345 96.6689 24.75 96.4965 24.4119C96.3275 24.0739 96.0856 23.8071 95.7707 23.6115C95.4591 23.416 95.0912 23.3182 94.667 23.3182C94.1997 23.3182 93.7953 23.4342 93.4539 23.6662C93.1159 23.8949 92.8557 24.1932 92.6734 24.5611C92.4911 24.929 92.3999 25.3234 92.3999 25.7443V26.4205C92.3999 26.9972 92.4994 27.486 92.6982 27.8871C92.9004 28.2848 93.1805 28.5881 93.5384 28.7969C93.8964 29.0024 94.3124 29.1051 94.7863 29.1051C95.0945 29.1051 95.373 29.062 95.6215 28.9759C95.8734 28.8864 96.0905 28.7538 96.2728 28.5781C96.4551 28.3991 96.596 28.1771 96.6954 27.9119L97.8289 28.2301C97.7096 28.6146 97.5091 28.9527 97.2274 29.2443C96.9456 29.5327 96.5976 29.758 96.1833 29.9205C95.769 30.0795 95.3034 30.1591 94.7863 30.1591Z" fill="black"/>
<path d="M17.5121 53L21.4155 45.2784V45.2102H16.9155V44.2727H22.5064V45.2614L18.62 53H17.5121ZM26.7049 53.1193C26.2049 53.1193 25.7546 53.0199 25.354 52.821C24.9535 52.6222 24.6325 52.3494 24.391 52.0028C24.1495 51.6562 24.0174 51.2614 23.9947 50.8182H25.0174C25.0572 51.2131 25.2362 51.5398 25.5543 51.7983C25.8754 52.054 26.2589 52.1818 26.7049 52.1818C27.0629 52.1818 27.381 52.098 27.6594 51.9304C27.9407 51.7628 28.1609 51.5327 28.32 51.2401C28.4819 50.9446 28.5629 50.6108 28.5629 50.2386C28.5629 49.858 28.479 49.5185 28.3114 49.2202C28.1467 48.919 27.9194 48.6818 27.6296 48.5085C27.3398 48.3352 27.0089 48.2472 26.6367 48.2443C26.3697 48.2415 26.0955 48.2827 25.8143 48.3679C25.533 48.4503 25.3015 48.5568 25.1197 48.6875L24.131 48.5682L24.6594 44.2727H29.1935V45.2102H25.5458L25.239 47.7841H25.2901C25.4691 47.642 25.6935 47.5241 25.9634 47.4304C26.2333 47.3366 26.5146 47.2898 26.8072 47.2898C27.3413 47.2898 27.8171 47.4176 28.2347 47.6733C28.6552 47.9261 28.9847 48.2727 29.2234 48.7131C29.4648 49.1534 29.5856 49.6562 29.5856 50.2216C29.5856 50.7784 29.4606 51.2756 29.2106 51.7131C28.9634 52.1477 28.6225 52.4915 28.1879 52.7443C27.7532 52.9943 27.2589 53.1193 26.7049 53.1193ZM35.7273 51.3636V50.9034C35.7273 50.5852 35.7926 50.294 35.9233 50.0298C36.0568 49.7628 36.25 49.5497 36.5028 49.3906C36.7585 49.2287 37.0682 49.1477 37.4318 49.1477C37.8011 49.1477 38.1108 49.2287 38.3608 49.3906C38.6108 49.5497 38.7997 49.7628 38.9276 50.0298C39.0554 50.294 39.1193 50.5852 39.1193 50.9034V51.3636C39.1193 51.6818 39.054 51.9744 38.9233 52.2415C38.7955 52.5057 38.6051 52.7187 38.3523 52.8807C38.1023 53.0398 37.7955 53.1193 37.4318 53.1193C37.0625 53.1193 36.7514 53.0398 36.4986 52.8807C36.2457 52.7187 36.054 52.5057 35.9233 52.2415C35.7926 51.9744 35.7273 51.6818 35.7273 51.3636ZM36.5966 50.9034V51.3636C36.5966 51.6278 36.6591 51.8651 36.7841 52.0753C36.9091 52.2827 37.125 52.3864 37.4318 52.3864C37.7301 52.3864 37.9403 52.2827 38.0625 52.0753C38.1875 51.8651 38.25 51.6278 38.25 51.3636V50.9034C38.25 50.6392 38.1903 50.4034 38.071 50.196C37.9517 49.9858 37.7386 49.8807 37.4318 49.8807C37.1335 49.8807 36.919 49.9858 36.7884 50.196C36.6605 50.4034 36.5966 50.6392 36.5966 50.9034ZM31.3807 46.3693V45.9091C31.3807 45.5909 31.446 45.2997 31.5767 45.0355C31.7102 44.7685 31.9034 44.5554 32.1562 44.3963C32.4119 44.2344 32.7216 44.1534 33.0852 44.1534C33.4545 44.1534 33.7642 44.2344 34.0142 44.3963C34.2642 44.5554 34.4531 44.7685 34.581 45.0355C34.7088 45.2997 34.7727 45.5909 34.7727 45.9091V46.3693C34.7727 46.6875 34.7074 46.9801 34.5767 47.2472C34.4489 47.5114 34.2585 47.7244 34.0057 47.8864C33.7557 48.0455 33.4489 48.125 33.0852 48.125C32.7159 48.125 32.4048 48.0455 32.152 47.8864C31.8991 47.7244 31.7074 47.5114 31.5767 47.2472C31.446 46.9801 31.3807 46.6875 31.3807 46.3693ZM32.25 45.9091V46.3693C32.25 46.6335 32.3125 46.8707 32.4375 47.081C32.5625 47.2884 32.7784 47.392 33.0852 47.392C33.3835 47.392 33.5938 47.2884 33.7159 47.081C33.8409 46.8707 33.9034 46.6335 33.9034 46.3693V45.9091C33.9034 45.6449 33.8438 45.4091 33.7244 45.2017C33.6051 44.9915 33.392 44.8864 33.0852 44.8864C32.7869 44.8864 32.5724 44.9915 32.4418 45.2017C32.3139 45.4091 32.25 45.6449 32.25 45.9091ZM31.7045 53L37.7045 44.2727H38.6761L32.6761 53H31.7045ZM45.6136 44.2727V53H44.5568V44.2727H45.6136ZM48.6019 49.0625V53H47.5962V46.4545H48.5678V47.4773H48.6531C48.8065 47.1449 49.0394 46.8778 49.3519 46.6761C49.6644 46.4716 50.0678 46.3693 50.5621 46.3693C51.0053 46.3693 51.3931 46.4602 51.7255 46.642C52.0579 46.821 52.3164 47.0938 52.5011 47.4602C52.6857 47.8239 52.7781 48.2841 52.7781 48.8409V53H51.7724V48.9091C51.7724 48.3949 51.6388 47.9943 51.3718 47.7074C51.1048 47.4176 50.7383 47.2727 50.2724 47.2727C49.9513 47.2727 49.6644 47.3423 49.4116 47.4815C49.1616 47.6207 48.9641 47.8239 48.8192 48.0909C48.6744 48.358 48.6019 48.6818 48.6019 49.0625ZM57.2749 53.1364C56.6612 53.1364 56.1328 52.9915 55.6896 52.7017C55.2464 52.4119 54.9055 52.0128 54.6669 51.5043C54.4283 50.9957 54.3089 50.4148 54.3089 49.7614C54.3089 49.0966 54.4311 48.5099 54.6754 48.0014C54.9226 47.4901 55.2663 47.0909 55.7067 46.804C56.1499 46.5142 56.6669 46.3693 57.2578 46.3693C57.718 46.3693 58.1328 46.4545 58.5021 46.625C58.8714 46.7955 59.174 47.0341 59.4098 47.3409C59.6456 47.6477 59.7919 48.0057 59.8487 48.4148H58.843C58.7663 48.1165 58.5959 47.8523 58.3317 47.6222C58.0703 47.3892 57.718 47.2727 57.2749 47.2727C56.8828 47.2727 56.5391 47.375 56.2436 47.5795C55.951 47.7812 55.7223 48.0668 55.5575 48.4361C55.3956 48.8026 55.3146 49.233 55.3146 49.7273C55.3146 50.233 55.3942 50.6733 55.5533 51.0483C55.7152 51.4233 55.9425 51.7145 56.2351 51.9219C56.5305 52.1293 56.8771 52.233 57.2749 52.233C57.5362 52.233 57.7734 52.1875 57.9865 52.0966C58.1996 52.0057 58.38 51.875 58.5277 51.7045C58.6754 51.5341 58.7805 51.3295 58.843 51.0909H59.8487C59.7919 51.4773 59.6513 51.8253 59.4268 52.1349C59.2053 52.4418 58.9112 52.6861 58.5447 52.8679C58.1811 53.0469 57.7578 53.1364 57.2749 53.1364ZM61.3189 53V46.4545H62.2905V47.4432H62.3587C62.478 47.1193 62.6939 46.8565 63.0064 46.6548C63.3189 46.4531 63.6712 46.3523 64.0632 46.3523C64.1371 46.3523 64.2294 46.3537 64.3402 46.3565C64.451 46.3594 64.5348 46.3636 64.5916 46.3693V47.392C64.5575 47.3835 64.4794 47.3707 64.3572 47.3537C64.2379 47.3338 64.1115 47.3239 63.978 47.3239C63.6598 47.3239 63.3757 47.3906 63.1257 47.5241C62.8786 47.6548 62.6825 47.8366 62.5376 48.0696C62.3956 48.2997 62.3246 48.5625 62.3246 48.858V53H61.3189ZM68.3288 53.1364C67.6982 53.1364 67.1541 52.9972 66.6967 52.7188C66.2422 52.4375 65.8913 52.0455 65.6442 51.5426C65.3999 51.0369 65.2777 50.4489 65.2777 49.7784C65.2777 49.108 65.3999 48.517 65.6442 48.0057C65.8913 47.4915 66.2351 47.0909 66.6754 46.804C67.1186 46.5142 67.6357 46.3693 68.2266 46.3693C68.5675 46.3693 68.9041 46.4261 69.2365 46.5398C69.5689 46.6534 69.8714 46.8381 70.1442 47.0938C70.4169 47.3466 70.6342 47.6818 70.7962 48.0994C70.9581 48.517 71.0391 49.0312 71.0391 49.642V50.0682H65.9936V49.1989H70.0163C70.0163 48.8295 69.9425 48.5 69.7947 48.2102C69.6499 47.9205 69.4425 47.6918 69.1726 47.5241C68.9055 47.3565 68.5902 47.2727 68.2266 47.2727C67.826 47.2727 67.4794 47.3722 67.1868 47.571C66.897 47.767 66.674 48.0227 66.5178 48.3381C66.3615 48.6534 66.2834 48.9915 66.2834 49.3523V49.9318C66.2834 50.4261 66.3686 50.8452 66.5391 51.1889C66.7124 51.5298 66.9524 51.7898 67.2592 51.9688C67.5661 52.1449 67.9226 52.233 68.3288 52.233C68.593 52.233 68.8317 52.196 69.0447 52.1222C69.2607 52.0455 69.4467 51.9318 69.603 51.7812C69.7592 51.6278 69.88 51.4375 69.9652 51.2102L70.9368 51.483C70.8345 51.8125 70.6626 52.1023 70.4212 52.3523C70.1797 52.5994 69.8814 52.7926 69.5263 52.9318C69.1712 53.0682 68.772 53.1364 68.3288 53.1364ZM74.495 53.1534C74.0803 53.1534 73.7038 53.0753 73.3658 52.919C73.0277 52.7599 72.7592 52.5312 72.5604 52.233C72.3615 51.9318 72.2621 51.5682 72.2621 51.142C72.2621 50.767 72.3359 50.4631 72.4837 50.2301C72.6314 49.9943 72.8288 49.8097 73.076 49.6761C73.3232 49.5426 73.5959 49.4432 73.8942 49.3778C74.1953 49.3097 74.4979 49.2557 74.8018 49.2159C75.1996 49.1648 75.522 49.1264 75.7692 49.1009C76.0192 49.0724 76.201 49.0256 76.3146 48.9602C76.4311 48.8949 76.4893 48.7812 76.4893 48.6193V48.5852C76.4893 48.1648 76.3743 47.8381 76.1442 47.6051C75.9169 47.3722 75.5717 47.2557 75.1087 47.2557C74.6286 47.2557 74.2521 47.3608 73.9794 47.571C73.7067 47.7812 73.5149 48.0057 73.4041 48.2443L72.4496 47.9034C72.62 47.5057 72.8473 47.196 73.1314 46.9744C73.4183 46.75 73.7308 46.5937 74.0689 46.5057C74.4098 46.4148 74.745 46.3693 75.0746 46.3693C75.2848 46.3693 75.5263 46.3949 75.799 46.446C76.0746 46.4943 76.3402 46.5952 76.5959 46.7486C76.8544 46.902 77.0689 47.1335 77.2393 47.4432C77.4098 47.7528 77.495 48.1676 77.495 48.6875V53H76.4893V52.1136H76.4382C76.37 52.2557 76.2564 52.4077 76.0973 52.5696C75.9382 52.7315 75.7266 52.8693 75.4624 52.983C75.1982 53.0966 74.8757 53.1534 74.495 53.1534ZM74.6484 52.25C75.0462 52.25 75.3814 52.1719 75.6541 52.0156C75.9297 51.8594 76.1371 51.6577 76.2763 51.4105C76.4183 51.1634 76.4893 50.9034 76.4893 50.6307V49.7102C76.4467 49.7614 76.353 49.8082 76.2081 49.8509C76.0661 49.8906 75.9013 49.9261 75.7138 49.9574C75.5291 49.9858 75.3487 50.0114 75.1726 50.0341C74.9993 50.054 74.8587 50.071 74.7507 50.0852C74.4893 50.1193 74.245 50.1747 74.0178 50.2514C73.7933 50.3253 73.6115 50.4375 73.4723 50.5881C73.3359 50.7358 73.2678 50.9375 73.2678 51.1932C73.2678 51.5426 73.397 51.8068 73.6555 51.9858C73.9169 52.1619 74.2479 52.25 74.6484 52.25ZM83.967 47.9205L83.0636 48.1761C83.0067 48.0256 82.9229 47.8793 82.8121 47.7372C82.7042 47.5923 82.5565 47.473 82.369 47.3793C82.1815 47.2855 81.9414 47.2386 81.6488 47.2386C81.2482 47.2386 80.9144 47.331 80.6474 47.5156C80.3832 47.6974 80.2511 47.929 80.2511 48.2102C80.2511 48.4602 80.342 48.6577 80.5238 48.8026C80.7056 48.9474 80.9897 49.0682 81.3761 49.1648L82.3477 49.4034C82.9329 49.5455 83.369 49.7628 83.6559 50.0554C83.9428 50.3452 84.0863 50.7187 84.0863 51.1761C84.0863 51.5511 83.9783 51.8864 83.7624 52.1818C83.5494 52.4773 83.2511 52.7102 82.8675 52.8807C82.484 53.0511 82.038 53.1364 81.5295 53.1364C80.8619 53.1364 80.3093 52.9915 79.8718 52.7017C79.4343 52.4119 79.1573 51.9886 79.0408 51.4318L79.9954 51.1932C80.0863 51.5455 80.2582 51.8097 80.511 51.9858C80.7667 52.1619 81.1005 52.25 81.5124 52.25C81.9812 52.25 82.3533 52.1506 82.6289 51.9517C82.9073 51.75 83.0465 51.5085 83.0465 51.2273C83.0465 51 82.967 50.8097 82.8079 50.6562C82.6488 50.5 82.4045 50.3835 82.0749 50.3068L80.984 50.0511C80.3846 49.9091 79.9442 49.6889 79.663 49.3906C79.3846 49.0895 79.2454 48.7131 79.2454 48.2614C79.2454 47.892 79.3491 47.5653 79.5565 47.2812C79.7667 46.9972 80.0522 46.7741 80.413 46.6122C80.7766 46.4503 81.1886 46.3693 81.6488 46.3693C82.2965 46.3693 82.805 46.5114 83.1744 46.7955C83.5465 47.0795 83.8107 47.4545 83.967 47.9205ZM88.3445 53.1364C87.7138 53.1364 87.1697 52.9972 86.7124 52.7188C86.2578 52.4375 85.907 52.0455 85.6598 51.5426C85.4155 51.0369 85.2933 50.4489 85.2933 49.7784C85.2933 49.108 85.4155 48.517 85.6598 48.0057C85.907 47.4915 86.2507 47.0909 86.6911 46.804C87.1342 46.5142 87.6513 46.3693 88.2422 46.3693C88.5831 46.3693 88.9197 46.4261 89.2521 46.5398C89.5845 46.6534 89.8871 46.8381 90.1598 47.0938C90.4325 47.3466 90.6499 47.6818 90.8118 48.0994C90.9737 48.517 91.0547 49.0312 91.0547 49.642V50.0682H86.0092V49.1989H90.032C90.032 48.8295 89.9581 48.5 89.8104 48.2102C89.6655 47.9205 89.4581 47.6918 89.1882 47.5241C88.9212 47.3565 88.6058 47.2727 88.2422 47.2727C87.8416 47.2727 87.495 47.3722 87.2024 47.571C86.9126 47.767 86.6896 48.0227 86.5334 48.3381C86.3771 48.6534 86.299 48.9915 86.299 49.3523V49.9318C86.299 50.4261 86.3842 50.8452 86.5547 51.1889C86.728 51.5298 86.968 51.7898 87.2749 51.9688C87.5817 52.1449 87.9382 52.233 88.3445 52.233C88.6087 52.233 88.8473 52.196 89.0604 52.1222C89.2763 52.0455 89.4624 51.9318 89.6186 51.7812C89.7749 51.6278 89.8956 51.4375 89.9808 51.2102L90.9524 51.483C90.8501 51.8125 90.6783 52.1023 90.4368 52.3523C90.1953 52.5994 89.897 52.7926 89.5419 52.9318C89.1868 53.0682 88.7876 53.1364 88.3445 53.1364Z" fill="black" fill-opacity="0.6"/>
<g clip-path="url(#clip0_126_1411)">
<rect x="22" y="144" width="80" height="10" rx="5" transform="rotate(-90 22 144)" fill="black" fill-opacity="0.1"/>
<rect x="22" y="144" width="53" height="10" rx="5" transform="rotate(-90 22 144)" fill="url(#paint0_linear_126_1411)"/>
</g>
<path d="M18.8479 164H17.9246L20.5951 156.727H21.5042L24.1746 164H23.2513L21.078 157.878H21.0212L18.8479 164ZM19.1888 161.159H22.9104V161.94H19.1888V161.159ZM28.6313 161.77V158.545H29.4694V164H28.6313V163.077H28.5745C28.4466 163.354 28.2478 163.589 27.9779 163.783C27.708 163.975 27.3671 164.071 26.9552 164.071C26.6143 164.071 26.3112 163.996 26.0461 163.847C25.7809 163.696 25.5726 163.469 25.4211 163.165C25.2696 162.86 25.1938 162.475 25.1938 162.011V158.545H26.0319V161.955C26.0319 162.352 26.1431 162.67 26.3657 162.906C26.5906 163.143 26.877 163.261 27.2251 163.261C27.4334 163.261 27.6453 163.208 27.8607 163.102C28.0785 162.995 28.2608 162.832 28.4076 162.612C28.5567 162.391 28.6313 162.111 28.6313 161.77ZM33.2061 166.159C32.8012 166.159 32.4532 166.107 32.162 166.003C31.8708 165.901 31.6282 165.766 31.434 165.598C31.2423 165.432 31.0896 165.255 30.9759 165.065L31.6436 164.597C31.7193 164.696 31.8152 164.81 31.9312 164.938C32.0472 165.068 32.2058 165.18 32.407 165.275C32.6106 165.372 32.877 165.42 33.2061 165.42C33.6464 165.42 34.0098 165.314 34.2963 165.101C34.5827 164.888 34.7259 164.554 34.7259 164.099V162.991H34.6549C34.5934 163.091 34.5058 163.214 34.3921 163.361C34.2809 163.505 34.1199 163.634 33.9092 163.748C33.7008 163.859 33.4191 163.915 33.064 163.915C32.6237 163.915 32.2283 163.811 31.8779 163.602C31.5299 163.394 31.2541 163.091 31.0505 162.693C30.8493 162.295 30.7487 161.812 30.7487 161.244C30.7487 160.686 30.8469 160.199 31.0434 159.785C31.2399 159.368 31.5133 159.046 31.8637 158.819C32.2141 158.589 32.6189 158.474 33.0782 158.474C33.4333 158.474 33.7151 158.534 33.9234 158.652C34.1341 158.768 34.2951 158.901 34.4063 159.05C34.52 159.196 34.6076 159.317 34.6691 159.412H34.7544V158.545H35.564V164.156C35.564 164.625 35.4575 165.006 35.2444 165.3C35.0337 165.596 34.7496 165.812 34.3921 165.95C34.037 166.089 33.6417 166.159 33.2061 166.159ZM33.1776 163.162C33.5138 163.162 33.7979 163.085 34.0299 162.931C34.2619 162.777 34.4383 162.556 34.559 162.267C34.6798 161.978 34.7401 161.633 34.7401 161.23C34.7401 160.837 34.681 160.49 34.5626 160.19C34.4442 159.889 34.269 159.653 34.037 159.483C33.805 159.312 33.5186 159.227 33.1776 159.227C32.8225 159.227 32.5266 159.317 32.2899 159.497C32.0555 159.677 31.8791 159.919 31.7607 160.222C31.6447 160.525 31.5867 160.861 31.5867 161.23C31.5867 161.609 31.6459 161.944 31.7643 162.235C31.885 162.524 32.0626 162.751 32.297 162.917C32.5337 163.08 32.8273 163.162 33.1776 163.162Z" fill="black" fill-opacity="0.6"/>
<g clip-path="url(#clip1_126_1411)">
<rect x="52" y="144" width="80" height="10" rx="5" transform="rotate(-90 52 144)" fill="black" fill-opacity="0.1"/>
<rect x="52" y="144" width="63" height="10" rx="5" transform="rotate(-90 52 144)" fill="url(#paint1_linear_126_1411)"/>
</g>
<path d="M52.7124 158.545C52.6698 158.186 52.497 157.906 52.194 157.707C51.891 157.509 51.5193 157.409 51.0789 157.409C50.757 157.409 50.4752 157.461 50.2338 157.565C49.9946 157.67 49.8076 157.813 49.6727 157.995C49.5401 158.177 49.4738 158.384 49.4738 158.616C49.4738 158.811 49.52 158.978 49.6123 159.117C49.707 159.254 49.8277 159.369 49.9745 159.462C50.1213 159.552 50.2752 159.626 50.4362 159.685C50.5972 159.742 50.7451 159.788 50.8801 159.824L51.6187 160.023C51.8081 160.072 52.0188 160.141 52.2508 160.229C52.4852 160.316 52.7089 160.436 52.922 160.587C53.1374 160.737 53.315 160.928 53.4546 161.163C53.5943 161.397 53.6642 161.685 53.6642 162.026C53.6642 162.419 53.5612 162.774 53.3552 163.091C53.1516 163.408 52.8533 163.66 52.4603 163.847C52.0697 164.034 51.595 164.128 51.0363 164.128C50.5155 164.128 50.0645 164.044 49.6833 163.876C49.3045 163.708 49.0062 163.473 48.7884 163.173C48.573 162.872 48.4511 162.523 48.4227 162.125H49.3318C49.3554 162.4 49.4478 162.627 49.6088 162.807C49.7721 162.984 49.9781 163.117 50.2267 163.205C50.4776 163.29 50.7475 163.332 51.0363 163.332C51.3725 163.332 51.6743 163.278 51.9419 163.169C52.2094 163.058 52.4213 162.904 52.5775 162.707C52.7338 162.509 52.8119 162.277 52.8119 162.011C52.8119 161.77 52.7444 161.573 52.6095 161.422C52.4745 161.27 52.297 161.147 52.0768 161.053C51.8566 160.958 51.6187 160.875 51.363 160.804L50.4681 160.548C49.8999 160.385 49.4501 160.152 49.1187 159.849C48.7873 159.546 48.6215 159.149 48.6215 158.659C48.6215 158.252 48.7316 157.897 48.9518 157.594C49.1743 157.288 49.4726 157.052 49.8467 156.884C50.2231 156.713 50.6433 156.628 51.1073 156.628C51.5761 156.628 51.9927 156.712 52.3573 156.88C52.7219 157.046 53.0107 157.273 53.2238 157.562C53.4392 157.851 53.5529 158.179 53.5647 158.545H52.7124ZM57.2854 164.114C56.7599 164.114 56.3065 163.998 55.9253 163.766C55.5465 163.531 55.2542 163.205 55.0482 162.786C54.8446 162.364 54.7428 161.874 54.7428 161.315C54.7428 160.757 54.8446 160.264 55.0482 159.838C55.2542 159.41 55.5406 159.076 55.9076 158.837C56.2769 158.595 56.7078 158.474 57.2002 158.474C57.4843 158.474 57.7648 158.522 58.0418 158.616C58.3188 158.711 58.5709 158.865 58.7982 159.078C59.0255 159.289 59.2066 159.568 59.3415 159.916C59.4765 160.264 59.5439 160.693 59.5439 161.202V161.557H55.3394V160.832H58.6917C58.6917 160.525 58.6301 160.25 58.507 160.009C58.3863 159.767 58.2135 159.576 57.9885 159.437C57.766 159.297 57.5032 159.227 57.2002 159.227C56.8664 159.227 56.5776 159.31 56.3337 159.476C56.0922 159.639 55.9064 159.852 55.7762 160.115C55.646 160.378 55.5809 160.66 55.5809 160.96V161.443C55.5809 161.855 55.6519 162.204 55.7939 162.491C55.9384 162.775 56.1384 162.991 56.3941 163.141C56.6498 163.287 56.9469 163.361 57.2854 163.361C57.5056 163.361 57.7045 163.33 57.882 163.268C58.0619 163.205 58.217 163.11 58.3472 162.984C58.4774 162.857 58.578 162.698 58.6491 162.509L59.4587 162.736C59.3735 163.01 59.2303 163.252 59.029 163.46C58.8278 163.666 58.5792 163.827 58.2833 163.943C57.9874 164.057 57.6547 164.114 57.2854 164.114ZM60.8188 166.045V158.545H61.6285V159.412H61.7279C61.7894 159.317 61.8747 159.196 61.9836 159.05C62.0948 158.901 62.2535 158.768 62.4594 158.652C62.6678 158.534 62.9495 158.474 63.3046 158.474C63.7639 158.474 64.1687 158.589 64.5191 158.819C64.8695 159.049 65.1429 159.374 65.3394 159.795C65.5359 160.217 65.6341 160.714 65.6341 161.287C65.6341 161.865 65.5359 162.365 65.3394 162.789C65.1429 163.21 64.8706 163.537 64.5226 163.769C64.1746 163.999 63.7733 164.114 63.3188 164.114C62.9684 164.114 62.6879 164.056 62.4772 163.94C62.2665 163.821 62.1043 163.687 61.9907 163.538C61.877 163.387 61.7894 163.261 61.7279 163.162H61.6569V166.045H60.8188ZM61.6427 161.273C61.6427 161.685 61.703 162.048 61.8238 162.363C61.9445 162.675 62.1209 162.92 62.3529 163.098C62.5849 163.273 62.869 163.361 63.2052 163.361C63.5555 163.361 63.8479 163.268 64.0823 163.084C64.319 162.897 64.4966 162.646 64.615 162.331C64.7357 162.014 64.7961 161.661 64.7961 161.273C64.7961 160.889 64.7369 160.544 64.6185 160.236C64.5025 159.926 64.3261 159.681 64.0894 159.501C63.855 159.318 63.5603 159.227 63.2052 159.227C62.8643 159.227 62.5778 159.314 62.3458 159.487C62.1138 159.657 61.9386 159.896 61.8202 160.204C61.7019 160.509 61.6427 160.866 61.6427 161.273Z" fill="black" fill-opacity="0.6"/>
<g clip-path="url(#clip2_126_1411)">
<rect x="82" y="144" width="80" height="10" rx="5" transform="rotate(-90 82 144)" fill="black" fill-opacity="0.1"/>
<rect x="82" y="144" width="73" height="10" rx="5" transform="rotate(-90 82 144)" fill="url(#paint2_linear_126_1411)"/>
</g>
<path d="M85.5991 160.364C85.5991 161.131 85.4606 161.794 85.1836 162.352C84.9066 162.911 84.5266 163.342 84.0437 163.645C83.5607 163.948 83.0091 164.099 82.3888 164.099C81.7686 164.099 81.217 163.948 80.734 163.645C80.2511 163.342 79.8711 162.911 79.5941 162.352C79.3171 161.794 79.1786 161.131 79.1786 160.364C79.1786 159.597 79.3171 158.934 79.5941 158.375C79.8711 157.816 80.2511 157.385 80.734 157.082C81.217 156.779 81.7686 156.628 82.3888 156.628C83.0091 156.628 83.5607 156.779 84.0437 157.082C84.5266 157.385 84.9066 157.816 85.1836 158.375C85.4606 158.934 85.5991 159.597 85.5991 160.364ZM84.7468 160.364C84.7468 159.734 84.6415 159.202 84.4308 158.769C84.2224 158.336 83.9395 158.008 83.582 157.786C83.2269 157.563 82.8292 157.452 82.3888 157.452C81.9485 157.452 81.5496 157.563 81.1921 157.786C80.837 158.008 80.5541 158.336 80.3434 158.769C80.1351 159.202 80.0309 159.734 80.0309 160.364C80.0309 160.993 80.1351 161.525 80.3434 161.958C80.5541 162.391 80.837 162.719 81.1921 162.942C81.5496 163.164 81.9485 163.276 82.3888 163.276C82.8292 163.276 83.2269 163.164 83.582 162.942C83.9395 162.719 84.2224 162.391 84.4308 161.958C84.6415 161.525 84.7468 160.993 84.7468 160.364ZM89.1822 164.114C88.6708 164.114 88.2305 163.993 87.8612 163.751C87.4918 163.51 87.2077 163.177 87.0089 162.754C86.81 162.33 86.7106 161.846 86.7106 161.301C86.7106 160.747 86.8124 160.258 87.016 159.835C87.2219 159.408 87.5084 159.076 87.8754 158.837C88.2447 158.595 88.6755 158.474 89.168 158.474C89.5515 158.474 89.8971 158.545 90.2049 158.688C90.5127 158.83 90.7648 159.028 90.9613 159.284C91.1578 159.54 91.2797 159.838 91.3271 160.179H90.489C90.4251 159.93 90.283 159.71 90.0629 159.518C89.8451 159.324 89.5515 159.227 89.1822 159.227C88.8555 159.227 88.569 159.312 88.3228 159.483C88.079 159.651 87.8884 159.889 87.7511 160.197C87.6161 160.502 87.5487 160.861 87.5487 161.273C87.5487 161.694 87.6149 162.061 87.7475 162.374C87.8825 162.686 88.0719 162.929 88.3157 163.102C88.5619 163.274 88.8507 163.361 89.1822 163.361C89.4 163.361 89.5977 163.323 89.7752 163.247C89.9528 163.171 90.1031 163.062 90.2262 162.92C90.3493 162.778 90.4369 162.608 90.489 162.409H91.3271C91.2797 162.731 91.1625 163.021 90.9755 163.279C90.7908 163.535 90.5458 163.738 90.2404 163.89C89.9374 164.039 89.5846 164.114 89.1822 164.114ZM94.9244 158.545V159.256H92.0977V158.545H94.9244ZM92.9215 157.239H93.7596V162.438C93.7596 162.674 93.7939 162.852 93.8626 162.97C93.9336 163.086 94.0236 163.164 94.1325 163.205C94.2437 163.242 94.3609 163.261 94.484 163.261C94.5763 163.261 94.6521 163.257 94.7113 163.247C94.7705 163.235 94.8178 163.226 94.8533 163.219L95.0238 163.972C94.967 163.993 94.8877 164.014 94.7859 164.036C94.6841 164.059 94.555 164.071 94.3988 164.071C94.1621 164.071 93.93 164.02 93.7028 163.918C93.4779 163.817 93.2908 163.661 93.1417 163.453C92.9949 163.245 92.9215 162.982 92.9215 162.665V157.239Z" fill="black" fill-opacity="0.6"/>
<g clip-path="url(#clip3_126_1411)">
<rect x="112" y="144" width="80" height="10" rx="5" transform="rotate(-90 112 144)" fill="black" fill-opacity="0.1"/>
<rect x="112" y="144" width="62" height="10" rx="5" transform="rotate(-90 112 144)" fill="url(#paint3_linear_126_1411)"/>
</g>
<path d="M114.214 156.727V164H113.362L109.399 158.29H109.328V164H108.447V156.727H109.299L113.277 162.452H113.348V156.727H114.214ZM118.079 164.114C117.586 164.114 117.154 163.996 116.782 163.762C116.413 163.528 116.124 163.2 115.916 162.778C115.71 162.357 115.607 161.865 115.607 161.301C115.607 160.733 115.71 160.237 115.916 159.813C116.124 159.389 116.413 159.06 116.782 158.826C117.154 158.592 117.586 158.474 118.079 158.474C118.571 158.474 119.002 158.592 119.371 158.826C119.743 159.06 120.032 159.389 120.238 159.813C120.446 160.237 120.55 160.733 120.55 161.301C120.55 161.865 120.446 162.357 120.238 162.778C120.032 163.2 119.743 163.528 119.371 163.762C119.002 163.996 118.571 164.114 118.079 164.114ZM118.079 163.361C118.453 163.361 118.76 163.265 119.002 163.073C119.243 162.881 119.422 162.629 119.538 162.317C119.654 162.004 119.712 161.666 119.712 161.301C119.712 160.937 119.654 160.597 119.538 160.282C119.422 159.967 119.243 159.713 119.002 159.518C118.76 159.324 118.453 159.227 118.079 159.227C117.705 159.227 117.397 159.324 117.155 159.518C116.914 159.713 116.735 159.967 116.619 160.282C116.503 160.597 116.445 160.937 116.445 161.301C116.445 161.666 116.503 162.004 116.619 162.317C116.735 162.629 116.914 162.881 117.155 163.073C117.397 163.265 117.705 163.361 118.079 163.361ZM126.094 158.545L124.077 164H123.225L121.208 158.545H122.117L123.623 162.892H123.68L125.185 158.545H126.094Z" fill="black" fill-opacity="0.6"/>
<g clip-path="url(#clip4_126_1411)">
<rect x="142" y="144" width="80" height="10" rx="5" transform="rotate(-90 142 144)" fill="black" fill-opacity="0.1"/>
<rect x="142" y="144" width="53" height="10" rx="5" transform="rotate(-90 142 144)" fill="url(#paint4_linear_126_1411)"/>
</g>
<path d="M140.828 164H138.584V156.727H140.928C141.633 156.727 142.237 156.873 142.739 157.164C143.241 157.453 143.625 157.868 143.893 158.411C144.16 158.95 144.294 159.597 144.294 160.349C144.294 161.107 144.159 161.759 143.889 162.306C143.619 162.851 143.226 163.27 142.71 163.563C142.194 163.854 141.567 164 140.828 164ZM139.464 163.219H140.771C141.373 163.219 141.871 163.103 142.266 162.871C142.662 162.639 142.956 162.308 143.151 161.88C143.345 161.451 143.442 160.941 143.442 160.349C143.442 159.762 143.346 159.257 143.154 158.833C142.962 158.407 142.676 158.08 142.295 157.853C141.914 157.623 141.439 157.509 140.871 157.509H139.464V163.219ZM147.945 164.114C147.419 164.114 146.966 163.998 146.585 163.766C146.206 163.531 145.913 163.205 145.707 162.786C145.504 162.364 145.402 161.874 145.402 161.315C145.402 160.757 145.504 160.264 145.707 159.838C145.913 159.41 146.2 159.076 146.567 158.837C146.936 158.595 147.367 158.474 147.859 158.474C148.143 158.474 148.424 158.522 148.701 158.616C148.978 158.711 149.23 158.865 149.457 159.078C149.685 159.289 149.866 159.568 150.001 159.916C150.136 160.264 150.203 160.693 150.203 161.202V161.557H145.999V160.832H149.351C149.351 160.525 149.289 160.25 149.166 160.009C149.045 159.767 148.873 159.576 148.648 159.437C148.425 159.297 148.162 159.227 147.859 159.227C147.526 159.227 147.237 159.31 146.993 159.476C146.751 159.639 146.566 159.852 146.435 160.115C146.305 160.378 146.24 160.66 146.24 160.96V161.443C146.24 161.855 146.311 162.204 146.453 162.491C146.598 162.775 146.798 162.991 147.053 163.141C147.309 163.287 147.606 163.361 147.945 163.361C148.165 163.361 148.364 163.33 148.541 163.268C148.721 163.205 148.876 163.11 149.006 162.984C149.137 162.857 149.237 162.698 149.308 162.509L150.118 162.736C150.033 163.01 149.889 163.252 149.688 163.46C149.487 163.666 149.238 163.827 148.942 163.943C148.647 164.057 148.314 164.114 147.945 164.114ZM153.694 164.114C153.183 164.114 152.742 163.993 152.373 163.751C152.004 163.51 151.719 163.177 151.521 162.754C151.322 162.33 151.222 161.846 151.222 161.301C151.222 160.747 151.324 160.258 151.528 159.835C151.734 159.408 152.02 159.076 152.387 158.837C152.756 158.595 153.187 158.474 153.68 158.474C154.063 158.474 154.409 158.545 154.717 158.688C155.024 158.83 155.277 159.028 155.473 159.284C155.67 159.54 155.791 159.838 155.839 160.179H155.001C154.937 159.93 154.795 159.71 154.575 159.518C154.357 159.324 154.063 159.227 153.694 159.227C153.367 159.227 153.081 159.312 152.835 159.483C152.591 159.651 152.4 159.889 152.263 160.197C152.128 160.502 152.06 160.861 152.06 161.273C152.06 161.694 152.127 162.061 152.259 162.374C152.394 162.686 152.584 162.929 152.827 163.102C153.074 163.274 153.362 163.361 153.694 163.361C153.912 163.361 154.109 163.323 154.287 163.247C154.464 163.171 154.615 163.062 154.738 162.92C154.861 162.778 154.949 162.608 155.001 162.409H155.839C155.791 162.731 155.674 163.021 155.487 163.279C155.303 163.535 155.058 163.738 154.752 163.89C154.449 164.039 154.096 164.114 153.694 164.114Z" fill="black" fill-opacity="0.6"/>
<defs>
<linearGradient id="paint0_linear_126_1411" x1="48.5" y1="144" x2="48.5" y2="154" gradientUnits="userSpaceOnUse">
<stop stop-color="#FFCE31"/>
<stop offset="1" stop-color="#FFCE31" stop-opacity="0"/>
</linearGradient>
<linearGradient id="paint1_linear_126_1411" x1="83.5" y1="144" x2="83.5" y2="154" gradientUnits="userSpaceOnUse">
<stop stop-color="#FFCE31"/>
<stop offset="1" stop-color="#FFCE31" stop-opacity="0"/>
</linearGradient>
<linearGradient id="paint2_linear_126_1411" x1="118.5" y1="144" x2="118.5" y2="154" gradientUnits="userSpaceOnUse">
<stop stop-color="#FFCE31"/>
<stop offset="1" stop-color="#FFCE31" stop-opacity="0"/>
</linearGradient>
<linearGradient id="paint3_linear_126_1411" x1="143" y1="144" x2="143" y2="154" gradientUnits="userSpaceOnUse">
<stop stop-color="#FFCE31"/>
<stop offset="1" stop-color="#FFCE31" stop-opacity="0"/>
</linearGradient>
<linearGradient id="paint4_linear_126_1411" x1="168.5" y1="144" x2="168.5" y2="154" gradientUnits="userSpaceOnUse">
<stop stop-color="#FFCE31"/>
<stop offset="1" stop-color="#FFCE31" stop-opacity="0"/>
</linearGradient>
<clipPath id="clip0_126_1411">
<rect x="22" y="144" width="80" height="10" rx="5" transform="rotate(-90 22 144)" fill="white"/>
</clipPath>
<clipPath id="clip1_126_1411">
<rect x="52" y="144" width="80" height="10" rx="5" transform="rotate(-90 52 144)" fill="white"/>
</clipPath>
<clipPath id="clip2_126_1411">
<rect x="82" y="144" width="80" height="10" rx="5" transform="rotate(-90 82 144)" fill="white"/>
</clipPath>
<clipPath id="clip3_126_1411">
<rect x="112" y="144" width="80" height="10" rx="5" transform="rotate(-90 112 144)" fill="white"/>
</clipPath>
<clipPath id="clip4_126_1411">
<rect x="142" y="144" width="80" height="10" rx="5" transform="rotate(-90 142 144)" fill="white"/>
</clipPath>
</defs>
</svg>
