<svg width="307" height="63" viewBox="0 0 307 63" fill="none" xmlns="http://www.w3.org/2000/svg">
<rect width="307" height="63" rx="12" fill="white"/>
<rect x="0.5" y="0.5" width="306" height="62" rx="11.5" stroke="black" stroke-opacity="0.1"/>
<ellipse cx="27.5" cy="31.5" rx="18" ry="18.5" fill="#D9D9D9"/>
<path d="M63.5476 23V14.2727H66.9908C67.6527 14.2727 68.2166 14.3991 68.6825 14.652C69.1484 14.902 69.5036 15.25 69.7479 15.696C69.995 16.1392 70.1186 16.6506 70.1186 17.2301C70.1186 17.8097 69.9936 18.321 69.7436 18.7642C69.4936 19.2074 69.1314 19.5526 68.657 19.7997C68.1854 20.0469 67.6143 20.1705 66.9439 20.1705H64.7493V18.6918H66.6456C67.0007 18.6918 67.2933 18.6307 67.5234 18.5085C67.7564 18.3835 67.9297 18.2116 68.0433 17.9929C68.1598 17.7713 68.218 17.517 68.218 17.2301C68.218 16.9403 68.1598 16.6875 68.0433 16.4716C67.9297 16.2528 67.7564 16.0838 67.5234 15.9645C67.2905 15.8423 66.995 15.7812 66.6371 15.7812H65.3928V23H63.5476ZM72.9737 23.1236C72.5561 23.1236 72.1839 23.0511 71.8572 22.9062C71.5305 22.7585 71.272 22.5412 71.0817 22.2543C70.8942 21.9645 70.8004 21.6037 70.8004 21.1719C70.8004 20.8082 70.8672 20.5028 71.0007 20.2557C71.1342 20.0085 71.3161 19.8097 71.5462 19.6591C71.7763 19.5085 72.0376 19.3949 72.3303 19.3182C72.6257 19.2415 72.9354 19.1875 73.2592 19.1562C73.6399 19.1165 73.9467 19.0795 74.1797 19.0455C74.4126 19.0085 74.5817 18.9545 74.6868 18.8835C74.7919 18.8125 74.8445 18.7074 74.8445 18.5682V18.5426C74.8445 18.2727 74.7592 18.0639 74.5888 17.9162C74.4212 17.7685 74.1825 17.6946 73.8729 17.6946C73.5462 17.6946 73.2862 17.767 73.093 17.9119C72.8999 18.054 72.772 18.233 72.7095 18.4489L71.0305 18.3125C71.1158 17.9148 71.2834 17.571 71.5334 17.2812C71.7834 16.9886 72.1058 16.7642 72.5007 16.608C72.8984 16.4489 73.3587 16.3693 73.8814 16.3693C74.245 16.3693 74.593 16.4119 74.9254 16.4972C75.2607 16.5824 75.5575 16.7145 75.8161 16.8935C76.0774 17.0724 76.2834 17.3026 76.4339 17.5838C76.5845 17.8622 76.6598 18.196 76.6598 18.5852V23H74.9382V22.0923H74.8871C74.782 22.2969 74.6413 22.4773 74.4652 22.6335C74.2891 22.7869 74.0774 22.9077 73.8303 22.9957C73.5831 23.081 73.2976 23.1236 72.9737 23.1236ZM73.4936 21.8707C73.7607 21.8707 73.9964 21.8182 74.201 21.7131C74.4055 21.6051 74.5661 21.4602 74.6825 21.2784C74.799 21.0966 74.8572 20.8906 74.8572 20.6605V19.9659C74.8004 20.0028 74.7223 20.0369 74.6229 20.0682C74.5263 20.0966 74.4169 20.1236 74.2947 20.1491C74.1726 20.1719 74.0504 20.1932 73.9283 20.2131C73.8061 20.2301 73.6953 20.2457 73.5959 20.2599C73.3828 20.2912 73.1967 20.3409 73.0376 20.4091C72.8786 20.4773 72.755 20.5696 72.6669 20.6861C72.5788 20.7997 72.5348 20.9418 72.5348 21.1122C72.5348 21.3594 72.6243 21.5483 72.8033 21.679C72.9851 21.8068 73.2152 21.8707 73.4936 21.8707ZM78.9545 25.4545C78.7244 25.4545 78.5085 25.4361 78.3068 25.3991C78.108 25.3651 77.9432 25.321 77.8125 25.267L78.2216 23.9119C78.4347 23.9773 78.6264 24.0128 78.7969 24.0185C78.9702 24.0241 79.1193 23.9844 79.2443 23.8991C79.3722 23.8139 79.4759 23.669 79.5554 23.4645L79.6619 23.1875L77.3139 16.4545H79.223L80.5781 21.2614H80.6463L82.0142 16.4545H83.9361L81.392 23.7074C81.2699 24.0597 81.1037 24.3665 80.8935 24.6278C80.6861 24.892 80.4233 25.0952 80.1051 25.2372C79.7869 25.3821 79.4034 25.4545 78.9545 25.4545ZM84.8651 23V16.4545H86.5952V17.6094H86.6719C86.8082 17.2259 87.0355 16.9233 87.3537 16.7017C87.6719 16.4801 88.0526 16.3693 88.4957 16.3693C88.9446 16.3693 89.3267 16.4815 89.642 16.706C89.9574 16.9276 90.1676 17.2287 90.2727 17.6094H90.3409C90.4744 17.2344 90.7159 16.9347 91.0653 16.7102C91.4176 16.483 91.8338 16.3693 92.3139 16.3693C92.9247 16.3693 93.4205 16.5639 93.8011 16.9531C94.1847 17.3395 94.3764 17.8878 94.3764 18.598V23H92.5653V18.956C92.5653 18.5923 92.4688 18.3196 92.2756 18.1378C92.0824 17.956 91.8409 17.8651 91.5511 17.8651C91.2216 17.8651 90.9645 17.9702 90.7798 18.1804C90.5952 18.3878 90.5028 18.6619 90.5028 19.0028V23H88.7429V18.9176C88.7429 18.5966 88.6506 18.3409 88.4659 18.1506C88.2841 17.9602 88.044 17.8651 87.7457 17.8651C87.544 17.8651 87.3622 17.9162 87.2003 18.0185C87.0412 18.1179 86.9148 18.2585 86.821 18.4403C86.7273 18.6193 86.6804 18.8295 86.6804 19.071V23H84.8651ZM98.7933 23.1278C98.12 23.1278 97.5405 22.9915 97.0547 22.7188C96.5717 22.4432 96.1996 22.054 95.9382 21.5511C95.6768 21.0455 95.5462 20.4474 95.5462 19.7571C95.5462 19.0838 95.6768 18.4929 95.9382 17.9844C96.1996 17.4759 96.5675 17.0795 97.0419 16.7955C97.5192 16.5114 98.0788 16.3693 98.7209 16.3693C99.1527 16.3693 99.5547 16.4389 99.9268 16.5781C100.302 16.7145 100.629 16.9205 100.907 17.196C101.188 17.4716 101.407 17.8182 101.563 18.2358C101.719 18.6506 101.798 19.1364 101.798 19.6932V20.1918H96.2706V19.0668H100.089C100.089 18.8054 100.032 18.5739 99.9183 18.3722C99.8047 18.1705 99.647 18.0128 99.4453 17.8991C99.2464 17.7827 99.0149 17.7244 98.7507 17.7244C98.4751 17.7244 98.2308 17.7884 98.0178 17.9162C97.8075 18.0412 97.6428 18.2102 97.5234 18.4233C97.4041 18.6335 97.343 18.8679 97.3402 19.1264V20.196C97.3402 20.5199 97.3999 20.7997 97.5192 21.0355C97.6413 21.2713 97.8132 21.4531 98.0348 21.581C98.2564 21.7088 98.5192 21.7727 98.8232 21.7727C99.0249 21.7727 99.2095 21.7443 99.3771 21.6875C99.5447 21.6307 99.6882 21.5455 99.8075 21.4318C99.9268 21.3182 100.018 21.179 100.08 21.0142L101.759 21.125C101.674 21.5284 101.499 21.8807 101.235 22.1818C100.974 22.4801 100.636 22.7131 100.221 22.8807C99.8089 23.0455 99.3331 23.1278 98.7933 23.1278ZM104.798 19.2159V23H102.982V16.4545H104.712V17.6094H104.789C104.934 17.2287 105.177 16.9276 105.518 16.706C105.859 16.4815 106.272 16.3693 106.758 16.3693C107.212 16.3693 107.609 16.4688 107.947 16.6676C108.285 16.8665 108.548 17.1506 108.735 17.5199C108.923 17.8864 109.016 18.3239 109.016 18.8324V23H107.201V19.1562C107.204 18.7557 107.102 18.4432 106.894 18.2188C106.687 17.9915 106.401 17.8778 106.038 17.8778C105.793 17.8778 105.577 17.9304 105.39 18.0355C105.205 18.1406 105.06 18.294 104.955 18.4957C104.853 18.6946 104.8 18.9347 104.798 19.2159ZM113.929 16.4545V17.8182H109.987V16.4545H113.929ZM110.882 14.8864H112.697V20.9886C112.697 21.1562 112.723 21.2869 112.774 21.3807C112.825 21.4716 112.896 21.5355 112.987 21.5724C113.081 21.6094 113.189 21.6278 113.311 21.6278C113.396 21.6278 113.481 21.6207 113.566 21.6065C113.652 21.5895 113.717 21.5767 113.762 21.5682L114.048 22.919C113.957 22.9474 113.829 22.9801 113.664 23.017C113.5 23.0568 113.299 23.081 113.064 23.0895C112.626 23.1065 112.243 23.0483 111.913 22.9148C111.586 22.7812 111.332 22.5739 111.15 22.2926C110.968 22.0114 110.879 21.6562 110.882 21.2273V14.8864ZM117.923 23V14.2727H121.366C122.025 14.2727 122.587 14.3906 123.053 14.6264C123.522 14.8594 123.879 15.1903 124.123 15.6193C124.37 16.0455 124.494 16.5469 124.494 17.1236C124.494 17.7031 124.369 18.2017 124.119 18.6193C123.869 19.0341 123.506 19.3523 123.032 19.5739C122.56 19.7955 121.989 19.9062 121.319 19.9062H119.013V18.4233H121.021C121.373 18.4233 121.665 18.375 121.898 18.2784C122.131 18.1818 122.305 18.0369 122.418 17.8438C122.535 17.6506 122.593 17.4105 122.593 17.1236C122.593 16.8338 122.535 16.5895 122.418 16.3906C122.305 16.1918 122.13 16.0412 121.894 15.9389C121.661 15.8338 121.367 15.7812 121.012 15.7812H119.768V23H117.923ZM122.636 19.0284L124.805 23H122.768L120.646 19.0284H122.636ZM128.641 23.1278C127.968 23.1278 127.388 22.9915 126.902 22.7188C126.419 22.4432 126.047 22.054 125.786 21.5511C125.525 21.0455 125.394 20.4474 125.394 19.7571C125.394 19.0838 125.525 18.4929 125.786 17.9844C126.047 17.4759 126.415 17.0795 126.89 16.7955C127.367 16.5114 127.926 16.3693 128.569 16.3693C129 16.3693 129.402 16.4389 129.775 16.5781C130.15 16.7145 130.476 16.9205 130.755 17.196C131.036 17.4716 131.255 17.8182 131.411 18.2358C131.567 18.6506 131.645 19.1364 131.645 19.6932V20.1918H126.118V19.0668H129.936C129.936 18.8054 129.88 18.5739 129.766 18.3722C129.652 18.1705 129.495 18.0128 129.293 17.8991C129.094 17.7827 128.863 17.7244 128.598 17.7244C128.323 17.7244 128.078 17.7884 127.865 17.9162C127.655 18.0412 127.49 18.2102 127.371 18.4233C127.252 18.6335 127.191 18.8679 127.188 19.1264V20.196C127.188 20.5199 127.248 20.7997 127.367 21.0355C127.489 21.2713 127.661 21.4531 127.882 21.581C128.104 21.7088 128.367 21.7727 128.671 21.7727C128.873 21.7727 129.057 21.7443 129.225 21.6875C129.392 21.6307 129.536 21.5455 129.655 21.4318C129.775 21.3182 129.865 21.179 129.928 21.0142L131.607 21.125C131.522 21.5284 131.347 21.8807 131.083 22.1818C130.821 22.4801 130.483 22.7131 130.069 22.8807C129.657 23.0455 129.181 23.1278 128.641 23.1278ZM135.787 23.1278C135.117 23.1278 134.54 22.9858 134.057 22.7017C133.577 22.4148 133.208 22.017 132.949 21.5085C132.694 21 132.566 20.4148 132.566 19.7528C132.566 19.0824 132.695 18.4943 132.953 17.9886C133.215 17.4801 133.586 17.0838 134.066 16.7997C134.546 16.5128 135.117 16.3693 135.779 16.3693C136.35 16.3693 136.85 16.473 137.279 16.6804C137.708 16.8878 138.047 17.179 138.297 17.554C138.547 17.929 138.685 18.3693 138.711 18.875H136.998C136.949 18.5483 136.821 18.2855 136.614 18.0866C136.409 17.8849 136.141 17.7841 135.809 17.7841C135.527 17.7841 135.282 17.8608 135.071 18.0142C134.864 18.1648 134.702 18.3849 134.586 18.6747C134.469 18.9645 134.411 19.3153 134.411 19.7273C134.411 20.1449 134.468 20.5 134.581 20.7926C134.698 21.0852 134.861 21.3082 135.071 21.4616C135.282 21.6151 135.527 21.6918 135.809 21.6918C136.016 21.6918 136.202 21.6491 136.367 21.5639C136.534 21.4787 136.672 21.3551 136.78 21.1932C136.891 21.0284 136.963 20.831 136.998 20.6009H138.711C138.682 21.1009 138.546 21.5412 138.301 21.9219C138.06 22.2997 137.726 22.5952 137.3 22.8082C136.874 23.0213 136.37 23.1278 135.787 23.1278ZM142.856 23.1278C142.183 23.1278 141.603 22.9915 141.117 22.7188C140.634 22.4432 140.262 22.054 140.001 21.5511C139.739 21.0455 139.609 20.4474 139.609 19.7571C139.609 19.0838 139.739 18.4929 140.001 17.9844C140.262 17.4759 140.63 17.0795 141.104 16.7955C141.582 16.5114 142.141 16.3693 142.783 16.3693C143.215 16.3693 143.617 16.4389 143.989 16.5781C144.364 16.7145 144.691 16.9205 144.969 17.196C145.251 17.4716 145.469 17.8182 145.626 18.2358C145.782 18.6506 145.86 19.1364 145.86 19.6932V20.1918H140.333V19.0668H144.151C144.151 18.8054 144.094 18.5739 143.981 18.3722C143.867 18.1705 143.71 18.0128 143.508 17.8991C143.309 17.7827 143.077 17.7244 142.813 17.7244C142.538 17.7244 142.293 17.7884 142.08 17.9162C141.87 18.0412 141.705 18.2102 141.586 18.4233C141.467 18.6335 141.406 18.8679 141.403 19.1264V20.196C141.403 20.5199 141.462 20.7997 141.582 21.0355C141.704 21.2713 141.876 21.4531 142.097 21.581C142.319 21.7088 142.582 21.7727 142.886 21.7727C143.087 21.7727 143.272 21.7443 143.44 21.6875C143.607 21.6307 143.751 21.5455 143.87 21.4318C143.989 21.3182 144.08 21.179 144.143 21.0142L145.822 21.125C145.737 21.5284 145.562 21.8807 145.298 22.1818C145.036 22.4801 144.698 22.7131 144.283 22.8807C143.871 23.0455 143.396 23.1278 142.856 23.1278ZM147.045 23V16.4545H148.86V23H147.045ZM147.957 15.6108C147.687 15.6108 147.455 15.5213 147.262 15.3423C147.072 15.1605 146.977 14.9432 146.977 14.6903C146.977 14.4403 147.072 14.2259 147.262 14.0469C147.455 13.8651 147.687 13.7741 147.957 13.7741C148.227 13.7741 148.457 13.8651 148.647 14.0469C148.84 14.2259 148.937 14.4403 148.937 14.6903C148.937 14.9432 148.84 15.1605 148.647 15.3423C148.457 15.5213 148.227 15.6108 147.957 15.6108ZM156.417 16.4545L154.128 23H152.083L149.794 16.4545H151.712L153.071 21.1378H153.14L154.495 16.4545H156.417ZM160.118 23.1278C159.444 23.1278 158.865 22.9915 158.379 22.7188C157.896 22.4432 157.524 22.054 157.262 21.5511C157.001 21.0455 156.87 20.4474 156.87 19.7571C156.87 19.0838 157.001 18.4929 157.262 17.9844C157.524 17.4759 157.892 17.0795 158.366 16.7955C158.843 16.5114 159.403 16.3693 160.045 16.3693C160.477 16.3693 160.879 16.4389 161.251 16.5781C161.626 16.7145 161.953 16.9205 162.231 17.196C162.512 17.4716 162.731 17.8182 162.887 18.2358C163.044 18.6506 163.122 19.1364 163.122 19.6932V20.1918H157.595V19.0668H161.413C161.413 18.8054 161.356 18.5739 161.243 18.3722C161.129 18.1705 160.971 18.0128 160.77 17.8991C160.571 17.7827 160.339 17.7244 160.075 17.7244C159.799 17.7244 159.555 17.7884 159.342 17.9162C159.132 18.0412 158.967 18.2102 158.848 18.4233C158.728 18.6335 158.667 18.8679 158.664 19.1264V20.196C158.664 20.5199 158.724 20.7997 158.843 21.0355C158.966 21.2713 159.137 21.4531 159.359 21.581C159.581 21.7088 159.843 21.7727 160.147 21.7727C160.349 21.7727 160.534 21.7443 160.701 21.6875C160.869 21.6307 161.012 21.5455 161.132 21.4318C161.251 21.3182 161.342 21.179 161.404 21.0142L163.083 21.125C162.998 21.5284 162.824 21.8807 162.559 22.1818C162.298 22.4801 161.96 22.7131 161.545 22.8807C161.133 23.0455 160.657 23.1278 160.118 23.1278ZM166.718 23.1065C166.221 23.1065 165.771 22.9787 165.368 22.723C164.967 22.4645 164.649 22.0852 164.413 21.5852C164.18 21.0824 164.064 20.4659 164.064 19.7358C164.064 18.9858 164.184 18.3622 164.426 17.8651C164.667 17.3651 164.988 16.9915 165.389 16.7443C165.792 16.4943 166.234 16.3693 166.714 16.3693C167.081 16.3693 167.386 16.4318 167.63 16.5568C167.877 16.679 168.076 16.8324 168.227 17.017C168.38 17.1989 168.497 17.3778 168.576 17.554H168.632V14.2727H170.443V23H168.653V21.9517H168.576C168.491 22.1335 168.37 22.3139 168.214 22.4929C168.061 22.669 167.86 22.8153 167.613 22.9318C167.369 23.0483 167.071 23.1065 166.718 23.1065ZM167.294 21.6619C167.586 21.6619 167.833 21.5824 168.035 21.4233C168.24 21.2614 168.396 21.0355 168.504 20.7457C168.615 20.456 168.67 20.1165 168.67 19.7273C168.67 19.3381 168.616 19 168.508 18.7131C168.4 18.4261 168.244 18.2045 168.039 18.0483C167.835 17.892 167.586 17.8139 167.294 17.8139C166.995 17.8139 166.744 17.8949 166.539 18.0568C166.335 18.2187 166.18 18.4432 166.075 18.7301C165.97 19.017 165.917 19.3494 165.917 19.7273C165.917 20.108 165.97 20.4446 166.075 20.7372C166.183 21.027 166.338 21.2543 166.539 21.419C166.744 21.581 166.995 21.6619 167.294 21.6619Z" fill="black" fill-opacity="0.7"/>
<path d="M62.7557 30.7273H63.7642L65.7812 34.1222H65.8665L67.8835 30.7273H68.892L66.2642 35.0028V38H65.3835V35.0028L62.7557 30.7273ZM71.3619 38.1136C70.8694 38.1136 70.4374 37.9964 70.0657 37.7621C69.6964 37.5277 69.4076 37.1998 69.1992 36.7784C68.9933 36.357 68.8903 35.8646 68.8903 35.3011C68.8903 34.733 68.9933 34.237 69.1992 33.8132C69.4076 33.3894 69.6964 33.0604 70.0657 32.826C70.4374 32.5916 70.8694 32.4744 71.3619 32.4744C71.8543 32.4744 72.2852 32.5916 72.6545 32.826C73.0262 33.0604 73.315 33.3894 73.521 33.8132C73.7293 34.237 73.8335 34.733 73.8335 35.3011C73.8335 35.8646 73.7293 36.357 73.521 36.7784C73.315 37.1998 73.0262 37.5277 72.6545 37.7621C72.2852 37.9964 71.8543 38.1136 71.3619 38.1136ZM71.3619 37.3608C71.7359 37.3608 72.0437 37.2649 72.2852 37.0732C72.5266 36.8814 72.7054 36.6293 72.8214 36.3168C72.9374 36.0043 72.9954 35.6657 72.9954 35.3011C72.9954 34.9366 72.9374 34.5968 72.8214 34.282C72.7054 33.9671 72.5266 33.7126 72.2852 33.5185C72.0437 33.3243 71.7359 33.2273 71.3619 33.2273C70.9878 33.2273 70.68 33.3243 70.4386 33.5185C70.1971 33.7126 70.0183 33.9671 69.9023 34.282C69.7863 34.5968 69.7283 34.9366 69.7283 35.3011C69.7283 35.6657 69.7863 36.0043 69.9023 36.3168C70.0183 36.6293 70.1971 36.8814 70.4386 37.0732C70.68 37.2649 70.9878 37.3608 71.3619 37.3608ZM78.5502 35.7699V32.5455H79.3883V38H78.5502V37.0767H78.4934C78.3656 37.3537 78.1667 37.5893 77.8968 37.7834C77.627 37.9751 77.286 38.071 76.8741 38.071C76.5332 38.071 76.2302 37.9964 75.965 37.8473C75.6999 37.6958 75.4915 37.4685 75.34 37.1655C75.1885 36.8601 75.1127 36.4754 75.1127 36.0114V32.5455H75.9508V35.9545C75.9508 36.3523 76.0621 36.6695 76.2846 36.9062C76.5095 37.143 76.796 37.2614 77.144 37.2614C77.3523 37.2614 77.5642 37.2081 77.7797 37.1016C77.9975 36.995 78.1797 36.8317 78.3265 36.6115C78.4757 36.3913 78.5502 36.1108 78.5502 35.7699ZM81.8084 30.7273V31.3665C81.8084 31.5606 81.7729 31.7678 81.7019 31.9879C81.6332 32.2057 81.5314 32.4176 81.3965 32.6236C81.2639 32.8272 81.1029 33.0047 80.9135 33.1562L80.459 32.7869C80.6081 32.5739 80.7372 32.3525 80.8461 32.1229C80.9573 31.8909 81.013 31.6435 81.013 31.3807V30.7273H81.8084ZM87.5222 32.5455L85.5051 38H84.6529L82.6358 32.5455H83.5449L85.0506 36.892H85.1074L86.6131 32.5455H87.5222ZM90.72 38.1136C90.1944 38.1136 89.7411 37.9976 89.3599 37.7656C88.9811 37.5312 88.6887 37.2045 88.4828 36.7855C88.2792 36.3641 88.1774 35.8741 88.1774 35.3153C88.1774 34.7566 88.2792 34.2642 88.4828 33.8381C88.6887 33.4096 88.9752 33.0758 89.3422 32.8366C89.7115 32.5952 90.1423 32.4744 90.6348 32.4744C90.9189 32.4744 91.1994 32.5218 91.4764 32.6165C91.7534 32.7112 92.0055 32.8651 92.2328 33.0781C92.46 33.2888 92.6412 33.5682 92.7761 33.9162C92.911 34.2642 92.9785 34.6927 92.9785 35.2017V35.5568H88.774V34.8324H92.1262C92.1262 34.5246 92.0647 34.25 91.9416 34.0085C91.8208 33.767 91.648 33.5765 91.4231 33.4368C91.2006 33.2971 90.9378 33.2273 90.6348 33.2273C90.301 33.2273 90.0121 33.3101 89.7683 33.4759C89.5268 33.6392 89.341 33.8523 89.2108 34.1151C89.0806 34.3778 89.0154 34.6596 89.0154 34.9602V35.4432C89.0154 35.8551 89.0865 36.2043 89.2285 36.4908C89.3729 36.7749 89.573 36.9915 89.8287 37.1406C90.0843 37.2874 90.3815 37.3608 90.72 37.3608C90.9402 37.3608 91.139 37.33 91.3166 37.2685C91.4965 37.2045 91.6516 37.1098 91.7818 36.9844C91.912 36.8565 92.0126 36.6979 92.0836 36.5085L92.8933 36.7358C92.8081 37.0104 92.6648 37.2519 92.4636 37.4602C92.2624 37.6662 92.0138 37.8272 91.7179 37.9432C91.4219 38.0568 91.0893 38.1136 90.72 38.1136ZM97.0659 38V32.5455H97.8755V33.3693H97.9324C98.0318 33.0994 98.2117 32.8804 98.4721 32.7124C98.7325 32.5443 99.0261 32.4602 99.3528 32.4602C99.4144 32.4602 99.4913 32.4614 99.5836 32.4638C99.676 32.4661 99.7458 32.4697 99.7931 32.4744V33.3267C99.7647 33.3196 99.6996 33.3089 99.5978 33.2947C99.4984 33.2782 99.3931 33.2699 99.2818 33.2699C99.0166 33.2699 98.7799 33.3255 98.5716 33.4368C98.3656 33.5457 98.2022 33.6972 98.0815 33.8913C97.9631 34.0831 97.9039 34.3021 97.9039 34.5483V38H97.0659ZM102.907 38.1136C102.382 38.1136 101.929 37.9976 101.547 37.7656C101.169 37.5312 100.876 37.2045 100.67 36.7855C100.467 36.3641 100.365 35.8741 100.365 35.3153C100.365 34.7566 100.467 34.2642 100.67 33.8381C100.876 33.4096 101.163 33.0758 101.53 32.8366C101.899 32.5952 102.33 32.4744 102.822 32.4744C103.106 32.4744 103.387 32.5218 103.664 32.6165C103.941 32.7112 104.193 32.8651 104.42 33.0781C104.648 33.2888 104.829 33.5682 104.964 33.9162C105.099 34.2642 105.166 34.6927 105.166 35.2017V35.5568H100.961V34.8324H104.314C104.314 34.5246 104.252 34.25 104.129 34.0085C104.008 33.767 103.836 33.5765 103.611 33.4368C103.388 33.2971 103.125 33.2273 102.822 33.2273C102.488 33.2273 102.2 33.3101 101.956 33.4759C101.714 33.6392 101.528 33.8523 101.398 34.1151C101.268 34.3778 101.203 34.6596 101.203 34.9602V35.4432C101.203 35.8551 101.274 36.2043 101.416 36.4908C101.56 36.7749 101.76 36.9915 102.016 37.1406C102.272 37.2874 102.569 37.3608 102.907 37.3608C103.128 37.3608 103.327 37.33 103.504 37.2685C103.684 37.2045 103.839 37.1098 103.969 36.9844C104.099 36.8565 104.2 36.6979 104.271 36.5085L105.081 36.7358C104.996 37.0104 104.852 37.2519 104.651 37.4602C104.45 37.6662 104.201 37.8272 103.905 37.9432C103.609 38.0568 103.277 38.1136 102.907 38.1136ZM108.657 38.1136C108.145 38.1136 107.705 37.9929 107.336 37.7514C106.966 37.5099 106.682 37.1773 106.483 36.7536C106.285 36.3298 106.185 35.8456 106.185 35.3011C106.185 34.7472 106.287 34.2583 106.491 33.8345C106.697 33.4084 106.983 33.0758 107.35 32.8366C107.719 32.5952 108.15 32.4744 108.643 32.4744C109.026 32.4744 109.372 32.5455 109.68 32.6875C109.987 32.8295 110.239 33.0284 110.436 33.2841C110.632 33.5398 110.754 33.8381 110.802 34.179H109.964C109.9 33.9304 109.758 33.7102 109.537 33.5185C109.32 33.3243 109.026 33.2273 108.657 33.2273C108.33 33.2273 108.044 33.3125 107.797 33.483C107.554 33.651 107.363 33.889 107.226 34.1967C107.091 34.5021 107.023 34.8608 107.023 35.2727C107.023 35.6941 107.09 36.0611 107.222 36.3736C107.357 36.6861 107.546 36.9287 107.79 37.1016C108.037 37.2744 108.325 37.3608 108.657 37.3608C108.875 37.3608 109.072 37.3229 109.25 37.2472C109.427 37.1714 109.578 37.0625 109.701 36.9205C109.824 36.7784 109.912 36.608 109.964 36.4091H110.802C110.754 36.7311 110.637 37.0211 110.45 37.2791C110.265 37.5348 110.02 37.7384 109.715 37.8899C109.412 38.0391 109.059 38.1136 108.657 38.1136ZM114.314 38.1136C113.788 38.1136 113.335 37.9976 112.954 37.7656C112.575 37.5312 112.282 37.2045 112.077 36.7855C111.873 36.3641 111.771 35.8741 111.771 35.3153C111.771 34.7566 111.873 34.2642 112.077 33.8381C112.282 33.4096 112.569 33.0758 112.936 32.8366C113.305 32.5952 113.736 32.4744 114.229 32.4744C114.513 32.4744 114.793 32.5218 115.07 32.6165C115.347 32.7112 115.599 32.8651 115.827 33.0781C116.054 33.2888 116.235 33.5682 116.37 33.9162C116.505 34.2642 116.572 34.6927 116.572 35.2017V35.5568H112.368V34.8324H115.72C115.72 34.5246 115.658 34.25 115.535 34.0085C115.415 33.767 115.242 33.5765 115.017 33.4368C114.794 33.2971 114.532 33.2273 114.229 33.2273C113.895 33.2273 113.606 33.3101 113.362 33.4759C113.121 33.6392 112.935 33.8523 112.805 34.1151C112.674 34.3778 112.609 34.6596 112.609 34.9602V35.4432C112.609 35.8551 112.68 36.2043 112.822 36.4908C112.967 36.7749 113.167 36.9915 113.422 37.1406C113.678 37.2874 113.975 37.3608 114.314 37.3608C114.534 37.3608 114.733 37.33 114.91 37.2685C115.09 37.2045 115.245 37.1098 115.376 36.9844C115.506 36.8565 115.606 36.6979 115.677 36.5085L116.487 36.7358C116.402 37.0104 116.259 37.2519 116.057 37.4602C115.856 37.6662 115.608 37.8272 115.312 37.9432C115.016 38.0568 114.683 38.1136 114.314 38.1136ZM117.847 38V32.5455H118.685V38H117.847ZM118.273 31.6364C118.11 31.6364 117.969 31.5807 117.851 31.4695C117.735 31.3582 117.677 31.2244 117.677 31.0682C117.677 30.9119 117.735 30.7782 117.851 30.6669C117.969 30.5556 118.11 30.5 118.273 30.5C118.437 30.5 118.576 30.5556 118.692 30.6669C118.811 30.7782 118.87 30.9119 118.87 31.0682C118.87 31.2244 118.811 31.3582 118.692 31.4695C118.576 31.5807 118.437 31.6364 118.273 31.6364ZM124.68 32.5455L122.663 38H121.811L119.794 32.5455H120.703L122.209 36.892H122.266L123.771 32.5455H124.68ZM127.878 38.1136C127.353 38.1136 126.899 37.9976 126.518 37.7656C126.139 37.5312 125.847 37.2045 125.641 36.7855C125.437 36.3641 125.336 35.8741 125.336 35.3153C125.336 34.7566 125.437 34.2642 125.641 33.8381C125.847 33.4096 126.133 33.0758 126.5 32.8366C126.87 32.5952 127.301 32.4744 127.793 32.4744C128.077 32.4744 128.358 32.5218 128.635 32.6165C128.912 32.7112 129.164 32.8651 129.391 33.0781C129.618 33.2888 129.799 33.5682 129.934 33.9162C130.069 34.2642 130.137 34.6927 130.137 35.2017V35.5568H125.932V34.8324H129.284C129.284 34.5246 129.223 34.25 129.1 34.0085C128.979 33.767 128.806 33.5765 128.581 33.4368C128.359 33.2971 128.096 33.2273 127.793 33.2273C127.459 33.2273 127.17 33.3101 126.926 33.4759C126.685 33.6392 126.499 33.8523 126.369 34.1151C126.239 34.3778 126.174 34.6596 126.174 34.9602V35.4432C126.174 35.8551 126.245 36.2043 126.387 36.4908C126.531 36.7749 126.731 36.9915 126.987 37.1406C127.243 37.2874 127.54 37.3608 127.878 37.3608C128.098 37.3608 128.297 37.33 128.475 37.2685C128.655 37.2045 128.81 37.1098 128.94 36.9844C129.07 36.8565 129.171 36.6979 129.242 36.5085L130.051 36.7358C129.966 37.0104 129.823 37.2519 129.622 37.4602C129.421 37.6662 129.172 37.8272 128.876 37.9432C128.58 38.0568 128.248 38.1136 127.878 38.1136ZM133.471 38.1136C133.017 38.1136 132.615 37.9988 132.267 37.7692C131.919 37.5372 131.647 37.2105 131.451 36.7891C131.254 36.3653 131.156 35.8646 131.156 35.2869C131.156 34.714 131.254 34.2169 131.451 33.7955C131.647 33.3741 131.921 33.0485 132.271 32.8189C132.621 32.5893 133.026 32.4744 133.485 32.4744C133.841 32.4744 134.121 32.5336 134.327 32.652C134.535 32.768 134.694 32.9006 134.803 33.0497C134.914 33.1965 135.001 33.3172 135.062 33.4119H135.133V30.7273H135.971V38H135.162V37.1619H135.062C135.001 37.2614 134.913 37.3868 134.799 37.5384C134.686 37.6875 134.524 37.8213 134.313 37.9396C134.102 38.0556 133.822 38.1136 133.471 38.1136ZM133.585 37.3608C133.921 37.3608 134.205 37.2732 134.437 37.098C134.669 36.9205 134.846 36.6754 134.966 36.3629C135.087 36.0481 135.147 35.6847 135.147 35.2727C135.147 34.8655 135.088 34.5092 134.97 34.2038C134.851 33.8961 134.676 33.657 134.444 33.4865C134.212 33.3137 133.926 33.2273 133.585 33.2273C133.23 33.2273 132.934 33.3184 132.697 33.5007C132.463 33.6806 132.286 33.9257 132.168 34.2358C132.052 34.5436 131.994 34.8892 131.994 35.2727C131.994 35.661 132.053 36.0137 132.172 36.331C132.292 36.6458 132.47 36.8968 132.704 37.0838C132.941 37.2685 133.234 37.3608 133.585 37.3608ZM142.566 38.9091V29.8182H143.148V38.9091H142.566ZM144.526 32.5455C144.483 32.1856 144.31 31.9062 144.007 31.7074C143.704 31.5085 143.333 31.4091 142.892 31.4091C142.57 31.4091 142.289 31.4612 142.047 31.5653C141.808 31.6695 141.621 31.8127 141.486 31.995C141.354 32.1773 141.287 32.3845 141.287 32.6165C141.287 32.8106 141.333 32.9775 141.426 33.1172C141.52 33.2545 141.641 33.3693 141.788 33.4616C141.935 33.5516 142.089 33.6262 142.25 33.6854C142.411 33.7422 142.559 33.7884 142.694 33.8239L143.432 34.0227C143.622 34.0724 143.832 34.1411 144.064 34.2287C144.299 34.3163 144.522 34.4358 144.735 34.5874C144.951 34.7365 145.128 34.9283 145.268 35.1626C145.408 35.397 145.478 35.6847 145.478 36.0256C145.478 36.4186 145.375 36.7737 145.169 37.0909C144.965 37.4081 144.667 37.6603 144.274 37.8473C143.883 38.0343 143.408 38.1278 142.85 38.1278C142.329 38.1278 141.878 38.0438 141.497 37.8757C141.118 37.7076 140.82 37.4732 140.602 37.1726C140.386 36.8719 140.265 36.5227 140.236 36.125H141.145C141.169 36.3996 141.261 36.6269 141.422 36.8068C141.586 36.9844 141.792 37.117 142.04 37.2045C142.291 37.2898 142.561 37.3324 142.85 37.3324C143.186 37.3324 143.488 37.2779 143.755 37.169C144.023 37.0578 144.235 36.9039 144.391 36.7074C144.547 36.5085 144.625 36.2765 144.625 36.0114C144.625 35.7699 144.558 35.5734 144.423 35.4219C144.288 35.2704 144.11 35.1473 143.89 35.0526C143.67 34.9579 143.432 34.875 143.176 34.804L142.282 34.5483C141.713 34.3849 141.264 34.1518 140.932 33.8487C140.601 33.5457 140.435 33.1491 140.435 32.6591C140.435 32.2519 140.545 31.8968 140.765 31.5938C140.988 31.2884 141.286 31.0516 141.66 30.8835C142.037 30.7131 142.457 30.6278 142.921 30.6278C143.39 30.6278 143.806 30.7119 144.171 30.88C144.535 31.0457 144.824 31.273 145.037 31.5618C145.253 31.8506 145.366 32.1785 145.378 32.5455H144.526ZM149.355 30.7273V38H148.474V31.6506H148.431L146.656 32.8295V31.9347L148.474 30.7273H149.355ZM151.446 38V37.3608L153.847 34.733C154.128 34.4252 154.36 34.1577 154.543 33.9304C154.725 33.7008 154.86 33.4853 154.948 33.2841C155.038 33.0805 155.083 32.8674 155.083 32.6449C155.083 32.3892 155.021 32.1679 154.898 31.9808C154.777 31.7938 154.611 31.6494 154.401 31.5476C154.19 31.4458 153.953 31.3949 153.691 31.3949C153.411 31.3949 153.167 31.4529 152.959 31.5689C152.753 31.6825 152.593 31.8423 152.48 32.0483C152.368 32.2543 152.313 32.4957 152.313 32.7727H151.475C151.475 32.3466 151.573 31.9725 151.769 31.6506C151.966 31.3286 152.233 31.0777 152.572 30.8977C152.913 30.7178 153.295 30.6278 153.719 30.6278C154.145 30.6278 154.523 30.7178 154.852 30.8977C155.181 31.0777 155.439 31.3203 155.626 31.6257C155.813 31.9311 155.906 32.2708 155.906 32.6449C155.906 32.9124 155.858 33.174 155.761 33.4297C155.666 33.683 155.5 33.9659 155.264 34.2784C155.029 34.5885 154.704 34.9673 154.287 35.4148L152.654 37.1619V37.2188H156.034V38H151.446ZM159.873 38.0994C159.338 38.0994 158.882 37.9538 158.506 37.6626C158.129 37.3691 157.842 36.9441 157.643 36.3878C157.444 35.8291 157.345 35.1544 157.345 34.3636C157.345 33.5777 157.444 32.9065 157.643 32.3501C157.844 31.7914 158.133 31.3653 158.509 31.0717C158.888 30.7758 159.343 30.6278 159.873 30.6278C160.403 30.6278 160.857 30.7758 161.233 31.0717C161.612 31.3653 161.901 31.7914 162.1 32.3501C162.301 32.9065 162.401 33.5777 162.401 34.3636C162.401 35.1544 162.302 35.8291 162.103 36.3878C161.904 36.9441 161.617 37.3691 161.24 37.6626C160.864 37.9538 160.408 38.0994 159.873 38.0994ZM159.873 37.3182C160.403 37.3182 160.815 37.0625 161.109 36.5511C161.402 36.0398 161.549 35.3106 161.549 34.3636C161.549 33.7339 161.482 33.1977 161.347 32.755C161.214 32.3123 161.022 31.9749 160.771 31.7429C160.523 31.5109 160.223 31.3949 159.873 31.3949C159.347 31.3949 158.937 31.6541 158.641 32.1726C158.345 32.6887 158.197 33.419 158.197 34.3636C158.197 34.9934 158.263 35.5284 158.396 35.9688C158.528 36.4091 158.719 36.7441 158.968 36.9737C159.218 37.2034 159.52 37.3182 159.873 37.3182ZM169.007 32.5455V33.2557H166.066V32.5455H169.007ZM166.947 38V31.7926C166.947 31.4801 167.02 31.2197 167.167 31.0114C167.314 30.803 167.504 30.6468 167.739 30.5426C167.973 30.4384 168.221 30.3864 168.481 30.3864C168.687 30.3864 168.855 30.4029 168.985 30.4361C169.115 30.4692 169.213 30.5 169.276 30.5284L169.035 31.2528C168.992 31.2386 168.933 31.2209 168.857 31.1996C168.784 31.1783 168.687 31.1676 168.566 31.1676C168.289 31.1676 168.089 31.2375 167.966 31.3771C167.845 31.5168 167.785 31.7216 167.785 31.9915V38H166.947ZM170.181 38V32.5455H170.991V33.3693H171.048C171.147 33.0994 171.327 32.8804 171.587 32.7124C171.848 32.5443 172.141 32.4602 172.468 32.4602C172.53 32.4602 172.607 32.4614 172.699 32.4638C172.791 32.4661 172.861 32.4697 172.908 32.4744V33.3267C172.88 33.3196 172.815 33.3089 172.713 33.2947C172.614 33.2782 172.508 33.2699 172.397 33.2699C172.132 33.2699 171.895 33.3255 171.687 33.4368C171.481 33.5457 171.317 33.6972 171.197 33.8913C171.078 34.0831 171.019 34.3021 171.019 34.5483V38H170.181ZM175.952 38.1136C175.459 38.1136 175.027 37.9964 174.656 37.7621C174.286 37.5277 173.997 37.1998 173.789 36.7784C173.583 36.357 173.48 35.8646 173.48 35.3011C173.48 34.733 173.583 34.237 173.789 33.8132C173.997 33.3894 174.286 33.0604 174.656 32.826C175.027 32.5916 175.459 32.4744 175.952 32.4744C176.444 32.4744 176.875 32.5916 177.244 32.826C177.616 33.0604 177.905 33.3894 178.111 33.8132C178.319 34.237 178.423 34.733 178.423 35.3011C178.423 35.8646 178.319 36.357 178.111 36.7784C177.905 37.1998 177.616 37.5277 177.244 37.7621C176.875 37.9964 176.444 38.1136 175.952 38.1136ZM175.952 37.3608C176.326 37.3608 176.634 37.2649 176.875 37.0732C177.116 36.8814 177.295 36.6293 177.411 36.3168C177.527 36.0043 177.585 35.6657 177.585 35.3011C177.585 34.9366 177.527 34.5968 177.411 34.282C177.295 33.9671 177.116 33.7126 176.875 33.5185C176.634 33.3243 176.326 33.2273 175.952 33.2273C175.578 33.2273 175.27 33.3243 175.028 33.5185C174.787 33.7126 174.608 33.9671 174.492 34.282C174.376 34.5968 174.318 34.9366 174.318 35.3011C174.318 35.6657 174.376 36.0043 174.492 36.3168C174.608 36.6293 174.787 36.8814 175.028 37.0732C175.27 37.2649 175.578 37.3608 175.952 37.3608ZM179.703 38V32.5455H180.512V33.3977H180.583C180.697 33.1065 180.88 32.8804 181.134 32.7195C181.387 32.5561 181.691 32.4744 182.046 32.4744C182.406 32.4744 182.706 32.5561 182.945 32.7195C183.186 32.8804 183.374 33.1065 183.509 33.3977H183.566C183.706 33.116 183.915 32.8923 184.195 32.7266C184.474 32.5585 184.809 32.4744 185.2 32.4744C185.687 32.4744 186.086 32.6271 186.396 32.9325C186.707 33.2356 186.862 33.7079 186.862 34.3494V38H186.024V34.3494C186.024 33.947 185.914 33.6593 185.693 33.4865C185.473 33.3137 185.214 33.2273 184.916 33.2273C184.532 33.2273 184.235 33.3433 184.024 33.5753C183.814 33.8049 183.708 34.0961 183.708 34.4489V38H182.856V34.2642C182.856 33.9541 182.755 33.7043 182.554 33.5149C182.353 33.3232 182.094 33.2273 181.776 33.2273C181.559 33.2273 181.355 33.2853 181.166 33.4013C180.979 33.5173 180.827 33.6783 180.711 33.8842C180.597 34.0878 180.541 34.3234 180.541 34.5909V38H179.703ZM196.093 30.7273H196.974V35.5426C196.974 36.0398 196.856 36.4837 196.622 36.8743C196.39 37.2625 196.062 37.5691 195.638 37.794C195.215 38.0166 194.717 38.1278 194.147 38.1278C193.576 38.1278 193.079 38.0166 192.655 37.794C192.232 37.5691 191.903 37.2625 191.668 36.8743C191.436 36.4837 191.32 36.0398 191.32 35.5426V30.7273H192.201V35.4716C192.201 35.8267 192.279 36.1428 192.435 36.4197C192.591 36.6944 192.814 36.911 193.103 37.0696C193.394 37.2259 193.742 37.304 194.147 37.304C194.552 37.304 194.9 37.2259 195.191 37.0696C195.482 36.911 195.705 36.6944 195.858 36.4197C196.015 36.1428 196.093 35.8267 196.093 35.4716V30.7273ZM199.457 34.7188V38H198.619V32.5455H199.428V33.3977H199.499C199.627 33.1207 199.821 32.8982 200.082 32.7301C200.342 32.5597 200.678 32.4744 201.09 32.4744C201.46 32.4744 201.783 32.5502 202.06 32.7017C202.337 32.8509 202.552 33.0781 202.706 33.3835C202.86 33.6866 202.937 34.0701 202.937 34.5341V38H202.099V34.5909C202.099 34.1624 201.987 33.8286 201.765 33.5895C201.542 33.348 201.237 33.2273 200.849 33.2273C200.581 33.2273 200.342 33.2853 200.131 33.4013C199.923 33.5173 199.759 33.6866 199.638 33.9091C199.517 34.1316 199.457 34.4015 199.457 34.7188ZM206.684 38.1136C206.173 38.1136 205.732 37.9929 205.363 37.7514C204.994 37.5099 204.71 37.1773 204.511 36.7536C204.312 36.3298 204.213 35.8456 204.213 35.3011C204.213 34.7472 204.314 34.2583 204.518 33.8345C204.724 33.4084 205.01 33.0758 205.377 32.8366C205.747 32.5952 206.177 32.4744 206.67 32.4744C207.053 32.4744 207.399 32.5455 207.707 32.6875C208.015 32.8295 208.267 33.0284 208.463 33.2841C208.66 33.5398 208.782 33.8381 208.829 34.179H207.991C207.927 33.9304 207.785 33.7102 207.565 33.5185C207.347 33.3243 207.053 33.2273 206.684 33.2273C206.357 33.2273 206.071 33.3125 205.825 33.483C205.581 33.651 205.39 33.889 205.253 34.1967C205.118 34.5021 205.051 34.8608 205.051 35.2727C205.051 35.6941 205.117 36.0611 205.249 36.3736C205.384 36.6861 205.574 36.9287 205.818 37.1016C206.064 37.2744 206.353 37.3608 206.684 37.3608C206.902 37.3608 207.1 37.3229 207.277 37.2472C207.455 37.1714 207.605 37.0625 207.728 36.9205C207.851 36.7784 207.939 36.608 207.991 36.4091H208.829C208.782 36.7311 208.664 37.0211 208.477 37.2791C208.293 37.5348 208.048 37.7384 207.742 37.8899C207.439 38.0391 207.087 38.1136 206.684 38.1136ZM210.892 30.7273V38H210.054V30.7273H210.892ZM214.714 38.1136C214.189 38.1136 213.735 37.9976 213.354 37.7656C212.975 37.5312 212.683 37.2045 212.477 36.7855C212.273 36.3641 212.172 35.8741 212.172 35.3153C212.172 34.7566 212.273 34.2642 212.477 33.8381C212.683 33.4096 212.969 33.0758 213.336 32.8366C213.706 32.5952 214.136 32.4744 214.629 32.4744C214.913 32.4744 215.194 32.5218 215.471 32.6165C215.748 32.7112 216 32.8651 216.227 33.0781C216.454 33.2888 216.635 33.5682 216.77 33.9162C216.905 34.2642 216.973 34.6927 216.973 35.2017V35.5568H212.768V34.8324H216.12C216.12 34.5246 216.059 34.25 215.936 34.0085C215.815 33.767 215.642 33.5765 215.417 33.4368C215.195 33.2971 214.932 33.2273 214.629 33.2273C214.295 33.2273 214.006 33.3101 213.762 33.4759C213.521 33.6392 213.335 33.8523 213.205 34.1151C213.075 34.3778 213.01 34.6596 213.01 34.9602V35.4432C213.01 35.8551 213.081 36.2043 213.223 36.4908C213.367 36.7749 213.567 36.9915 213.823 37.1406C214.078 37.2874 214.376 37.3608 214.714 37.3608C214.934 37.3608 215.133 37.33 215.311 37.2685C215.491 37.2045 215.646 37.1098 215.776 36.9844C215.906 36.8565 216.007 36.6979 216.078 36.5085L216.887 36.7358C216.802 37.0104 216.659 37.2519 216.458 37.4602C216.257 37.6662 216.008 37.8272 215.712 37.9432C215.416 38.0568 215.083 38.1136 214.714 38.1136ZM221.174 38V30.7273H223.631C224.202 30.7273 224.668 30.8303 225.03 31.0362C225.395 31.2398 225.665 31.5156 225.84 31.8636C226.015 32.2116 226.103 32.5999 226.103 33.0284C226.103 33.4569 226.015 33.8464 225.84 34.1967C225.667 34.5471 225.4 34.8265 225.037 35.0348C224.675 35.2408 224.211 35.3438 223.645 35.3438H221.884V34.5625H223.617C224.007 34.5625 224.321 34.495 224.558 34.3601C224.795 34.2251 224.966 34.0429 225.073 33.8132C225.182 33.5812 225.236 33.3196 225.236 33.0284C225.236 32.7372 225.182 32.4768 225.073 32.2472C224.966 32.0175 224.793 31.8376 224.554 31.7074C224.315 31.5748 223.998 31.5085 223.603 31.5085H222.054V38H221.174ZM228.246 34.7188V38H227.408V30.7273H228.246V33.3977H228.317C228.445 33.116 228.636 32.8923 228.892 32.7266C229.15 32.5585 229.493 32.4744 229.922 32.4744C230.294 32.4744 230.619 32.549 230.898 32.6982C231.178 32.8449 231.394 33.071 231.548 33.3764C231.705 33.6795 231.783 34.0653 231.783 34.5341V38H230.945V34.5909C230.945 34.1577 230.832 33.8227 230.607 33.5859C230.385 33.3468 230.076 33.2273 229.68 33.2273C229.406 33.2273 229.16 33.2853 228.942 33.4013C228.726 33.5173 228.556 33.6866 228.43 33.9091C228.307 34.1316 228.246 34.4015 228.246 34.7188ZM233.316 38V32.5455H234.154V38H233.316ZM233.742 31.6364C233.579 31.6364 233.438 31.5807 233.319 31.4695C233.203 31.3582 233.145 31.2244 233.145 31.0682C233.145 30.9119 233.203 30.7782 233.319 30.6669C233.438 30.5556 233.579 30.5 233.742 30.5C233.905 30.5 234.045 30.5556 234.161 30.6669C234.279 30.7782 234.339 30.9119 234.339 31.0682C234.339 31.2244 234.279 31.3582 234.161 31.4695C234.045 31.5807 233.905 31.6364 233.742 31.6364ZM236.527 30.7273V38H235.689V30.7273H236.527ZM62.983 43.5085V42.7273H68.4375V43.5085H66.1506V50H65.2699V43.5085H62.983ZM70.546 50.1278C70.2003 50.1278 69.8867 50.0627 69.6049 49.9325C69.3232 49.8 69.0995 49.6094 68.9338 49.3608C68.7681 49.1098 68.6852 48.8068 68.6852 48.4517C68.6852 48.1392 68.7467 47.8859 68.8699 47.6918C68.993 47.4953 69.1575 47.3414 69.3635 47.2301C69.5694 47.1188 69.7967 47.036 70.0453 46.9815C70.2962 46.9247 70.5484 46.8797 70.8017 46.8466C71.1331 46.804 71.4018 46.772 71.6078 46.7507C71.8161 46.727 71.9676 46.688 72.0623 46.6335C72.1594 46.5791 72.2079 46.4844 72.2079 46.3494V46.321C72.2079 45.9706 72.112 45.6984 71.9203 45.5043C71.7309 45.3101 71.4432 45.2131 71.0574 45.2131C70.6573 45.2131 70.3436 45.3007 70.1163 45.4759C69.889 45.651 69.7292 45.8381 69.6369 46.0369L68.8414 45.7528C68.9835 45.4214 69.1729 45.1634 69.4096 44.9787C69.6487 44.7917 69.9092 44.6615 70.1909 44.5881C70.475 44.5123 70.7543 44.4744 71.0289 44.4744C71.2041 44.4744 71.4054 44.4957 71.6326 44.5384C71.8623 44.5786 72.0836 44.6626 72.2967 44.7905C72.5121 44.9183 72.6909 45.1113 72.8329 45.3693C72.975 45.6274 73.046 45.973 73.046 46.4062V50H72.2079V49.2614H72.1653C72.1085 49.3797 72.0138 49.5064 71.8812 49.6413C71.7486 49.7763 71.5723 49.8911 71.3521 49.9858C71.1319 50.0805 70.8632 50.1278 70.546 50.1278ZM70.6738 49.375C71.0053 49.375 71.2846 49.3099 71.5119 49.1797C71.7415 49.0495 71.9144 48.8814 72.0304 48.6754C72.1487 48.4695 72.2079 48.2528 72.2079 48.0256V47.2585C72.1724 47.3011 72.0943 47.3402 71.9735 47.3757C71.8552 47.4089 71.7179 47.4384 71.5616 47.4645C71.4077 47.4882 71.2574 47.5095 71.1106 47.5284C70.9662 47.545 70.849 47.5592 70.7591 47.571C70.5413 47.5994 70.3377 47.6456 70.1483 47.7095C69.9612 47.7711 69.8097 47.8646 69.6937 47.9901C69.5801 48.1132 69.5233 48.2812 69.5233 48.4943C69.5233 48.7855 69.631 49.0057 69.8464 49.1548C70.0642 49.3016 70.34 49.375 70.6738 49.375ZM74.5756 52.0455V44.5455H75.3853V45.4119H75.4847C75.5463 45.3172 75.6315 45.1965 75.7404 45.0497C75.8517 44.9006 76.0103 44.768 76.2163 44.652C76.4246 44.5336 76.7063 44.4744 77.0614 44.4744C77.5207 44.4744 77.9255 44.5893 78.2759 44.8189C78.6263 45.0485 78.8997 45.3741 79.0962 45.7955C79.2927 46.2169 79.391 46.714 79.391 47.2869C79.391 47.8646 79.2927 48.3653 79.0962 48.7891C78.8997 49.2105 78.6275 49.5372 78.2795 49.7692C77.9315 49.9988 77.5302 50.1136 77.0756 50.1136C76.7253 50.1136 76.4447 50.0556 76.234 49.9396C76.0233 49.8213 75.8612 49.6875 75.7475 49.5384C75.6339 49.3868 75.5463 49.2614 75.4847 49.1619H75.4137V52.0455H74.5756ZM75.3995 47.2727C75.3995 47.6847 75.4599 48.0481 75.5806 48.3629C75.7013 48.6754 75.8777 48.9205 76.1097 49.098C76.3417 49.2732 76.6258 49.3608 76.962 49.3608C77.3124 49.3608 77.6048 49.2685 77.8391 49.0838C78.0759 48.8968 78.2534 48.6458 78.3718 48.331C78.4925 48.0137 78.5529 47.661 78.5529 47.2727C78.5529 46.8892 78.4937 46.5436 78.3754 46.2358C78.2594 45.9257 78.083 45.6806 77.8462 45.5007C77.6119 45.3184 77.3171 45.2273 76.962 45.2273C76.6211 45.2273 76.3346 45.3137 76.1026 45.4865C75.8706 45.657 75.6954 45.8961 75.5771 46.2038C75.4587 46.5092 75.3995 46.8655 75.3995 47.2727ZM85.854 44.5455V45.2557H83.0273V44.5455H85.854ZM83.8512 43.2386H84.6893V48.4375C84.6893 48.6742 84.7236 48.8518 84.7923 48.9702C84.8633 49.0862 84.9532 49.1643 85.0621 49.2045C85.1734 49.2424 85.2906 49.2614 85.4137 49.2614C85.506 49.2614 85.5818 49.2566 85.641 49.2472C85.7002 49.2353 85.7475 49.2259 85.783 49.2188L85.9535 49.9716C85.8967 49.9929 85.8174 50.0142 85.7156 50.0355C85.6138 50.0592 85.4847 50.071 85.3285 50.071C85.0917 50.071 84.8597 50.0201 84.6325 49.9183C84.4076 49.8165 84.2205 49.6615 84.0714 49.4531C83.9246 49.2448 83.8512 48.982 83.8512 48.6648V43.2386ZM89.272 50.1136C88.7796 50.1136 88.3475 49.9964 87.9759 49.7621C87.6065 49.5277 87.3177 49.1998 87.1094 48.7784C86.9034 48.357 86.8004 47.8646 86.8004 47.3011C86.8004 46.733 86.9034 46.237 87.1094 45.8132C87.3177 45.3894 87.6065 45.0604 87.9759 44.826C88.3475 44.5916 88.7796 44.4744 89.272 44.4744C89.7644 44.4744 90.1953 44.5916 90.5646 44.826C90.9363 45.0604 91.2251 45.3894 91.4311 45.8132C91.6394 46.237 91.7436 46.733 91.7436 47.3011C91.7436 47.8646 91.6394 48.357 91.4311 48.7784C91.2251 49.1998 90.9363 49.5277 90.5646 49.7621C90.1953 49.9964 89.7644 50.1136 89.272 50.1136ZM89.272 49.3608C89.6461 49.3608 89.9538 49.2649 90.1953 49.0732C90.4368 48.8814 90.6155 48.6293 90.7315 48.3168C90.8475 48.0043 90.9055 47.6657 90.9055 47.3011C90.9055 46.9366 90.8475 46.5968 90.7315 46.282C90.6155 45.9671 90.4368 45.7126 90.1953 45.5185C89.9538 45.3243 89.6461 45.2273 89.272 45.2273C88.898 45.2273 88.5902 45.3243 88.3487 45.5185C88.1072 45.7126 87.9285 45.9671 87.8125 46.282C87.6965 46.5968 87.6385 46.9366 87.6385 47.3011C87.6385 47.6657 87.6965 48.0043 87.8125 48.3168C87.9285 48.6293 88.1072 48.8814 88.3487 49.0732C88.5902 49.2649 88.898 49.3608 89.272 49.3608ZM99.699 45.767L98.9462 45.9801C98.8989 45.8546 98.829 45.7327 98.7367 45.6143C98.6467 45.4936 98.5236 45.3942 98.3674 45.3161C98.2111 45.2379 98.0111 45.1989 97.7672 45.1989C97.4334 45.1989 97.1552 45.2758 96.9327 45.4297C96.7125 45.5812 96.6025 45.7741 96.6025 46.0085C96.6025 46.2169 96.6782 46.3814 96.8297 46.5021C96.9812 46.6229 97.218 46.7235 97.54 46.804L98.3496 47.0028C98.8373 47.1212 99.2007 47.3023 99.4398 47.5462C99.6789 47.7876 99.7985 48.099 99.7985 48.4801C99.7985 48.7926 99.7085 49.072 99.5286 49.3182C99.351 49.5644 99.1025 49.7585 98.7828 49.9006C98.4632 50.0426 98.0916 50.1136 97.6678 50.1136C97.1114 50.1136 96.651 49.9929 96.2864 49.7514C95.9218 49.5099 95.691 49.1572 95.5939 48.6932L96.3894 48.4943C96.4651 48.7879 96.6084 49.008 96.8191 49.1548C97.0321 49.3016 97.3103 49.375 97.6536 49.375C98.0442 49.375 98.3543 49.2921 98.584 49.1264C98.816 48.9583 98.932 48.7571 98.932 48.5227C98.932 48.3333 98.8657 48.1747 98.7331 48.0469C98.6006 47.9167 98.397 47.8196 98.1223 47.7557L97.2132 47.5426C96.7137 47.4242 96.3468 47.2408 96.1124 46.9922C95.8804 46.7412 95.7644 46.4276 95.7644 46.0511C95.7644 45.7434 95.8508 45.4711 96.0236 45.2344C96.1988 44.9976 96.4367 44.8118 96.7374 44.6768C97.0404 44.5419 97.3837 44.4744 97.7672 44.4744C98.307 44.4744 98.7308 44.5928 99.0385 44.8295C99.3487 45.0663 99.5688 45.3788 99.699 45.767ZM103.347 50.1136C102.821 50.1136 102.368 49.9976 101.987 49.7656C101.608 49.5312 101.316 49.2045 101.11 48.7855C100.906 48.3641 100.804 47.8741 100.804 47.3153C100.804 46.7566 100.906 46.2642 101.11 45.8381C101.316 45.4096 101.602 45.0758 101.969 44.8366C102.338 44.5952 102.769 44.4744 103.262 44.4744C103.546 44.4744 103.826 44.5218 104.103 44.6165C104.38 44.7112 104.632 44.8651 104.86 45.0781C105.087 45.2888 105.268 45.5682 105.403 45.9162C105.538 46.2642 105.605 46.6927 105.605 47.2017V47.5568H101.401V46.8324H104.753C104.753 46.5246 104.692 46.25 104.569 46.0085C104.448 45.767 104.275 45.5765 104.05 45.4368C103.828 45.2971 103.565 45.2273 103.262 45.2273C102.928 45.2273 102.639 45.3101 102.395 45.4759C102.154 45.6392 101.968 45.8523 101.838 46.1151C101.708 46.3778 101.642 46.6596 101.642 46.9602V47.4432C101.642 47.8551 101.713 48.2043 101.855 48.4908C102 48.7749 102.2 48.9915 102.456 49.1406C102.711 49.2874 103.008 49.3608 103.347 49.3608C103.567 49.3608 103.766 49.33 103.944 49.2685C104.123 49.2045 104.279 49.1098 104.409 48.9844C104.539 48.8565 104.64 48.6979 104.711 48.5085L105.52 48.7358C105.435 49.0104 105.292 49.2519 105.091 49.4602C104.889 49.6662 104.641 49.8272 104.345 49.9432C104.049 50.0568 103.716 50.1136 103.347 50.1136ZM109.167 50.1136C108.642 50.1136 108.188 49.9976 107.807 49.7656C107.428 49.5312 107.136 49.2045 106.93 48.7855C106.726 48.3641 106.625 47.8741 106.625 47.3153C106.625 46.7566 106.726 46.2642 106.93 45.8381C107.136 45.4096 107.422 45.0758 107.789 44.8366C108.159 44.5952 108.59 44.4744 109.082 44.4744C109.366 44.4744 109.647 44.5218 109.924 44.6165C110.201 44.7112 110.453 44.8651 110.68 45.0781C110.907 45.2888 111.088 45.5682 111.223 45.9162C111.358 46.2642 111.426 46.6927 111.426 47.2017V47.5568H107.221V46.8324H110.574C110.574 46.5246 110.512 46.25 110.389 46.0085C110.268 45.767 110.095 45.5765 109.87 45.4368C109.648 45.2971 109.385 45.2273 109.082 45.2273C108.748 45.2273 108.459 45.3101 108.216 45.4759C107.974 45.6392 107.788 45.8523 107.658 46.1151C107.528 46.3778 107.463 46.6596 107.463 46.9602V47.4432C107.463 47.8551 107.534 48.2043 107.676 48.4908C107.82 48.7749 108.02 48.9915 108.276 49.1406C108.532 49.2874 108.829 49.3608 109.167 49.3608C109.387 49.3608 109.586 49.33 109.764 49.2685C109.944 49.2045 110.099 49.1098 110.229 48.9844C110.359 48.8565 110.46 48.6979 110.531 48.5085L111.341 48.7358C111.255 49.0104 111.112 49.2519 110.911 49.4602C110.71 49.6662 110.461 49.8272 110.165 49.9432C109.869 50.0568 109.537 50.1136 109.167 50.1136ZM115.513 50V44.5455H116.323V45.3977H116.394C116.507 45.1065 116.691 44.8804 116.944 44.7195C117.198 44.5561 117.502 44.4744 117.857 44.4744C118.217 44.4744 118.516 44.5561 118.755 44.7195C118.997 44.8804 119.185 45.1065 119.32 45.3977H119.377C119.516 45.116 119.726 44.8923 120.005 44.7266C120.285 44.5585 120.62 44.4744 121.01 44.4744C121.498 44.4744 121.897 44.6271 122.207 44.9325C122.517 45.2356 122.672 45.7079 122.672 46.3494V50H121.834V46.3494C121.834 45.947 121.724 45.6593 121.504 45.4865C121.284 45.3137 121.025 45.2273 120.726 45.2273C120.343 45.2273 120.046 45.3433 119.835 45.5753C119.624 45.8049 119.519 46.0961 119.519 46.4489V50H118.667V46.2642C118.667 45.9541 118.566 45.7043 118.365 45.5149C118.163 45.3232 117.904 45.2273 117.587 45.2273C117.369 45.2273 117.166 45.2853 116.976 45.4013C116.789 45.5173 116.638 45.6783 116.522 45.8842C116.408 46.0878 116.351 46.3234 116.351 46.5909V50H115.513ZM126.42 50.1136C125.928 50.1136 125.496 49.9964 125.124 49.7621C124.755 49.5277 124.466 49.1998 124.258 48.7784C124.052 48.357 123.949 47.8646 123.949 47.3011C123.949 46.733 124.052 46.237 124.258 45.8132C124.466 45.3894 124.755 45.0604 125.124 44.826C125.496 44.5916 125.928 44.4744 126.42 44.4744C126.913 44.4744 127.344 44.5916 127.713 44.826C128.085 45.0604 128.374 45.3894 128.58 45.8132C128.788 46.237 128.892 46.733 128.892 47.3011C128.892 47.8646 128.788 48.357 128.58 48.7784C128.374 49.1998 128.085 49.5277 127.713 49.7621C127.344 49.9964 126.913 50.1136 126.42 50.1136ZM126.42 49.3608C126.795 49.3608 127.102 49.2649 127.344 49.0732C127.585 48.8814 127.764 48.6293 127.88 48.3168C127.996 48.0043 128.054 47.6657 128.054 47.3011C128.054 46.9366 127.996 46.5968 127.88 46.282C127.764 45.9671 127.585 45.7126 127.344 45.5185C127.102 45.3243 126.795 45.2273 126.42 45.2273C126.046 45.2273 125.739 45.3243 125.497 45.5185C125.256 45.7126 125.077 45.9671 124.961 46.282C124.845 46.5968 124.787 46.9366 124.787 47.3011C124.787 47.6657 124.845 48.0043 124.961 48.3168C125.077 48.6293 125.256 48.8814 125.497 49.0732C125.739 49.2649 126.046 49.3608 126.42 49.3608ZM130.171 50V44.5455H130.981V45.3693H131.038C131.137 45.0994 131.317 44.8804 131.578 44.7124C131.838 44.5443 132.132 44.4602 132.458 44.4602C132.52 44.4602 132.597 44.4614 132.689 44.4638C132.781 44.4661 132.851 44.4697 132.899 44.4744V45.3267C132.87 45.3196 132.805 45.3089 132.703 45.2947C132.604 45.2782 132.499 45.2699 132.387 45.2699C132.122 45.2699 131.885 45.3255 131.677 45.4368C131.471 45.5457 131.308 45.6972 131.187 45.8913C131.069 46.0831 131.009 46.3021 131.009 46.5483V50H130.171ZM136.013 50.1136C135.487 50.1136 135.034 49.9976 134.653 49.7656C134.274 49.5312 133.982 49.2045 133.776 48.7855C133.572 48.3641 133.47 47.8741 133.47 47.3153C133.47 46.7566 133.572 46.2642 133.776 45.8381C133.982 45.4096 134.268 45.0758 134.635 44.8366C135.004 44.5952 135.435 44.4744 135.928 44.4744C136.212 44.4744 136.492 44.5218 136.769 44.6165C137.046 44.7112 137.298 44.8651 137.526 45.0781C137.753 45.2888 137.934 45.5682 138.069 45.9162C138.204 46.2642 138.271 46.6927 138.271 47.2017V47.5568H134.067V46.8324H137.419C137.419 46.5246 137.358 46.25 137.235 46.0085C137.114 45.767 136.941 45.5765 136.716 45.4368C136.494 45.2971 136.231 45.2273 135.928 45.2273C135.594 45.2273 135.305 45.3101 135.061 45.4759C134.82 45.6392 134.634 45.8523 134.504 46.1151C134.374 46.3778 134.308 46.6596 134.308 46.9602V47.4432C134.308 47.8551 134.379 48.2043 134.521 48.4908C134.666 48.7749 134.866 48.9915 135.122 49.1406C135.377 49.2874 135.674 49.3608 136.013 49.3608C136.233 49.3608 136.432 49.33 136.61 49.2685C136.789 49.2045 136.945 49.1098 137.075 48.9844C137.205 48.8565 137.306 48.6979 137.377 48.5085L138.186 48.7358C138.101 49.0104 137.958 49.2519 137.757 49.4602C137.555 49.6662 137.307 49.8272 137.011 49.9432C136.715 50.0568 136.382 50.1136 136.013 50.1136Z" fill="black" fill-opacity="0.6"/>
</svg>
