<svg width="12" height="12" viewBox="0 0 12 12" fill="none" xmlns="http://www.w3.org/2000/svg">
<g clip-path="url(#clip0_101_4228)">
<rect width="12" height="12" rx="6" fill="white"/>
<path fill-rule="evenodd" clip-rule="evenodd" d="M0 0H7.2V5.6H0V0Z" fill="#1A47B8"/>
<path fill-rule="evenodd" clip-rule="evenodd" d="M7.2 0V0.8H16.8V0H7.2ZM7.2 1.6V2.4H16.8V1.6H7.2ZM7.2 3.2V4H16.8V3.2H7.2ZM7.2 4.8V5.6H16.8V4.8H7.2ZM0 6.4V7.2H16.8V6.4H0ZM0 8V8.8H16.8V8H0ZM0 9.6V10.4H16.8V9.6H0ZM0 11.2V12H16.8V11.2H0Z" fill="#F93939"/>
<path fill-rule="evenodd" clip-rule="evenodd" d="M0.8 0.799988V1.59999H1.6V0.799988H0.8ZM2.4 0.799988V1.59999H3.2V0.799988H2.4ZM4 0.799988V1.59999H4.8V0.799988H4ZM5.6 0.799988V1.59999H6.4V0.799988H5.6ZM4.8 1.59999V2.39999H5.6V1.59999H4.8ZM3.2 1.59999V2.39999H4V1.59999H3.2ZM1.6 1.59999V2.39999H2.4V1.59999H1.6ZM0.8 2.39999V3.19999H1.6V2.39999H0.8ZM2.4 2.39999V3.19999H3.2V2.39999H2.4ZM4 2.39999V3.19999H4.8V2.39999H4ZM5.6 2.39999V3.19999H6.4V2.39999H5.6ZM0.8 3.99999V4.79999H1.6V3.99999H0.8ZM2.4 3.99999V4.79999H3.2V3.99999H2.4ZM4 3.99999V4.79999H4.8V3.99999H4ZM5.6 3.99999V4.79999H6.4V3.99999H5.6ZM4.8 3.19999V3.99999H5.6V3.19999H4.8ZM3.2 3.19999V3.99999H4V3.19999H3.2ZM1.6 3.19999V3.99999H2.4V3.19999H1.6Z" fill="white"/>
</g>
<defs>
<clipPath id="clip0_101_4228">
<rect width="12" height="12" rx="6" fill="white"/>
</clipPath>
</defs>
</svg>
