<svg width="31" height="30" viewBox="0 0 31 30" fill="none" xmlns="http://www.w3.org/2000/svg">
<g clip-path="url(#clip0_1043_820)">
<path fill-rule="evenodd" clip-rule="evenodd" d="M8.75141 29.1708C8.66938 29.1708 8.59742 29.1773 8.53672 29.1912C8.47531 29.2048 8.42445 29.2263 8.38438 29.2535C8.34711 29.2784 8.31641 29.3121 8.29555 29.3522C8.27626 29.3936 8.26664 29.4389 8.26742 29.4846C8.26742 29.5697 8.29484 29.6381 8.34852 29.6885C8.40359 29.7387 8.4793 29.7635 8.5768 29.7635C8.65414 29.7642 8.73008 29.7436 8.79664 29.7042C8.86461 29.6632 8.93492 29.6018 9.00992 29.5191V29.1708H8.75141ZM17.123 28.4515C17.0459 28.4515 16.9805 28.4702 16.9269 28.5073C16.8727 28.5445 16.828 28.594 16.7963 28.6516C16.7616 28.715 16.7368 28.7833 16.723 28.8541C16.708 28.9301 16.7005 29.0073 16.7005 29.0848C16.7005 29.1668 16.7063 29.2477 16.7202 29.3278C16.7326 29.4068 16.7551 29.4769 16.7865 29.5383C16.8177 29.6002 16.8605 29.6498 16.9123 29.6866C16.9648 29.7237 17.0302 29.7424 17.1104 29.7424C17.1502 29.7424 17.1884 29.7363 17.2252 29.726C17.2662 29.7136 17.305 29.6951 17.3405 29.6712C17.3843 29.6418 17.4252 29.6084 17.4629 29.5716C17.5112 29.5242 17.5566 29.4736 17.5984 29.4202V28.7627C17.5163 28.6615 17.4371 28.5841 17.3609 28.5314C17.2919 28.4807 17.2087 28.4526 17.123 28.4515ZM20.1673 28.4445C20.0773 28.4445 20.0005 28.4604 19.936 28.4925C19.8724 28.523 19.8175 28.5689 19.7762 28.6261C19.7331 28.6886 19.7016 28.7583 19.6831 28.8319C19.662 28.917 19.6522 29.0044 19.6534 29.0918C19.6534 29.1825 19.6606 29.2664 19.6775 29.3454C19.6939 29.4251 19.7225 29.4947 19.7605 29.553C19.7994 29.6126 19.8512 29.6595 19.9166 29.6937C19.982 29.7284 20.0628 29.7462 20.1605 29.7462C20.2482 29.7462 20.3253 29.7298 20.3907 29.6984C20.4563 29.6662 20.5088 29.6222 20.5508 29.5648C20.5952 29.5035 20.6267 29.4338 20.6434 29.3599C20.6636 29.2743 20.6735 29.1866 20.6727 29.0986C20.6727 29.0095 20.6652 28.9256 20.6476 28.8466C20.6329 28.7728 20.6051 28.7021 20.5655 28.638C20.527 28.5785 20.4738 28.5297 20.4111 28.4965C20.3462 28.4623 20.2651 28.4445 20.1673 28.4445ZM18.6697 28.2183C18.6997 28.2183 18.7252 28.2192 18.7447 28.2213C18.7603 28.2234 18.7757 28.2273 18.7904 28.233C18.7998 28.2368 18.808 28.2427 18.8138 28.2504C18.8186 28.2577 18.8211 28.2663 18.8209 28.275V29.9201C18.8211 29.9287 18.8187 29.9371 18.8138 29.9442C18.8077 29.952 18.7996 29.9581 18.7904 29.9618C18.7756 29.9671 18.7603 29.9707 18.7447 29.9726C18.6955 29.9773 18.6458 29.9773 18.5963 29.9726C18.5804 29.9708 18.5648 29.9673 18.5497 29.962C18.5402 29.9588 18.532 29.9526 18.5263 29.9445C18.5218 29.9371 18.5193 29.9287 18.5192 29.9201V28.2748C18.5196 28.2662 18.522 28.2579 18.5263 28.2504C18.53 28.2438 18.538 28.238 18.5497 28.233C18.5648 28.2273 18.5805 28.2233 18.5966 28.2213C18.616 28.219 18.6404 28.2183 18.6697 28.2183ZM14.7631 28.2183C14.7922 28.2183 14.8166 28.2192 14.8358 28.2213C14.852 28.2216 14.868 28.2253 14.8827 28.2321C14.8923 28.2358 14.9009 28.2417 14.9077 28.2495C14.9128 28.257 14.9154 28.2659 14.9152 28.275V29.2322C14.9152 29.3287 14.9218 29.4056 14.9356 29.4635C14.9479 29.5164 14.9697 29.5665 14.9998 29.6116C15.028 29.6524 15.0643 29.6841 15.1081 29.7066C15.1522 29.7286 15.204 29.7405 15.2623 29.7405C15.3373 29.7405 15.4126 29.7143 15.4878 29.6604C15.5628 29.6067 15.642 29.528 15.7269 29.4241V28.2748C15.7268 28.2661 15.7288 28.2574 15.7327 28.2497C15.7391 28.2418 15.7476 28.2358 15.7571 28.2323C15.7719 28.2256 15.7878 28.2218 15.804 28.2211C15.8223 28.2195 15.8478 28.2185 15.878 28.2185C15.9073 28.2185 15.932 28.2192 15.9512 28.2213C15.9671 28.2214 15.9828 28.225 15.9971 28.2319C16.0065 28.2359 16.0147 28.242 16.0215 28.2495C16.0271 28.2567 16.0299 28.2658 16.0292 28.275V29.9201C16.0295 29.9285 16.0274 29.9368 16.0234 29.9442C16.0178 29.9522 16.01 29.9583 16.0009 29.9618C15.9872 29.9668 15.9731 29.9703 15.9587 29.9723C15.9141 29.9775 15.8691 29.9775 15.8246 29.9723C15.8101 29.9709 15.7959 29.9674 15.7824 29.962C15.7736 29.9586 15.766 29.9524 15.7609 29.9445C15.7571 29.9369 15.7555 29.9285 15.7562 29.9201V29.7021C15.6615 29.8059 15.5687 29.8807 15.4782 29.9287C15.3927 29.9747 15.2973 29.9992 15.2002 30C15.0908 30 14.9977 29.9812 14.923 29.9454C14.851 29.9115 14.7885 29.8602 14.7413 29.7961C14.6931 29.7306 14.6593 29.6557 14.642 29.5762C14.62 29.4767 14.6099 29.3749 14.612 29.273V28.275C14.612 28.2649 14.6136 28.2562 14.6183 28.2492C14.6245 28.2411 14.6331 28.235 14.6429 28.2319C14.6579 28.2251 14.674 28.2214 14.6905 28.2209C14.7102 28.2192 14.7336 28.2183 14.7631 28.2183ZM6.34133 28.2183C6.37086 28.2183 6.39523 28.2192 6.41469 28.2213C6.43089 28.2216 6.44686 28.2253 6.46156 28.2321C6.47094 28.2361 6.47891 28.242 6.4857 28.2495C6.49062 28.257 6.4932 28.2659 6.49273 28.275V29.2322C6.49273 29.3287 6.49953 29.4056 6.5143 29.4635C6.52766 29.5219 6.54922 29.5709 6.57758 29.6116C6.60688 29.6524 6.6432 29.6841 6.6868 29.7066C6.73086 29.7286 6.78172 29.7405 6.83984 29.7405C6.91602 29.7405 6.99125 29.7143 7.06648 29.6604C7.14055 29.6067 7.2207 29.528 7.30461 29.4241V28.2748C7.30461 28.2654 7.30648 28.2565 7.31117 28.2497C7.31742 28.2415 7.326 28.2355 7.33578 28.2323C7.35045 28.2254 7.36642 28.2215 7.38266 28.2211C7.40727 28.2187 7.43188 28.218 7.45672 28.2185C7.48508 28.2185 7.50922 28.2192 7.52914 28.2213C7.54495 28.2216 7.56053 28.2252 7.57484 28.2319C7.58424 28.2362 7.59281 28.2422 7.60016 28.2495C7.60518 28.257 7.60779 28.2659 7.60766 28.275V29.9201C7.60808 29.9286 7.60579 29.9371 7.60109 29.9442C7.59554 29.9522 7.58769 29.9583 7.57859 29.9618C7.56493 29.967 7.55069 29.9706 7.53617 29.9723C7.49164 29.9776 7.44664 29.9776 7.40211 29.9723C7.38767 29.9707 7.3735 29.9672 7.35992 29.962C7.34937 29.9569 7.34258 29.951 7.34 29.9445C7.33573 29.937 7.33354 29.9286 7.33367 29.9201V29.7021C7.24039 29.8059 7.14734 29.8807 7.0557 29.9287C6.97086 29.9749 6.87523 29.9993 6.77844 30C6.66852 30 6.57664 29.9812 6.50117 29.9454C6.42914 29.9112 6.36655 29.86 6.31883 29.7961C6.27143 29.7301 6.23764 29.6554 6.21945 29.5762C6.19797 29.4766 6.1879 29.3749 6.18945 29.273V28.275C6.18945 28.2649 6.19133 28.2562 6.19602 28.2492C6.20242 28.2413 6.21084 28.2353 6.22039 28.2319C6.23545 28.2251 6.2517 28.2214 6.2682 28.2209C6.28766 28.2192 6.31203 28.2185 6.34156 28.2185L6.34133 28.2183ZM4.0093 28.2183C4.03441 28.218 4.05952 28.2191 4.08453 28.2213C4.09996 28.2233 4.11508 28.2273 4.12953 28.233C4.13903 28.2365 4.14738 28.2425 4.15367 28.2504C4.15851 28.2577 4.16096 28.2663 4.1607 28.275V29.9201C4.16098 29.9287 4.15851 29.9371 4.15367 29.9442C4.14741 29.9522 4.13906 29.9583 4.12953 29.9618C4.115 29.9671 4.0999 29.9708 4.08453 29.9726C4.03531 29.9773 3.98563 29.9773 3.93641 29.9726C3.92044 29.9708 3.90471 29.9673 3.88953 29.962C3.88006 29.9588 3.87185 29.9526 3.86609 29.9445C3.86116 29.9373 3.85869 29.9287 3.85906 29.9201V28.2748C3.85906 28.2661 3.86141 28.2577 3.86609 28.2504C3.87192 28.2423 3.88011 28.2363 3.88953 28.233C3.90463 28.2273 3.92037 28.2233 3.93641 28.2213C3.95563 28.219 3.98047 28.2183 4.00953 28.2183H4.0093ZM20.1788 28.192C20.3148 28.192 20.4327 28.2122 20.5332 28.2525C20.6299 28.2897 20.716 28.35 20.784 28.4283C20.8515 28.5049 20.9009 28.598 20.9352 28.7081C20.9684 28.8176 20.9851 28.9413 20.9851 29.0789C20.9851 29.2125 20.9675 29.3362 20.9321 29.4487C20.9002 29.5559 20.8465 29.6552 20.7744 29.7405C20.7023 29.8237 20.6121 29.8891 20.5107 29.9318C20.4052 29.9775 20.2834 29.9998 20.1448 29.9998C20.0091 29.9998 19.8912 29.9794 19.7907 29.9395C19.694 29.9023 19.6079 29.8419 19.5399 29.7637C19.4702 29.6827 19.4189 29.5876 19.3895 29.4848C19.3549 29.3637 19.3381 29.2382 19.3398 29.1122C19.3398 28.9774 19.3573 28.8546 19.3925 28.7414C19.4238 28.6345 19.4774 28.5355 19.5498 28.4508C19.6211 28.3675 19.711 28.3023 19.8123 28.2602C19.9166 28.2145 20.0396 28.192 20.1793 28.192H20.1788ZM8.66047 28.192C8.77883 28.192 8.87937 28.2059 8.96211 28.233C9.04531 28.2593 9.11234 28.2984 9.1632 28.3512C9.21383 28.4027 9.25109 28.466 9.2743 28.5434C9.29773 28.6202 9.30945 28.71 9.30945 28.8124V29.9217C9.30945 29.9367 9.30477 29.9473 9.29492 29.9543C9.28297 29.9626 9.26938 29.9681 9.25508 29.9707C9.2302 29.9753 9.2049 29.9773 9.17961 29.9766C9.15417 29.9771 9.12873 29.9751 9.10367 29.9707C9.08886 29.9687 9.07477 29.9631 9.06266 29.9543C9.05398 29.9473 9.05023 29.9367 9.05023 29.9217V29.757C8.98165 29.8314 8.89978 29.8923 8.80883 29.9367C8.72159 29.9786 8.626 30.0003 8.52922 30C8.44227 30 8.36445 29.9892 8.29391 29.9658C8.22836 29.9458 8.16759 29.9126 8.11531 29.8683C8.06532 29.8255 8.02599 29.7717 8.00047 29.711C7.97214 29.6441 7.95809 29.572 7.95922 29.4994C7.95922 29.407 7.97774 29.3259 8.01594 29.2584C8.05438 29.1886 8.11016 29.13 8.17766 29.0878C8.25769 29.039 8.34567 29.0047 8.43758 28.9863C8.55113 28.9629 8.66687 28.9517 8.78281 28.953H9.01016V28.8253C9.01016 28.7618 9.00313 28.7051 8.98953 28.6566C8.97787 28.6117 8.95579 28.5702 8.92508 28.5354C8.89285 28.502 8.85305 28.477 8.80906 28.4623C8.75229 28.444 8.69289 28.4354 8.63328 28.4367C8.55945 28.4367 8.49195 28.4468 8.43359 28.4644C8.38007 28.4797 8.32787 28.4993 8.2775 28.523C8.23344 28.5431 8.19617 28.5628 8.16594 28.5802C8.13688 28.5989 8.11438 28.6076 8.09984 28.6076C8.09071 28.6076 8.08179 28.6048 8.0743 28.5996C8.06616 28.5942 8.05948 28.5869 8.05484 28.5783C8.04837 28.5666 8.04438 28.5536 8.04312 28.5403C8.0402 28.5238 8.03887 28.507 8.03914 28.4902C8.03914 28.4604 8.04102 28.4358 8.04617 28.4184C8.05145 28.3991 8.06181 28.3816 8.07617 28.3676C8.09281 28.3519 8.12094 28.3334 8.16102 28.312C8.20227 28.2905 8.24773 28.271 8.30094 28.2534C8.35691 28.235 8.41407 28.2203 8.47203 28.2096C8.53416 28.1979 8.59725 28.192 8.66047 28.192ZM5.14719 28.192C5.19102 28.192 5.23508 28.1958 5.27867 28.2037C5.32273 28.2105 5.36164 28.2202 5.39797 28.2309C5.45038 28.2453 5.49987 28.2687 5.54422 28.3001C5.5543 28.3071 5.56344 28.3158 5.5707 28.3259C5.57472 28.3339 5.57763 28.3424 5.57938 28.3512C5.58172 28.3598 5.58336 28.3706 5.58523 28.384C5.58758 28.4187 5.58758 28.4534 5.58523 28.4878C5.58406 28.5006 5.58074 28.5131 5.57539 28.5248C5.57164 28.5345 5.56672 28.5422 5.55969 28.5462C5.55401 28.5503 5.54726 28.5528 5.54023 28.5532C5.52852 28.5532 5.51305 28.5462 5.49289 28.5326C5.46742 28.5161 5.4407 28.5017 5.41297 28.4895C5.37515 28.4725 5.33624 28.4582 5.29648 28.4466C5.24673 28.4324 5.19516 28.4256 5.14344 28.4264C5.09784 28.4257 5.05237 28.4315 5.00844 28.4437C4.97318 28.4536 4.94037 28.4706 4.91211 28.4939C4.8877 28.514 4.86829 28.5395 4.85539 28.5684C4.8427 28.5987 4.8364 28.6313 4.83687 28.6641C4.83687 28.7109 4.84859 28.751 4.8732 28.7834C4.89734 28.8164 4.92945 28.8448 4.96859 28.8689C5.0068 28.8923 5.05156 28.9148 5.10125 28.9345L5.25453 28.995C5.30609 29.0154 5.35695 29.0388 5.40758 29.0644C5.45844 29.0897 5.50344 29.1211 5.54258 29.1567C5.58148 29.1942 5.61242 29.2378 5.63586 29.2887C5.6593 29.3402 5.67219 29.4012 5.67219 29.4722C5.67219 29.5561 5.65648 29.6313 5.62531 29.6965C5.59453 29.7616 5.54913 29.8187 5.49266 29.8634C5.43162 29.9102 5.36204 29.9446 5.28781 29.9648C5.20278 29.9891 5.11468 30.001 5.02625 30C4.96883 30 4.91211 29.9951 4.85938 29.9862C4.81106 29.9785 4.76347 29.9669 4.71711 29.9512C4.68005 29.9398 4.64405 29.9251 4.60953 29.9074C4.58667 29.8967 4.56538 29.8829 4.54625 29.8664C4.5315 29.8528 4.52121 29.8351 4.51672 29.8155C4.50656 29.7668 4.50458 29.7166 4.51086 29.6672C4.51298 29.6542 4.51636 29.6414 4.52094 29.629C4.52364 29.6207 4.52868 29.6134 4.53547 29.6079C4.54255 29.6039 4.55054 29.6018 4.55867 29.6018C4.5725 29.6018 4.59195 29.6095 4.61867 29.6264C4.64445 29.6428 4.6768 29.6604 4.715 29.6801C4.75297 29.6995 4.79867 29.718 4.85141 29.7347C4.90344 29.7502 4.96391 29.7588 5.03188 29.7588C5.08273 29.7588 5.12937 29.7532 5.17062 29.7424C5.2093 29.733 5.24609 29.7166 5.27867 29.6934C5.30864 29.6729 5.33284 29.6451 5.34898 29.6126C5.36611 29.5759 5.37445 29.5358 5.37336 29.4954C5.37463 29.4537 5.36238 29.4126 5.33844 29.3784C5.31199 29.3451 5.27986 29.3167 5.24352 29.2945C5.20178 29.2689 5.15786 29.247 5.11227 29.2291C5.06201 29.2099 5.01185 29.1903 4.9618 29.1705C4.90993 29.1492 4.8591 29.1254 4.80945 29.0993C4.76114 29.0741 4.71677 29.0419 4.67773 29.0039C4.638 28.9652 4.60588 28.9194 4.58305 28.8689C4.55837 28.8094 4.54647 28.7453 4.54813 28.6809C4.54664 28.6166 4.55924 28.5527 4.58502 28.4937C4.61081 28.4347 4.64917 28.3821 4.69742 28.3395C4.74758 28.2954 4.80992 28.2595 4.88492 28.233C4.9693 28.2042 5.05805 28.1904 5.14719 28.192ZM13.5941 27.7772C13.6241 27.7772 13.6494 27.7795 13.6691 27.7812C13.6848 27.7831 13.7002 27.7871 13.715 27.7929C13.7244 27.7971 13.7323 27.8039 13.7384 27.8123C13.7434 27.8192 13.746 27.8274 13.7459 27.8358V28.2272H14.1678C14.1771 28.227 14.1862 28.2294 14.1941 28.2342C14.2021 28.2394 14.2085 28.2467 14.2126 28.2553C14.2191 28.2674 14.2231 28.2807 14.2243 28.2945C14.2273 28.3109 14.228 28.3305 14.228 28.353C14.228 28.3969 14.2222 28.429 14.2116 28.4487C14.2009 28.4681 14.1859 28.4777 14.1678 28.4777H13.7459V29.3951C13.7459 29.5085 13.7626 29.5943 13.7961 29.6515C13.8301 29.7091 13.8896 29.7384 13.9766 29.7384C14.004 29.7384 14.0288 29.7354 14.0516 29.7307C14.071 29.7255 14.0902 29.7196 14.1092 29.7131C14.1241 29.7083 14.1387 29.7025 14.1528 29.6958C14.1632 29.6908 14.1746 29.688 14.1861 29.6878C14.192 29.6878 14.1978 29.689 14.2034 29.6918C14.2097 29.6958 14.2143 29.702 14.2163 29.7091C14.225 29.7382 14.229 29.7685 14.228 29.7989C14.228 29.8341 14.2262 29.8622 14.221 29.8828C14.2179 29.8999 14.2102 29.9157 14.1988 29.9287C14.1858 29.9404 14.1709 29.9497 14.1547 29.9562C14.1333 29.9653 14.1112 29.9724 14.0886 29.9775C14.0621 29.9827 14.0354 29.9873 14.0087 29.9913C13.9808 29.9944 13.9528 29.996 13.9248 29.996C13.8501 29.9978 13.7758 29.9867 13.7049 29.9632C13.6472 29.9425 13.5958 29.9071 13.5559 29.8605C13.5143 29.81 13.4852 29.7505 13.4708 29.6866C13.4519 29.6054 13.4431 29.5223 13.4443 29.4389V28.478H13.2146C13.1959 28.478 13.1811 28.4681 13.1703 28.4487C13.1586 28.429 13.1539 28.3969 13.1539 28.3528C13.1539 28.3305 13.1548 28.3109 13.1579 28.2945C13.1608 28.2811 13.165 28.2681 13.1703 28.2555C13.1741 28.2465 13.1807 28.239 13.1891 28.234C13.197 28.2292 13.2061 28.2267 13.2153 28.227H13.4448V27.8358C13.4448 27.8271 13.4464 27.8191 13.4504 27.8126C13.4565 27.8038 13.4649 27.7969 13.4748 27.7927C13.4896 27.7867 13.5051 27.7828 13.5209 27.7809C13.5451 27.7786 13.5695 27.7772 13.5941 27.7772ZM1.62688 27.589C1.66086 27.589 1.68734 27.5899 1.70797 27.592C1.72384 27.5933 1.73949 27.5964 1.75461 27.6014C1.7643 27.6057 1.7727 27.6125 1.77898 27.6211C1.78529 27.6306 1.79048 27.6408 1.79445 27.6516L2.47273 29.6421H2.47484L3.13414 27.6553C3.13712 27.6438 3.14128 27.6327 3.14656 27.622C3.15265 27.6126 3.16173 27.6055 3.17234 27.6019C3.18909 27.5965 3.20639 27.5932 3.22391 27.5918C3.2832 27.5871 3.34273 27.588 3.40156 27.5939C3.42313 27.597 3.43766 27.6026 3.44539 27.6115C3.4543 27.6204 3.45711 27.6321 3.45547 27.6485C3.45195 27.671 3.44609 27.693 3.43789 27.7141L2.66703 29.9102C2.66281 29.9227 2.65585 29.9341 2.64664 29.9435C2.63634 29.9531 2.62388 29.9601 2.61031 29.9639C2.59123 29.9694 2.57156 29.9727 2.55172 29.9737C2.52255 29.9758 2.49331 29.9767 2.46406 29.9766C2.43641 29.9766 2.4132 29.9756 2.39281 29.9756C2.36291 29.9748 2.33319 29.9707 2.30422 29.9632C2.29447 29.961 2.28534 29.9567 2.2775 29.9505C2.27029 29.9465 2.26424 29.9407 2.25992 29.9337C2.2547 29.926 2.25074 29.9175 2.2482 29.9086L1.47477 27.712C1.46655 27.6911 1.46126 27.6691 1.45906 27.6466C1.45906 27.6302 1.46422 27.6185 1.47453 27.6096C1.49082 27.5996 1.50936 27.5939 1.52844 27.593C1.55188 27.5906 1.58492 27.589 1.62688 27.589ZM12.2844 27.5655C12.3889 27.566 12.4927 27.5831 12.5916 27.6162C12.6385 27.6309 12.6807 27.6485 12.7177 27.667C12.7541 27.6858 12.7782 27.7012 12.7904 27.713C12.799 27.721 12.8064 27.7302 12.8127 27.7402C12.8169 27.7481 12.8199 27.7566 12.8211 27.7657C12.8243 27.7781 12.8262 27.7909 12.827 27.8037C12.8279 27.8184 12.8288 27.8367 12.8288 27.8604C12.8288 27.8817 12.8279 27.9012 12.826 27.9178C12.8245 27.9325 12.822 27.9471 12.8185 27.9614C12.8155 27.9712 12.81 27.98 12.8026 27.987C12.7958 27.992 12.7876 27.9947 12.7791 27.9947C12.7667 27.9947 12.7449 27.9862 12.7168 27.9696C12.6823 27.9492 12.6471 27.9299 12.6113 27.9117C12.564 27.8878 12.5147 27.8682 12.4639 27.8531C12.4018 27.8349 12.3374 27.8261 12.2727 27.8271C12.2077 27.8271 12.1498 27.8358 12.1013 27.8536C12.0569 27.8683 12.016 27.8921 11.9813 27.9234C11.9496 27.9522 11.9251 27.988 11.9098 28.028C11.8939 28.0687 11.8856 28.112 11.8855 28.1557C11.8855 28.2213 11.9009 28.2787 11.9314 28.3256C11.9614 28.3734 12.0024 28.4156 12.0533 28.4515C12.1041 28.4885 12.1616 28.5216 12.226 28.553C12.2905 28.5832 12.3559 28.6134 12.4234 28.6446C12.4902 28.6758 12.5558 28.7102 12.6202 28.747C12.6856 28.7843 12.743 28.8281 12.793 28.879C12.8441 28.9305 12.8858 28.9908 12.9158 29.0571C12.9472 29.1267 12.9627 29.2076 12.9627 29.3013C12.9627 29.4124 12.942 29.5111 12.901 29.598C12.8612 29.683 12.8033 29.7582 12.7313 29.8184C12.6557 29.8803 12.5684 29.9266 12.4747 29.9543C12.3719 29.9854 12.265 30.0008 12.1576 30C12.0786 30 12.0052 29.993 11.938 29.9794C11.8763 29.9681 11.8156 29.9517 11.7566 29.9304C11.7108 29.9142 11.6665 29.8941 11.6241 29.8704C11.5968 29.8564 11.5714 29.8386 11.5489 29.8177C11.5339 29.802 11.5231 29.7828 11.5175 29.7619C11.51 29.7322 11.5067 29.7016 11.5077 29.6709C11.5077 29.6437 11.5088 29.6222 11.5109 29.6048C11.513 29.5897 11.5168 29.5749 11.5224 29.5608C11.5258 29.5517 11.5318 29.5439 11.5398 29.5383C11.548 29.5343 11.5571 29.5324 11.5662 29.5327C11.5831 29.5327 11.6075 29.5423 11.6389 29.5629C11.6687 29.5842 11.7088 29.6067 11.7577 29.6313C11.8063 29.6555 11.8651 29.678 11.9342 29.6993C12.0116 29.7223 12.0924 29.7328 12.1733 29.7316C12.2366 29.7319 12.2991 29.7227 12.3596 29.7042C12.4128 29.6875 12.4624 29.6611 12.5059 29.6262C12.5469 29.5931 12.5785 29.5521 12.6008 29.5024C12.6235 29.45 12.6347 29.3934 12.6338 29.3362C12.6354 29.2759 12.6194 29.2164 12.5879 29.1649C12.5559 29.1159 12.5149 29.0735 12.467 29.04C12.4134 29.0017 12.3561 28.9687 12.2961 28.9416L12.1002 28.8497C12.033 28.8186 11.9675 28.7841 11.904 28.7463C11.8417 28.7094 11.7845 28.6644 11.7341 28.6125C11.6833 28.5602 11.6421 28.4994 11.6122 28.433C11.5799 28.3544 11.5643 28.2699 11.5662 28.185C11.5662 28.0866 11.5838 27.9987 11.6202 27.9209C11.656 27.8435 11.7059 27.7793 11.7695 27.7266C11.8373 27.672 11.9152 27.6312 11.9987 27.6066C12.0914 27.5786 12.1875 27.5648 12.2844 27.5655ZM18.6713 27.54C18.7416 27.54 18.7904 27.5517 18.8169 27.5775C18.8431 27.6026 18.856 27.6497 18.856 27.7186C18.856 27.7901 18.8424 27.8379 18.8162 27.863C18.7885 27.8895 18.7398 27.9023 18.6676 27.9023C18.5977 27.9023 18.5487 27.8895 18.5223 27.8641C18.4958 27.8398 18.4834 27.792 18.4834 27.7226C18.4834 27.6525 18.4967 27.6037 18.5232 27.5782C18.5506 27.5529 18.5994 27.54 18.6713 27.54ZM4.01164 27.54C4.08148 27.54 4.13047 27.5517 4.15695 27.5775C4.18227 27.6026 4.19563 27.6497 4.19563 27.7186C4.19563 27.7901 4.18227 27.8379 4.15578 27.863C4.12859 27.8895 4.07891 27.9023 4.00766 27.9023C3.93617 27.9023 3.88859 27.8895 3.86234 27.8641C3.83586 27.8398 3.8232 27.792 3.8232 27.7226C3.8232 27.6525 3.83586 27.6037 3.86305 27.5782C3.88953 27.5529 3.93945 27.54 4.01164 27.54ZM17.7474 27.427C17.7777 27.427 17.8032 27.428 17.8224 27.431C17.8421 27.4338 17.8576 27.4376 17.8686 27.4416C17.8782 27.4454 17.8866 27.4519 17.8927 27.4603C17.8984 27.4675 17.9017 27.4764 17.9019 27.4856V29.9201C17.9016 29.9289 17.8992 29.9375 17.8948 29.9452C17.8895 29.9529 17.882 29.959 17.8733 29.9627C17.8596 29.9673 17.8456 29.9707 17.8313 29.9728C17.7895 29.9781 17.7473 29.9781 17.7055 29.9728C17.6912 29.9706 17.677 29.9672 17.6633 29.9627C17.6542 29.9589 17.6463 29.9529 17.6403 29.9452C17.6353 29.9377 17.6325 29.929 17.6323 29.9201V29.7021C17.555 29.7893 17.4638 29.8636 17.3628 29.922C17.2705 29.9735 17.1683 30 17.0567 30C16.937 30 16.8331 29.9766 16.7483 29.9297C16.6643 29.8845 16.5928 29.8191 16.5404 29.7394C16.4852 29.6534 16.4459 29.5582 16.4246 29.4584C16.3998 29.3462 16.3876 29.2315 16.3883 29.1166C16.3883 28.9755 16.4028 28.8485 16.4333 28.7346C16.4642 28.6202 16.5092 28.5237 16.569 28.4428C16.6267 28.3637 16.703 28.2999 16.7912 28.2572C16.8867 28.2123 16.9913 28.1901 17.0968 28.192C17.1889 28.1911 17.2799 28.2128 17.3616 28.2553C17.4498 28.3043 17.5297 28.3669 17.5984 28.4407V27.4856C17.5984 27.4767 17.6002 27.468 17.604 27.4601C17.61 27.4514 17.6186 27.4449 17.6286 27.4416C17.667 27.4298 17.7071 27.4247 17.7474 27.427ZM10.092 27.4193C10.1225 27.4193 10.1471 27.4202 10.1663 27.423C10.1821 27.4243 10.1975 27.428 10.212 27.4341C10.2218 27.4376 10.2302 27.444 10.2364 27.4523C10.2415 27.4599 10.2439 27.469 10.2434 27.4781V29.9201C10.2437 29.9287 10.2412 29.9371 10.2364 29.9442C10.2298 29.952 10.2215 29.958 10.212 29.9618C10.1973 29.9673 10.1819 29.9709 10.1663 29.9726C10.1171 29.9773 10.0679 29.9773 10.0189 29.9726C10.0029 29.9708 9.98721 29.9673 9.97203 29.962C9.96244 29.9585 9.954 29.9524 9.94766 29.9445C9.94355 29.937 9.94152 29.9286 9.9418 29.9201V27.4777C9.9418 27.469 9.94367 27.4601 9.94766 27.4523C9.95364 27.4438 9.96217 27.4373 9.97203 27.4338C9.9871 27.4281 10.0029 27.4245 10.0189 27.423C10.0432 27.4201 10.0676 27.4188 10.092 27.4193ZM26.8967 28.4515C26.8194 28.4515 26.7542 28.4702 26.7005 28.5073C26.6464 28.5445 26.6016 28.594 26.57 28.6516C26.5353 28.715 26.5106 28.7833 26.4966 28.8541C26.4819 28.9301 26.4744 29.0074 26.4744 29.0848C26.4744 29.1668 26.48 29.2477 26.4938 29.3278C26.5062 29.4068 26.528 29.4769 26.5599 29.5383C26.5911 29.6002 26.6333 29.6498 26.6858 29.6866C26.7385 29.7237 26.8039 29.7424 26.8831 29.7424C26.9241 29.7424 26.9621 29.7363 26.9994 29.726C27.0397 29.7131 27.0784 29.6948 27.1135 29.6712C27.1524 29.6459 27.1932 29.6126 27.2363 29.5716C27.2792 29.5305 27.324 29.4799 27.372 29.4202V28.7627C27.29 28.6615 27.2108 28.5841 27.1346 28.5314C27.0655 28.481 26.9825 28.4532 26.897 28.4517L26.8967 28.4515ZM24.9502 28.4445C24.8602 28.4445 24.7834 28.4604 24.7191 28.4925C24.6555 28.523 24.6005 28.5689 24.5591 28.6261C24.5156 28.6883 24.4842 28.7581 24.4662 28.8319C24.4452 28.917 24.4351 29.0044 24.436 29.0918C24.436 29.1825 24.4438 29.2664 24.4604 29.3454C24.477 29.4251 24.5052 29.4947 24.5431 29.553C24.5825 29.6126 24.6341 29.6595 24.6995 29.6937C24.7651 29.7284 24.8457 29.7462 24.9425 29.7462C25.0313 29.7462 25.1082 29.7298 25.1736 29.6986C25.2369 29.6677 25.2918 29.6219 25.3334 29.565C25.3756 29.5083 25.4061 29.4398 25.4265 29.3599C25.4466 29.2744 25.4565 29.1865 25.4558 29.0986C25.456 29.0139 25.4473 28.9295 25.43 28.8466C25.4153 28.7728 25.3876 28.7022 25.3482 28.638C25.3097 28.5783 25.2564 28.5295 25.1935 28.4965C25.1288 28.4623 25.0468 28.4445 24.9502 28.4445ZM28.8015 28.428C28.7337 28.4271 28.6665 28.4415 28.6051 28.4702C28.5507 28.4969 28.5026 28.5348 28.4637 28.5813C28.4245 28.6295 28.3943 28.6843 28.3747 28.7433C28.3541 28.8057 28.3424 28.8707 28.34 28.9364H29.2374C29.2414 28.7782 29.2062 28.6535 29.132 28.5637C29.0581 28.473 28.9477 28.428 28.8015 28.428ZM28.817 28.192C28.9468 28.192 29.056 28.2136 29.1467 28.2546C29.2332 28.2928 29.3101 28.3502 29.3717 28.4222C29.4296 28.4916 29.4725 28.5745 29.4999 28.6683C29.5276 28.7667 29.5414 28.8684 29.5409 28.9706V29.0264C29.5409 29.073 29.5292 29.1073 29.5048 29.1274C29.4822 29.1467 29.4534 29.1571 29.4237 29.157H28.34C28.34 29.2486 28.3496 29.3304 28.3681 29.4037C28.3859 29.4771 28.4169 29.5404 28.4598 29.5922C28.5029 29.6445 28.5584 29.6848 28.6266 29.7129C28.6951 29.7415 28.779 29.7551 28.8784 29.7551C29.0037 29.7554 29.1281 29.7343 29.2463 29.6927C29.2913 29.677 29.3284 29.6623 29.3565 29.6498C29.377 29.6395 29.3992 29.6332 29.4221 29.6311C29.4308 29.6311 29.4385 29.6332 29.4455 29.637C29.4523 29.6421 29.4576 29.6489 29.461 29.6566C29.4646 29.668 29.4672 29.6797 29.4687 29.6916C29.4725 29.7239 29.4727 29.7567 29.4697 29.7891C29.4686 29.7996 29.4669 29.8101 29.4645 29.8205C29.4612 29.8377 29.4524 29.8534 29.4395 29.8652C29.4214 29.8792 29.4013 29.8905 29.3799 29.8985C29.3387 29.9172 29.2958 29.9323 29.252 29.9435C29.1921 29.9594 29.1316 29.9724 29.0705 29.9824C28.9976 29.9944 28.9239 30.0003 28.85 30C28.7143 30 28.5964 29.9812 28.4949 29.9437C28.3972 29.9085 28.309 29.8509 28.2373 29.7757C28.165 29.695 28.1114 29.5992 28.0803 29.4954C28.0452 29.3829 28.0276 29.2537 28.0276 29.1042C28.0276 28.9627 28.0463 28.8361 28.0822 28.7236C28.115 28.6181 28.1689 28.5202 28.2402 28.4358C28.3091 28.3579 28.3944 28.2962 28.49 28.2553C28.5935 28.212 28.7048 28.1904 28.817 28.192ZM24.962 28.192C25.0979 28.192 25.2155 28.2122 25.3159 28.2525C25.4124 28.29 25.4987 28.3502 25.5666 28.4283C25.6344 28.5049 25.6838 28.598 25.7183 28.7081C25.7511 28.8176 25.768 28.9413 25.768 29.0791C25.768 29.2127 25.7504 29.3362 25.7155 29.4487C25.6835 29.556 25.6295 29.6553 25.557 29.7405C25.4851 29.8237 25.3949 29.8891 25.2936 29.9318C25.1881 29.9775 25.0662 29.9998 24.928 29.9998C24.792 29.9998 24.6741 29.9796 24.5738 29.9395C24.4771 29.9023 24.391 29.842 24.323 29.7637C24.2533 29.6827 24.202 29.5876 24.1726 29.4848C24.1378 29.3637 24.121 29.2382 24.1227 29.1122C24.1227 28.9774 24.1402 28.8546 24.1756 28.7414C24.2069 28.6345 24.2604 28.5355 24.3327 28.4508C24.4041 28.3677 24.494 28.3024 24.5952 28.2602C24.6995 28.2145 24.8216 28.1923 24.9622 28.1923L24.962 28.192ZM23.1481 27.5714C23.2163 27.5714 23.2829 27.5773 23.3471 27.5902C23.4127 27.6026 23.472 27.6192 23.5269 27.6387C23.5812 27.6584 23.63 27.6809 23.6729 27.7062C23.716 27.7312 23.7455 27.7526 23.762 27.7695C23.7739 27.7805 23.7844 27.793 23.7931 27.8067C23.7991 27.8159 23.8033 27.8262 23.8055 27.837C23.8168 27.8895 23.8188 27.9436 23.8116 27.9968C23.81 28.0115 23.8064 28.0259 23.8009 28.0397C23.7975 28.0496 23.7915 28.0585 23.7835 28.0652C23.7767 28.0712 23.7679 28.0743 23.7589 28.0739C23.7413 28.0739 23.7179 28.0622 23.6865 28.038C23.6489 28.0096 23.6095 27.9835 23.5686 27.96C23.5127 27.9273 23.4536 27.9007 23.3921 27.8805C23.3116 27.8555 23.2275 27.8437 23.1432 27.8454C23.0377 27.8454 22.9421 27.866 22.8554 27.908C22.7678 27.9513 22.6919 28.0149 22.6339 28.0936C22.5687 28.184 22.5205 28.2855 22.4916 28.3931C22.4562 28.5244 22.439 28.66 22.4405 28.796C22.4405 28.9453 22.4574 29.078 22.4895 29.1933C22.5228 29.3081 22.5685 29.4047 22.6292 29.482C22.6906 29.5589 22.7647 29.6175 22.8526 29.6576C22.9414 29.6965 23.0408 29.7169 23.1519 29.7169C23.2468 29.7169 23.3286 29.7052 23.3989 29.682C23.4615 29.6623 23.522 29.6365 23.5794 29.6046C23.6213 29.5812 23.6616 29.5549 23.7012 29.5268C23.7334 29.5034 23.7589 29.4916 23.7762 29.4916C23.7842 29.4914 23.7921 29.4934 23.799 29.4975C23.8055 29.5027 23.8107 29.5099 23.8133 29.5179C23.818 29.532 23.8208 29.5462 23.8224 29.5608C23.8234 29.5795 23.8241 29.603 23.8241 29.6309C23.8241 29.6508 23.8241 29.6672 23.8234 29.682C23.8218 29.6947 23.8195 29.7074 23.8163 29.7199C23.814 29.7302 23.81 29.7401 23.8046 29.7492C23.7976 29.7607 23.7892 29.7711 23.7795 29.7804C23.7556 29.8014 23.7297 29.8201 23.7022 29.8362C23.6562 29.8651 23.6075 29.8896 23.5569 29.9093C23.4925 29.9355 23.4258 29.9558 23.3577 29.9698C23.2769 29.9867 23.1945 29.9949 23.112 29.9941C22.9698 29.9962 22.8285 29.9704 22.6962 29.918C22.5744 29.8681 22.4661 29.7902 22.3801 29.6906C22.2924 29.591 22.2261 29.4684 22.179 29.321C22.1316 29.1745 22.1091 29.0046 22.1091 28.8136C22.1091 28.6174 22.1333 28.4428 22.1841 28.2895C22.2289 28.1468 22.3012 28.0142 22.397 27.8993C22.4865 27.7941 22.5989 27.7106 22.7255 27.6553C22.8589 27.5978 23.0029 27.5692 23.1481 27.5714ZM27.5216 27.427C27.5465 27.4265 27.5715 27.4279 27.5963 27.431C27.6119 27.4331 27.6272 27.4367 27.642 27.4418C27.6516 27.4457 27.6599 27.452 27.6664 27.4601C27.6721 27.4675 27.6753 27.4765 27.6753 27.4859V29.9201C27.675 29.9289 27.6727 29.9374 27.6685 29.9452C27.6629 29.9531 27.6551 29.9593 27.646 29.9627C27.6327 29.9675 27.619 29.9708 27.605 29.9728C27.5633 29.9781 27.5211 29.9781 27.4794 29.9728C27.4651 29.9706 27.451 29.9672 27.4372 29.9627C27.428 29.959 27.4199 29.9529 27.4137 29.9452C27.4088 29.9377 27.4062 29.929 27.4062 29.9201V29.7021C27.3284 29.789 27.2375 29.8632 27.1367 29.922C27.043 29.9739 26.9375 30.0008 26.8304 30C26.7104 30 26.607 29.9766 26.522 29.9297C26.4381 29.8844 26.3667 29.819 26.3143 29.7394C26.2589 29.6535 26.2195 29.5583 26.198 29.4584C26.1734 29.3461 26.1614 29.2315 26.1622 29.1166C26.1622 28.9755 26.1767 28.8485 26.207 28.7346C26.2384 28.6202 26.2831 28.5237 26.3427 28.4428C26.4005 28.3636 26.4767 28.2998 26.5651 28.2572C26.6606 28.2124 26.765 28.1901 26.8705 28.192C26.967 28.192 27.0547 28.2136 27.1346 28.2553C27.2231 28.3042 27.3032 28.3669 27.372 28.4409V27.4856C27.372 27.4768 27.374 27.4681 27.3777 27.4601C27.3814 27.4521 27.3903 27.4465 27.4023 27.4418C27.4176 27.437 27.4333 27.4334 27.4491 27.431C27.4686 27.428 27.492 27.427 27.5216 27.427Z" fill="#0877B9"/>
<mask id="mask0_1043_820" style="mask-type:alpha" maskUnits="userSpaceOnUse" x="2" y="0" width="27" height="26">
<path fill-rule="evenodd" clip-rule="evenodd" d="M20.7934 25.1398C21.1918 25.2949 21.6465 25.2851 22.0489 25.0915L27.2605 22.5837C27.5289 22.4545 27.7553 22.2521 27.9138 21.9999C28.0723 21.7477 28.1563 21.4558 28.1563 21.158V4.15452C28.1563 3.85665 28.0722 3.56483 27.9137 3.31262C27.7553 3.06041 27.5288 2.85805 27.2605 2.72882L22.0489 0.221003C21.7544 0.0793812 21.4233 0.0327863 21.1011 0.0876669C20.779 0.142548 20.482 0.29619 20.251 0.527332L10.2741 9.62928L5.92883 6.33046C5.73277 6.1816 5.49078 6.1061 5.24486 6.11706C4.99894 6.12802 4.76462 6.22475 4.58258 6.39046L3.18875 7.65842C3.08021 7.75722 2.99348 7.87758 2.93409 8.0118C2.87471 8.14602 2.84398 8.29116 2.84387 8.43793C2.84376 8.5847 2.87427 8.72989 2.93345 8.8642C2.99263 8.99851 3.07919 9.11899 3.18758 9.21796L6.95633 12.6562L3.18758 16.0945C3.07915 16.1935 2.99256 16.314 2.93336 16.4483C2.87415 16.5826 2.84363 16.7279 2.84374 16.8747C2.84385 17.0215 2.87459 17.1666 2.934 17.3009C2.99341 17.4351 3.08017 17.5555 3.18875 17.6543L4.58258 18.9223C4.76463 19.0879 4.99892 19.1845 5.24478 19.1954C5.49065 19.2064 5.73258 19.1308 5.9286 18.982L10.2741 15.6832L20.2508 24.7851C20.4051 24.9397 20.5899 25.0604 20.7934 25.1398ZM21.8319 6.91007L14.262 12.6562L21.8319 18.4024V6.91007Z" fill="white"/>
</mask>
<g mask="url(#mask0_1043_820)">
<path d="M28.3639 2.84287L22.8055 0.166447C22.4916 0.0153334 22.1385 -0.0344699 21.795 0.0239292C21.4516 0.0823284 21.1347 0.246042 20.8884 0.492413L2.69224 17.083C2.57662 17.1884 2.48428 17.3168 2.42114 17.46C2.35799 17.6032 2.32544 17.7579 2.32556 17.9144C2.32568 18.0709 2.35846 18.2256 2.42182 18.3687C2.48518 18.5118 2.57771 18.64 2.69349 18.7453L4.1797 20.0966C4.37392 20.2732 4.62382 20.3763 4.88607 20.3879C5.14831 20.3995 5.40636 20.319 5.61545 20.1603L27.5277 3.53727C28.2628 2.9795 29.3186 3.50379 29.3186 4.42649V4.36205C29.3186 4.04464 29.229 3.73367 29.0601 3.46492C28.8912 3.19617 28.6499 2.98055 28.3639 2.84287Z" fill="#0065A9"/>
<g filter="url(#filter0_d_1043_820)">
<path d="M28.3639 23.9945L22.8055 26.6706C22.4916 26.8218 22.1385 26.8716 21.7951 26.8133C21.4516 26.7549 21.1348 26.5913 20.8884 26.3449L2.69224 9.75435C2.57662 9.64893 2.48428 9.52052 2.42114 9.37735C2.35799 9.23418 2.32544 9.0794 2.32556 8.92293C2.32568 8.76645 2.35846 8.61172 2.42182 8.46865C2.48518 8.32557 2.57771 8.1973 2.69349 8.09205L4.1797 6.74072C4.37392 6.56413 4.62382 6.46107 4.88607 6.44944C5.14831 6.4378 5.40636 6.51832 5.61545 6.67703L27.5277 23.3001C28.2628 23.8578 29.3186 23.3335 29.3186 22.4108V22.4753C29.3186 22.7927 29.229 23.1037 29.0601 23.3724C28.8912 23.6412 28.6499 23.8568 28.3639 23.9945Z" fill="#007ACC"/>
</g>
<g filter="url(#filter1_d_1043_820)">
<path d="M22.8058 26.6711C22.4918 26.8222 22.1386 26.872 21.7951 26.8135C21.4516 26.7551 21.1348 26.5913 20.8884 26.3449C21.5104 26.9671 22.5745 26.5265 22.5745 25.6465V1.19079C22.5745 0.310809 21.5104 -0.129808 20.8884 0.492401C21.1348 0.24599 21.4516 0.0822164 21.7951 0.0237305C22.1386 -0.0347554 22.4917 0.014937 22.8058 0.165935L28.3632 2.83861C28.6493 2.97621 28.8908 3.19182 29.0599 3.46063C29.2289 3.72943 29.3186 4.04051 29.3186 4.35804V22.4793C29.3186 22.7968 29.2289 23.1079 29.0599 23.3767C28.8908 23.6455 28.6493 23.8611 28.3632 23.9987L22.8058 26.6711Z" fill="#1F9CF0"/>
</g>
<path opacity="0.25" fill-rule="evenodd" clip-rule="evenodd" d="M21.4554 26.7226C21.67 26.8063 21.8996 26.845 22.1298 26.8362C22.36 26.8274 22.5859 26.7713 22.7935 26.6714L28.3474 23.9987C28.6334 23.861 28.8748 23.6453 29.0437 23.3765C29.2125 23.1077 29.3021 22.7967 29.3021 22.4793V4.35803C29.3022 4.04057 29.2126 3.72954 29.0437 3.46074C28.8748 3.19193 28.6335 2.97628 28.3474 2.8386L22.7935 0.165923C22.4797 0.0149331 22.1266 -0.0347561 21.7833 0.0237336C21.44 0.0822233 21.1233 0.245999 20.8772 0.492389L10.2447 10.1927L5.61345 6.67701C5.40451 6.51837 5.1466 6.4379 4.88452 6.44958C4.62243 6.46127 4.37271 6.56435 4.1787 6.74096L2.69324 8.09228C2.57757 8.19757 2.48513 8.32584 2.42184 8.46889C2.35855 8.61193 2.3258 8.76661 2.32569 8.92303C2.32557 9.07945 2.35809 9.23418 2.42116 9.37732C2.48423 9.52046 2.57648 9.64887 2.69199 9.75434L6.7085 13.4186L2.69199 17.083C2.57644 17.1884 2.48416 17.3169 2.42106 17.46C2.35796 17.6032 2.32543 17.7579 2.32555 17.9144C2.32567 18.0708 2.35843 18.2255 2.42174 18.3686C2.48506 18.5117 2.57753 18.64 2.69324 18.7453L4.1787 20.0966C4.37272 20.2731 4.62241 20.3761 4.88444 20.3877C5.14647 20.3994 5.40431 20.3189 5.6132 20.1603L10.2447 16.6446L20.8772 26.3449C21.0415 26.5096 21.2386 26.6382 21.4554 26.7226ZM22.562 7.29448L14.4947 13.4186L22.5625 19.5426V7.29472L22.562 7.29448Z" fill="url(#paint0_linear_1043_820)"/>
</g>
</g>
<defs>
<filter id="filter0_d_1043_820" x="0.243868" y="4.36664" width="31.1564" height="24.5521" filterUnits="userSpaceOnUse" color-interpolation-filters="sRGB">
<feFlood flood-opacity="0" result="BackgroundImageFix"/>
<feColorMatrix in="SourceAlpha" type="matrix" values="0 0 0 0 0 0 0 0 0 0 0 0 0 0 0 0 0 0 127 0" result="hardAlpha"/>
<feOffset/>
<feGaussianBlur stdDeviation="1.04084"/>
<feColorMatrix type="matrix" values="0 0 0 0 0 0 0 0 0 0 0 0 0 0 0 0 0 0 0.25 0"/>
<feBlend mode="overlay" in2="BackgroundImageFix" result="effect1_dropShadow_1043_820"/>
<feBlend mode="normal" in="SourceGraphic" in2="effect1_dropShadow_1043_820" result="shape"/>
</filter>
<filter id="filter1_d_1043_820" x="18.8067" y="-2.08181" width="12.5935" height="31.0008" filterUnits="userSpaceOnUse" color-interpolation-filters="sRGB">
<feFlood flood-opacity="0" result="BackgroundImageFix"/>
<feColorMatrix in="SourceAlpha" type="matrix" values="0 0 0 0 0 0 0 0 0 0 0 0 0 0 0 0 0 0 127 0" result="hardAlpha"/>
<feOffset/>
<feGaussianBlur stdDeviation="1.04084"/>
<feColorMatrix type="matrix" values="0 0 0 0 0 0 0 0 0 0 0 0 0 0 0 0 0 0 0.25 0"/>
<feBlend mode="overlay" in2="BackgroundImageFix" result="effect1_dropShadow_1043_820"/>
<feBlend mode="normal" in="SourceGraphic" in2="effect1_dropShadow_1043_820" result="shape"/>
</filter>
<linearGradient id="paint0_linear_1043_820" x1="15.8138" y1="-0.00018275" x2="15.8138" y2="26.8375" gradientUnits="userSpaceOnUse">
<stop stop-color="white"/>
<stop offset="1" stop-color="white" stop-opacity="0"/>
</linearGradient>
<clipPath id="clip0_1043_820">
<rect width="30" height="30" fill="white" transform="translate(0.5)"/>
</clipPath>
</defs>
</svg>
