<svg width="17" height="17" viewBox="0 0 17 17" fill="none" xmlns="http://www.w3.org/2000/svg">
<path d="M5.83334 15.1667H11.1667C13.8467 15.1667 14.3267 14.0933 14.4667 12.7867L14.9667 7.45333C15.1467 5.82667 14.68 4.5 11.8333 4.5H5.16667C2.32 4.5 1.85333 5.82667 2.03333 7.45333L2.53333 12.7867C2.67333 14.0933 3.15333 15.1667 5.83334 15.1667Z" stroke="#D9D9D9" stroke-width="1.5" stroke-miterlimit="10" stroke-linecap="round" stroke-linejoin="round"/>
<path d="M5.83333 4.50001V3.96668C5.83333 2.78668 5.83333 1.83334 7.96667 1.83334H9.03333C11.1667 1.83334 11.1667 2.78668 11.1667 3.96668V4.50001" stroke="#D9D9D9" stroke-width="1.5" stroke-miterlimit="10" stroke-linecap="round" stroke-linejoin="round"/>
<path d="M9.83333 9.16667V9.83333C9.83333 9.84 9.83333 9.84 9.83333 9.84667C9.83333 10.5733 9.82667 11.1667 8.5 11.1667C7.18 11.1667 7.16667 10.58 7.16667 9.85333V9.16667C7.16667 8.5 7.16667 8.5 7.83333 8.5H9.16667C9.83333 8.5 9.83333 8.5 9.83333 9.16667Z" stroke="#D9D9D9" stroke-width="1.5" stroke-miterlimit="10" stroke-linecap="round" stroke-linejoin="round"/>
<path d="M14.9333 7.83334C13.3933 8.95334 11.6333 9.62001 9.83333 9.84668" stroke="#D9D9D9" stroke-width="1.5" stroke-miterlimit="10" stroke-linecap="round" stroke-linejoin="round"/>
<path d="M2.24667 8.01334C3.74667 9.04 5.44 9.66 7.16667 9.85334" stroke="#D9D9D9" stroke-width="1.5" stroke-miterlimit="10" stroke-linecap="round" stroke-linejoin="round"/>
</svg>
